<svg xmlns="http://www.w3.org/2000/svg" viewBox="0 0 500 500"><path d="M272.82,206c-5,3.78-10.06,7.47-15,11.37-47.09,37.47-87.74,81.18-124.94,128.32-7.43,9.43-16.77,17.35-25.23,26l-1.41-.72q-2.13-50-4.24-100c-1.24-29.89,8.59-55.94,27.9-78.49s40.82-43.13,67.61-57c24.53-12.7,50.8-20.69,77.74-26.25a166.37,166.37,0,0,1,31.2-3.11c28.17-.41,56.36-.14,84.54-.14H397a19,19,0,0,1-1.5,3.44c-10.39,14.18-14,30.78-16.18,47.62a236.65,236.65,0,0,0-2,36.86c.76,26.9-7.45,50.86-22.49,72.61-29,41.95-65.15,76.63-108.87,103-23.41,14.1-49.21,21.78-76.58,23.54-13.42.86-26.85,1.36-40.28,2-1.6.08-3.2,0-6.37,0,3.85-5.85,6.93-10.65,10.13-15.37,4.29-6.32,8.77-12.51,13-18.88,5.4-8.18,10.05-16.91,16-24.64,25.9-33.65,51.27-67.87,85.51-93.91a70.76,70.76,0,0,0,20.09-24.41c1.91-3.69,3.93-7.32,5.9-11Z"/></svg>