<svg xmlns="http://www.w3.org/2000/svg" viewBox="0 0 500 500"><path d="M112,341.38c-1.67-10.12-3.76-20.19-4.9-30.37-1.44-12.86-2.62-25.8-3-38.73s-.81-25.82,1.24-38.35a119.5,119.5,0,0,1,11-34.36C141,151.08,180.08,116.9,227.12,91.42c16.12-8.73,33.48-15.19,50.36-22.49,5.81-2.51,7.79-1.2,9.61,4.82,7.68,25.25,10.76,51.22,8.34,77.31-1.72,18.58-6.17,37-10.5,55.23-5.18,21.82-11.59,43.4-22.06,63.38C250.1,294,233.43,315.52,210.64,331.1c-9.67,6.61-21.42,10.4-32.55,14.6-7.83,3-16.16,4.77-24.38,6.51A98.18,98.18,0,0,1,137,354c-4.91.18-7.07-2.94-5.14-7.34,6.79-15.43,13.59-30.86,20.76-46.11,7.56-16.1,15.85-31.85,23.25-48s15.77-32,26.14-46.71c7.44-10.54,14.25-21.53,21.32-32.33A10.36,10.36,0,0,0,224,172c-9.53,8.62-19.94,16.55-28.45,26.16s-15.05,21.06-22.69,31.53c-15.16,20.77-26.21,43.85-37.77,66.63-6.9,13.59-13,27.57-19.53,41.37-.67,1.42-1.48,2.76-2.22,4.14Z"/><path d="M177.42,394c8.06-1.34,15.48-3.52,22.94-3.66,25.83-.48,51.67-.19,77.51-.35a226.57,226.57,0,0,0,22.92-1.46L292.48,387c-9.73-1.71-19.44-3.56-29.2-5.09-10.28-1.6-20.57-3.71-30.91-4.12-17.94-.71-35.92-.26-53.89-.37a39.62,39.62,0,0,1-5.56-.8l-.58-2a15.19,15.19,0,0,0,1.84-.71c18.34-9.67,37-18.87,57.19-23.78,12.61-3.07,25.79-3.83,38.74-5.49,4.61-.59,9.27-.84,13.92-1.16,20.9-1.45,40.88,3.1,60.39,9.9,7.41,2.58,14.43,6.31,21.51,9.76,8.94,4.34,17.64,9.18,26.68,13.27,3.7,1.67,4.28,3.64,2.06,6.28-7.68,9.16-15.3,18.39-23.49,27.08-15.5,16.43-35.68,21.57-57.34,22.08-16.83.4-33.69.58-50.51,0-19.31-.69-37.79-5.83-55.79-12.68-4.65-1.77-9.31-3.56-13.78-5.71C186.08,409.79,181,403.73,177.42,394Z"/></svg>