{
    "asset" : {
        "generator" : "Khronos glTF Blender I/O v1.6.16",
        "version" : "2.0"
    },
    "scene" : 0,
    "scenes" : [
        {
            "name" : "Scene",
            "nodes" : [
                0,
                1
            ]
        }
    ],
    "nodes" : [
        {
            "mesh" : 0,
            "name" : "Alfwin",
            "rotation" : [
                -0.09450317919254303,
                -0.7763661742210388,
                -0.6114972829818726,
                0.11998265981674194
            ],
            "scale" : [
                0.03652425482869148,
                0.03652425855398178,
                0.03652425855398178
            ],
            "translation" : [
                -31.492801666259766,
                0.11140067875385284,
                37.16679382324219
            ]
        },
        {
            "mesh" : 1,
            "name" : "Box",
            "rotation" : [
                0,
                0.1285017877817154,
                0,
                0.991709291934967
            ],
            "scale" : [
                0.2767013609409332,
                0.9149556756019592,
                0.2767013609409332
            ],
            "translation" : [
                -31.517274856567383,
                0.9956908226013184,
                37.077659606933594
            ]
        }
    ],
    "materials" : [
        {
            "doubleSided" : true,
            "name" : "BodyMat.002",
            "pbrMetallicRoughness" : {
                "baseColorTexture" : {
                    "index" : 0
                },
                "metallicFactor" : 0,
                "roughnessFactor" : 0.5
            }
        },
        {
            "doubleSided" : true,
            "name" : "Hat",
            "pbrMetallicRoughness" : {
                "baseColorFactor" : [
                    0.00046247808495536447,
                    0,
                    0.8000000715255737,
                    1
                ],
                "metallicFactor" : 0,
                "roughnessFactor" : 0.8999999761581421
            }
        }
    ],
    "meshes" : [
        {
            "name" : "Body.001",
            "primitives" : [
                {
                    "attributes" : {
                        "POSITION" : 0,
                        "NORMAL" : 1,
                        "TEXCOORD_0" : 2
                    },
                    "indices" : 3,
                    "material" : 0
                },
                {
                    "attributes" : {
                        "POSITION" : 4,
                        "NORMAL" : 5,
                        "TEXCOORD_0" : 6
                    },
                    "indices" : 7,
                    "material" : 1
                }
            ]
        },
        {
            "name" : "Cube.009",
            "primitives" : [
                {
                    "attributes" : {
                        "POSITION" : 8,
                        "NORMAL" : 9,
                        "TEXCOORD_0" : 10
                    },
                    "indices" : 11
                }
            ]
        }
    ],
    "textures" : [
        {
            "sampler" : 0,
            "source" : 0
        }
    ],
    "images" : [
        {
            "bufferView" : 4,
            "mimeType" : "image/jpeg",
            "name" : "BaseHuman_tex_color"
        }
    ],
    "accessors" : [
        {
            "bufferView" : 0,
            "componentType" : 5126,
            "count" : 4402,
            "max" : [
                6.999002456665039,
                10.481481552124023,
                43.75550079345703
            ],
            "min" : [
                -6.978897571563721,
                -6.523618221282959,
                0.07615356892347336
            ],
            "type" : "VEC3"
        },
        {
            "bufferView" : 1,
            "componentType" : 5126,
            "count" : 4402,
            "type" : "VEC3"
        },
        {
            "bufferView" : 2,
            "componentType" : 5126,
            "count" : 4402,
            "type" : "VEC2"
        },
        {
            "bufferView" : 3,
            "componentType" : 5123,
            "count" : 6618,
            "type" : "SCALAR"
        },
        {
            "bufferView" : 5,
            "componentType" : 5126,
            "count" : 64,
            "max" : [
                3.151120185852051,
                13.644368171691895,
                44.917423248291016
            ],
            "min" : [
                -3.151120185852051,
                5.356298446655273,
                38.99456024169922
            ],
            "type" : "VEC3"
        },
        {
            "bufferView" : 6,
            "componentType" : 5126,
            "count" : 64,
            "type" : "VEC3"
        },
        {
            "bufferView" : 7,
            "componentType" : 5126,
            "count" : 64,
            "type" : "VEC2"
        },
        {
            "bufferView" : 8,
            "componentType" : 5123,
            "count" : 90,
            "type" : "SCALAR"
        },
        {
            "bufferView" : 9,
            "componentType" : 5126,
            "count" : 24,
            "max" : [
                1,
                1,
                1
            ],
            "min" : [
                -1,
                -1,
                -1
            ],
            "type" : "VEC3"
        },
        {
            "bufferView" : 10,
            "componentType" : 5126,
            "count" : 24,
            "type" : "VEC3"
        },
        {
            "bufferView" : 11,
            "componentType" : 5126,
            "count" : 24,
            "type" : "VEC2"
        },
        {
            "bufferView" : 12,
            "componentType" : 5123,
            "count" : 36,
            "type" : "SCALAR"
        }
    ],
    "bufferViews" : [
        {
            "buffer" : 0,
            "byteLength" : 52824,
            "byteOffset" : 0
        },
        {
            "buffer" : 0,
            "byteLength" : 52824,
            "byteOffset" : 52824
        },
        {
            "buffer" : 0,
            "byteLength" : 35216,
            "byteOffset" : 105648
        },
        {
            "buffer" : 0,
            "byteLength" : 13236,
            "byteOffset" : 140864
        },
        {
            "buffer" : 0,
            "byteLength" : 28800,
            "byteOffset" : 154100
        },
        {
            "buffer" : 0,
            "byteLength" : 768,
            "byteOffset" : 182900
        },
        {
            "buffer" : 0,
            "byteLength" : 768,
            "byteOffset" : 183668
        },
        {
            "buffer" : 0,
            "byteLength" : 512,
            "byteOffset" : 184436
        },
        {
            "buffer" : 0,
            "byteLength" : 180,
            "byteOffset" : 184948
        },
        {
            "buffer" : 0,
            "byteLength" : 288,
            "byteOffset" : 185128
        },
        {
            "buffer" : 0,
            "byteLength" : 288,
            "byteOffset" : 185416
        },
        {
            "buffer" : 0,
            "byteLength" : 192,
            "byteOffset" : 185704
        },
        {
            "buffer" : 0,
            "byteLength" : 72,
            "byteOffset" : 185896
        }
    ],
    "samplers" : [
        {
            "magFilter" : 9729,
            "minFilter" : 9987
        }
    ],
    "buffers" : [
        {
            "byteLength" : 185968,
            "uri" : "data:application/octet-stream;base64,"
        }
    ]
}
