{
    "asset" : {
        "generator" : "Khronos glTF Blender I/O v1.6.16",
        "version" : "2.0"
    },
    "scene" : 0,
    "scenes" : [
        {
            "name" : "Scene",
            "nodes" : [
                0,
                1,
                2,
                3,
                4,
                5,
                6,
                7,
                8
            ]
        }
    ],
    "nodes" : [
        {
            "name" : "Light",
            "rotation" : [
                0.16907575726509094,
                0.7558803558349609,
                -0.27217137813568115,
                0.570947527885437
            ],
            "translation" : [
                4.076245307922363,
                5.903861999511719,
                -1.0054539442062378
            ]
        },
        {
            "name" : "Camera",
            "rotation" : [
                0.483536034822464,
                0.33687159419059753,
                -0.20870360732078552,
                0.7804827094078064
            ],
            "translation" : [
                7.358891487121582,
                4.958309173583984,
                6.925790786743164
            ]
        },
        {
            "mesh" : 0,
            "name" : "Tree1.001",
            "scale" : [
                1.3955026865005493,
                1.95683753490448,
                1.3955026865005493
            ],
            "translation" : [
                -4.764987468719482,
                5.220678329467773,
                0
            ]
        },
        {
            "mesh" : 1,
            "name" : "Tree2.001",
            "scale" : [
                0.17378376424312592,
                1.6333390474319458,
                0.17378376424312592
            ],
            "translation" : [
                0,
                3.371962308883667,
                2.0243802070617676
            ]
        },
        {
            "mesh" : 2,
            "name" : "Tree3.001",
            "scale" : [
                0.15638671815395355,
                0.8656606078147888,
                0.15638671815395355
            ],
            "translation" : [
                -1.0727975368499756,
                5.601603984832764,
                -5.986721515655518
            ]
        },
        {
            "mesh" : 3,
            "name" : "Tree1.002",
            "rotation" : [
                0,
                0.4664061963558197,
                0,
                0.8845706582069397
            ],
            "scale" : [
                1.7985886335372925,
                3.2662322521209717,
                1.7985886335372925
            ],
            "translation" : [
                1.6955387592315674,
                8.578483581542969,
                -1.9993045330047607
            ]
        },
        {
            "mesh" : 4,
            "name" : "Tree1.003",
            "rotation" : [
                0,
                -0.3332245647907257,
                0,
                0.942847490310669
            ],
            "scale" : [
                1.3955026865005493,
                2.534229278564453,
                1.3955026865005493
            ],
            "translation" : [
                5.8404388427734375,
                6.781111240386963,
                4.144899368286133
            ]
        },
        {
            "mesh" : 5,
            "name" : "Tree2.002",
            "rotation" : [
                0,
                -0.6215117573738098,
                0,
                0.7834048271179199
            ],
            "scale" : [
                0.2263176590204239,
                2.1270885467529297,
                0.2263176590204239
            ],
            "translation" : [
                4.486244201660156,
                4.444759845733643,
                -5.729020118713379
            ]
        },
        {
            "mesh" : 6,
            "name" : "Tree3.002",
            "rotation" : [
                0,
                0.7707664370536804,
                0,
                0.637117862701416
            ],
            "scale" : [
                0.15638671815395355,
                1.1923331022262573,
                0.15638671815395355
            ],
            "translation" : [
                -4.583771705627441,
                7.795962333679199,
                3.8635106086730957
            ]
        }
    ],
    "materials" : [
        {
            "doubleSided" : true,
            "name" : "Birch_Mat",
            "pbrMetallicRoughness" : {
                "baseColorTexture" : {
                    "index" : 0
                },
                "metallicFactor" : 0,
                "roughnessFactor" : 0.5
            }
        }
    ],
    "meshes" : [
        {
            "name" : "Icosphere.005",
            "primitives" : [
                {
                    "attributes" : {
                        "POSITION" : 0,
                        "NORMAL" : 1,
                        "TEXCOORD_0" : 2
                    },
                    "indices" : 3,
                    "material" : 0
                }
            ]
        },
        {
            "name" : "Cylinder.005",
            "primitives" : [
                {
                    "attributes" : {
                        "POSITION" : 4,
                        "NORMAL" : 5,
                        "TEXCOORD_0" : 6
                    },
                    "indices" : 7,
                    "material" : 0
                }
            ]
        },
        {
            "name" : "Cylinder.006",
            "primitives" : [
                {
                    "attributes" : {
                        "POSITION" : 8,
                        "NORMAL" : 9,
                        "TEXCOORD_0" : 10
                    },
                    "indices" : 11,
                    "material" : 0
                }
            ]
        },
        {
            "name" : "Icosphere.006",
            "primitives" : [
                {
                    "attributes" : {
                        "POSITION" : 12,
                        "NORMAL" : 13,
                        "TEXCOORD_0" : 14
                    },
                    "indices" : 3,
                    "material" : 0
                }
            ]
        },
        {
            "name" : "Icosphere.007",
            "primitives" : [
                {
                    "attributes" : {
                        "POSITION" : 15,
                        "NORMAL" : 16,
                        "TEXCOORD_0" : 17
                    },
                    "indices" : 3,
                    "material" : 0
                }
            ]
        },
        {
            "name" : "Cylinder.007",
            "primitives" : [
                {
                    "attributes" : {
                        "POSITION" : 18,
                        "NORMAL" : 19,
                        "TEXCOORD_0" : 20
                    },
                    "indices" : 7,
                    "material" : 0
                }
            ]
        },
        {
            "name" : "Cylinder.008",
            "primitives" : [
                {
                    "attributes" : {
                        "POSITION" : 21,
                        "NORMAL" : 22,
                        "TEXCOORD_0" : 23
                    },
                    "indices" : 11,
                    "material" : 0
                }
            ]
        }
    ],
    "textures" : [
        {
            "sampler" : 0,
            "source" : 0
        }
    ],
    "images" : [
        {
            "bufferView" : 4,
            "mimeType" : "image/jpeg",
            "name" : "Birch_Tex"
        }
    ],
    "accessors" : [
        {
            "bufferView" : 0,
            "componentType" : 5126,
            "count" : 312,
            "max" : [
                0.9572654366493225,
                1,
                1.0806922912597656
            ],
            "min" : [
                -1.0932190418243408,
                -2.7143611907958984,
                -1.168818712234497
            ],
            "type" : "VEC3"
        },
        {
            "bufferView" : 1,
            "componentType" : 5126,
            "count" : 312,
            "type" : "VEC3"
        },
        {
            "bufferView" : 2,
            "componentType" : 5126,
            "count" : 312,
            "type" : "VEC2"
        },
        {
            "bufferView" : 3,
            "componentType" : 5123,
            "count" : 372,
            "type" : "SCALAR"
        },
        {
            "bufferView" : 5,
            "componentType" : 5126,
            "count" : 960,
            "max" : [
                7.339559078216553,
                3.081691026687622,
                11.969078063964844
            ],
            "min" : [
                -8.033554077148438,
                -2.153698444366455,
                -4.131121635437012
            ],
            "type" : "VEC3"
        },
        {
            "bufferView" : 6,
            "componentType" : 5126,
            "count" : 960,
            "type" : "VEC3"
        },
        {
            "bufferView" : 7,
            "componentType" : 5126,
            "count" : 960,
            "type" : "VEC2"
        },
        {
            "bufferView" : 8,
            "componentType" : 5123,
            "count" : 1248,
            "type" : "SCALAR"
        },
        {
            "bufferView" : 9,
            "componentType" : 5126,
            "count" : 768,
            "max" : [
                12.215410232543945,
                6.106619358062744,
                17.78570556640625
            ],
            "min" : [
                -14.009095191955566,
                -6.670986175537109,
                -7.5918869972229
            ],
            "type" : "VEC3"
        },
        {
            "bufferView" : 10,
            "componentType" : 5126,
            "count" : 768,
            "type" : "VEC3"
        },
        {
            "bufferView" : 11,
            "componentType" : 5126,
            "count" : 768,
            "type" : "VEC2"
        },
        {
            "bufferView" : 12,
            "componentType" : 5123,
            "count" : 960,
            "type" : "SCALAR"
        },
        {
            "bufferView" : 13,
            "componentType" : 5126,
            "count" : 312,
            "max" : [
                0.9572654366493225,
                1,
                1.0806922912597656
            ],
            "min" : [
                -1.0932190418243408,
                -2.7143611907958984,
                -1.168818712234497
            ],
            "type" : "VEC3"
        },
        {
            "bufferView" : 14,
            "componentType" : 5126,
            "count" : 312,
            "type" : "VEC3"
        },
        {
            "bufferView" : 15,
            "componentType" : 5126,
            "count" : 312,
            "type" : "VEC2"
        },
        {
            "bufferView" : 16,
            "componentType" : 5126,
            "count" : 312,
            "max" : [
                0.9572654366493225,
                1,
                1.0806922912597656
            ],
            "min" : [
                -1.0932190418243408,
                -2.7143611907958984,
                -1.168818712234497
            ],
            "type" : "VEC3"
        },
        {
            "bufferView" : 17,
            "componentType" : 5126,
            "count" : 312,
            "type" : "VEC3"
        },
        {
            "bufferView" : 18,
            "componentType" : 5126,
            "count" : 312,
            "type" : "VEC2"
        },
        {
            "bufferView" : 19,
            "componentType" : 5126,
            "count" : 960,
            "max" : [
                7.339559078216553,
                3.081691026687622,
                11.969078063964844
            ],
            "min" : [
                -8.033554077148438,
                -2.153698444366455,
                -4.131121635437012
            ],
            "type" : "VEC3"
        },
        {
            "bufferView" : 20,
            "componentType" : 5126,
            "count" : 960,
            "type" : "VEC3"
        },
        {
            "bufferView" : 21,
            "componentType" : 5126,
            "count" : 960,
            "type" : "VEC2"
        },
        {
            "bufferView" : 22,
            "componentType" : 5126,
            "count" : 768,
            "max" : [
                12.215410232543945,
                6.106619358062744,
                17.78570556640625
            ],
            "min" : [
                -14.009095191955566,
                -6.670986175537109,
                -7.5918869972229
            ],
            "type" : "VEC3"
        },
        {
            "bufferView" : 23,
            "componentType" : 5126,
            "count" : 768,
            "type" : "VEC3"
        },
        {
            "bufferView" : 24,
            "componentType" : 5126,
            "count" : 768,
            "type" : "VEC2"
        }
    ],
    "bufferViews" : [
        {
            "buffer" : 0,
            "byteLength" : 3744,
            "byteOffset" : 0
        },
        {
            "buffer" : 0,
            "byteLength" : 3744,
            "byteOffset" : 3744
        },
        {
            "buffer" : 0,
            "byteLength" : 2496,
            "byteOffset" : 7488
        },
        {
            "buffer" : 0,
            "byteLength" : 744,
            "byteOffset" : 9984
        },
        {
            "buffer" : 0,
            "byteLength" : 10757,
            "byteOffset" : 10728
        },
        {
            "buffer" : 0,
            "byteLength" : 11520,
            "byteOffset" : 21488
        },
        {
            "buffer" : 0,
            "byteLength" : 11520,
            "byteOffset" : 33008
        },
        {
            "buffer" : 0,
            "byteLength" : 7680,
            "byteOffset" : 44528
        },
        {
            "buffer" : 0,
            "byteLength" : 2496,
            "byteOffset" : 52208
        },
        {
            "buffer" : 0,
            "byteLength" : 9216,
            "byteOffset" : 54704
        },
        {
            "buffer" : 0,
            "byteLength" : 9216,
            "byteOffset" : 63920
        },
        {
            "buffer" : 0,
            "byteLength" : 6144,
            "byteOffset" : 73136
        },
        {
            "buffer" : 0,
            "byteLength" : 1920,
            "byteOffset" : 79280
        },
        {
            "buffer" : 0,
            "byteLength" : 3744,
            "byteOffset" : 81200
        },
        {
            "buffer" : 0,
            "byteLength" : 3744,
            "byteOffset" : 84944
        },
        {
            "buffer" : 0,
            "byteLength" : 2496,
            "byteOffset" : 88688
        },
        {
            "buffer" : 0,
            "byteLength" : 3744,
            "byteOffset" : 91184
        },
        {
            "buffer" : 0,
            "byteLength" : 3744,
            "byteOffset" : 94928
        },
        {
            "buffer" : 0,
            "byteLength" : 2496,
            "byteOffset" : 98672
        },
        {
            "buffer" : 0,
            "byteLength" : 11520,
            "byteOffset" : 101168
        },
        {
            "buffer" : 0,
            "byteLength" : 11520,
            "byteOffset" : 112688
        },
        {
            "buffer" : 0,
            "byteLength" : 7680,
            "byteOffset" : 124208
        },
        {
            "buffer" : 0,
            "byteLength" : 9216,
            "byteOffset" : 131888
        },
        {
            "buffer" : 0,
            "byteLength" : 9216,
            "byteOffset" : 141104
        },
        {
            "buffer" : 0,
            "byteLength" : 6144,
            "byteOffset" : 150320
        }
    ],
    "samplers" : [
        {
            "magFilter" : 9729,
            "minFilter" : 9987
        }
    ],
    "buffers" : [
        {
            "byteLength" : 156464,
            "uri" : "data:application/octet-stream;base64,"
        }
    ]
}
