{
    "asset" : {
        "generator" : "Khronos glTF Blender I/O v1.6.16",
        "version" : "2.0"
    },
    "scene" : 0,
    "scenes" : [
        {
            "name" : "Scene",
            "nodes" : [
                0,
                1,
                2
            ]
        }
    ],
    "nodes" : [
        {
            "mesh" : 0,
            "name" : "Boar"
        },
        {
            "mesh" : 1,
            "name" : "Outline"
        },
        {
            "mesh" : 2,
            "name" : "Box",
            "scale" : [
                1.5512754917144775,
                1,
                0.7300431728363037
            ]
        }
    ],
    "materials" : [
        {
            "doubleSided" : true,
            "name" : "boar",
            "pbrMetallicRoughness" : {
                "baseColorTexture" : {
                    "index" : 0
                },
                "metallicFactor" : 0,
                "roughnessFactor" : 0.8999999761581421
            }
        },
        {
            "name" : "Outline mat",
            "pbrMetallicRoughness" : {
                "baseColorFactor" : [
                    0.8000000715255737,
                    0.00029368148534558713,
                    0.13163313269615173,
                    1
                ],
                "metallicFactor" : 0,
                "roughnessFactor" : 0.5
            }
        }
    ],
    "meshes" : [
        {
            "name" : "Cube",
            "primitives" : [
                {
                    "attributes" : {
                        "POSITION" : 0,
                        "NORMAL" : 1,
                        "TEXCOORD_0" : 2
                    },
                    "indices" : 3,
                    "material" : 0
                }
            ]
        },
        {
            "name" : "Cube.001",
            "primitives" : [
                {
                    "attributes" : {
                        "POSITION" : 4,
                        "NORMAL" : 5,
                        "TEXCOORD_0" : 6
                    },
                    "indices" : 7,
                    "material" : 1
                }
            ]
        },
        {
            "name" : "Cube.002",
            "primitives" : [
                {
                    "attributes" : {
                        "POSITION" : 8,
                        "NORMAL" : 9,
                        "TEXCOORD_0" : 10
                    },
                    "indices" : 11
                }
            ]
        }
    ],
    "textures" : [
        {
            "sampler" : 0,
            "source" : 0
        }
    ],
    "images" : [
        {
            "bufferView" : 4,
            "mimeType" : "image/jpeg",
            "name" : "Boar_tex_color"
        }
    ],
    "accessors" : [
        {
            "bufferView" : 0,
            "componentType" : 5126,
            "count" : 832,
            "max" : [
                1.7491358518600464,
                1.9596848487854004,
                0.643722653388977
            ],
            "min" : [
                -1.5627282857894897,
                0.027071595191955566,
                -0.6437227725982666
            ],
            "type" : "VEC3"
        },
        {
            "bufferView" : 1,
            "componentType" : 5126,
            "count" : 832,
            "type" : "VEC3"
        },
        {
            "bufferView" : 2,
            "componentType" : 5126,
            "count" : 832,
            "type" : "VEC2"
        },
        {
            "bufferView" : 3,
            "componentType" : 5123,
            "count" : 1224,
            "type" : "SCALAR"
        },
        {
            "bufferView" : 5,
            "componentType" : 5126,
            "count" : 1348,
            "max" : [
                1.794278860092163,
                2.0094101428985596,
                0.6866362690925598
            ],
            "min" : [
                -1.6125863790512085,
                -0.009073931723833084,
                -0.6866363883018494
            ],
            "type" : "VEC3"
        },
        {
            "bufferView" : 6,
            "componentType" : 5126,
            "count" : 1348,
            "type" : "VEC3"
        },
        {
            "bufferView" : 7,
            "componentType" : 5126,
            "count" : 1348,
            "type" : "VEC2"
        },
        {
            "bufferView" : 8,
            "componentType" : 5123,
            "count" : 2268,
            "type" : "SCALAR"
        },
        {
            "bufferView" : 9,
            "componentType" : 5126,
            "count" : 24,
            "max" : [
                1.059170126914978,
                1.9935804605484009,
                1
            ],
            "min" : [
                -0.940829873085022,
                -0.006419539451599121,
                -1
            ],
            "type" : "VEC3"
        },
        {
            "bufferView" : 10,
            "componentType" : 5126,
            "count" : 24,
            "type" : "VEC3"
        },
        {
            "bufferView" : 11,
            "componentType" : 5126,
            "count" : 24,
            "type" : "VEC2"
        },
        {
            "bufferView" : 12,
            "componentType" : 5123,
            "count" : 36,
            "type" : "SCALAR"
        }
    ],
    "bufferViews" : [
        {
            "buffer" : 0,
            "byteLength" : 9984,
            "byteOffset" : 0
        },
        {
            "buffer" : 0,
            "byteLength" : 9984,
            "byteOffset" : 9984
        },
        {
            "buffer" : 0,
            "byteLength" : 6656,
            "byteOffset" : 19968
        },
        {
            "buffer" : 0,
            "byteLength" : 2448,
            "byteOffset" : 26624
        },
        {
            "buffer" : 0,
            "byteLength" : 25953,
            "byteOffset" : 29072
        },
        {
            "buffer" : 0,
            "byteLength" : 16176,
            "byteOffset" : 55028
        },
        {
            "buffer" : 0,
            "byteLength" : 16176,
            "byteOffset" : 71204
        },
        {
            "buffer" : 0,
            "byteLength" : 10784,
            "byteOffset" : 87380
        },
        {
            "buffer" : 0,
            "byteLength" : 4536,
            "byteOffset" : 98164
        },
        {
            "buffer" : 0,
            "byteLength" : 288,
            "byteOffset" : 102700
        },
        {
            "buffer" : 0,
            "byteLength" : 288,
            "byteOffset" : 102988
        },
        {
            "buffer" : 0,
            "byteLength" : 192,
            "byteOffset" : 103276
        },
        {
            "buffer" : 0,
            "byteLength" : 72,
            "byteOffset" : 103468
        }
    ],
    "samplers" : [
        {
            "magFilter" : 9729,
            "minFilter" : 9987
        }
    ],
    "buffers" : [
        {
            "byteLength" : 103540,
            "uri" : "data:application/octet-stream;base64,"
        }
    ]
}
