{
    "asset" : {
        "generator" : "Khronos glTF Blender I/O v1.6.16",
        "version" : "2.0"
    },
    "scene" : 0,
    "scenes" : [
        {
            "name" : "Scene",
            "nodes" : [
                0,
                1,
                2,
                3,
                4
            ]
        }
    ],
    "nodes" : [
        {
            "mesh" : 0,
            "name" : "Boar",
            "scale" : [
                0.4429253935813904,
                0.4429253935813904,
                0.4429253935813904
            ],
            "translation" : [
                18.89740562438965,
                0,
                -4.312344074249268
            ]
        },
        {
            "mesh" : 0,
            "name" : "Boar.001",
            "rotation" : [
                0,
                -0.31803250312805176,
                0,
                0.9480798244476318
            ],
            "scale" : [
                0.4429253935813904,
                0.4429253935813904,
                0.4429253935813904
            ],
            "translation" : [
                27.41222381591797,
                0,
                -7.1506171226501465
            ]
        },
        {
            "mesh" : 0,
            "name" : "Boar.002",
            "rotation" : [
                0,
                -0.009986512362957,
                0,
                0.9999502301216125
            ],
            "scale" : [
                0.28021734952926636,
                0.28021734952926636,
                0.28021734952926636
            ],
            "translation" : [
                27.091773986816406,
                0,
                -6.074820041656494
            ]
        },
        {
            "mesh" : 0,
            "name" : "Boar.003",
            "rotation" : [
                0,
                -0.9603329300880432,
                0,
                0.27885597944259644
            ],
            "scale" : [
                0.4429253935813904,
                0.4429253935813904,
                0.4429253935813904
            ],
            "translation" : [
                16.579334259033203,
                0,
                -2.590348243713379
            ]
        },
        {
            "mesh" : 0,
            "name" : "Boar.004",
            "rotation" : [
                0,
                0.9649917483329773,
                0,
                0.2622802257537842
            ],
            "scale" : [
                0.39312681555747986,
                0.39312678575515747,
                0.39312681555747986
            ],
            "translation" : [
                22.33660888671875,
                0,
                -5.636429786682129
            ]
        }
    ],
    "materials" : [
        {
            "doubleSided" : true,
            "name" : "boar",
            "pbrMetallicRoughness" : {
                "baseColorTexture" : {
                    "index" : 0
                },
                "metallicFactor" : 0,
                "roughnessFactor" : 0.8999999761581421
            }
        }
    ],
    "meshes" : [
        {
            "name" : "Cube.005",
            "primitives" : [
                {
                    "attributes" : {
                        "POSITION" : 0,
                        "NORMAL" : 1,
                        "TEXCOORD_0" : 2
                    },
                    "indices" : 3,
                    "material" : 0
                }
            ]
        }
    ],
    "textures" : [
        {
            "sampler" : 0,
            "source" : 0
        }
    ],
    "images" : [
        {
            "bufferView" : 4,
            "mimeType" : "image/jpeg",
            "name" : "Boar_tex_color"
        }
    ],
    "accessors" : [
        {
            "bufferView" : 0,
            "componentType" : 5126,
            "count" : 816,
            "max" : [
                1.7491358518600464,
                1.9176219701766968,
                0.643722653388977
            ],
            "min" : [
                -1.5627282857894897,
                -0.01499118097126484,
                -0.6437227725982666
            ],
            "type" : "VEC3"
        },
        {
            "bufferView" : 1,
            "componentType" : 5126,
            "count" : 816,
            "type" : "VEC3"
        },
        {
            "bufferView" : 2,
            "componentType" : 5126,
            "count" : 816,
            "type" : "VEC2"
        },
        {
            "bufferView" : 3,
            "componentType" : 5123,
            "count" : 1224,
            "type" : "SCALAR"
        }
    ],
    "bufferViews" : [
        {
            "buffer" : 0,
            "byteLength" : 9792,
            "byteOffset" : 0
        },
        {
            "buffer" : 0,
            "byteLength" : 9792,
            "byteOffset" : 9792
        },
        {
            "buffer" : 0,
            "byteLength" : 6528,
            "byteOffset" : 19584
        },
        {
            "buffer" : 0,
            "byteLength" : 2448,
            "byteOffset" : 26112
        },
        {
            "buffer" : 0,
            "byteLength" : 25953,
            "byteOffset" : 28560
        }
    ],
    "samplers" : [
        {
            "magFilter" : 9729,
            "minFilter" : 9987
        }
    ],
    "buffers" : [
        {
            "byteLength" : 54516,
            "uri" : "data:application/octet-stream;base64,"
        }
    ]
}
