{
    "asset" : {
        "generator" : "Khronos glTF Blender I/O v1.6.16",
        "version" : "2.0"
    },
    "scene" : 0,
    "scenes" : [
        {
            "name" : "Scene",
            "nodes" : [
                0,
                1,
                2,
                3,
                4,
                5,
                6,
                7
            ]
        }
    ],
    "nodes" : [
        {
            "mesh" : 0,
            "name" : "BirchBranch1 - copy.025",
            "rotation" : [
                0,
                -0.8493930101394653,
                0,
                0.5277610421180725
            ],
            "scale" : [
                0.630900502204895,
                0.630900502204895,
                0.630900502204895
            ],
            "translation" : [
                -53.955078125,
                0.0022648973390460014,
                0.21517564356327057
            ]
        },
        {
            "mesh" : 0,
            "name" : "BirchBranch1 - copy.044",
            "rotation" : [
                -7.629713218193501e-05,
                0.8970345854759216,
                -0.00015485819312743843,
                0.44196030497550964
            ],
            "scale" : [
                0.6407743096351624,
                0.6407743692398071,
                0.6407743692398071
            ],
            "translation" : [
                -72.23992919921875,
                0,
                -14.360342025756836
            ]
        },
        {
            "mesh" : 1,
            "name" : "BeechBranch1 - copy.014",
            "rotation" : [
                0,
                -0.937252938747406,
                0,
                0.3486502170562744
            ],
            "scale" : [
                0.23984840512275696,
                0.23984839022159576,
                0.23984840512275696
            ],
            "translation" : [
                -66.87317657470703,
                0,
                -23.166366577148438
            ]
        },
        {
            "mesh" : 1,
            "name" : "BeechBranch1 - copy.020",
            "rotation" : [
                0,
                -0.9977162480354309,
                0,
                0.06754504144191742
            ],
            "scale" : [
                0.25766706466674805,
                0.25766703486442566,
                0.25766706466674805
            ],
            "translation" : [
                -62.892677307128906,
                0.000640913553070277,
                -15.754051208496094
            ]
        },
        {
            "mesh" : 1,
            "name" : "BeechBranch1 - copy.023",
            "rotation" : [
                0,
                -0.9773427248001099,
                0,
                0.21166302263736725
            ],
            "scale" : [
                0.22216492891311646,
                0.22216492891311646,
                0.22216492891311646
            ],
            "translation" : [
                -59.53584671020508,
                0.0014994930243119597,
                -5.607520580291748
            ]
        },
        {
            "mesh" : 1,
            "name" : "BeechBranch1 - copy.030",
            "rotation" : [
                0,
                0.35169079899787903,
                0,
                0.9361163377761841
            ],
            "scale" : [
                0.22898028790950775,
                0.22898028790950775,
                0.22898028790950775
            ],
            "translation" : [
                -62.31856918334961,
                0.001638994668610394,
                2.434516668319702
            ]
        },
        {
            "mesh" : 1,
            "name" : "BeechBranch1 - copy.035",
            "rotation" : [
                -0.0001690756471361965,
                -0.20197579264640808,
                3.4867767681134865e-05,
                0.9793906211853027
            ],
            "scale" : [
                0.22189350426197052,
                0.22189350426197052,
                0.2218935191631317
            ],
            "translation" : [
                -69.72358703613281,
                0.00022186632850207388,
                -14.240821838378906
            ]
        },
        {
            "mesh" : 1,
            "name" : "BeechBranch1 - copy.041",
            "rotation" : [
                0.00013533714809454978,
                -0.7839566469192505,
                0.00010717359691625461,
                0.6208155751228333
            ],
            "scale" : [
                0.228719562292099,
                0.228719562292099,
                0.228719562292099
            ],
            "translation" : [
                -67.49772644042969,
                0.0008028533193282783,
                -2.60905385017395
            ]
        }
    ],
    "materials" : [
        {
            "doubleSided" : true,
            "name" : "Material.011",
            "pbrMetallicRoughness" : {
                "baseColorTexture" : {
                    "index" : 0
                },
                "metallicFactor" : 0,
                "roughnessFactor" : 0.800000011920929
            }
        },
        {
            "doubleSided" : true,
            "name" : "Material.008",
            "pbrMetallicRoughness" : {
                "baseColorTexture" : {
                    "index" : 1
                },
                "metallicFactor" : 0,
                "roughnessFactor" : 0.800000011920929
            }
        }
    ],
    "meshes" : [
        {
            "name" : "Cylinder.001",
            "primitives" : [
                {
                    "attributes" : {
                        "POSITION" : 0,
                        "NORMAL" : 1,
                        "TEXCOORD_0" : 2
                    },
                    "indices" : 3,
                    "material" : 0
                }
            ]
        },
        {
            "name" : "Cylinder.006",
            "primitives" : [
                {
                    "attributes" : {
                        "POSITION" : 4,
                        "NORMAL" : 5,
                        "TEXCOORD_0" : 6
                    },
                    "indices" : 7,
                    "material" : 1
                }
            ]
        }
    ],
    "textures" : [
        {
            "sampler" : 0,
            "source" : 0
        },
        {
            "sampler" : 0,
            "source" : 1
        }
    ],
    "images" : [
        {
            "bufferView" : 4,
            "mimeType" : "image/jpeg",
            "name" : "Birch_tex_color"
        },
        {
            "bufferView" : 9,
            "mimeType" : "image/jpeg",
            "name" : "Beech_tex_color"
        }
    ],
    "accessors" : [
        {
            "bufferView" : 0,
            "componentType" : 5126,
            "count" : 422,
            "max" : [
                0.18275552988052368,
                0.3075641095638275,
                2.2655141353607178
            ],
            "min" : [
                -0.32235899567604065,
                -0.009466439485549927,
                -1.9328035116195679
            ],
            "type" : "VEC3"
        },
        {
            "bufferView" : 1,
            "componentType" : 5126,
            "count" : 422,
            "type" : "VEC3"
        },
        {
            "bufferView" : 2,
            "componentType" : 5126,
            "count" : 422,
            "type" : "VEC2"
        },
        {
            "bufferView" : 3,
            "componentType" : 5123,
            "count" : 702,
            "type" : "SCALAR"
        },
        {
            "bufferView" : 5,
            "componentType" : 5126,
            "count" : 454,
            "max" : [
                0.858090341091156,
                1.3936223983764648,
                3.3927571773529053
            ],
            "min" : [
                -1.2799670696258545,
                -0.047804296016693115,
                -3.197939157485962
            ],
            "type" : "VEC3"
        },
        {
            "bufferView" : 6,
            "componentType" : 5126,
            "count" : 454,
            "type" : "VEC3"
        },
        {
            "bufferView" : 7,
            "componentType" : 5126,
            "count" : 454,
            "type" : "VEC2"
        },
        {
            "bufferView" : 8,
            "componentType" : 5123,
            "count" : 738,
            "type" : "SCALAR"
        }
    ],
    "bufferViews" : [
        {
            "buffer" : 0,
            "byteLength" : 5064,
            "byteOffset" : 0
        },
        {
            "buffer" : 0,
            "byteLength" : 5064,
            "byteOffset" : 5064
        },
        {
            "buffer" : 0,
            "byteLength" : 3376,
            "byteOffset" : 10128
        },
        {
            "buffer" : 0,
            "byteLength" : 1404,
            "byteOffset" : 13504
        },
        {
            "buffer" : 0,
            "byteLength" : 3524,
            "byteOffset" : 14908
        },
        {
            "buffer" : 0,
            "byteLength" : 5448,
            "byteOffset" : 18432
        },
        {
            "buffer" : 0,
            "byteLength" : 5448,
            "byteOffset" : 23880
        },
        {
            "buffer" : 0,
            "byteLength" : 3632,
            "byteOffset" : 29328
        },
        {
            "buffer" : 0,
            "byteLength" : 1476,
            "byteOffset" : 32960
        },
        {
            "buffer" : 0,
            "byteLength" : 2365,
            "byteOffset" : 34436
        }
    ],
    "samplers" : [
        {
            "magFilter" : 9729,
            "minFilter" : 9987
        }
    ],
    "buffers" : [
        {
            "byteLength" : 36804,
            "uri" : "data:application/octet-stream;base64,"
        }
    ]
}
