{
    "asset" : {
        "generator" : "Khronos glTF Blender I/O v1.6.16",
        "version" : "2.0"
    },
    "scene" : 0,
    "scenes" : [
        {
            "name" : "Scene",
            "nodes" : [
                0,
                1,
                2,
                3,
                4,
                5,
                6,
                7
            ]
        }
    ],
    "nodes" : [
        {
            "mesh" : 0,
            "name" : "BeechBranch2 - copy.013",
            "rotation" : [
                -0.07615560293197632,
                0.32538843154907227,
                0.10937651991844177,
                0.9361407160758972
            ],
            "scale" : [
                0.5751317143440247,
                0.5751316547393799,
                0.5751317143440247
            ],
            "translation" : [
                -32.31828308105469,
                4.932900428771973,
                57.92463302612305
            ]
        },
        {
            "mesh" : 0,
            "name" : "BeechBranch2 - copy.018",
            "rotation" : [
                -0.02989552915096283,
                -0.5957092642784119,
                0.0850839763879776,
                0.7981212139129639
            ],
            "scale" : [
                0.6358591318130493,
                0.6358590126037598,
                0.6358590722084045
            ],
            "translation" : [
                -37.39759063720703,
                5.78910493850708,
                62.504722595214844
            ]
        },
        {
            "mesh" : 0,
            "name" : "BeechBranch2 - copy.027",
            "rotation" : [
                0.09625250846147537,
                -0.9671205878257751,
                0.1231553927063942,
                0.20061403512954712
            ],
            "scale" : [
                0.5556640028953552,
                0.5556639432907104,
                0.5556640028953552
            ],
            "translation" : [
                -27.48642349243164,
                3.792557716369629,
                55.650596618652344
            ]
        },
        {
            "mesh" : 1,
            "name" : "BirchBranch1 - copy.037",
            "rotation" : [
                -0.028361087664961815,
                -0.5148522853851318,
                0.009310147725045681,
                0.8567591905593872
            ],
            "scale" : [
                0.7061787247657776,
                0.7061787247657776,
                0.7061786651611328
            ],
            "translation" : [
                -29.913421630859375,
                5.479123592376709,
                64.68169403076172
            ]
        },
        {
            "mesh" : 1,
            "name" : "BirchBranch1 - copy.039",
            "rotation" : [
                0.19806519150733948,
                0.968479335308075,
                -0.02170221321284771,
                0.14948906004428864
            ],
            "scale" : [
                0.6342106461524963,
                0.6342107057571411,
                0.6342106461524963
            ],
            "translation" : [
                -23.367965698242188,
                4.0266923904418945,
                62.507102966308594
            ]
        },
        {
            "mesh" : 2,
            "name" : "BeechBranch1 - copy.003",
            "rotation" : [
                -0.041606754064559937,
                0.8228682279586792,
                -0.12660475075244904,
                0.5523838996887207
            ],
            "scale" : [
                0.24590851366519928,
                0.24590854346752167,
                0.24590852856636047
            ],
            "translation" : [
                -34.717132568359375,
                5.3109846115112305,
                58.658592224121094
            ]
        },
        {
            "mesh" : 2,
            "name" : "BeechBranch1 - copy.015",
            "rotation" : [
                -0.24120917916297913,
                -0.8406425714492798,
                -0.031974442303180695,
                0.4838551878929138
            ],
            "scale" : [
                0.2534644603729248,
                0.2534644603729248,
                0.2534644603729248
            ],
            "translation" : [
                -22.593786239624023,
                3.238363027572632,
                58.726173400878906
            ]
        },
        {
            "mesh" : 2,
            "name" : "BeechBranch1 - copy.017",
            "rotation" : [
                -0.022493721917271614,
                0.38404420018196106,
                -0.12377092987298965,
                0.9147047996520996
            ],
            "scale" : [
                0.19782620668411255,
                0.19782620668411255,
                0.19782620668411255
            ],
            "translation" : [
                -33.05894088745117,
                5.721250057220459,
                67.75735473632812
            ]
        }
    ],
    "materials" : [
        {
            "doubleSided" : true,
            "name" : "Material.010",
            "pbrMetallicRoughness" : {
                "baseColorTexture" : {
                    "index" : 0
                },
                "metallicFactor" : 0,
                "roughnessFactor" : 0.800000011920929
            }
        },
        {
            "doubleSided" : true,
            "name" : "Material.011",
            "pbrMetallicRoughness" : {
                "baseColorTexture" : {
                    "index" : 1
                },
                "metallicFactor" : 0,
                "roughnessFactor" : 0.800000011920929
            }
        },
        {
            "doubleSided" : true,
            "name" : "Material.008",
            "pbrMetallicRoughness" : {
                "baseColorTexture" : {
                    "index" : 2
                },
                "metallicFactor" : 0,
                "roughnessFactor" : 0.800000011920929
            }
        }
    ],
    "meshes" : [
        {
            "name" : "Cylinder",
            "primitives" : [
                {
                    "attributes" : {
                        "POSITION" : 0,
                        "NORMAL" : 1,
                        "TEXCOORD_0" : 2
                    },
                    "indices" : 3,
                    "material" : 0
                }
            ]
        },
        {
            "name" : "Cylinder.001",
            "primitives" : [
                {
                    "attributes" : {
                        "POSITION" : 4,
                        "NORMAL" : 5,
                        "TEXCOORD_0" : 6
                    },
                    "indices" : 7,
                    "material" : 1
                }
            ]
        },
        {
            "name" : "Cylinder.006",
            "primitives" : [
                {
                    "attributes" : {
                        "POSITION" : 8,
                        "NORMAL" : 9,
                        "TEXCOORD_0" : 10
                    },
                    "indices" : 11,
                    "material" : 2
                }
            ]
        }
    ],
    "textures" : [
        {
            "sampler" : 0,
            "source" : 0
        },
        {
            "sampler" : 0,
            "source" : 1
        },
        {
            "sampler" : 0,
            "source" : 0
        }
    ],
    "images" : [
        {
            "bufferView" : 4,
            "mimeType" : "image/jpeg",
            "name" : "Beech_tex_color"
        },
        {
            "bufferView" : 9,
            "mimeType" : "image/jpeg",
            "name" : "Birch_tex_color"
        }
    ],
    "accessors" : [
        {
            "bufferView" : 0,
            "componentType" : 5126,
            "count" : 120,
            "max" : [
                2.148037910461426,
                0.3228447139263153,
                0.21636687219142914
            ],
            "min" : [
                -2.077291250228882,
                -0.008317328058183193,
                -0.2196863889694214
            ],
            "type" : "VEC3"
        },
        {
            "bufferView" : 1,
            "componentType" : 5126,
            "count" : 120,
            "type" : "VEC3"
        },
        {
            "bufferView" : 2,
            "componentType" : 5126,
            "count" : 120,
            "type" : "VEC2"
        },
        {
            "bufferView" : 3,
            "componentType" : 5123,
            "count" : 204,
            "type" : "SCALAR"
        },
        {
            "bufferView" : 5,
            "componentType" : 5126,
            "count" : 422,
            "max" : [
                0.18275552988052368,
                0.3075641095638275,
                2.2655141353607178
            ],
            "min" : [
                -0.32235899567604065,
                -0.009466439485549927,
                -1.9328035116195679
            ],
            "type" : "VEC3"
        },
        {
            "bufferView" : 6,
            "componentType" : 5126,
            "count" : 422,
            "type" : "VEC3"
        },
        {
            "bufferView" : 7,
            "componentType" : 5126,
            "count" : 422,
            "type" : "VEC2"
        },
        {
            "bufferView" : 8,
            "componentType" : 5123,
            "count" : 702,
            "type" : "SCALAR"
        },
        {
            "bufferView" : 10,
            "componentType" : 5126,
            "count" : 454,
            "max" : [
                0.858090341091156,
                1.3936223983764648,
                3.3927571773529053
            ],
            "min" : [
                -1.2799670696258545,
                -0.047804296016693115,
                -3.197939157485962
            ],
            "type" : "VEC3"
        },
        {
            "bufferView" : 11,
            "componentType" : 5126,
            "count" : 454,
            "type" : "VEC3"
        },
        {
            "bufferView" : 12,
            "componentType" : 5126,
            "count" : 454,
            "type" : "VEC2"
        },
        {
            "bufferView" : 13,
            "componentType" : 5123,
            "count" : 738,
            "type" : "SCALAR"
        }
    ],
    "bufferViews" : [
        {
            "buffer" : 0,
            "byteLength" : 1440,
            "byteOffset" : 0
        },
        {
            "buffer" : 0,
            "byteLength" : 1440,
            "byteOffset" : 1440
        },
        {
            "buffer" : 0,
            "byteLength" : 960,
            "byteOffset" : 2880
        },
        {
            "buffer" : 0,
            "byteLength" : 408,
            "byteOffset" : 3840
        },
        {
            "buffer" : 0,
            "byteLength" : 2365,
            "byteOffset" : 4248
        },
        {
            "buffer" : 0,
            "byteLength" : 5064,
            "byteOffset" : 6616
        },
        {
            "buffer" : 0,
            "byteLength" : 5064,
            "byteOffset" : 11680
        },
        {
            "buffer" : 0,
            "byteLength" : 3376,
            "byteOffset" : 16744
        },
        {
            "buffer" : 0,
            "byteLength" : 1404,
            "byteOffset" : 20120
        },
        {
            "buffer" : 0,
            "byteLength" : 3524,
            "byteOffset" : 21524
        },
        {
            "buffer" : 0,
            "byteLength" : 5448,
            "byteOffset" : 25048
        },
        {
            "buffer" : 0,
            "byteLength" : 5448,
            "byteOffset" : 30496
        },
        {
            "buffer" : 0,
            "byteLength" : 3632,
            "byteOffset" : 35944
        },
        {
            "buffer" : 0,
            "byteLength" : 1476,
            "byteOffset" : 39576
        }
    ],
    "samplers" : [
        {
            "magFilter" : 9729,
            "minFilter" : 9987
        }
    ],
    "buffers" : [
        {
            "byteLength" : 41052,
            "uri" : "data:application/octet-stream;base64,"
        }
    ]
}
