{
    "asset" : {
        "generator" : "Khronos glTF Blender I/O v1.6.16",
        "version" : "2.0"
    },
    "scene" : 0,
    "scenes" : [
        {
            "name" : "Scene",
            "nodes" : [
                0,
                1,
                2,
                3,
                4,
                5,
                6,
                7,
                8
            ]
        }
    ],
    "nodes" : [
        {
            "mesh" : 0,
            "name" : "Hollytree2 - copy.002",
            "rotation" : [
                0.00047344420454464853,
                0.993007481098175,
                -0.00011945330334128812,
                0.1180504858493805
            ],
            "scale" : [
                0.2414027601480484,
                0.2414027750492096,
                0.2414027601480484
            ],
            "translation" : [
                -35.15605926513672,
                -0.06560654938220978,
                8.370936393737793
            ]
        },
        {
            "mesh" : 0,
            "name" : "Hollytree2 - copy.012",
            "rotation" : [
                0.00013049892731942236,
                0.38886305689811707,
                -0.00047051947331056,
                0.9212954640388489
            ],
            "scale" : [
                0.24821427464485168,
                0.2482142597436905,
                0.24821428954601288
            ],
            "translation" : [
                -40.349063873291016,
                -0.06186814233660698,
                18.03773307800293
            ]
        },
        {
            "mesh" : 0,
            "name" : "Hollytree2 - copy.022",
            "rotation" : [
                0.00017074061906896532,
                -0.4398288130760193,
                0.001208703382872045,
                0.8980808258056641
            ],
            "scale" : [
                0.29724740982055664,
                0.29724743962287903,
                0.29724743962287903
            ],
            "translation" : [
                -44.60589599609375,
                -0.07738400250673294,
                6.491302013397217
            ]
        },
        {
            "mesh" : 1,
            "name" : "ElderberryBush2 - copy.011",
            "rotation" : [
                0.0010997862555086613,
                -0.9851529598236084,
                0.0005832585738971829,
                0.1716744750738144
            ],
            "scale" : [
                0.3154242932796478,
                0.3154243528842926,
                0.3154243230819702
            ],
            "translation" : [
                -47.26288604736328,
                -0.07393760979175568,
                12.755399703979492
            ]
        },
        {
            "mesh" : 1,
            "name" : "ElderberryBush2 - copy.024",
            "rotation" : [
                0,
                -0.7887573838233948,
                0,
                0.6147046685218811
            ],
            "scale" : [
                0.33267804980278015,
                0.33267807960510254,
                0.33267804980278015
            ],
            "translation" : [
                -51.90186309814453,
                -0.09641563147306442,
                4.026288986206055
            ]
        },
        {
            "mesh" : 2,
            "name" : "StrawberryBush1 - copy.007",
            "rotation" : [
                -0.000489722762722522,
                0.09333058446645737,
                0.0011314104776829481,
                0.9956344366073608
            ],
            "scale" : [
                0.669793426990509,
                0.669793426990509,
                0.669793426990509
            ],
            "translation" : [
                -44.64997863769531,
                -0.08121775835752487,
                2.4607696533203125
            ]
        },
        {
            "mesh" : 2,
            "name" : "StrawberryBush1 - copy.014",
            "rotation" : [
                -0.00041981207323260605,
                -0.860860288143158,
                -0.00017992772336583585,
                0.5088412165641785
            ],
            "scale" : [
                0.5927435159683228,
                0.5927435755729675,
                0.5927435159683228
            ],
            "translation" : [
                -31.710289001464844,
                -0.07583104819059372,
                14.880013465881348
            ]
        },
        {
            "mesh" : 3,
            "name" : "StrawberryBush2 - copy.001",
            "rotation" : [
                1.8046199329546653e-05,
                0.16764134168624878,
                -0.00045638863230124116,
                0.9858479499816895
            ],
            "scale" : [
                0.6642698645591736,
                0.6642698049545288,
                0.6642698049545288
            ],
            "translation" : [
                -41.280696868896484,
                -0.07127748429775238,
                10.145333290100098
            ]
        },
        {
            "mesh" : 3,
            "name" : "StrawberryBush2 - copy.019",
            "rotation" : [
                -0.00046876328997313976,
                -0.8429417014122009,
                -0.00022018590243533254,
                0.5380046963691711
            ],
            "scale" : [
                0.6704846620559692,
                0.670484721660614,
                0.6704846620559692
            ],
            "translation" : [
                -44.659523010253906,
                -0.06858349591493607,
                13.44417953491211
            ]
        }
    ],
    "materials" : [
        {
            "doubleSided" : true,
            "name" : "Material.014",
            "pbrMetallicRoughness" : {
                "baseColorTexture" : {
                    "index" : 0
                },
                "metallicFactor" : 0,
                "roughnessFactor" : 0.800000011920929
            }
        },
        {
            "doubleSided" : true,
            "name" : "Material.013",
            "pbrMetallicRoughness" : {
                "baseColorTexture" : {
                    "index" : 1
                },
                "metallicFactor" : 0,
                "roughnessFactor" : 0.800000011920929
            }
        },
        {
            "doubleSided" : true,
            "name" : "strawberry",
            "pbrMetallicRoughness" : {
                "baseColorTexture" : {
                    "index" : 2
                },
                "metallicFactor" : 0,
                "roughnessFactor" : 0.800000011920929
            }
        },
        {
            "doubleSided" : true,
            "name" : "strawberryred",
            "pbrMetallicRoughness" : {
                "baseColorTexture" : {
                    "index" : 3
                },
                "metallicFactor" : 0,
                "roughnessFactor" : 0.800000011920929
            }
        }
    ],
    "meshes" : [
        {
            "name" : "Cylinder.004",
            "primitives" : [
                {
                    "attributes" : {
                        "POSITION" : 0,
                        "NORMAL" : 1,
                        "TEXCOORD_0" : 2
                    },
                    "indices" : 3,
                    "material" : 0
                }
            ]
        },
        {
            "name" : "Icosphere.008",
            "primitives" : [
                {
                    "attributes" : {
                        "POSITION" : 4,
                        "NORMAL" : 5,
                        "TEXCOORD_0" : 6
                    },
                    "indices" : 7,
                    "material" : 1
                }
            ]
        },
        {
            "name" : "Icosphere.011",
            "primitives" : [
                {
                    "attributes" : {
                        "POSITION" : 8,
                        "NORMAL" : 9,
                        "TEXCOORD_0" : 10
                    },
                    "indices" : 11,
                    "material" : 2
                }
            ]
        },
        {
            "name" : "Icosphere.012",
            "primitives" : [
                {
                    "attributes" : {
                        "POSITION" : 12,
                        "NORMAL" : 13,
                        "TEXCOORD_0" : 14
                    },
                    "indices" : 11,
                    "material" : 3
                }
            ]
        }
    ],
    "textures" : [
        {
            "sampler" : 0,
            "source" : 0
        },
        {
            "sampler" : 0,
            "source" : 1
        },
        {
            "sampler" : 0,
            "source" : 2
        },
        {
            "sampler" : 0,
            "source" : 3
        }
    ],
    "images" : [
        {
            "bufferView" : 4,
            "mimeType" : "image/jpeg",
            "name" : "Holly_tex_color"
        },
        {
            "bufferView" : 9,
            "mimeType" : "image/jpeg",
            "name" : "ElderberryPurple_tex_color"
        },
        {
            "bufferView" : 14,
            "mimeType" : "image/jpeg",
            "name" : "Strawberry_tex_color"
        },
        {
            "bufferView" : 18,
            "mimeType" : "image/jpeg",
            "name" : "StrawberryRed_tex_color"
        }
    ],
    "accessors" : [
        {
            "bufferView" : 0,
            "componentType" : 5126,
            "count" : 290,
            "max" : [
                3.6360912322998047,
                11.877678871154785,
                3.75024676322937
            ],
            "min" : [
                -3.6295690536499023,
                -0.07034306973218918,
                -3.49057674407959
            ],
            "type" : "VEC3"
        },
        {
            "bufferView" : 1,
            "componentType" : 5126,
            "count" : 290,
            "type" : "VEC3"
        },
        {
            "bufferView" : 2,
            "componentType" : 5126,
            "count" : 290,
            "type" : "VEC2"
        },
        {
            "bufferView" : 3,
            "componentType" : 5123,
            "count" : 318,
            "type" : "SCALAR"
        },
        {
            "bufferView" : 5,
            "componentType" : 5126,
            "count" : 120,
            "max" : [
                3.0961971282958984,
                3.7781856060028076,
                3.3046715259552
            ],
            "min" : [
                -3.1353912353515625,
                -0.1208319365978241,
                -3.5986263751983643
            ],
            "type" : "VEC3"
        },
        {
            "bufferView" : 6,
            "componentType" : 5126,
            "count" : 120,
            "type" : "VEC3"
        },
        {
            "bufferView" : 7,
            "componentType" : 5126,
            "count" : 120,
            "type" : "VEC2"
        },
        {
            "bufferView" : 8,
            "componentType" : 5123,
            "count" : 120,
            "type" : "SCALAR"
        },
        {
            "bufferView" : 10,
            "componentType" : 5126,
            "count" : 236,
            "max" : [
                2.0666415691375732,
                1.1593891382217407,
                1.2510302066802979
            ],
            "min" : [
                -1.1026462316513062,
                -0.07481952011585236,
                -1.1593890190124512
            ],
            "type" : "VEC3"
        },
        {
            "bufferView" : 11,
            "componentType" : 5126,
            "count" : 236,
            "type" : "VEC3"
        },
        {
            "bufferView" : 12,
            "componentType" : 5126,
            "count" : 236,
            "type" : "VEC2"
        },
        {
            "bufferView" : 13,
            "componentType" : 5123,
            "count" : 240,
            "type" : "SCALAR"
        },
        {
            "bufferView" : 15,
            "componentType" : 5126,
            "count" : 236,
            "max" : [
                2.0666415691375732,
                1.1593891382217407,
                1.2510302066802979
            ],
            "min" : [
                -1.1026462316513062,
                -0.07481952011585236,
                -1.1593890190124512
            ],
            "type" : "VEC3"
        },
        {
            "bufferView" : 16,
            "componentType" : 5126,
            "count" : 236,
            "type" : "VEC3"
        },
        {
            "bufferView" : 17,
            "componentType" : 5126,
            "count" : 236,
            "type" : "VEC2"
        }
    ],
    "bufferViews" : [
        {
            "buffer" : 0,
            "byteLength" : 3480,
            "byteOffset" : 0
        },
        {
            "buffer" : 0,
            "byteLength" : 3480,
            "byteOffset" : 3480
        },
        {
            "buffer" : 0,
            "byteLength" : 2320,
            "byteOffset" : 6960
        },
        {
            "buffer" : 0,
            "byteLength" : 636,
            "byteOffset" : 9280
        },
        {
            "buffer" : 0,
            "byteLength" : 5857,
            "byteOffset" : 9916
        },
        {
            "buffer" : 0,
            "byteLength" : 1440,
            "byteOffset" : 15776
        },
        {
            "buffer" : 0,
            "byteLength" : 1440,
            "byteOffset" : 17216
        },
        {
            "buffer" : 0,
            "byteLength" : 960,
            "byteOffset" : 18656
        },
        {
            "buffer" : 0,
            "byteLength" : 240,
            "byteOffset" : 19616
        },
        {
            "buffer" : 0,
            "byteLength" : 32503,
            "byteOffset" : 19856
        },
        {
            "buffer" : 0,
            "byteLength" : 2832,
            "byteOffset" : 52360
        },
        {
            "buffer" : 0,
            "byteLength" : 2832,
            "byteOffset" : 55192
        },
        {
            "buffer" : 0,
            "byteLength" : 1888,
            "byteOffset" : 58024
        },
        {
            "buffer" : 0,
            "byteLength" : 480,
            "byteOffset" : 59912
        },
        {
            "buffer" : 0,
            "byteLength" : 729,
            "byteOffset" : 60392
        },
        {
            "buffer" : 0,
            "byteLength" : 2832,
            "byteOffset" : 61124
        },
        {
            "buffer" : 0,
            "byteLength" : 2832,
            "byteOffset" : 63956
        },
        {
            "buffer" : 0,
            "byteLength" : 1888,
            "byteOffset" : 66788
        },
        {
            "buffer" : 0,
            "byteLength" : 22912,
            "byteOffset" : 68676
        }
    ],
    "samplers" : [
        {
            "magFilter" : 9729,
            "minFilter" : 9987
        }
    ],
    "buffers" : [
        {
            "byteLength" : 91588,
            "uri" : "data:application/octet-stream;base64,"
        }
    ]
}
