{
    "asset" : {
        "generator" : "Khronos glTF Blender I/O v1.6.16",
        "version" : "2.0"
    },
    "scene" : 0,
    "scenes" : [
        {
            "name" : "Scene",
            "nodes" : [
                0,
                1,
                2,
                3,
                4,
                5,
                6,
                7,
                8
            ]
        }
    ],
    "nodes" : [
        {
            "mesh" : 0,
            "name" : "Hollytree2 - copy.008",
            "rotation" : [
                0,
                0.9999999403953552,
                0,
                0.0005580942379310727
            ],
            "scale" : [
                0.2558216452598572,
                0.2558216452598572,
                0.2558216452598572
            ],
            "translation" : [
                -51.651939392089844,
                -0.08263002336025238,
                -0.7498270869255066
            ]
        },
        {
            "mesh" : 1,
            "name" : "Hollytree3 - copy.016",
            "rotation" : [
                0,
                -0.9648762345314026,
                0,
                0.2627047896385193
            ],
            "scale" : [
                0.3754814565181732,
                0.375481516122818,
                0.3754814565181732
            ],
            "translation" : [
                -56.54849624633789,
                -0.09123627096414566,
                -5.489737033843994
            ]
        },
        {
            "mesh" : 2,
            "name" : "ElderberryBush2 - copy.010",
            "rotation" : [
                0,
                0.9984520077705383,
                0,
                0.05562171712517738
            ],
            "scale" : [
                0.26897650957107544,
                0.2689765393733978,
                0.26897650957107544
            ],
            "translation" : [
                -62.90628433227539,
                -0.07916692644357681,
                -10.979226112365723
            ]
        },
        {
            "mesh" : 3,
            "name" : "Hollytree1 - copy.005",
            "rotation" : [
                0,
                -0.5979960560798645,
                0,
                0.8014990091323853
            ],
            "scale" : [
                0.3844491243362427,
                0.38444915413856506,
                0.3844491243362427
            ],
            "translation" : [
                -50.440513610839844,
                -0.09299848973751068,
                -6.113336086273193
            ]
        },
        {
            "mesh" : 3,
            "name" : "Hollytree1 - copy.021",
            "rotation" : [
                0,
                -0.5322588682174683,
                0,
                0.8465816378593445
            ],
            "scale" : [
                0.3362051546573639,
                0.3362051546573639,
                0.3362051546573639
            ],
            "translation" : [
                -64.80884552001953,
                -0.0823550671339035,
                -9.859816551208496
            ]
        },
        {
            "mesh" : 4,
            "name" : "ElderberryBush1 - copy.008",
            "rotation" : [
                0,
                0.003403744427487254,
                0.00017913850024342537,
                0.9999942183494568
            ],
            "scale" : [
                0.7839939594268799,
                1.0308107137680054,
                0.7839938998222351
            ],
            "translation" : [
                -59.89299392700195,
                -0.08386646211147308,
                -7.499772071838379
            ]
        },
        {
            "mesh" : 5,
            "name" : "JuniperBush2 - copy.025",
            "rotation" : [
                0,
                0.3429834842681885,
                0,
                0.9393414258956909
            ],
            "scale" : [
                0.5525078177452087,
                0.5525078177452087,
                0.5525078177452087
            ],
            "translation" : [
                -62.213111877441406,
                -0.08352038264274597,
                -6.583902835845947
            ]
        },
        {
            "mesh" : 6,
            "name" : "StrawberryBush1 - copy.019",
            "rotation" : [
                0,
                -0.9548559188842773,
                0,
                0.297069251537323
            ],
            "scale" : [
                0.6283590197563171,
                0.6283590793609619,
                0.6283590197563171
            ],
            "translation" : [
                -61.619781494140625,
                -0.09164624661207199,
                -0.9501821994781494
            ]
        },
        {
            "mesh" : 7,
            "name" : "StrawberryBush2 - copy.020",
            "rotation" : [
                1.3557926649809815e-05,
                -0.07853591442108154,
                0.00017210026271641254,
                0.9969112873077393
            ],
            "scale" : [
                0.5789044499397278,
                0.5789044499397278,
                0.5789045095443726
            ],
            "translation" : [
                -61.48588943481445,
                -0.07903610914945602,
                -11.567585945129395
            ]
        }
    ],
    "materials" : [
        {
            "doubleSided" : true,
            "name" : "Material.014",
            "pbrMetallicRoughness" : {
                "baseColorTexture" : {
                    "index" : 0
                },
                "metallicFactor" : 0,
                "roughnessFactor" : 0.800000011920929
            }
        },
        {
            "doubleSided" : true,
            "name" : "hollyred.001",
            "pbrMetallicRoughness" : {
                "baseColorTexture" : {
                    "index" : 1
                },
                "metallicFactor" : 0,
                "roughnessFactor" : 0.800000011920929
            }
        },
        {
            "doubleSided" : true,
            "name" : "Material.013",
            "pbrMetallicRoughness" : {
                "baseColorTexture" : {
                    "index" : 2
                },
                "metallicFactor" : 0,
                "roughnessFactor" : 0.800000011920929
            }
        },
        {
            "doubleSided" : true,
            "name" : "hollyred",
            "pbrMetallicRoughness" : {
                "baseColorTexture" : {
                    "index" : 3
                },
                "metallicFactor" : 0,
                "roughnessFactor" : 0.800000011920929
            }
        },
        {
            "doubleSided" : true,
            "name" : "Material.012",
            "pbrMetallicRoughness" : {
                "baseColorTexture" : {
                    "index" : 4
                },
                "metallicFactor" : 0,
                "roughnessFactor" : 0.800000011920929
            }
        },
        {
            "doubleSided" : true,
            "name" : "juniper.001",
            "pbrMetallicRoughness" : {
                "baseColorTexture" : {
                    "index" : 5
                },
                "metallicFactor" : 0,
                "roughnessFactor" : 0.800000011920929
            }
        },
        {
            "doubleSided" : true,
            "name" : "strawberry",
            "pbrMetallicRoughness" : {
                "baseColorTexture" : {
                    "index" : 6
                },
                "metallicFactor" : 0,
                "roughnessFactor" : 0.800000011920929
            }
        },
        {
            "doubleSided" : true,
            "name" : "strawberryred",
            "pbrMetallicRoughness" : {
                "baseColorTexture" : {
                    "index" : 7
                },
                "metallicFactor" : 0,
                "roughnessFactor" : 0.800000011920929
            }
        }
    ],
    "meshes" : [
        {
            "name" : "Cylinder.004",
            "primitives" : [
                {
                    "attributes" : {
                        "POSITION" : 0,
                        "NORMAL" : 1,
                        "TEXCOORD_0" : 2
                    },
                    "indices" : 3,
                    "material" : 0
                }
            ]
        },
        {
            "name" : "Cylinder.007",
            "primitives" : [
                {
                    "attributes" : {
                        "POSITION" : 4,
                        "NORMAL" : 5,
                        "TEXCOORD_0" : 6
                    },
                    "indices" : 7,
                    "material" : 1
                }
            ]
        },
        {
            "name" : "Icosphere.008",
            "primitives" : [
                {
                    "attributes" : {
                        "POSITION" : 8,
                        "NORMAL" : 9,
                        "TEXCOORD_0" : 10
                    },
                    "indices" : 11,
                    "material" : 2
                }
            ]
        },
        {
            "name" : "Cylinder.002",
            "primitives" : [
                {
                    "attributes" : {
                        "POSITION" : 12,
                        "NORMAL" : 13,
                        "TEXCOORD_0" : 14
                    },
                    "indices" : 15,
                    "material" : 3
                }
            ]
        },
        {
            "name" : "Icosphere.007",
            "primitives" : [
                {
                    "attributes" : {
                        "POSITION" : 16,
                        "NORMAL" : 17,
                        "TEXCOORD_0" : 18
                    },
                    "indices" : 19,
                    "material" : 4
                }
            ]
        },
        {
            "name" : "Icosphere.010",
            "primitives" : [
                {
                    "attributes" : {
                        "POSITION" : 20,
                        "NORMAL" : 21,
                        "TEXCOORD_0" : 22
                    },
                    "indices" : 23,
                    "material" : 5
                }
            ]
        },
        {
            "name" : "Icosphere.011",
            "primitives" : [
                {
                    "attributes" : {
                        "POSITION" : 24,
                        "NORMAL" : 25,
                        "TEXCOORD_0" : 26
                    },
                    "indices" : 27,
                    "material" : 6
                }
            ]
        },
        {
            "name" : "Icosphere.012",
            "primitives" : [
                {
                    "attributes" : {
                        "POSITION" : 28,
                        "NORMAL" : 29,
                        "TEXCOORD_0" : 30
                    },
                    "indices" : 27,
                    "material" : 7
                }
            ]
        }
    ],
    "textures" : [
        {
            "sampler" : 0,
            "source" : 0
        },
        {
            "sampler" : 0,
            "source" : 1
        },
        {
            "sampler" : 0,
            "source" : 2
        },
        {
            "sampler" : 0,
            "source" : 1
        },
        {
            "sampler" : 0,
            "source" : 3
        },
        {
            "sampler" : 0,
            "source" : 4
        },
        {
            "sampler" : 0,
            "source" : 5
        },
        {
            "sampler" : 0,
            "source" : 6
        }
    ],
    "images" : [
        {
            "bufferView" : 4,
            "mimeType" : "image/jpeg",
            "name" : "Holly_tex_color"
        },
        {
            "bufferView" : 9,
            "mimeType" : "image/jpeg",
            "name" : "HollyRed_tex_color"
        },
        {
            "bufferView" : 14,
            "mimeType" : "image/jpeg",
            "name" : "ElderberryPurple_tex_color"
        },
        {
            "bufferView" : 23,
            "mimeType" : "image/jpeg",
            "name" : "Elderberry_tex_color"
        },
        {
            "bufferView" : 28,
            "mimeType" : "image/jpeg",
            "name" : "Juniper_tex_color"
        },
        {
            "bufferView" : 33,
            "mimeType" : "image/jpeg",
            "name" : "Strawberry_tex_color"
        },
        {
            "bufferView" : 37,
            "mimeType" : "image/jpeg",
            "name" : "StrawberryRed_tex_color"
        }
    ],
    "accessors" : [
        {
            "bufferView" : 0,
            "componentType" : 5126,
            "count" : 290,
            "max" : [
                3.6360912322998047,
                11.877678871154785,
                3.75024676322937
            ],
            "min" : [
                -3.6295690536499023,
                -0.07034306973218918,
                -3.49057674407959
            ],
            "type" : "VEC3"
        },
        {
            "bufferView" : 1,
            "componentType" : 5126,
            "count" : 290,
            "type" : "VEC3"
        },
        {
            "bufferView" : 2,
            "componentType" : 5126,
            "count" : 290,
            "type" : "VEC2"
        },
        {
            "bufferView" : 3,
            "componentType" : 5123,
            "count" : 318,
            "type" : "SCALAR"
        },
        {
            "bufferView" : 5,
            "componentType" : 5126,
            "count" : 240,
            "max" : [
                2.6804592609405518,
                10.22403335571289,
                2.8339760303497314
            ],
            "min" : [
                -2.6756508350372314,
                -0.3004210591316223,
                -2.640446662902832
            ],
            "type" : "VEC3"
        },
        {
            "bufferView" : 6,
            "componentType" : 5126,
            "count" : 240,
            "type" : "VEC3"
        },
        {
            "bufferView" : 7,
            "componentType" : 5126,
            "count" : 240,
            "type" : "VEC2"
        },
        {
            "bufferView" : 8,
            "componentType" : 5123,
            "count" : 246,
            "type" : "SCALAR"
        },
        {
            "bufferView" : 10,
            "componentType" : 5126,
            "count" : 120,
            "max" : [
                3.0961971282958984,
                3.7781856060028076,
                3.3046715259552
            ],
            "min" : [
                -3.1353912353515625,
                -0.1208319365978241,
                -3.5986263751983643
            ],
            "type" : "VEC3"
        },
        {
            "bufferView" : 11,
            "componentType" : 5126,
            "count" : 120,
            "type" : "VEC3"
        },
        {
            "bufferView" : 12,
            "componentType" : 5126,
            "count" : 120,
            "type" : "VEC2"
        },
        {
            "bufferView" : 13,
            "componentType" : 5123,
            "count" : 120,
            "type" : "SCALAR"
        },
        {
            "bufferView" : 15,
            "componentType" : 5126,
            "count" : 336,
            "max" : [
                2.378103017807007,
                11.026002883911133,
                2.414074420928955
            ],
            "min" : [
                -2.2546727657318115,
                -0.08421087265014648,
                -2.0713675022125244
            ],
            "type" : "VEC3"
        },
        {
            "bufferView" : 16,
            "componentType" : 5126,
            "count" : 336,
            "type" : "VEC3"
        },
        {
            "bufferView" : 17,
            "componentType" : 5126,
            "count" : 336,
            "type" : "VEC2"
        },
        {
            "bufferView" : 18,
            "componentType" : 5123,
            "count" : 384,
            "type" : "SCALAR"
        },
        {
            "bufferView" : 19,
            "componentType" : 5126,
            "count" : 120,
            "max" : [
                1.1648720502853394,
                1.081101894378662,
                1.2433059215545654
            ],
            "min" : [
                -1.179618000984192,
                -0.03457523137331009,
                -1.3538994789123535
            ],
            "type" : "VEC3"
        },
        {
            "bufferView" : 20,
            "componentType" : 5126,
            "count" : 120,
            "type" : "VEC3"
        },
        {
            "bufferView" : 21,
            "componentType" : 5126,
            "count" : 120,
            "type" : "VEC2"
        },
        {
            "bufferView" : 22,
            "componentType" : 5123,
            "count" : 120,
            "type" : "SCALAR"
        },
        {
            "bufferView" : 24,
            "componentType" : 5126,
            "count" : 225,
            "max" : [
                0.9510577917098999,
                5.088229179382324,
                0.9999998807907104
            ],
            "min" : [
                -0.9510577917098999,
                -0.019844412803649902,
                -0.9999998807907104
            ],
            "type" : "VEC3"
        },
        {
            "bufferView" : 25,
            "componentType" : 5126,
            "count" : 225,
            "type" : "VEC3"
        },
        {
            "bufferView" : 26,
            "componentType" : 5126,
            "count" : 225,
            "type" : "VEC2"
        },
        {
            "bufferView" : 27,
            "componentType" : 5123,
            "count" : 225,
            "type" : "SCALAR"
        },
        {
            "bufferView" : 29,
            "componentType" : 5126,
            "count" : 236,
            "max" : [
                2.0666415691375732,
                1.1593891382217407,
                1.2510302066802979
            ],
            "min" : [
                -1.1026462316513062,
                -0.07481952011585236,
                -1.1593890190124512
            ],
            "type" : "VEC3"
        },
        {
            "bufferView" : 30,
            "componentType" : 5126,
            "count" : 236,
            "type" : "VEC3"
        },
        {
            "bufferView" : 31,
            "componentType" : 5126,
            "count" : 236,
            "type" : "VEC2"
        },
        {
            "bufferView" : 32,
            "componentType" : 5123,
            "count" : 240,
            "type" : "SCALAR"
        },
        {
            "bufferView" : 34,
            "componentType" : 5126,
            "count" : 236,
            "max" : [
                2.0666415691375732,
                1.1593891382217407,
                1.2510302066802979
            ],
            "min" : [
                -1.1026462316513062,
                -0.07481952011585236,
                -1.1593890190124512
            ],
            "type" : "VEC3"
        },
        {
            "bufferView" : 35,
            "componentType" : 5126,
            "count" : 236,
            "type" : "VEC3"
        },
        {
            "bufferView" : 36,
            "componentType" : 5126,
            "count" : 236,
            "type" : "VEC2"
        }
    ],
    "bufferViews" : [
        {
            "buffer" : 0,
            "byteLength" : 3480,
            "byteOffset" : 0
        },
        {
            "buffer" : 0,
            "byteLength" : 3480,
            "byteOffset" : 3480
        },
        {
            "buffer" : 0,
            "byteLength" : 2320,
            "byteOffset" : 6960
        },
        {
            "buffer" : 0,
            "byteLength" : 636,
            "byteOffset" : 9280
        },
        {
            "buffer" : 0,
            "byteLength" : 5857,
            "byteOffset" : 9916
        },
        {
            "buffer" : 0,
            "byteLength" : 2880,
            "byteOffset" : 15776
        },
        {
            "buffer" : 0,
            "byteLength" : 2880,
            "byteOffset" : 18656
        },
        {
            "buffer" : 0,
            "byteLength" : 1920,
            "byteOffset" : 21536
        },
        {
            "buffer" : 0,
            "byteLength" : 492,
            "byteOffset" : 23456
        },
        {
            "buffer" : 0,
            "byteLength" : 11322,
            "byteOffset" : 23948
        },
        {
            "buffer" : 0,
            "byteLength" : 1440,
            "byteOffset" : 35272
        },
        {
            "buffer" : 0,
            "byteLength" : 1440,
            "byteOffset" : 36712
        },
        {
            "buffer" : 0,
            "byteLength" : 960,
            "byteOffset" : 38152
        },
        {
            "buffer" : 0,
            "byteLength" : 240,
            "byteOffset" : 39112
        },
        {
            "buffer" : 0,
            "byteLength" : 32503,
            "byteOffset" : 39352
        },
        {
            "buffer" : 0,
            "byteLength" : 4032,
            "byteOffset" : 71856
        },
        {
            "buffer" : 0,
            "byteLength" : 4032,
            "byteOffset" : 75888
        },
        {
            "buffer" : 0,
            "byteLength" : 2688,
            "byteOffset" : 79920
        },
        {
            "buffer" : 0,
            "byteLength" : 768,
            "byteOffset" : 82608
        },
        {
            "buffer" : 0,
            "byteLength" : 1440,
            "byteOffset" : 83376
        },
        {
            "buffer" : 0,
            "byteLength" : 1440,
            "byteOffset" : 84816
        },
        {
            "buffer" : 0,
            "byteLength" : 960,
            "byteOffset" : 86256
        },
        {
            "buffer" : 0,
            "byteLength" : 240,
            "byteOffset" : 87216
        },
        {
            "buffer" : 0,
            "byteLength" : 33202,
            "byteOffset" : 87456
        },
        {
            "buffer" : 0,
            "byteLength" : 2700,
            "byteOffset" : 120660
        },
        {
            "buffer" : 0,
            "byteLength" : 2700,
            "byteOffset" : 123360
        },
        {
            "buffer" : 0,
            "byteLength" : 1800,
            "byteOffset" : 126060
        },
        {
            "buffer" : 0,
            "byteLength" : 450,
            "byteOffset" : 127860
        },
        {
            "buffer" : 0,
            "byteLength" : 23394,
            "byteOffset" : 128312
        },
        {
            "buffer" : 0,
            "byteLength" : 2832,
            "byteOffset" : 151708
        },
        {
            "buffer" : 0,
            "byteLength" : 2832,
            "byteOffset" : 154540
        },
        {
            "buffer" : 0,
            "byteLength" : 1888,
            "byteOffset" : 157372
        },
        {
            "buffer" : 0,
            "byteLength" : 480,
            "byteOffset" : 159260
        },
        {
            "buffer" : 0,
            "byteLength" : 729,
            "byteOffset" : 159740
        },
        {
            "buffer" : 0,
            "byteLength" : 2832,
            "byteOffset" : 160472
        },
        {
            "buffer" : 0,
            "byteLength" : 2832,
            "byteOffset" : 163304
        },
        {
            "buffer" : 0,
            "byteLength" : 1888,
            "byteOffset" : 166136
        },
        {
            "buffer" : 0,
            "byteLength" : 22912,
            "byteOffset" : 168024
        }
    ],
    "samplers" : [
        {
            "magFilter" : 9729,
            "minFilter" : 9987
        }
    ],
    "buffers" : [
        {
            "byteLength" : 190936,
            "uri" : "data:application/octet-stream;base64,"
        }
    ]
}
