{
    "asset" : {
        "generator" : "Khronos glTF Blender I/O v1.6.16",
        "version" : "2.0"
    },
    "scene" : 0,
    "scenes" : [
        {
            "name" : "Scene",
            "nodes" : [
                0,
                1,
                2,
                3,
                4,
                5,
                6,
                7
            ]
        }
    ],
    "nodes" : [
        {
            "mesh" : 0,
            "name" : "JuniperBush1 - copy.011",
            "rotation" : [
                -0.018158098682761192,
                -0.7772663235664368,
                0.00047442372306250036,
                0.6289096474647522
            ],
            "scale" : [
                0.55633544921875,
                0.55633544921875,
                0.5563353896141052
            ],
            "translation" : [
                66.5007553100586,
                2.596681594848633,
                18.080852508544922
            ]
        },
        {
            "mesh" : 0,
            "name" : "JuniperBush1 - copy.013",
            "rotation" : [
                -0.027185168117284775,
                0.7775061726570129,
                -0.10484782606363297,
                0.6194772720336914
            ],
            "scale" : [
                0.5287878513336182,
                0.5287878513336182,
                0.5287878513336182
            ],
            "translation" : [
                62.62063980102539,
                1.8070725202560425,
                8.371397018432617
            ]
        },
        {
            "mesh" : 1,
            "name" : "Hollytree1 - copy.002",
            "rotation" : [
                -0.043146029114723206,
                0.8428739309310913,
                -0.04273463413119316,
                0.5346734523773193
            ],
            "scale" : [
                0.3902793526649475,
                0.3902793824672699,
                0.3902793824672699
            ],
            "translation" : [
                58.32796859741211,
                2.1382460594177246,
                8.51643180847168
            ]
        },
        {
            "mesh" : 1,
            "name" : "Hollytree1 - copy.023",
            "rotation" : [
                -0.026163408532738686,
                0.4581686556339264,
                -0.12450095266103745,
                0.8797138929367065
            ],
            "scale" : [
                0.3293764889240265,
                0.3293765187263489,
                0.3293764889240265
            ],
            "translation" : [
                59.256893157958984,
                3.9436426162719727,
                23.12689781188965
            ]
        },
        {
            "mesh" : 2,
            "name" : "JuniperBush2 - copy.002",
            "rotation" : [
                -0.11026352643966675,
                0.24901551008224487,
                -0.016370847821235657,
                0.9620630145072937
            ],
            "scale" : [
                0.6109018325805664,
                0.6109018325805664,
                0.6109017729759216
            ],
            "translation" : [
                51.47383117675781,
                3.287595272064209,
                17.243053436279297
            ]
        },
        {
            "mesh" : 2,
            "name" : "JuniperBush2 - copy.018",
            "rotation" : [
                -0.09844019263982773,
                -0.005552954506129026,
                -0.036794424057006836,
                0.9944471120834351
            ],
            "scale" : [
                0.6066067218780518,
                0.606606662273407,
                0.6066067218780518
            ],
            "translation" : [
                68.6548080444336,
                1.5886667966842651,
                9.301370620727539
            ]
        },
        {
            "mesh" : 3,
            "name" : "StrawberryBush1 - copy.002",
            "rotation" : [
                -0.08841734379529953,
                -0.15185658633708954,
                -0.05902756378054619,
                0.9826687574386597
            ],
            "scale" : [
                0.6238833665847778,
                0.6238833665847778,
                0.6238833665847778
            ],
            "translation" : [
                61.870330810546875,
                3.419323205947876,
                22.921396255493164
            ]
        },
        {
            "mesh" : 4,
            "name" : "StrawberryBush2 - copy.005",
            "rotation" : [
                -0.009298968128859997,
                0.6198815703392029,
                -0.029920190572738647,
                0.7840695977210999
            ],
            "scale" : [
                0.7132997512817383,
                0.7132997512817383,
                0.7132997512817383
            ],
            "translation" : [
                68.52635192871094,
                2.358071804046631,
                13.477115631103516
            ]
        }
    ],
    "materials" : [
        {
            "doubleSided" : true,
            "name" : "juniper",
            "pbrMetallicRoughness" : {
                "baseColorTexture" : {
                    "index" : 0
                },
                "metallicFactor" : 0,
                "roughnessFactor" : 0.800000011920929
            }
        },
        {
            "doubleSided" : true,
            "name" : "hollyred",
            "pbrMetallicRoughness" : {
                "baseColorTexture" : {
                    "index" : 1
                },
                "metallicFactor" : 0,
                "roughnessFactor" : 0.800000011920929
            }
        },
        {
            "doubleSided" : true,
            "name" : "juniper.001",
            "pbrMetallicRoughness" : {
                "baseColorTexture" : {
                    "index" : 2
                },
                "metallicFactor" : 0,
                "roughnessFactor" : 0.800000011920929
            }
        },
        {
            "doubleSided" : true,
            "name" : "strawberry",
            "pbrMetallicRoughness" : {
                "baseColorTexture" : {
                    "index" : 3
                },
                "metallicFactor" : 0,
                "roughnessFactor" : 0.800000011920929
            }
        },
        {
            "doubleSided" : true,
            "name" : "strawberryred",
            "pbrMetallicRoughness" : {
                "baseColorTexture" : {
                    "index" : 4
                },
                "metallicFactor" : 0,
                "roughnessFactor" : 0.800000011920929
            }
        }
    ],
    "meshes" : [
        {
            "name" : "Icosphere.009",
            "primitives" : [
                {
                    "attributes" : {
                        "POSITION" : 0,
                        "NORMAL" : 1,
                        "TEXCOORD_0" : 2
                    },
                    "indices" : 3,
                    "material" : 0
                }
            ]
        },
        {
            "name" : "Cylinder.002",
            "primitives" : [
                {
                    "attributes" : {
                        "POSITION" : 4,
                        "NORMAL" : 5,
                        "TEXCOORD_0" : 6
                    },
                    "indices" : 7,
                    "material" : 1
                }
            ]
        },
        {
            "name" : "Icosphere.010",
            "primitives" : [
                {
                    "attributes" : {
                        "POSITION" : 8,
                        "NORMAL" : 9,
                        "TEXCOORD_0" : 10
                    },
                    "indices" : 11,
                    "material" : 2
                }
            ]
        },
        {
            "name" : "Icosphere.011",
            "primitives" : [
                {
                    "attributes" : {
                        "POSITION" : 12,
                        "NORMAL" : 13,
                        "TEXCOORD_0" : 14
                    },
                    "indices" : 15,
                    "material" : 3
                }
            ]
        },
        {
            "name" : "Icosphere.012",
            "primitives" : [
                {
                    "attributes" : {
                        "POSITION" : 16,
                        "NORMAL" : 17,
                        "TEXCOORD_0" : 18
                    },
                    "indices" : 15,
                    "material" : 4
                }
            ]
        }
    ],
    "textures" : [
        {
            "sampler" : 0,
            "source" : 0
        },
        {
            "sampler" : 0,
            "source" : 1
        },
        {
            "sampler" : 0,
            "source" : 0
        },
        {
            "sampler" : 0,
            "source" : 2
        },
        {
            "sampler" : 0,
            "source" : 3
        }
    ],
    "images" : [
        {
            "bufferView" : 4,
            "mimeType" : "image/jpeg",
            "name" : "Juniper_tex_color"
        },
        {
            "bufferView" : 9,
            "mimeType" : "image/jpeg",
            "name" : "HollyRed_tex_color"
        },
        {
            "bufferView" : 18,
            "mimeType" : "image/jpeg",
            "name" : "Strawberry_tex_color"
        },
        {
            "bufferView" : 22,
            "mimeType" : "image/jpeg",
            "name" : "StrawberryRed_tex_color"
        }
    ],
    "accessors" : [
        {
            "bufferView" : 0,
            "componentType" : 5126,
            "count" : 472,
            "max" : [
                2.5377357006073,
                2.4670727252960205,
                2.521022319793701
            ],
            "min" : [
                -2.51458477973938,
                -0.06310360133647919,
                -2.5383002758026123
            ],
            "type" : "VEC3"
        },
        {
            "bufferView" : 1,
            "componentType" : 5126,
            "count" : 472,
            "type" : "VEC3"
        },
        {
            "bufferView" : 2,
            "componentType" : 5126,
            "count" : 472,
            "type" : "VEC2"
        },
        {
            "bufferView" : 3,
            "componentType" : 5123,
            "count" : 480,
            "type" : "SCALAR"
        },
        {
            "bufferView" : 5,
            "componentType" : 5126,
            "count" : 336,
            "max" : [
                2.378103017807007,
                11.026002883911133,
                2.414074420928955
            ],
            "min" : [
                -2.2546727657318115,
                -0.08421087265014648,
                -2.0713675022125244
            ],
            "type" : "VEC3"
        },
        {
            "bufferView" : 6,
            "componentType" : 5126,
            "count" : 336,
            "type" : "VEC3"
        },
        {
            "bufferView" : 7,
            "componentType" : 5126,
            "count" : 336,
            "type" : "VEC2"
        },
        {
            "bufferView" : 8,
            "componentType" : 5123,
            "count" : 384,
            "type" : "SCALAR"
        },
        {
            "bufferView" : 10,
            "componentType" : 5126,
            "count" : 225,
            "max" : [
                0.9510577917098999,
                5.088229179382324,
                0.9999998807907104
            ],
            "min" : [
                -0.9510577917098999,
                -0.019844412803649902,
                -0.9999998807907104
            ],
            "type" : "VEC3"
        },
        {
            "bufferView" : 11,
            "componentType" : 5126,
            "count" : 225,
            "type" : "VEC3"
        },
        {
            "bufferView" : 12,
            "componentType" : 5126,
            "count" : 225,
            "type" : "VEC2"
        },
        {
            "bufferView" : 13,
            "componentType" : 5123,
            "count" : 225,
            "type" : "SCALAR"
        },
        {
            "bufferView" : 14,
            "componentType" : 5126,
            "count" : 236,
            "max" : [
                2.0666415691375732,
                1.1593891382217407,
                1.2510302066802979
            ],
            "min" : [
                -1.1026462316513062,
                -0.07481952011585236,
                -1.1593890190124512
            ],
            "type" : "VEC3"
        },
        {
            "bufferView" : 15,
            "componentType" : 5126,
            "count" : 236,
            "type" : "VEC3"
        },
        {
            "bufferView" : 16,
            "componentType" : 5126,
            "count" : 236,
            "type" : "VEC2"
        },
        {
            "bufferView" : 17,
            "componentType" : 5123,
            "count" : 240,
            "type" : "SCALAR"
        },
        {
            "bufferView" : 19,
            "componentType" : 5126,
            "count" : 236,
            "max" : [
                2.0666415691375732,
                1.1593891382217407,
                1.2510302066802979
            ],
            "min" : [
                -1.1026462316513062,
                -0.07481952011585236,
                -1.1593890190124512
            ],
            "type" : "VEC3"
        },
        {
            "bufferView" : 20,
            "componentType" : 5126,
            "count" : 236,
            "type" : "VEC3"
        },
        {
            "bufferView" : 21,
            "componentType" : 5126,
            "count" : 236,
            "type" : "VEC2"
        }
    ],
    "bufferViews" : [
        {
            "buffer" : 0,
            "byteLength" : 5664,
            "byteOffset" : 0
        },
        {
            "buffer" : 0,
            "byteLength" : 5664,
            "byteOffset" : 5664
        },
        {
            "buffer" : 0,
            "byteLength" : 3776,
            "byteOffset" : 11328
        },
        {
            "buffer" : 0,
            "byteLength" : 960,
            "byteOffset" : 15104
        },
        {
            "buffer" : 0,
            "byteLength" : 23394,
            "byteOffset" : 16064
        },
        {
            "buffer" : 0,
            "byteLength" : 4032,
            "byteOffset" : 39460
        },
        {
            "buffer" : 0,
            "byteLength" : 4032,
            "byteOffset" : 43492
        },
        {
            "buffer" : 0,
            "byteLength" : 2688,
            "byteOffset" : 47524
        },
        {
            "buffer" : 0,
            "byteLength" : 768,
            "byteOffset" : 50212
        },
        {
            "buffer" : 0,
            "byteLength" : 11322,
            "byteOffset" : 50980
        },
        {
            "buffer" : 0,
            "byteLength" : 2700,
            "byteOffset" : 62304
        },
        {
            "buffer" : 0,
            "byteLength" : 2700,
            "byteOffset" : 65004
        },
        {
            "buffer" : 0,
            "byteLength" : 1800,
            "byteOffset" : 67704
        },
        {
            "buffer" : 0,
            "byteLength" : 450,
            "byteOffset" : 69504
        },
        {
            "buffer" : 0,
            "byteLength" : 2832,
            "byteOffset" : 69956
        },
        {
            "buffer" : 0,
            "byteLength" : 2832,
            "byteOffset" : 72788
        },
        {
            "buffer" : 0,
            "byteLength" : 1888,
            "byteOffset" : 75620
        },
        {
            "buffer" : 0,
            "byteLength" : 480,
            "byteOffset" : 77508
        },
        {
            "buffer" : 0,
            "byteLength" : 729,
            "byteOffset" : 77988
        },
        {
            "buffer" : 0,
            "byteLength" : 2832,
            "byteOffset" : 78720
        },
        {
            "buffer" : 0,
            "byteLength" : 2832,
            "byteOffset" : 81552
        },
        {
            "buffer" : 0,
            "byteLength" : 1888,
            "byteOffset" : 84384
        },
        {
            "buffer" : 0,
            "byteLength" : 22912,
            "byteOffset" : 86272
        }
    ],
    "samplers" : [
        {
            "magFilter" : 9729,
            "minFilter" : 9987
        }
    ],
    "buffers" : [
        {
            "byteLength" : 109184,
            "uri" : "data:application/octet-stream;base64,"
        }
    ]
}
