{
    "asset" : {
        "generator" : "Khronos glTF Blender I/O v1.6.16",
        "version" : "2.0"
    },
    "scene" : 0,
    "scenes" : [
        {
            "name" : "Scene",
            "nodes" : [
                0,
                1,
                2,
                3,
                4,
                5,
                6,
                7,
                8
            ]
        }
    ],
    "nodes" : [
        {
            "mesh" : 0,
            "name" : "Hollytree2 - copy.004",
            "rotation" : [
                -0.13392288982868195,
                0.7795088887214661,
                0.020508337765932083,
                0.6115635633468628
            ],
            "scale" : [
                0.2997066080570221,
                0.29970666766166687,
                0.2997066080570221
            ],
            "translation" : [
                46.594329833984375,
                2.7788655757904053,
                15.495718002319336
            ]
        },
        {
            "mesh" : 0,
            "name" : "Hollytree2 - copy.010",
            "rotation" : [
                0.09221252053976059,
                -0.733305811882019,
                0.09355548769235611,
                0.6670883297920227
            ],
            "scale" : [
                0.27686747908592224,
                0.27686747908592224,
                0.27686750888824463
            ],
            "translation" : [
                38.76942825317383,
                1.4432138204574585,
                12.17945384979248
            ]
        },
        {
            "mesh" : 1,
            "name" : "JuniperBush1 - copy.012",
            "rotation" : [
                0.027262266725301743,
                0.28346195816993713,
                0.14075012505054474,
                0.9482064843177795
            ],
            "scale" : [
                0.570621907711029,
                0.570621907711029,
                0.5706218481063843
            ],
            "translation" : [
                32.84789276123047,
                -1.2388176918029785,
                26.262203216552734
            ]
        },
        {
            "mesh" : 2,
            "name" : "ElderberryBush2 - copy.009",
            "rotation" : [
                0.1104700118303299,
                -0.3475674092769623,
                0.21002502739429474,
                0.9071289896965027
            ],
            "scale" : [
                0.30078816413879395,
                0.30078816413879395,
                0.30078819394111633
            ],
            "translation" : [
                38.54385757446289,
                1.29736328125,
                21.26239776611328
            ]
        },
        {
            "mesh" : 2,
            "name" : "ElderberryBush2 - copy.023",
            "rotation" : [
                -0.08413326740264893,
                0.6722089052200317,
                0.09249227494001389,
                0.7297273278236389
            ],
            "scale" : [
                0.31072890758514404,
                0.31072887778282166,
                0.31072890758514404
            ],
            "translation" : [
                32.72704315185547,
                -0.1326393485069275,
                15.722063064575195
            ]
        },
        {
            "mesh" : 3,
            "name" : "StrawberryBush1 - copy.006",
            "rotation" : [
                0.04044392704963684,
                -0.25180163979530334,
                0.07962552458047867,
                0.963649332523346
            ],
            "scale" : [
                0.5409730076789856,
                0.5409729480743408,
                0.5409730076789856
            ],
            "translation" : [
                31.36506462097168,
                -0.2721347212791443,
                10.504374504089355
            ]
        },
        {
            "mesh" : 4,
            "name" : "StrawberryBush2 - copy.004",
            "rotation" : [
                -0.0462227500975132,
                -0.1701381951570511,
                0.14605824649333954,
                0.9734389781951904
            ],
            "scale" : [
                0.6186550855636597,
                0.6186550855636597,
                0.6186550855636597
            ],
            "translation" : [
                42.21980285644531,
                2.562991142272949,
                27.053796768188477
            ]
        },
        {
            "mesh" : 4,
            "name" : "StrawberryBush2 - copy.021",
            "rotation" : [
                0.009485675022006035,
                0.39960741996765137,
                0.14305491745471954,
                0.905405580997467
            ],
            "scale" : [
                0.6703877449035645,
                0.6703877449035645,
                0.6703876852989197
            ],
            "translation" : [
                34.627296447753906,
                0.06890660524368286,
                20.231266021728516
            ]
        },
        {
            "mesh" : 5,
            "name" : "StrawberryBush3 - copy.008",
            "rotation" : [
                -0.21961726248264313,
                0.9361664652824402,
                0.08990351855754852,
                0.2593803405761719
            ],
            "scale" : [
                0.49216681718826294,
                0.4921668469905853,
                0.4921668469905853
            ],
            "translation" : [
                37.50656509399414,
                0.738582193851471,
                21.66529655456543
            ]
        }
    ],
    "materials" : [
        {
            "doubleSided" : true,
            "name" : "Material.014",
            "pbrMetallicRoughness" : {
                "baseColorTexture" : {
                    "index" : 0
                },
                "metallicFactor" : 0,
                "roughnessFactor" : 0.800000011920929
            }
        },
        {
            "doubleSided" : true,
            "name" : "juniper",
            "pbrMetallicRoughness" : {
                "baseColorTexture" : {
                    "index" : 1
                },
                "metallicFactor" : 0,
                "roughnessFactor" : 0.800000011920929
            }
        },
        {
            "doubleSided" : true,
            "name" : "Material.013",
            "pbrMetallicRoughness" : {
                "baseColorTexture" : {
                    "index" : 2
                },
                "metallicFactor" : 0,
                "roughnessFactor" : 0.800000011920929
            }
        },
        {
            "doubleSided" : true,
            "name" : "strawberry",
            "pbrMetallicRoughness" : {
                "baseColorTexture" : {
                    "index" : 3
                },
                "metallicFactor" : 0,
                "roughnessFactor" : 0.800000011920929
            }
        },
        {
            "doubleSided" : true,
            "name" : "strawberryred",
            "pbrMetallicRoughness" : {
                "baseColorTexture" : {
                    "index" : 4
                },
                "metallicFactor" : 0,
                "roughnessFactor" : 0.800000011920929
            }
        },
        {
            "doubleSided" : true,
            "name" : "strawberryred.001",
            "pbrMetallicRoughness" : {
                "baseColorTexture" : {
                    "index" : 5
                },
                "metallicFactor" : 0,
                "roughnessFactor" : 0.800000011920929
            }
        }
    ],
    "meshes" : [
        {
            "name" : "Cylinder.004",
            "primitives" : [
                {
                    "attributes" : {
                        "POSITION" : 0,
                        "NORMAL" : 1,
                        "TEXCOORD_0" : 2
                    },
                    "indices" : 3,
                    "material" : 0
                }
            ]
        },
        {
            "name" : "Icosphere.009",
            "primitives" : [
                {
                    "attributes" : {
                        "POSITION" : 4,
                        "NORMAL" : 5,
                        "TEXCOORD_0" : 6
                    },
                    "indices" : 7,
                    "material" : 1
                }
            ]
        },
        {
            "name" : "Icosphere.008",
            "primitives" : [
                {
                    "attributes" : {
                        "POSITION" : 8,
                        "NORMAL" : 9,
                        "TEXCOORD_0" : 10
                    },
                    "indices" : 11,
                    "material" : 2
                }
            ]
        },
        {
            "name" : "Icosphere.011",
            "primitives" : [
                {
                    "attributes" : {
                        "POSITION" : 12,
                        "NORMAL" : 13,
                        "TEXCOORD_0" : 14
                    },
                    "indices" : 15,
                    "material" : 3
                }
            ]
        },
        {
            "name" : "Icosphere.012",
            "primitives" : [
                {
                    "attributes" : {
                        "POSITION" : 16,
                        "NORMAL" : 17,
                        "TEXCOORD_0" : 18
                    },
                    "indices" : 15,
                    "material" : 4
                }
            ]
        },
        {
            "name" : "Icosphere.013",
            "primitives" : [
                {
                    "attributes" : {
                        "POSITION" : 19,
                        "NORMAL" : 20,
                        "TEXCOORD_0" : 21
                    },
                    "indices" : 22,
                    "material" : 5
                }
            ]
        }
    ],
    "textures" : [
        {
            "sampler" : 0,
            "source" : 0
        },
        {
            "sampler" : 0,
            "source" : 1
        },
        {
            "sampler" : 0,
            "source" : 2
        },
        {
            "sampler" : 0,
            "source" : 3
        },
        {
            "sampler" : 0,
            "source" : 4
        },
        {
            "sampler" : 0,
            "source" : 4
        }
    ],
    "images" : [
        {
            "bufferView" : 4,
            "mimeType" : "image/jpeg",
            "name" : "Holly_tex_color"
        },
        {
            "bufferView" : 9,
            "mimeType" : "image/jpeg",
            "name" : "Juniper_tex_color"
        },
        {
            "bufferView" : 14,
            "mimeType" : "image/jpeg",
            "name" : "ElderberryPurple_tex_color"
        },
        {
            "bufferView" : 19,
            "mimeType" : "image/jpeg",
            "name" : "Strawberry_tex_color"
        },
        {
            "bufferView" : 23,
            "mimeType" : "image/jpeg",
            "name" : "StrawberryRed_tex_color"
        }
    ],
    "accessors" : [
        {
            "bufferView" : 0,
            "componentType" : 5126,
            "count" : 290,
            "max" : [
                3.6360912322998047,
                11.877678871154785,
                3.75024676322937
            ],
            "min" : [
                -3.6295690536499023,
                -0.07034306973218918,
                -3.49057674407959
            ],
            "type" : "VEC3"
        },
        {
            "bufferView" : 1,
            "componentType" : 5126,
            "count" : 290,
            "type" : "VEC3"
        },
        {
            "bufferView" : 2,
            "componentType" : 5126,
            "count" : 290,
            "type" : "VEC2"
        },
        {
            "bufferView" : 3,
            "componentType" : 5123,
            "count" : 318,
            "type" : "SCALAR"
        },
        {
            "bufferView" : 5,
            "componentType" : 5126,
            "count" : 472,
            "max" : [
                2.5377357006073,
                2.4670727252960205,
                2.521022319793701
            ],
            "min" : [
                -2.51458477973938,
                -0.06310360133647919,
                -2.5383002758026123
            ],
            "type" : "VEC3"
        },
        {
            "bufferView" : 6,
            "componentType" : 5126,
            "count" : 472,
            "type" : "VEC3"
        },
        {
            "bufferView" : 7,
            "componentType" : 5126,
            "count" : 472,
            "type" : "VEC2"
        },
        {
            "bufferView" : 8,
            "componentType" : 5123,
            "count" : 480,
            "type" : "SCALAR"
        },
        {
            "bufferView" : 10,
            "componentType" : 5126,
            "count" : 120,
            "max" : [
                3.0961971282958984,
                3.7781856060028076,
                3.3046715259552
            ],
            "min" : [
                -3.1353912353515625,
                -0.1208319365978241,
                -3.5986263751983643
            ],
            "type" : "VEC3"
        },
        {
            "bufferView" : 11,
            "componentType" : 5126,
            "count" : 120,
            "type" : "VEC3"
        },
        {
            "bufferView" : 12,
            "componentType" : 5126,
            "count" : 120,
            "type" : "VEC2"
        },
        {
            "bufferView" : 13,
            "componentType" : 5123,
            "count" : 120,
            "type" : "SCALAR"
        },
        {
            "bufferView" : 15,
            "componentType" : 5126,
            "count" : 236,
            "max" : [
                2.0666415691375732,
                1.1593891382217407,
                1.2510302066802979
            ],
            "min" : [
                -1.1026462316513062,
                -0.07481952011585236,
                -1.1593890190124512
            ],
            "type" : "VEC3"
        },
        {
            "bufferView" : 16,
            "componentType" : 5126,
            "count" : 236,
            "type" : "VEC3"
        },
        {
            "bufferView" : 17,
            "componentType" : 5126,
            "count" : 236,
            "type" : "VEC2"
        },
        {
            "bufferView" : 18,
            "componentType" : 5123,
            "count" : 240,
            "type" : "SCALAR"
        },
        {
            "bufferView" : 20,
            "componentType" : 5126,
            "count" : 236,
            "max" : [
                2.0666415691375732,
                1.1593891382217407,
                1.2510302066802979
            ],
            "min" : [
                -1.1026462316513062,
                -0.07481952011585236,
                -1.1593890190124512
            ],
            "type" : "VEC3"
        },
        {
            "bufferView" : 21,
            "componentType" : 5126,
            "count" : 236,
            "type" : "VEC3"
        },
        {
            "bufferView" : 22,
            "componentType" : 5126,
            "count" : 236,
            "type" : "VEC2"
        },
        {
            "bufferView" : 24,
            "componentType" : 5126,
            "count" : 356,
            "max" : [
                2.0666415691375732,
                1.1593891382217407,
                2.154391050338745
            ],
            "min" : [
                -1.1026462316513062,
                -0.07481952011585236,
                -1.1593890190124512
            ],
            "type" : "VEC3"
        },
        {
            "bufferView" : 25,
            "componentType" : 5126,
            "count" : 356,
            "type" : "VEC3"
        },
        {
            "bufferView" : 26,
            "componentType" : 5126,
            "count" : 356,
            "type" : "VEC2"
        },
        {
            "bufferView" : 27,
            "componentType" : 5123,
            "count" : 360,
            "type" : "SCALAR"
        }
    ],
    "bufferViews" : [
        {
            "buffer" : 0,
            "byteLength" : 3480,
            "byteOffset" : 0
        },
        {
            "buffer" : 0,
            "byteLength" : 3480,
            "byteOffset" : 3480
        },
        {
            "buffer" : 0,
            "byteLength" : 2320,
            "byteOffset" : 6960
        },
        {
            "buffer" : 0,
            "byteLength" : 636,
            "byteOffset" : 9280
        },
        {
            "buffer" : 0,
            "byteLength" : 5857,
            "byteOffset" : 9916
        },
        {
            "buffer" : 0,
            "byteLength" : 5664,
            "byteOffset" : 15776
        },
        {
            "buffer" : 0,
            "byteLength" : 5664,
            "byteOffset" : 21440
        },
        {
            "buffer" : 0,
            "byteLength" : 3776,
            "byteOffset" : 27104
        },
        {
            "buffer" : 0,
            "byteLength" : 960,
            "byteOffset" : 30880
        },
        {
            "buffer" : 0,
            "byteLength" : 23394,
            "byteOffset" : 31840
        },
        {
            "buffer" : 0,
            "byteLength" : 1440,
            "byteOffset" : 55236
        },
        {
            "buffer" : 0,
            "byteLength" : 1440,
            "byteOffset" : 56676
        },
        {
            "buffer" : 0,
            "byteLength" : 960,
            "byteOffset" : 58116
        },
        {
            "buffer" : 0,
            "byteLength" : 240,
            "byteOffset" : 59076
        },
        {
            "buffer" : 0,
            "byteLength" : 32503,
            "byteOffset" : 59316
        },
        {
            "buffer" : 0,
            "byteLength" : 2832,
            "byteOffset" : 91820
        },
        {
            "buffer" : 0,
            "byteLength" : 2832,
            "byteOffset" : 94652
        },
        {
            "buffer" : 0,
            "byteLength" : 1888,
            "byteOffset" : 97484
        },
        {
            "buffer" : 0,
            "byteLength" : 480,
            "byteOffset" : 99372
        },
        {
            "buffer" : 0,
            "byteLength" : 729,
            "byteOffset" : 99852
        },
        {
            "buffer" : 0,
            "byteLength" : 2832,
            "byteOffset" : 100584
        },
        {
            "buffer" : 0,
            "byteLength" : 2832,
            "byteOffset" : 103416
        },
        {
            "buffer" : 0,
            "byteLength" : 1888,
            "byteOffset" : 106248
        },
        {
            "buffer" : 0,
            "byteLength" : 22912,
            "byteOffset" : 108136
        },
        {
            "buffer" : 0,
            "byteLength" : 4272,
            "byteOffset" : 131048
        },
        {
            "buffer" : 0,
            "byteLength" : 4272,
            "byteOffset" : 135320
        },
        {
            "buffer" : 0,
            "byteLength" : 2848,
            "byteOffset" : 139592
        },
        {
            "buffer" : 0,
            "byteLength" : 720,
            "byteOffset" : 142440
        }
    ],
    "samplers" : [
        {
            "magFilter" : 9729,
            "minFilter" : 9987
        }
    ],
    "buffers" : [
        {
            "byteLength" : 143160,
            "uri" : "data:application/octet-stream;base64,"
        }
    ]
}
