{
    "asset" : {
        "generator" : "Khronos glTF Blender I/O v1.6.16",
        "version" : "2.0"
    },
    "scene" : 0,
    "scenes" : [
        {
            "name" : "Scene",
            "nodes" : [
                0,
                1,
                2,
                3,
                4,
                5,
                6,
                7,
                8,
                9,
                10,
                11
            ]
        }
    ],
    "nodes" : [
        {
            "mesh" : 0,
            "name" : "Hollytree2 - copy.015",
            "rotation" : [
                -0.07217445969581604,
                -0.8641649484634399,
                0.06263618916273117,
                0.49405112862586975
            ],
            "scale" : [
                0.29255592823028564,
                0.29255589842796326,
                0.29255592823028564
            ],
            "translation" : [
                51.05686950683594,
                0.2723986506462097,
                -3.645512104034424
            ]
        },
        {
            "mesh" : 1,
            "name" : "ElderberryBush2 - copy.014",
            "rotation" : [
                -0.08582798391580582,
                0.11776319891214371,
                -0.0420200377702713,
                0.9884330630302429
            ],
            "scale" : [
                0.3221896290779114,
                0.3221896290779114,
                0.322189599275589
            ],
            "translation" : [
                61.07180404663086,
                0.24243147671222687,
                -0.849082887172699
            ]
        },
        {
            "mesh" : 2,
            "name" : "Hollytree1 - copy.018",
            "rotation" : [
                0.009529349394142628,
                0.9676446318626404,
                -0.09508784115314484,
                0.23351949453353882
            ],
            "scale" : [
                0.38492193818092346,
                0.3849219083786011,
                0.3849219083786011
            ],
            "translation" : [
                52.68293380737305,
                0.28811636567115784,
                -3.1788976192474365
            ]
        },
        {
            "mesh" : 3,
            "name" : "JuniperBush2 - copy.020",
            "rotation" : [
                0,
                -0.9752439260482788,
                0,
                0.221132293343544
            ],
            "scale" : [
                0.582642138004303,
                0.5826422572135925,
                0.582642138004303
            ],
            "translation" : [
                53.585872650146484,
                -0.08877561241388321,
                -13.296913146972656
            ]
        },
        {
            "mesh" : 4,
            "name" : "StrawberryBush1 - copy.013",
            "rotation" : [
                -0.001749920891597867,
                0.5457419753074646,
                -0.0007374683045782149,
                0.837951123714447
            ],
            "scale" : [
                0.6640555262565613,
                0.6640554666519165,
                0.6640555262565613
            ],
            "translation" : [
                63.58415222167969,
                -0.09329763054847717,
                -11.967034339904785
            ]
        },
        {
            "mesh" : 4,
            "name" : "StrawberryBush1 - copy.016",
            "rotation" : [
                -0.0018439581617712975,
                0.39143675565719604,
                -0.000419639574829489,
                0.9202030897140503
            ],
            "scale" : [
                0.5990561246871948,
                0.59905606508255,
                0.5990561246871948
            ],
            "translation" : [
                46.5497932434082,
                -0.08754991739988327,
                -9.971921920776367
            ]
        },
        {
            "mesh" : 4,
            "name" : "StrawberryBush1 - copy.025",
            "rotation" : [
                0.0009413984371349216,
                0.7303257584571838,
                -0.0011354901362210512,
                0.6830974221229553
            ],
            "scale" : [
                0.5821597576141357,
                0.5821597576141357,
                0.5821598172187805
            ],
            "translation" : [
                65.39202880859375,
                -0.06319832801818848,
                -5.177308559417725
            ]
        },
        {
            "mesh" : 5,
            "name" : "StrawberryBush2 - copy.011",
            "rotation" : [
                -0.04427178204059601,
                -0.7736278772354126,
                0.026769110932946205,
                0.6315246224403381
            ],
            "scale" : [
                0.6128810048103333,
                0.612881064414978,
                0.6128810048103333
            ],
            "translation" : [
                64.8546371459961,
                0.24158500134944916,
                0.8605338931083679
            ]
        },
        {
            "mesh" : 5,
            "name" : "StrawberryBush2 - copy.013",
            "rotation" : [
                0,
                -0.9723162651062012,
                0,
                0.23366916179656982
            ],
            "scale" : [
                0.6989054679870605,
                0.6989055275917053,
                0.6989054679870605
            ],
            "translation" : [
                50.5228385925293,
                -0.09592325985431671,
                -14.074958801269531
            ]
        },
        {
            "mesh" : 6,
            "name" : "StrawberryBush3 - copy.012",
            "rotation" : [
                -0.0012936340644955635,
                0.8392348289489746,
                -0.0013794162077829242,
                0.5437660813331604
            ],
            "scale" : [
                0.481622576713562,
                0.48162248730659485,
                0.481622576713562
            ],
            "translation" : [
                47.103939056396484,
                -0.07918796688318253,
                -8.433581352233887
            ]
        },
        {
            "mesh" : 6,
            "name" : "StrawberryBush3 - copy.017",
            "rotation" : [
                0,
                0.9045175909996033,
                0,
                0.42643630504608154
            ],
            "scale" : [
                0.5077832937240601,
                0.5077832341194153,
                0.5077832937240601
            ],
            "translation" : [
                58.9471549987793,
                -0.09095796197652817,
                -16.251487731933594
            ]
        },
        {
            "mesh" : 6,
            "name" : "StrawberryBush3 - copy.018",
            "rotation" : [
                -0.06629286706447601,
                0.4982636272907257,
                -0.08153035491704941,
                0.860634446144104
            ],
            "scale" : [
                0.44760212302207947,
                0.4476020932197571,
                0.4476020932197571
            ],
            "translation" : [
                70.69742584228516,
                0.5482069253921509,
                4.911281108856201
            ]
        }
    ],
    "materials" : [
        {
            "doubleSided" : true,
            "name" : "Material.014",
            "pbrMetallicRoughness" : {
                "baseColorTexture" : {
                    "index" : 0
                },
                "metallicFactor" : 0,
                "roughnessFactor" : 0.800000011920929
            }
        },
        {
            "doubleSided" : true,
            "name" : "Material.013",
            "pbrMetallicRoughness" : {
                "baseColorTexture" : {
                    "index" : 1
                },
                "metallicFactor" : 0,
                "roughnessFactor" : 0.800000011920929
            }
        },
        {
            "doubleSided" : true,
            "name" : "hollyred",
            "pbrMetallicRoughness" : {
                "baseColorTexture" : {
                    "index" : 2
                },
                "metallicFactor" : 0,
                "roughnessFactor" : 0.800000011920929
            }
        },
        {
            "doubleSided" : true,
            "name" : "juniper.001",
            "pbrMetallicRoughness" : {
                "baseColorTexture" : {
                    "index" : 3
                },
                "metallicFactor" : 0,
                "roughnessFactor" : 0.800000011920929
            }
        },
        {
            "doubleSided" : true,
            "name" : "strawberry",
            "pbrMetallicRoughness" : {
                "baseColorTexture" : {
                    "index" : 4
                },
                "metallicFactor" : 0,
                "roughnessFactor" : 0.800000011920929
            }
        },
        {
            "doubleSided" : true,
            "name" : "strawberryred",
            "pbrMetallicRoughness" : {
                "baseColorTexture" : {
                    "index" : 5
                },
                "metallicFactor" : 0,
                "roughnessFactor" : 0.800000011920929
            }
        },
        {
            "doubleSided" : true,
            "name" : "strawberryred.001",
            "pbrMetallicRoughness" : {
                "baseColorTexture" : {
                    "index" : 6
                },
                "metallicFactor" : 0,
                "roughnessFactor" : 0.800000011920929
            }
        }
    ],
    "meshes" : [
        {
            "name" : "Cylinder.004",
            "primitives" : [
                {
                    "attributes" : {
                        "POSITION" : 0,
                        "NORMAL" : 1,
                        "TEXCOORD_0" : 2
                    },
                    "indices" : 3,
                    "material" : 0
                }
            ]
        },
        {
            "name" : "Icosphere.008",
            "primitives" : [
                {
                    "attributes" : {
                        "POSITION" : 4,
                        "NORMAL" : 5,
                        "TEXCOORD_0" : 6
                    },
                    "indices" : 7,
                    "material" : 1
                }
            ]
        },
        {
            "name" : "Cylinder.002",
            "primitives" : [
                {
                    "attributes" : {
                        "POSITION" : 8,
                        "NORMAL" : 9,
                        "TEXCOORD_0" : 10
                    },
                    "indices" : 11,
                    "material" : 2
                }
            ]
        },
        {
            "name" : "Icosphere.010",
            "primitives" : [
                {
                    "attributes" : {
                        "POSITION" : 12,
                        "NORMAL" : 13,
                        "TEXCOORD_0" : 14
                    },
                    "indices" : 15,
                    "material" : 3
                }
            ]
        },
        {
            "name" : "Icosphere.011",
            "primitives" : [
                {
                    "attributes" : {
                        "POSITION" : 16,
                        "NORMAL" : 17,
                        "TEXCOORD_0" : 18
                    },
                    "indices" : 19,
                    "material" : 4
                }
            ]
        },
        {
            "name" : "Icosphere.012",
            "primitives" : [
                {
                    "attributes" : {
                        "POSITION" : 20,
                        "NORMAL" : 21,
                        "TEXCOORD_0" : 22
                    },
                    "indices" : 19,
                    "material" : 5
                }
            ]
        },
        {
            "name" : "Icosphere.013",
            "primitives" : [
                {
                    "attributes" : {
                        "POSITION" : 23,
                        "NORMAL" : 24,
                        "TEXCOORD_0" : 25
                    },
                    "indices" : 26,
                    "material" : 6
                }
            ]
        }
    ],
    "textures" : [
        {
            "sampler" : 0,
            "source" : 0
        },
        {
            "sampler" : 0,
            "source" : 1
        },
        {
            "sampler" : 0,
            "source" : 2
        },
        {
            "sampler" : 0,
            "source" : 3
        },
        {
            "sampler" : 0,
            "source" : 4
        },
        {
            "sampler" : 0,
            "source" : 5
        },
        {
            "sampler" : 0,
            "source" : 5
        }
    ],
    "images" : [
        {
            "bufferView" : 4,
            "mimeType" : "image/jpeg",
            "name" : "Holly_tex_color"
        },
        {
            "bufferView" : 9,
            "mimeType" : "image/jpeg",
            "name" : "ElderberryPurple_tex_color"
        },
        {
            "bufferView" : 14,
            "mimeType" : "image/jpeg",
            "name" : "HollyRed_tex_color"
        },
        {
            "bufferView" : 19,
            "mimeType" : "image/jpeg",
            "name" : "Juniper_tex_color"
        },
        {
            "bufferView" : 24,
            "mimeType" : "image/jpeg",
            "name" : "Strawberry_tex_color"
        },
        {
            "bufferView" : 28,
            "mimeType" : "image/jpeg",
            "name" : "StrawberryRed_tex_color"
        }
    ],
    "accessors" : [
        {
            "bufferView" : 0,
            "componentType" : 5126,
            "count" : 290,
            "max" : [
                3.6360912322998047,
                11.877678871154785,
                3.75024676322937
            ],
            "min" : [
                -3.6295690536499023,
                -0.07034306973218918,
                -3.49057674407959
            ],
            "type" : "VEC3"
        },
        {
            "bufferView" : 1,
            "componentType" : 5126,
            "count" : 290,
            "type" : "VEC3"
        },
        {
            "bufferView" : 2,
            "componentType" : 5126,
            "count" : 290,
            "type" : "VEC2"
        },
        {
            "bufferView" : 3,
            "componentType" : 5123,
            "count" : 318,
            "type" : "SCALAR"
        },
        {
            "bufferView" : 5,
            "componentType" : 5126,
            "count" : 120,
            "max" : [
                3.0961971282958984,
                3.7781856060028076,
                3.3046715259552
            ],
            "min" : [
                -3.1353912353515625,
                -0.1208319365978241,
                -3.5986263751983643
            ],
            "type" : "VEC3"
        },
        {
            "bufferView" : 6,
            "componentType" : 5126,
            "count" : 120,
            "type" : "VEC3"
        },
        {
            "bufferView" : 7,
            "componentType" : 5126,
            "count" : 120,
            "type" : "VEC2"
        },
        {
            "bufferView" : 8,
            "componentType" : 5123,
            "count" : 120,
            "type" : "SCALAR"
        },
        {
            "bufferView" : 10,
            "componentType" : 5126,
            "count" : 336,
            "max" : [
                2.378103017807007,
                11.026002883911133,
                2.414074420928955
            ],
            "min" : [
                -2.2546727657318115,
                -0.08421087265014648,
                -2.0713675022125244
            ],
            "type" : "VEC3"
        },
        {
            "bufferView" : 11,
            "componentType" : 5126,
            "count" : 336,
            "type" : "VEC3"
        },
        {
            "bufferView" : 12,
            "componentType" : 5126,
            "count" : 336,
            "type" : "VEC2"
        },
        {
            "bufferView" : 13,
            "componentType" : 5123,
            "count" : 384,
            "type" : "SCALAR"
        },
        {
            "bufferView" : 15,
            "componentType" : 5126,
            "count" : 225,
            "max" : [
                0.9510577917098999,
                5.088229179382324,
                0.9999998807907104
            ],
            "min" : [
                -0.9510577917098999,
                -0.019844412803649902,
                -0.9999998807907104
            ],
            "type" : "VEC3"
        },
        {
            "bufferView" : 16,
            "componentType" : 5126,
            "count" : 225,
            "type" : "VEC3"
        },
        {
            "bufferView" : 17,
            "componentType" : 5126,
            "count" : 225,
            "type" : "VEC2"
        },
        {
            "bufferView" : 18,
            "componentType" : 5123,
            "count" : 225,
            "type" : "SCALAR"
        },
        {
            "bufferView" : 20,
            "componentType" : 5126,
            "count" : 236,
            "max" : [
                2.0666415691375732,
                1.1593891382217407,
                1.2510302066802979
            ],
            "min" : [
                -1.1026462316513062,
                -0.07481952011585236,
                -1.1593890190124512
            ],
            "type" : "VEC3"
        },
        {
            "bufferView" : 21,
            "componentType" : 5126,
            "count" : 236,
            "type" : "VEC3"
        },
        {
            "bufferView" : 22,
            "componentType" : 5126,
            "count" : 236,
            "type" : "VEC2"
        },
        {
            "bufferView" : 23,
            "componentType" : 5123,
            "count" : 240,
            "type" : "SCALAR"
        },
        {
            "bufferView" : 25,
            "componentType" : 5126,
            "count" : 236,
            "max" : [
                2.0666415691375732,
                1.1593891382217407,
                1.2510302066802979
            ],
            "min" : [
                -1.1026462316513062,
                -0.07481952011585236,
                -1.1593890190124512
            ],
            "type" : "VEC3"
        },
        {
            "bufferView" : 26,
            "componentType" : 5126,
            "count" : 236,
            "type" : "VEC3"
        },
        {
            "bufferView" : 27,
            "componentType" : 5126,
            "count" : 236,
            "type" : "VEC2"
        },
        {
            "bufferView" : 29,
            "componentType" : 5126,
            "count" : 356,
            "max" : [
                2.0666415691375732,
                1.1593891382217407,
                2.154391050338745
            ],
            "min" : [
                -1.1026462316513062,
                -0.07481952011585236,
                -1.1593890190124512
            ],
            "type" : "VEC3"
        },
        {
            "bufferView" : 30,
            "componentType" : 5126,
            "count" : 356,
            "type" : "VEC3"
        },
        {
            "bufferView" : 31,
            "componentType" : 5126,
            "count" : 356,
            "type" : "VEC2"
        },
        {
            "bufferView" : 32,
            "componentType" : 5123,
            "count" : 360,
            "type" : "SCALAR"
        }
    ],
    "bufferViews" : [
        {
            "buffer" : 0,
            "byteLength" : 3480,
            "byteOffset" : 0
        },
        {
            "buffer" : 0,
            "byteLength" : 3480,
            "byteOffset" : 3480
        },
        {
            "buffer" : 0,
            "byteLength" : 2320,
            "byteOffset" : 6960
        },
        {
            "buffer" : 0,
            "byteLength" : 636,
            "byteOffset" : 9280
        },
        {
            "buffer" : 0,
            "byteLength" : 5857,
            "byteOffset" : 9916
        },
        {
            "buffer" : 0,
            "byteLength" : 1440,
            "byteOffset" : 15776
        },
        {
            "buffer" : 0,
            "byteLength" : 1440,
            "byteOffset" : 17216
        },
        {
            "buffer" : 0,
            "byteLength" : 960,
            "byteOffset" : 18656
        },
        {
            "buffer" : 0,
            "byteLength" : 240,
            "byteOffset" : 19616
        },
        {
            "buffer" : 0,
            "byteLength" : 32503,
            "byteOffset" : 19856
        },
        {
            "buffer" : 0,
            "byteLength" : 4032,
            "byteOffset" : 52360
        },
        {
            "buffer" : 0,
            "byteLength" : 4032,
            "byteOffset" : 56392
        },
        {
            "buffer" : 0,
            "byteLength" : 2688,
            "byteOffset" : 60424
        },
        {
            "buffer" : 0,
            "byteLength" : 768,
            "byteOffset" : 63112
        },
        {
            "buffer" : 0,
            "byteLength" : 11322,
            "byteOffset" : 63880
        },
        {
            "buffer" : 0,
            "byteLength" : 2700,
            "byteOffset" : 75204
        },
        {
            "buffer" : 0,
            "byteLength" : 2700,
            "byteOffset" : 77904
        },
        {
            "buffer" : 0,
            "byteLength" : 1800,
            "byteOffset" : 80604
        },
        {
            "buffer" : 0,
            "byteLength" : 450,
            "byteOffset" : 82404
        },
        {
            "buffer" : 0,
            "byteLength" : 23394,
            "byteOffset" : 82856
        },
        {
            "buffer" : 0,
            "byteLength" : 2832,
            "byteOffset" : 106252
        },
        {
            "buffer" : 0,
            "byteLength" : 2832,
            "byteOffset" : 109084
        },
        {
            "buffer" : 0,
            "byteLength" : 1888,
            "byteOffset" : 111916
        },
        {
            "buffer" : 0,
            "byteLength" : 480,
            "byteOffset" : 113804
        },
        {
            "buffer" : 0,
            "byteLength" : 729,
            "byteOffset" : 114284
        },
        {
            "buffer" : 0,
            "byteLength" : 2832,
            "byteOffset" : 115016
        },
        {
            "buffer" : 0,
            "byteLength" : 2832,
            "byteOffset" : 117848
        },
        {
            "buffer" : 0,
            "byteLength" : 1888,
            "byteOffset" : 120680
        },
        {
            "buffer" : 0,
            "byteLength" : 22912,
            "byteOffset" : 122568
        },
        {
            "buffer" : 0,
            "byteLength" : 4272,
            "byteOffset" : 145480
        },
        {
            "buffer" : 0,
            "byteLength" : 4272,
            "byteOffset" : 149752
        },
        {
            "buffer" : 0,
            "byteLength" : 2848,
            "byteOffset" : 154024
        },
        {
            "buffer" : 0,
            "byteLength" : 720,
            "byteOffset" : 156872
        }
    ],
    "samplers" : [
        {
            "magFilter" : 9729,
            "minFilter" : 9987
        }
    ],
    "buffers" : [
        {
            "byteLength" : 157592,
            "uri" : "data:application/octet-stream;base64,"
        }
    ]
}
