{
    "asset" : {
        "generator" : "Khronos glTF Blender I/O v1.6.16",
        "version" : "2.0"
    },
    "scene" : 0,
    "scenes" : [
        {
            "name" : "Scene",
            "nodes" : [
                0,
                1,
                2,
                3,
                4,
                5,
                6,
                7,
                8,
                9,
                10
            ]
        }
    ],
    "nodes" : [
        {
            "mesh" : 0,
            "name" : "Hollytree3 - copy.007",
            "rotation" : [
                -0.021965568885207176,
                0.6232295632362366,
                -0.065187007188797,
                0.7790077924728394
            ],
            "scale" : [
                0.35660824179649353,
                0.35660824179649353,
                0.35660818219184875
            ],
            "translation" : [
                -52.25442886352539,
                2.0921220779418945,
                36.59659957885742
            ]
        },
        {
            "mesh" : 0,
            "name" : "Hollytree3 - copy.012",
            "rotation" : [
                -0.06914263218641281,
                0.766618549823761,
                -0.030070066452026367,
                0.6376606225967407
            ],
            "scale" : [
                0.38388535380363464,
                0.38388535380363464,
                0.38388538360595703
            ],
            "translation" : [
                -63.535064697265625,
                2.0187394618988037,
                39.83683395385742
            ]
        },
        {
            "mesh" : 0,
            "name" : "Hollytree3 - copy.021",
            "rotation" : [
                -0.11491724848747253,
                -0.12084726989269257,
                0.001602346426807344,
                0.9859956502914429
            ],
            "scale" : [
                0.3914140462875366,
                0.3914140462875366,
                0.39141401648521423
            ],
            "translation" : [
                -46.34954071044922,
                3.325920581817627,
                49.56378173828125
            ]
        },
        {
            "mesh" : 1,
            "name" : "JuniperBush1 - copy.022",
            "rotation" : [
                -0.0717681422829628,
                -0.988322377204895,
                0.04525838792324066,
                0.126569926738739
            ],
            "scale" : [
                0.5740338563919067,
                0.5740339756011963,
                0.5740339159965515
            ],
            "translation" : [
                -46.475521087646484,
                2.30941104888916,
                43.77606964111328
            ]
        },
        {
            "mesh" : 2,
            "name" : "Hollytree1 - copy.001",
            "rotation" : [
                -0.0019240562105551362,
                -0.48266252875328064,
                0.030036138370633125,
                0.8752890825271606
            ],
            "scale" : [
                0.3831563889980316,
                0.3831563889980316,
                0.3831563889980316
            ],
            "translation" : [
                -59.7182502746582,
                2.0865256786346436,
                38.407142639160156
            ]
        },
        {
            "mesh" : 2,
            "name" : "Hollytree1 - copy.022",
            "rotation" : [
                -0.07869197428226471,
                -0.3373478353023529,
                0.051763780415058136,
                0.9366560578346252
            ],
            "scale" : [
                0.3896401822566986,
                0.3896401822566986,
                0.3896401822566986
            ],
            "translation" : [
                -55.49851989746094,
                4.263830661773682,
                49.368865966796875
            ]
        },
        {
            "mesh" : 3,
            "name" : "ElderberryBush1 - copy.007",
            "rotation" : [
                0.007864924147725105,
                -0.5861748456954956,
                0.030813636258244514,
                0.8095601797103882
            ],
            "scale" : [
                0.8686676025390625,
                1.1403700113296509,
                0.8684421181678772
            ],
            "translation" : [
                -61.568153381347656,
                1.9847993850708008,
                38.154144287109375
            ]
        },
        {
            "mesh" : 4,
            "name" : "JuniperBush2 - copy.015",
            "rotation" : [
                -0.01575825735926628,
                -0.76442950963974,
                0.09459444135427475,
                0.6375351548194885
            ],
            "scale" : [
                0.553832471370697,
                0.553832471370697,
                0.553832471370697
            ],
            "translation" : [
                -60.605201721191406,
                2.523646354675293,
                41.775596618652344
            ]
        },
        {
            "mesh" : 5,
            "name" : "StrawberryBush1 - copy.003",
            "rotation" : [
                0.026492422446608543,
                0.9365943074226379,
                -0.05159428343176842,
                0.34558284282684326
            ],
            "scale" : [
                0.595721960067749,
                0.5957220792770386,
                0.595721960067749
            ],
            "translation" : [
                -42.320472717285156,
                0.6295000910758972,
                34.58115768432617
            ]
        },
        {
            "mesh" : 5,
            "name" : "StrawberryBush1 - copy.023",
            "rotation" : [
                -0.08280867338180542,
                -0.25649121403694153,
                0.04489075019955635,
                0.9619459509849548
            ],
            "scale" : [
                0.5746036171913147,
                0.5746035575866699,
                0.5746036171913147
            ],
            "translation" : [
                -55.738216400146484,
                3.6192023754119873,
                46.249942779541016
            ]
        },
        {
            "mesh" : 6,
            "name" : "StrawberryBush3 - copy.013",
            "rotation" : [
                0.006623274181038141,
                -0.8924616575241089,
                0.008474958129227161,
                0.45099499821662903
            ],
            "scale" : [
                0.5161848068237305,
                0.5161848068237305,
                0.5161848068237305
            ],
            "translation" : [
                -57.57246398925781,
                1.8537267446517944,
                33.931339263916016
            ]
        }
    ],
    "materials" : [
        {
            "doubleSided" : true,
            "name" : "hollyred.001",
            "pbrMetallicRoughness" : {
                "baseColorTexture" : {
                    "index" : 0
                },
                "metallicFactor" : 0,
                "roughnessFactor" : 0.800000011920929
            }
        },
        {
            "doubleSided" : true,
            "name" : "juniper",
            "pbrMetallicRoughness" : {
                "baseColorTexture" : {
                    "index" : 1
                },
                "metallicFactor" : 0,
                "roughnessFactor" : 0.800000011920929
            }
        },
        {
            "doubleSided" : true,
            "name" : "hollyred",
            "pbrMetallicRoughness" : {
                "baseColorTexture" : {
                    "index" : 2
                },
                "metallicFactor" : 0,
                "roughnessFactor" : 0.800000011920929
            }
        },
        {
            "doubleSided" : true,
            "name" : "Material.012",
            "pbrMetallicRoughness" : {
                "baseColorTexture" : {
                    "index" : 3
                },
                "metallicFactor" : 0,
                "roughnessFactor" : 0.800000011920929
            }
        },
        {
            "doubleSided" : true,
            "name" : "juniper.001",
            "pbrMetallicRoughness" : {
                "baseColorTexture" : {
                    "index" : 4
                },
                "metallicFactor" : 0,
                "roughnessFactor" : 0.800000011920929
            }
        },
        {
            "doubleSided" : true,
            "name" : "strawberry",
            "pbrMetallicRoughness" : {
                "baseColorTexture" : {
                    "index" : 5
                },
                "metallicFactor" : 0,
                "roughnessFactor" : 0.800000011920929
            }
        },
        {
            "doubleSided" : true,
            "name" : "strawberryred.001",
            "pbrMetallicRoughness" : {
                "baseColorTexture" : {
                    "index" : 6
                },
                "metallicFactor" : 0,
                "roughnessFactor" : 0.800000011920929
            }
        }
    ],
    "meshes" : [
        {
            "name" : "Cylinder.007",
            "primitives" : [
                {
                    "attributes" : {
                        "POSITION" : 0,
                        "NORMAL" : 1,
                        "TEXCOORD_0" : 2
                    },
                    "indices" : 3,
                    "material" : 0
                }
            ]
        },
        {
            "name" : "Icosphere.009",
            "primitives" : [
                {
                    "attributes" : {
                        "POSITION" : 4,
                        "NORMAL" : 5,
                        "TEXCOORD_0" : 6
                    },
                    "indices" : 7,
                    "material" : 1
                }
            ]
        },
        {
            "name" : "Cylinder.002",
            "primitives" : [
                {
                    "attributes" : {
                        "POSITION" : 8,
                        "NORMAL" : 9,
                        "TEXCOORD_0" : 10
                    },
                    "indices" : 11,
                    "material" : 2
                }
            ]
        },
        {
            "name" : "Icosphere.007",
            "primitives" : [
                {
                    "attributes" : {
                        "POSITION" : 12,
                        "NORMAL" : 13,
                        "TEXCOORD_0" : 14
                    },
                    "indices" : 15,
                    "material" : 3
                }
            ]
        },
        {
            "name" : "Icosphere.010",
            "primitives" : [
                {
                    "attributes" : {
                        "POSITION" : 16,
                        "NORMAL" : 17,
                        "TEXCOORD_0" : 18
                    },
                    "indices" : 19,
                    "material" : 4
                }
            ]
        },
        {
            "name" : "Icosphere.011",
            "primitives" : [
                {
                    "attributes" : {
                        "POSITION" : 20,
                        "NORMAL" : 21,
                        "TEXCOORD_0" : 22
                    },
                    "indices" : 23,
                    "material" : 5
                }
            ]
        },
        {
            "name" : "Icosphere.013",
            "primitives" : [
                {
                    "attributes" : {
                        "POSITION" : 24,
                        "NORMAL" : 25,
                        "TEXCOORD_0" : 26
                    },
                    "indices" : 27,
                    "material" : 6
                }
            ]
        }
    ],
    "textures" : [
        {
            "sampler" : 0,
            "source" : 0
        },
        {
            "sampler" : 0,
            "source" : 1
        },
        {
            "sampler" : 0,
            "source" : 0
        },
        {
            "sampler" : 0,
            "source" : 2
        },
        {
            "sampler" : 0,
            "source" : 1
        },
        {
            "sampler" : 0,
            "source" : 3
        },
        {
            "sampler" : 0,
            "source" : 4
        }
    ],
    "images" : [
        {
            "bufferView" : 4,
            "mimeType" : "image/jpeg",
            "name" : "HollyRed_tex_color"
        },
        {
            "bufferView" : 9,
            "mimeType" : "image/jpeg",
            "name" : "Juniper_tex_color"
        },
        {
            "bufferView" : 18,
            "mimeType" : "image/jpeg",
            "name" : "Elderberry_tex_color"
        },
        {
            "bufferView" : 27,
            "mimeType" : "image/jpeg",
            "name" : "Strawberry_tex_color"
        },
        {
            "bufferView" : 32,
            "mimeType" : "image/jpeg",
            "name" : "StrawberryRed_tex_color"
        }
    ],
    "accessors" : [
        {
            "bufferView" : 0,
            "componentType" : 5126,
            "count" : 240,
            "max" : [
                2.6804592609405518,
                10.22403335571289,
                2.8339760303497314
            ],
            "min" : [
                -2.6756508350372314,
                -0.3004210591316223,
                -2.640446662902832
            ],
            "type" : "VEC3"
        },
        {
            "bufferView" : 1,
            "componentType" : 5126,
            "count" : 240,
            "type" : "VEC3"
        },
        {
            "bufferView" : 2,
            "componentType" : 5126,
            "count" : 240,
            "type" : "VEC2"
        },
        {
            "bufferView" : 3,
            "componentType" : 5123,
            "count" : 246,
            "type" : "SCALAR"
        },
        {
            "bufferView" : 5,
            "componentType" : 5126,
            "count" : 472,
            "max" : [
                2.5377357006073,
                2.4670727252960205,
                2.521022319793701
            ],
            "min" : [
                -2.51458477973938,
                -0.06310360133647919,
                -2.5383002758026123
            ],
            "type" : "VEC3"
        },
        {
            "bufferView" : 6,
            "componentType" : 5126,
            "count" : 472,
            "type" : "VEC3"
        },
        {
            "bufferView" : 7,
            "componentType" : 5126,
            "count" : 472,
            "type" : "VEC2"
        },
        {
            "bufferView" : 8,
            "componentType" : 5123,
            "count" : 480,
            "type" : "SCALAR"
        },
        {
            "bufferView" : 10,
            "componentType" : 5126,
            "count" : 336,
            "max" : [
                2.378103017807007,
                11.026002883911133,
                2.414074420928955
            ],
            "min" : [
                -2.2546727657318115,
                -0.08421087265014648,
                -2.0713675022125244
            ],
            "type" : "VEC3"
        },
        {
            "bufferView" : 11,
            "componentType" : 5126,
            "count" : 336,
            "type" : "VEC3"
        },
        {
            "bufferView" : 12,
            "componentType" : 5126,
            "count" : 336,
            "type" : "VEC2"
        },
        {
            "bufferView" : 13,
            "componentType" : 5123,
            "count" : 384,
            "type" : "SCALAR"
        },
        {
            "bufferView" : 14,
            "componentType" : 5126,
            "count" : 120,
            "max" : [
                1.1648720502853394,
                1.081101894378662,
                1.2433059215545654
            ],
            "min" : [
                -1.179618000984192,
                -0.03457523137331009,
                -1.3538994789123535
            ],
            "type" : "VEC3"
        },
        {
            "bufferView" : 15,
            "componentType" : 5126,
            "count" : 120,
            "type" : "VEC3"
        },
        {
            "bufferView" : 16,
            "componentType" : 5126,
            "count" : 120,
            "type" : "VEC2"
        },
        {
            "bufferView" : 17,
            "componentType" : 5123,
            "count" : 120,
            "type" : "SCALAR"
        },
        {
            "bufferView" : 19,
            "componentType" : 5126,
            "count" : 225,
            "max" : [
                0.9510577917098999,
                5.088229179382324,
                0.9999998807907104
            ],
            "min" : [
                -0.9510577917098999,
                -0.019844412803649902,
                -0.9999998807907104
            ],
            "type" : "VEC3"
        },
        {
            "bufferView" : 20,
            "componentType" : 5126,
            "count" : 225,
            "type" : "VEC3"
        },
        {
            "bufferView" : 21,
            "componentType" : 5126,
            "count" : 225,
            "type" : "VEC2"
        },
        {
            "bufferView" : 22,
            "componentType" : 5123,
            "count" : 225,
            "type" : "SCALAR"
        },
        {
            "bufferView" : 23,
            "componentType" : 5126,
            "count" : 236,
            "max" : [
                2.0666415691375732,
                1.1593891382217407,
                1.2510302066802979
            ],
            "min" : [
                -1.1026462316513062,
                -0.07481952011585236,
                -1.1593890190124512
            ],
            "type" : "VEC3"
        },
        {
            "bufferView" : 24,
            "componentType" : 5126,
            "count" : 236,
            "type" : "VEC3"
        },
        {
            "bufferView" : 25,
            "componentType" : 5126,
            "count" : 236,
            "type" : "VEC2"
        },
        {
            "bufferView" : 26,
            "componentType" : 5123,
            "count" : 240,
            "type" : "SCALAR"
        },
        {
            "bufferView" : 28,
            "componentType" : 5126,
            "count" : 356,
            "max" : [
                2.0666415691375732,
                1.1593891382217407,
                2.154391050338745
            ],
            "min" : [
                -1.1026462316513062,
                -0.07481952011585236,
                -1.1593890190124512
            ],
            "type" : "VEC3"
        },
        {
            "bufferView" : 29,
            "componentType" : 5126,
            "count" : 356,
            "type" : "VEC3"
        },
        {
            "bufferView" : 30,
            "componentType" : 5126,
            "count" : 356,
            "type" : "VEC2"
        },
        {
            "bufferView" : 31,
            "componentType" : 5123,
            "count" : 360,
            "type" : "SCALAR"
        }
    ],
    "bufferViews" : [
        {
            "buffer" : 0,
            "byteLength" : 2880,
            "byteOffset" : 0
        },
        {
            "buffer" : 0,
            "byteLength" : 2880,
            "byteOffset" : 2880
        },
        {
            "buffer" : 0,
            "byteLength" : 1920,
            "byteOffset" : 5760
        },
        {
            "buffer" : 0,
            "byteLength" : 492,
            "byteOffset" : 7680
        },
        {
            "buffer" : 0,
            "byteLength" : 11322,
            "byteOffset" : 8172
        },
        {
            "buffer" : 0,
            "byteLength" : 5664,
            "byteOffset" : 19496
        },
        {
            "buffer" : 0,
            "byteLength" : 5664,
            "byteOffset" : 25160
        },
        {
            "buffer" : 0,
            "byteLength" : 3776,
            "byteOffset" : 30824
        },
        {
            "buffer" : 0,
            "byteLength" : 960,
            "byteOffset" : 34600
        },
        {
            "buffer" : 0,
            "byteLength" : 23394,
            "byteOffset" : 35560
        },
        {
            "buffer" : 0,
            "byteLength" : 4032,
            "byteOffset" : 58956
        },
        {
            "buffer" : 0,
            "byteLength" : 4032,
            "byteOffset" : 62988
        },
        {
            "buffer" : 0,
            "byteLength" : 2688,
            "byteOffset" : 67020
        },
        {
            "buffer" : 0,
            "byteLength" : 768,
            "byteOffset" : 69708
        },
        {
            "buffer" : 0,
            "byteLength" : 1440,
            "byteOffset" : 70476
        },
        {
            "buffer" : 0,
            "byteLength" : 1440,
            "byteOffset" : 71916
        },
        {
            "buffer" : 0,
            "byteLength" : 960,
            "byteOffset" : 73356
        },
        {
            "buffer" : 0,
            "byteLength" : 240,
            "byteOffset" : 74316
        },
        {
            "buffer" : 0,
            "byteLength" : 33202,
            "byteOffset" : 74556
        },
        {
            "buffer" : 0,
            "byteLength" : 2700,
            "byteOffset" : 107760
        },
        {
            "buffer" : 0,
            "byteLength" : 2700,
            "byteOffset" : 110460
        },
        {
            "buffer" : 0,
            "byteLength" : 1800,
            "byteOffset" : 113160
        },
        {
            "buffer" : 0,
            "byteLength" : 450,
            "byteOffset" : 114960
        },
        {
            "buffer" : 0,
            "byteLength" : 2832,
            "byteOffset" : 115412
        },
        {
            "buffer" : 0,
            "byteLength" : 2832,
            "byteOffset" : 118244
        },
        {
            "buffer" : 0,
            "byteLength" : 1888,
            "byteOffset" : 121076
        },
        {
            "buffer" : 0,
            "byteLength" : 480,
            "byteOffset" : 122964
        },
        {
            "buffer" : 0,
            "byteLength" : 729,
            "byteOffset" : 123444
        },
        {
            "buffer" : 0,
            "byteLength" : 4272,
            "byteOffset" : 124176
        },
        {
            "buffer" : 0,
            "byteLength" : 4272,
            "byteOffset" : 128448
        },
        {
            "buffer" : 0,
            "byteLength" : 2848,
            "byteOffset" : 132720
        },
        {
            "buffer" : 0,
            "byteLength" : 720,
            "byteOffset" : 135568
        },
        {
            "buffer" : 0,
            "byteLength" : 22912,
            "byteOffset" : 136288
        }
    ],
    "samplers" : [
        {
            "magFilter" : 9729,
            "minFilter" : 9987
        }
    ],
    "buffers" : [
        {
            "byteLength" : 159200,
            "uri" : "data:application/octet-stream;base64,"
        }
    ]
}
