{
    "asset" : {
        "generator" : "Khronos glTF Blender I/O v1.6.16",
        "version" : "2.0"
    },
    "scene" : 0,
    "scenes" : [
        {
            "name" : "Scene",
            "nodes" : [
                0,
                1,
                2,
                3
            ]
        }
    ],
    "nodes" : [
        {
            "mesh" : 0,
            "name" : "Dolm plane",
            "rotation" : [
                -0.016904527321457863,
                -0.8629099726676941,
                0.003489188849925995,
                0.5050628185272217
            ],
            "scale" : [
                10.108546257019043,
                10.15085220336914,
                10.108543395996094
            ],
            "translation" : [
                -30.753664016723633,
                0.059410758316516876,
                47.384849548339844
            ]
        },
        {
            "mesh" : 1,
            "name" : "dolmen",
            "rotation" : [
                0.17405234277248383,
                0.6853508353233337,
                -0.6853509545326233,
                0.17405231297016144
            ],
            "scale" : [
                0.009999999776482582,
                0.009999999776482582,
                0.009999999776482582
            ],
            "translation" : [
                -30.052936553955078,
                0,
                47.61924743652344
            ]
        },
        {
            "mesh" : 2,
            "name" : "Outline",
            "rotation" : [
                0.17405234277248383,
                0.6853508353233337,
                -0.6853509545326233,
                0.17405231297016144
            ],
            "scale" : [
                0.009999999776482582,
                0.009999999776482582,
                0.009999999776482582
            ],
            "translation" : [
                -30.052936553955078,
                0,
                47.61924743652344
            ]
        },
        {
            "mesh" : 3,
            "name" : "Box",
            "rotation" : [
                0,
                0.533647894859314,
                0,
                0.8457067608833313
            ],
            "scale" : [
                8.732145309448242,
                1.7124323844909668,
                8.732145309448242
            ],
            "translation" : [
                -29.67255210876465,
                1.360201358795166,
                46.407264709472656
            ]
        }
    ],
    "materials" : [
        {
            "doubleSided" : true,
            "name" : "Material.030",
            "pbrMetallicRoughness" : {
                "baseColorTexture" : {
                    "index" : 0
                },
                "metallicFactor" : 0,
                "roughnessFactor" : 0.8999999761581421
            }
        },
        {
            "doubleSided" : true,
            "name" : "Material.009",
            "pbrMetallicRoughness" : {
                "baseColorTexture" : {
                    "index" : 1
                },
                "metallicFactor" : 0,
                "roughnessFactor" : 0.800000011920929
            }
        },
        {
            "name" : "InteractableMat",
            "pbrMetallicRoughness" : {
                "baseColorFactor" : [
                    0.8000000715255737,
                    0,
                    0.2223774492740631,
                    1
                ],
                "metallicFactor" : 0,
                "roughnessFactor" : 0.5
            }
        }
    ],
    "meshes" : [
        {
            "name" : "Plane.003",
            "primitives" : [
                {
                    "attributes" : {
                        "POSITION" : 0,
                        "NORMAL" : 1,
                        "TEXCOORD_0" : 2
                    },
                    "indices" : 3,
                    "material" : 0
                }
            ]
        },
        {
            "name" : "Plane.006",
            "primitives" : [
                {
                    "attributes" : {
                        "POSITION" : 4,
                        "NORMAL" : 5,
                        "TEXCOORD_0" : 6
                    },
                    "indices" : 7,
                    "material" : 1
                }
            ]
        },
        {
            "name" : "Plane.001",
            "primitives" : [
                {
                    "attributes" : {
                        "POSITION" : 8,
                        "NORMAL" : 9,
                        "TEXCOORD_0" : 10
                    },
                    "indices" : 11,
                    "material" : 2
                }
            ]
        },
        {
            "name" : "Cube.006",
            "primitives" : [
                {
                    "attributes" : {
                        "POSITION" : 12,
                        "NORMAL" : 13,
                        "TEXCOORD_0" : 14
                    },
                    "indices" : 15
                }
            ]
        }
    ],
    "textures" : [
        {
            "sampler" : 0,
            "source" : 0
        },
        {
            "sampler" : 0,
            "source" : 1
        }
    ],
    "images" : [
        {
            "bufferView" : 4,
            "mimeType" : "image/jpeg",
            "name" : "DolmenGround_tex_color"
        },
        {
            "bufferView" : 9,
            "mimeType" : "image/jpeg",
            "name" : "Dolmen_tex_color"
        }
    ],
    "accessors" : [
        {
            "bufferView" : 0,
            "componentType" : 5126,
            "count" : 81,
            "max" : [
                0.8392053246498108,
                0.28184017539024353,
                0.8776293992996216
            ],
            "min" : [
                -0.5789185762405396,
                -0.05651101469993591,
                -0.9563836455345154
            ],
            "type" : "VEC3"
        },
        {
            "bufferView" : 1,
            "componentType" : 5126,
            "count" : 81,
            "type" : "VEC3"
        },
        {
            "bufferView" : 2,
            "componentType" : 5126,
            "count" : 81,
            "type" : "VEC2"
        },
        {
            "bufferView" : 3,
            "componentType" : 5123,
            "count" : 378,
            "type" : "SCALAR"
        },
        {
            "bufferView" : 5,
            "componentType" : 5126,
            "count" : 12716,
            "max" : [
                911.4322509765625,
                608.7972412109375,
                47.897674560546875
            ],
            "min" : [
                -884.5933227539062,
                -576.0057373046875,
                -334.2982177734375
            ],
            "type" : "VEC3"
        },
        {
            "bufferView" : 6,
            "componentType" : 5126,
            "count" : 12716,
            "type" : "VEC3"
        },
        {
            "bufferView" : 7,
            "componentType" : 5126,
            "count" : 12716,
            "type" : "VEC2"
        },
        {
            "bufferView" : 8,
            "componentType" : 5123,
            "count" : 13440,
            "type" : "SCALAR"
        },
        {
            "bufferView" : 10,
            "componentType" : 5126,
            "count" : 11586,
            "max" : [
                918.8235473632812,
                616.1605834960938,
                40.37893295288086
            ],
            "min" : [
                -891.984619140625,
                -249.40696716308594,
                -341.7608947753906
            ],
            "type" : "VEC3"
        },
        {
            "bufferView" : 11,
            "componentType" : 5126,
            "count" : 11586,
            "type" : "VEC3"
        },
        {
            "bufferView" : 12,
            "componentType" : 5126,
            "count" : 11586,
            "type" : "VEC2"
        },
        {
            "bufferView" : 13,
            "componentType" : 5123,
            "count" : 13632,
            "type" : "SCALAR"
        },
        {
            "bufferView" : 14,
            "componentType" : 5126,
            "count" : 24,
            "max" : [
                0.6026675701141357,
                1,
                1.020904779434204
            ],
            "min" : [
                -0.6220428347587585,
                -1,
                -1.0130696296691895
            ],
            "type" : "VEC3"
        },
        {
            "bufferView" : 15,
            "componentType" : 5126,
            "count" : 24,
            "type" : "VEC3"
        },
        {
            "bufferView" : 16,
            "componentType" : 5126,
            "count" : 24,
            "type" : "VEC2"
        },
        {
            "bufferView" : 17,
            "componentType" : 5123,
            "count" : 36,
            "type" : "SCALAR"
        }
    ],
    "bufferViews" : [
        {
            "buffer" : 0,
            "byteLength" : 972,
            "byteOffset" : 0
        },
        {
            "buffer" : 0,
            "byteLength" : 972,
            "byteOffset" : 972
        },
        {
            "buffer" : 0,
            "byteLength" : 648,
            "byteOffset" : 1944
        },
        {
            "buffer" : 0,
            "byteLength" : 756,
            "byteOffset" : 2592
        },
        {
            "buffer" : 0,
            "byteLength" : 4775,
            "byteOffset" : 3348
        },
        {
            "buffer" : 0,
            "byteLength" : 152592,
            "byteOffset" : 8124
        },
        {
            "buffer" : 0,
            "byteLength" : 152592,
            "byteOffset" : 160716
        },
        {
            "buffer" : 0,
            "byteLength" : 101728,
            "byteOffset" : 313308
        },
        {
            "buffer" : 0,
            "byteLength" : 26880,
            "byteOffset" : 415036
        },
        {
            "buffer" : 0,
            "byteLength" : 2367,
            "byteOffset" : 441916
        },
        {
            "buffer" : 0,
            "byteLength" : 139032,
            "byteOffset" : 444284
        },
        {
            "buffer" : 0,
            "byteLength" : 139032,
            "byteOffset" : 583316
        },
        {
            "buffer" : 0,
            "byteLength" : 92688,
            "byteOffset" : 722348
        },
        {
            "buffer" : 0,
            "byteLength" : 27264,
            "byteOffset" : 815036
        },
        {
            "buffer" : 0,
            "byteLength" : 288,
            "byteOffset" : 842300
        },
        {
            "buffer" : 0,
            "byteLength" : 288,
            "byteOffset" : 842588
        },
        {
            "buffer" : 0,
            "byteLength" : 192,
            "byteOffset" : 842876
        },
        {
            "buffer" : 0,
            "byteLength" : 72,
            "byteOffset" : 843068
        }
    ],
    "samplers" : [
        {
            "magFilter" : 9729,
            "minFilter" : 9987
        }
    ],
    "buffers" : [
        {
            "byteLength" : 843140,
            "uri" : "data:application/octet-stream;base64,"
        }
    ]
}
