{
    "asset" : {
        "generator" : "Khronos glTF Blender I/O v1.6.16",
        "version" : "2.0"
    },
    "scene" : 0,
    "scenes" : [
        {
            "name" : "Scene",
            "nodes" : [
                0,
                1
            ]
        }
    ],
    "nodes" : [
        {
            "mesh" : 0,
            "name" : "Dolm.002"
        },
        {
            "mesh" : 1,
            "name" : "Outline"
        }
    ],
    "materials" : [
        {
            "doubleSided" : true,
            "name" : "Material.002",
            "pbrMetallicRoughness" : {
                "baseColorTexture" : {
                    "index" : 0
                },
                "metallicFactor" : 0,
                "roughnessFactor" : 0.800000011920929
            }
        },
        {
            "name" : "Material",
            "pbrMetallicRoughness" : {
                "baseColorFactor" : [
                    0.7241509556770325,
                    0.01602933369576931,
                    0.8000000715255737,
                    1
                ],
                "metallicFactor" : 0,
                "roughnessFactor" : 0.5
            }
        }
    ],
    "meshes" : [
        {
            "name" : "Plane.006",
            "primitives" : [
                {
                    "attributes" : {
                        "POSITION" : 0,
                        "NORMAL" : 1,
                        "TEXCOORD_0" : 2
                    },
                    "indices" : 3,
                    "material" : 0
                }
            ]
        },
        {
            "name" : "Plane.008",
            "primitives" : [
                {
                    "attributes" : {
                        "POSITION" : 4,
                        "NORMAL" : 5,
                        "TEXCOORD_0" : 6
                    },
                    "indices" : 7,
                    "material" : 1
                }
            ]
        }
    ],
    "textures" : [
        {
            "sampler" : 0,
            "source" : 0
        }
    ],
    "images" : [
        {
            "bufferView" : 4,
            "mimeType" : "image/jpeg",
            "name" : "Dolmen_tex_color"
        }
    ],
    "accessors" : [
        {
            "bufferView" : 0,
            "componentType" : 5126,
            "count" : 12982,
            "max" : [
                9.114322662353516,
                3.342982292175293,
                6.087972640991211
            ],
            "min" : [
                -8.845932960510254,
                -1.0188547372817993,
                -5.76005744934082
            ],
            "type" : "VEC3"
        },
        {
            "bufferView" : 1,
            "componentType" : 5126,
            "count" : 12982,
            "type" : "VEC3"
        },
        {
            "bufferView" : 2,
            "componentType" : 5126,
            "count" : 12982,
            "type" : "VEC2"
        },
        {
            "bufferView" : 3,
            "componentType" : 5123,
            "count" : 13440,
            "type" : "SCALAR"
        },
        {
            "bufferView" : 5,
            "componentType" : 5126,
            "count" : 18518,
            "max" : [
                9.18812370300293,
                3.417609214782715,
                6.161182880401611
            ],
            "min" : [
                -8.919734001159668,
                -1.0868332386016846,
                -5.833709239959717
            ],
            "type" : "VEC3"
        },
        {
            "bufferView" : 6,
            "componentType" : 5126,
            "count" : 18518,
            "type" : "VEC3"
        },
        {
            "bufferView" : 7,
            "componentType" : 5126,
            "count" : 18518,
            "type" : "VEC2"
        },
        {
            "bufferView" : 8,
            "componentType" : 5123,
            "count" : 24270,
            "type" : "SCALAR"
        }
    ],
    "bufferViews" : [
        {
            "buffer" : 0,
            "byteLength" : 155784,
            "byteOffset" : 0
        },
        {
            "buffer" : 0,
            "byteLength" : 155784,
            "byteOffset" : 155784
        },
        {
            "buffer" : 0,
            "byteLength" : 103856,
            "byteOffset" : 311568
        },
        {
            "buffer" : 0,
            "byteLength" : 26880,
            "byteOffset" : 415424
        },
        {
            "buffer" : 0,
            "byteLength" : 2367,
            "byteOffset" : 442304
        },
        {
            "buffer" : 0,
            "byteLength" : 222216,
            "byteOffset" : 444672
        },
        {
            "buffer" : 0,
            "byteLength" : 222216,
            "byteOffset" : 666888
        },
        {
            "buffer" : 0,
            "byteLength" : 148144,
            "byteOffset" : 889104
        },
        {
            "buffer" : 0,
            "byteLength" : 48540,
            "byteOffset" : 1037248
        }
    ],
    "samplers" : [
        {
            "magFilter" : 9729,
            "minFilter" : 9987
        }
    ],
    "buffers" : [
        {
            "byteLength" : 1085788,
            "uri" : "data:application/octet-stream;base64,"
        }
    ]
}
