{
    "asset" : {
        "generator" : "Khronos glTF Blender I/O v1.6.16",
        "version" : "2.0"
    },
    "scene" : 0,
    "scenes" : [
        {
            "name" : "Scene",
            "nodes" : [
                0,
                1,
                2,
                3,
                4,
                5,
                6,
                7,
                8,
                9,
                10,
                11,
                12,
                13,
                14,
                15,
                16,
                17,
                18,
                19,
                20,
                21
            ]
        }
    ],
    "nodes" : [
        {
            "mesh" : 0,
            "name" : "Fence1",
            "translation" : [
                16.22945785522461,
                0,
                -14.64669418334961
            ]
        },
        {
            "mesh" : 1,
            "name" : "Fence2",
            "rotation" : [
                0,
                0.5635597705841064,
                0,
                0.8260752558708191
            ],
            "translation" : [
                12.662530899047852,
                0,
                -11.932676315307617
            ]
        },
        {
            "mesh" : 2,
            "name" : "FenceGate",
            "rotation" : [
                0,
                0.7373657822608948,
                0,
                0.6754936575889587
            ],
            "translation" : [
                12.668217658996582,
                0,
                -10.030617713928223
            ]
        },
        {
            "mesh" : 3,
            "name" : "FencePole",
            "rotation" : [
                0.030863502994179726,
                -0.5108425617218018,
                -0.029987378045916557,
                0.8585965633392334
            ],
            "translation" : [
                12.732000350952148,
                0,
                -9.32668399810791
            ]
        },
        {
            "mesh" : 4,
            "name" : "rope.002",
            "rotation" : [
                -0.2848033905029297,
                -0.6481093764305115,
                0.2867005467414856,
                0.6454797387123108
            ],
            "scale" : [
                1.5873432159423828,
                1.7304794788360596,
                1.1788489818572998
            ],
            "translation" : [
                12.616340637207031,
                0.8735809326171875,
                -10.678986549377441
            ]
        },
        {
            "mesh" : 0,
            "name" : "Fence1.001",
            "rotation" : [
                0,
                0.10856945812702179,
                0,
                0.994088888168335
            ],
            "translation" : [
                15.043085098266602,
                0,
                -14.391951560974121
            ]
        },
        {
            "mesh" : 0,
            "name" : "Fence1.002",
            "rotation" : [
                0,
                0.19161203503608704,
                0,
                0.9814707636833191
            ],
            "translation" : [
                13.951743125915527,
                0,
                -13.961644172668457
            ]
        },
        {
            "mesh" : 0,
            "name" : "Fence1.003",
            "rotation" : [
                0,
                0.40164467692375183,
                0,
                0.9157955646514893
            ],
            "translation" : [
                13.134482383728027,
                0,
                -13.084510803222656
            ]
        },
        {
            "mesh" : 0,
            "name" : "Fence1.005",
            "rotation" : [
                0,
                0.692125678062439,
                0,
                0.721777081489563
            ],
            "translation" : [
                12.614155769348145,
                0,
                -10.748135566711426
            ]
        },
        {
            "mesh" : 0,
            "name" : "Fence1.006",
            "rotation" : [
                0,
                0.7705211043357849,
                0,
                0.6374144554138184
            ],
            "translation" : [
                12.944015502929688,
                0,
                -8.152587890625
            ]
        },
        {
            "mesh" : 0,
            "name" : "Fence1.007",
            "rotation" : [
                0,
                0.7795670628547668,
                0,
                0.6263188123703003
            ],
            "translation" : [
                13.74521541595459,
                0,
                -4.591165065765381
            ]
        },
        {
            "mesh" : 0,
            "name" : "Fence1.008",
            "rotation" : [
                0,
                0.8309196829795837,
                0,
                0.5563925504684448
            ],
            "translation" : [
                14.205317497253418,
                0,
                -3.44047474861145
            ]
        },
        {
            "mesh" : 0,
            "name" : "Fence1.011",
            "rotation" : [
                0,
                0.9742366671562195,
                0,
                0.2255280464887619
            ],
            "translation" : [
                16.935434341430664,
                0,
                -1.1277949810028076
            ]
        },
        {
            "mesh" : 0,
            "name" : "Fence1.012",
            "rotation" : [
                0,
                0.9992584586143494,
                0,
                0.038506362587213516
            ],
            "translation" : [
                18.148889541625977,
                0,
                -1.0199322700500488
            ]
        },
        {
            "mesh" : 0,
            "name" : "Fence1.013",
            "rotation" : [
                0,
                0.9975140690803528,
                0,
                -0.07046795636415482
            ],
            "translation" : [
                19.33538055419922,
                0,
                -1.1817262172698975
            ]
        },
        {
            "mesh" : 0,
            "name" : "Fence1.014",
            "rotation" : [
                0,
                0.992720901966095,
                0,
                -0.12043748795986176
            ],
            "translation" : [
                20.521867752075195,
                0,
                -1.4682362079620361
            ]
        },
        {
            "mesh" : 0,
            "name" : "Fence1.015",
            "rotation" : [
                0,
                0.992720901966095,
                0,
                -0.12043748795986176
            ],
            "translation" : [
                21.707233428955078,
                0,
                -1.754746675491333
            ]
        },
        {
            "mesh" : 0,
            "name" : "Fence1.016",
            "rotation" : [
                0,
                0.9904583692550659,
                0,
                -0.13781242072582245
            ],
            "translation" : [
                22.86844253540039,
                0,
                -2.0918171405792236
            ]
        },
        {
            "mesh" : 0,
            "name" : "Fence1.019",
            "rotation" : [
                0,
                0.7795670628547668,
                0,
                0.6263188123703003
            ],
            "translation" : [
                13.212778091430664,
                0,
                -6.939234256744385
            ]
        },
        {
            "mesh" : 1,
            "name" : "Fence2.001",
            "rotation" : [
                0,
                0.7837020754814148,
                0,
                0.6211370825767517
            ],
            "translation" : [
                13.498554229736328,
                0,
                -5.728686809539795
            ]
        },
        {
            "mesh" : 1,
            "name" : "Fence2.002",
            "rotation" : [
                0,
                0.9035754203796387,
                0,
                0.42842909693717957
            ],
            "translation" : [
                14.981303215026855,
                0,
                -2.4709668159484863
            ]
        },
        {
            "mesh" : 1,
            "name" : "Fence2.003",
            "rotation" : [
                0,
                0.9301251173019409,
                0,
                0.3672427833080292
            ],
            "translation" : [
                15.869722366333008,
                0,
                -1.6400078535079956
            ]
        }
    ],
    "materials" : [
        {
            "doubleSided" : true,
            "name" : "Material.018",
            "pbrMetallicRoughness" : {
                "baseColorTexture" : {
                    "index" : 0
                },
                "metallicFactor" : 0,
                "roughnessFactor" : 0.800000011920929
            }
        },
        {
            "doubleSided" : true,
            "name" : "Material.019",
            "pbrMetallicRoughness" : {
                "baseColorTexture" : {
                    "index" : 1
                },
                "metallicFactor" : 0,
                "roughnessFactor" : 0.800000011920929
            }
        },
        {
            "doubleSided" : true,
            "name" : "Material.022",
            "pbrMetallicRoughness" : {
                "baseColorTexture" : {
                    "index" : 2
                },
                "metallicFactor" : 0,
                "roughnessFactor" : 0.800000011920929
            }
        },
        {
            "doubleSided" : true,
            "name" : "Material.023",
            "pbrMetallicRoughness" : {
                "baseColorTexture" : {
                    "index" : 3
                },
                "metallicFactor" : 0,
                "roughnessFactor" : 0.800000011920929
            }
        },
        {
            "doubleSided" : true,
            "name" : "Material.024",
            "pbrMetallicRoughness" : {
                "baseColorTexture" : {
                    "index" : 4
                },
                "metallicFactor" : 0,
                "roughnessFactor" : 0.800000011920929
            }
        }
    ],
    "meshes" : [
        {
            "name" : "Cylinder.015",
            "primitives" : [
                {
                    "attributes" : {
                        "POSITION" : 0,
                        "NORMAL" : 1,
                        "TEXCOORD_0" : 2
                    },
                    "indices" : 3,
                    "material" : 0
                }
            ]
        },
        {
            "name" : "Cylinder.016",
            "primitives" : [
                {
                    "attributes" : {
                        "POSITION" : 4,
                        "NORMAL" : 5,
                        "TEXCOORD_0" : 6
                    },
                    "indices" : 7,
                    "material" : 1
                }
            ]
        },
        {
            "name" : "Cylinder.017",
            "primitives" : [
                {
                    "attributes" : {
                        "POSITION" : 8,
                        "NORMAL" : 9,
                        "TEXCOORD_0" : 10
                    },
                    "indices" : 11,
                    "material" : 2
                }
            ]
        },
        {
            "name" : "Cylinder.018",
            "primitives" : [
                {
                    "attributes" : {
                        "POSITION" : 12,
                        "NORMAL" : 13,
                        "TEXCOORD_0" : 14
                    },
                    "indices" : 15,
                    "material" : 3
                }
            ]
        },
        {
            "name" : "Cylinder.019",
            "primitives" : [
                {
                    "attributes" : {
                        "POSITION" : 16,
                        "NORMAL" : 17,
                        "TEXCOORD_0" : 18
                    },
                    "indices" : 19,
                    "material" : 4
                }
            ]
        }
    ],
    "textures" : [
        {
            "sampler" : 0,
            "source" : 0
        },
        {
            "sampler" : 0,
            "source" : 0
        },
        {
            "sampler" : 0,
            "source" : 0
        },
        {
            "sampler" : 0,
            "source" : 0
        },
        {
            "sampler" : 0,
            "source" : 0
        }
    ],
    "images" : [
        {
            "bufferView" : 4,
            "mimeType" : "image/jpeg",
            "name" : "Fence_tex_color"
        }
    ],
    "accessors" : [
        {
            "bufferView" : 0,
            "componentType" : 5126,
            "count" : 776,
            "max" : [
                1.2160969972610474,
                0.9429097771644592,
                0.08004428446292877
            ],
            "min" : [
                -0.10037130117416382,
                -0.00612303614616394,
                -0.08004455268383026
            ],
            "type" : "VEC3"
        },
        {
            "bufferView" : 1,
            "componentType" : 5126,
            "count" : 776,
            "type" : "VEC3"
        },
        {
            "bufferView" : 2,
            "componentType" : 5126,
            "count" : 776,
            "type" : "VEC2"
        },
        {
            "bufferView" : 3,
            "componentType" : 5123,
            "count" : 1458,
            "type" : "SCALAR"
        },
        {
            "bufferView" : 5,
            "componentType" : 5126,
            "count" : 808,
            "max" : [
                1.2385858297348022,
                0.9446355104446411,
                0.08004428446292877
            ],
            "min" : [
                -0.08754652738571167,
                -0.006123006343841553,
                -0.08004455268383026
            ],
            "type" : "VEC3"
        },
        {
            "bufferView" : 6,
            "componentType" : 5126,
            "count" : 808,
            "type" : "VEC3"
        },
        {
            "bufferView" : 7,
            "componentType" : 5126,
            "count" : 808,
            "type" : "VEC2"
        },
        {
            "bufferView" : 8,
            "componentType" : 5123,
            "count" : 1506,
            "type" : "SCALAR"
        },
        {
            "bufferView" : 9,
            "componentType" : 5126,
            "count" : 1228,
            "max" : [
                0.6660966277122498,
                0.9446355104446411,
                0.08004427701234818
            ],
            "min" : [
                -0.8224722146987915,
                -0.006123021245002747,
                -0.08004455268383026
            ],
            "type" : "VEC3"
        },
        {
            "bufferView" : 10,
            "componentType" : 5126,
            "count" : 1228,
            "type" : "VEC3"
        },
        {
            "bufferView" : 11,
            "componentType" : 5126,
            "count" : 1228,
            "type" : "VEC2"
        },
        {
            "bufferView" : 12,
            "componentType" : 5123,
            "count" : 2244,
            "type" : "SCALAR"
        },
        {
            "bufferView" : 13,
            "componentType" : 5126,
            "count" : 68,
            "max" : [
                0.042711980640888214,
                0.9555910229682922,
                0.046280186623334885
            ],
            "min" : [
                -0.10783263295888901,
                -0.01982700824737549,
                -0.0568842887878418
            ],
            "type" : "VEC3"
        },
        {
            "bufferView" : 14,
            "componentType" : 5126,
            "count" : 68,
            "type" : "VEC3"
        },
        {
            "bufferView" : 15,
            "componentType" : 5126,
            "count" : 68,
            "type" : "VEC2"
        },
        {
            "bufferView" : 16,
            "componentType" : 5123,
            "count" : 114,
            "type" : "SCALAR"
        },
        {
            "bufferView" : 17,
            "componentType" : 5126,
            "count" : 160,
            "max" : [
                0.06372664123773575,
                0.06731700897216797,
                0.05572639778256416
            ],
            "min" : [
                -0.06372662633657455,
                -0.06731724739074707,
                -0.05572640150785446
            ],
            "type" : "VEC3"
        },
        {
            "bufferView" : 18,
            "componentType" : 5126,
            "count" : 160,
            "type" : "VEC3"
        },
        {
            "bufferView" : 19,
            "componentType" : 5126,
            "count" : 160,
            "type" : "VEC2"
        },
        {
            "bufferView" : 20,
            "componentType" : 5123,
            "count" : 288,
            "type" : "SCALAR"
        }
    ],
    "bufferViews" : [
        {
            "buffer" : 0,
            "byteLength" : 9312,
            "byteOffset" : 0
        },
        {
            "buffer" : 0,
            "byteLength" : 9312,
            "byteOffset" : 9312
        },
        {
            "buffer" : 0,
            "byteLength" : 6208,
            "byteOffset" : 18624
        },
        {
            "buffer" : 0,
            "byteLength" : 2916,
            "byteOffset" : 24832
        },
        {
            "buffer" : 0,
            "byteLength" : 1285,
            "byteOffset" : 27748
        },
        {
            "buffer" : 0,
            "byteLength" : 9696,
            "byteOffset" : 29036
        },
        {
            "buffer" : 0,
            "byteLength" : 9696,
            "byteOffset" : 38732
        },
        {
            "buffer" : 0,
            "byteLength" : 6464,
            "byteOffset" : 48428
        },
        {
            "buffer" : 0,
            "byteLength" : 3012,
            "byteOffset" : 54892
        },
        {
            "buffer" : 0,
            "byteLength" : 14736,
            "byteOffset" : 57904
        },
        {
            "buffer" : 0,
            "byteLength" : 14736,
            "byteOffset" : 72640
        },
        {
            "buffer" : 0,
            "byteLength" : 9824,
            "byteOffset" : 87376
        },
        {
            "buffer" : 0,
            "byteLength" : 4488,
            "byteOffset" : 97200
        },
        {
            "buffer" : 0,
            "byteLength" : 816,
            "byteOffset" : 101688
        },
        {
            "buffer" : 0,
            "byteLength" : 816,
            "byteOffset" : 102504
        },
        {
            "buffer" : 0,
            "byteLength" : 544,
            "byteOffset" : 103320
        },
        {
            "buffer" : 0,
            "byteLength" : 228,
            "byteOffset" : 103864
        },
        {
            "buffer" : 0,
            "byteLength" : 1920,
            "byteOffset" : 104092
        },
        {
            "buffer" : 0,
            "byteLength" : 1920,
            "byteOffset" : 106012
        },
        {
            "buffer" : 0,
            "byteLength" : 1280,
            "byteOffset" : 107932
        },
        {
            "buffer" : 0,
            "byteLength" : 576,
            "byteOffset" : 109212
        }
    ],
    "samplers" : [
        {
            "magFilter" : 9729,
            "minFilter" : 9987
        }
    ],
    "buffers" : [
        {
            "byteLength" : 109788,
            "uri" : "data:application/octet-stream;base64,"
        }
    ]
}
