{
    "asset" : {
        "generator" : "Khronos glTF Blender I/O v1.6.16",
        "version" : "2.0"
    },
    "scene" : 0,
    "scenes" : [
        {
            "name" : "Scene",
            "nodes" : [
                0,
                1,
                2,
                3,
                4,
                5,
                6,
                7,
                8,
                9,
                10,
                11,
                12
            ]
        }
    ],
    "nodes" : [
        {
            "mesh" : 0,
            "name" : "Fence1.020",
            "rotation" : [
                0,
                0.9916844964027405,
                0,
                -0.1286928653717041
            ],
            "translation" : [
                25.185806274414062,
                0,
                -2.7818763256073
            ]
        },
        {
            "mesh" : 0,
            "name" : "Fence1.021",
            "rotation" : [
                0,
                0.9916844964027405,
                0,
                -0.1286928653717041
            ],
            "translation" : [
                26.36087417602539,
                0,
                -3.0908584594726562
            ]
        },
        {
            "mesh" : 0,
            "name" : "Fence1.023",
            "rotation" : [
                0,
                0.9916844964027405,
                0,
                -0.1286928653717041
            ],
            "translation" : [
                28.713632583618164,
                0,
                -3.714627504348755
            ]
        },
        {
            "mesh" : 0,
            "name" : "Fence1.024",
            "rotation" : [
                0,
                0.9916844964027405,
                0,
                -0.1286928653717041
            ],
            "translation" : [
                29.91427993774414,
                0,
                -4.032822608947754
            ]
        },
        {
            "mesh" : 0,
            "name" : "Fence1.025",
            "rotation" : [
                0,
                0.9473153352737427,
                0,
                -0.32030248641967773
            ],
            "translation" : [
                30.877119064331055,
                0,
                -4.758072376251221
            ]
        },
        {
            "mesh" : 0,
            "name" : "Fence1.026",
            "rotation" : [
                0,
                0.8663265705108643,
                0,
                -0.49947798252105713
            ],
            "translation" : [
                31.483768463134766,
                0,
                -5.804788112640381
            ]
        },
        {
            "mesh" : 0,
            "name" : "Fence1.029",
            "rotation" : [
                0,
                0.6073257327079773,
                0,
                -0.7944529056549072
            ],
            "translation" : [
                31.185083389282227,
                0,
                -9.37343692779541
            ]
        },
        {
            "mesh" : 0,
            "name" : "Fence1.030",
            "rotation" : [
                0,
                0.5914220809936523,
                0,
                -0.8063622713088989
            ],
            "translation" : [
                30.81808853149414,
                0,
                -10.514947891235352
            ]
        },
        {
            "mesh" : 0,
            "name" : "Fence1.031",
            "rotation" : [
                0,
                0.5914220809936523,
                0,
                -0.8063622713088989
            ],
            "translation" : [
                30.457609176635742,
                0,
                -11.661927223205566
            ]
        },
        {
            "mesh" : 1,
            "name" : "Fence2.004",
            "rotation" : [
                0,
                0.987941324710846,
                0,
                -0.15482884645462036
            ],
            "translation" : [
                24.05270004272461,
                0,
                -2.4728844165802
            ]
        },
        {
            "mesh" : 1,
            "name" : "Fence2.005",
            "rotation" : [
                0,
                0.9914402961730957,
                0,
                -0.13056156039237976
            ],
            "translation" : [
                27.585840225219727,
                0,
                -3.425560474395752
            ]
        },
        {
            "mesh" : 1,
            "name" : "Fence2.006",
            "rotation" : [
                0,
                0.7529420256614685,
                0,
                -0.6580868363380432
            ],
            "translation" : [
                31.653593063354492,
                0,
                -7.01785135269165
            ]
        },
        {
            "mesh" : 1,
            "name" : "Fence2.007",
            "rotation" : [
                0,
                0.6625535488128662,
                0,
                -0.7490146160125732
            ],
            "translation" : [
                31.49840545654297,
                0,
                -8.237794876098633
            ]
        }
    ],
    "materials" : [
        {
            "doubleSided" : true,
            "name" : "Material.018",
            "pbrMetallicRoughness" : {
                "baseColorTexture" : {
                    "index" : 0
                },
                "metallicFactor" : 0,
                "roughnessFactor" : 0.800000011920929
            }
        },
        {
            "doubleSided" : true,
            "name" : "Material.019",
            "pbrMetallicRoughness" : {
                "baseColorTexture" : {
                    "index" : 1
                },
                "metallicFactor" : 0,
                "roughnessFactor" : 0.800000011920929
            }
        }
    ],
    "meshes" : [
        {
            "name" : "Cylinder.015",
            "primitives" : [
                {
                    "attributes" : {
                        "POSITION" : 0,
                        "NORMAL" : 1,
                        "TEXCOORD_0" : 2
                    },
                    "indices" : 3,
                    "material" : 0
                }
            ]
        },
        {
            "name" : "Cylinder.016",
            "primitives" : [
                {
                    "attributes" : {
                        "POSITION" : 4,
                        "NORMAL" : 5,
                        "TEXCOORD_0" : 6
                    },
                    "indices" : 7,
                    "material" : 1
                }
            ]
        }
    ],
    "textures" : [
        {
            "sampler" : 0,
            "source" : 0
        },
        {
            "sampler" : 0,
            "source" : 0
        }
    ],
    "images" : [
        {
            "bufferView" : 4,
            "mimeType" : "image/jpeg",
            "name" : "Fence_tex_color"
        }
    ],
    "accessors" : [
        {
            "bufferView" : 0,
            "componentType" : 5126,
            "count" : 776,
            "max" : [
                1.2160969972610474,
                0.9429097771644592,
                0.08004428446292877
            ],
            "min" : [
                -0.10037130117416382,
                -0.00612303614616394,
                -0.08004455268383026
            ],
            "type" : "VEC3"
        },
        {
            "bufferView" : 1,
            "componentType" : 5126,
            "count" : 776,
            "type" : "VEC3"
        },
        {
            "bufferView" : 2,
            "componentType" : 5126,
            "count" : 776,
            "type" : "VEC2"
        },
        {
            "bufferView" : 3,
            "componentType" : 5123,
            "count" : 1458,
            "type" : "SCALAR"
        },
        {
            "bufferView" : 5,
            "componentType" : 5126,
            "count" : 808,
            "max" : [
                1.2385858297348022,
                0.9446355104446411,
                0.08004428446292877
            ],
            "min" : [
                -0.08754652738571167,
                -0.006123006343841553,
                -0.08004455268383026
            ],
            "type" : "VEC3"
        },
        {
            "bufferView" : 6,
            "componentType" : 5126,
            "count" : 808,
            "type" : "VEC3"
        },
        {
            "bufferView" : 7,
            "componentType" : 5126,
            "count" : 808,
            "type" : "VEC2"
        },
        {
            "bufferView" : 8,
            "componentType" : 5123,
            "count" : 1506,
            "type" : "SCALAR"
        }
    ],
    "bufferViews" : [
        {
            "buffer" : 0,
            "byteLength" : 9312,
            "byteOffset" : 0
        },
        {
            "buffer" : 0,
            "byteLength" : 9312,
            "byteOffset" : 9312
        },
        {
            "buffer" : 0,
            "byteLength" : 6208,
            "byteOffset" : 18624
        },
        {
            "buffer" : 0,
            "byteLength" : 2916,
            "byteOffset" : 24832
        },
        {
            "buffer" : 0,
            "byteLength" : 1285,
            "byteOffset" : 27748
        },
        {
            "buffer" : 0,
            "byteLength" : 9696,
            "byteOffset" : 29036
        },
        {
            "buffer" : 0,
            "byteLength" : 9696,
            "byteOffset" : 38732
        },
        {
            "buffer" : 0,
            "byteLength" : 6464,
            "byteOffset" : 48428
        },
        {
            "buffer" : 0,
            "byteLength" : 3012,
            "byteOffset" : 54892
        }
    ],
    "samplers" : [
        {
            "magFilter" : 9729,
            "minFilter" : 9987
        }
    ],
    "buffers" : [
        {
            "byteLength" : 57904,
            "uri" : "data:application/octet-stream;base64,"
        }
    ]
}
