{
    "asset" : {
        "generator" : "Khronos glTF Blender I/O v1.6.16",
        "version" : "2.0"
    },
    "scene" : 0,
    "scenes" : [
        {
            "name" : "Scene",
            "nodes" : [
                0,
                1,
                2,
                3,
                4,
                5,
                6,
                7,
                8,
                9,
                10,
                11,
                12,
                13,
                14,
                15
            ]
        }
    ],
    "nodes" : [
        {
            "mesh" : 0,
            "name" : "Grass - copy.094",
            "rotation" : [
                -0.08360137790441513,
                0.7960852384567261,
                0.20529866218566895,
                0.5631266236305237
            ],
            "scale" : [
                0.7174474000930786,
                0.7174473404884338,
                0.7174474000930786
            ],
            "translation" : [
                45.383079528808594,
                2.133277416229248,
                50.04495620727539
            ]
        },
        {
            "mesh" : 1,
            "name" : "Reed_normal - copy.004",
            "rotation" : [
                0,
                0.8135125637054443,
                0,
                0.5815473198890686
            ],
            "scale" : [
                0.9964016079902649,
                1.2898952960968018,
                0.9964016079902649
            ],
            "translation" : [
                46.6702880859375,
                0.4264429807662964,
                55.445098876953125
            ]
        },
        {
            "mesh" : 1,
            "name" : "Reed_normal - copy.017",
            "rotation" : [
                0,
                0.1128939539194107,
                0,
                0.9936070442199707
            ],
            "scale" : [
                1.11751389503479,
                1.4466816186904907,
                1.11751389503479
            ],
            "translation" : [
                43.792964935302734,
                -0.7046775221824646,
                54.76502227783203
            ]
        },
        {
            "mesh" : 1,
            "name" : "Reed_normal - copy.019",
            "rotation" : [
                -0.00015572401753161103,
                -0.916760265827179,
                -8.926769078243524e-05,
                0.3994377851486206
            ],
            "scale" : [
                1.0069973468780518,
                1.3036119937896729,
                1.0069973468780518
            ],
            "translation" : [
                45.54691696166992,
                1.0920445919036865,
                52.82195281982422
            ]
        },
        {
            "mesh" : 1,
            "name" : "Reed_normal - copy.073",
            "rotation" : [
                0,
                -0.006116347853094339,
                0,
                0.9999812841415405
            ],
            "scale" : [
                1.1677244901657104,
                1.5116819143295288,
                1.1677244901657104
            ],
            "translation" : [
                46.590885162353516,
                0.08913617581129074,
                57.62946319580078
            ]
        },
        {
            "mesh" : 1,
            "name" : "Reed_normal - copy.075",
            "rotation" : [
                0,
                0.8870236277580261,
                0,
                0.46172407269477844
            ],
            "scale" : [
                1.153124213218689,
                1.4927810430526733,
                1.153124213218689
            ],
            "translation" : [
                42.5051383972168,
                -0.46388041973114014,
                52.004852294921875
            ]
        },
        {
            "mesh" : 1,
            "name" : "Reed_normal - copy.243",
            "rotation" : [
                0,
                -0.7776396870613098,
                0,
                0.6287102103233337
            ],
            "scale" : [
                0.9991686940193176,
                1.2934776544570923,
                0.9991686940193176
            ],
            "translation" : [
                42.95403289794922,
                0.3898925185203552,
                50.71257019042969
            ]
        },
        {
            "mesh" : 1,
            "name" : "Reed_normal - copy.249",
            "rotation" : [
                0,
                0.18801738321781158,
                0,
                0.9821656942367554
            ],
            "scale" : [
                0.9835798740386963,
                1.2732969522476196,
                0.9835798740386963
            ],
            "translation" : [
                44.9472770690918,
                -0.6234543323516846,
                57.000064849853516
            ]
        },
        {
            "mesh" : 1,
            "name" : "Reed_normal - copy.278",
            "rotation" : [
                0,
                0.9042116403579712,
                0,
                0.42708465456962585
            ],
            "scale" : [
                1.1340919733047485,
                1.4681428670883179,
                1.1340919733047485
            ],
            "translation" : [
                45.83751678466797,
                0.3752385377883911,
                54.48681640625
            ]
        },
        {
            "mesh" : 1,
            "name" : "Reed_normal - copy.296",
            "rotation" : [
                0,
                0.956781804561615,
                0,
                0.29080671072006226
            ],
            "scale" : [
                1.1505577564239502,
                1.4894587993621826,
                1.1505577564239502
            ],
            "translation" : [
                43.697330474853516,
                0.41030406951904297,
                51.64634323120117
            ]
        },
        {
            "mesh" : 1,
            "name" : "Reed_normal - copy.301",
            "rotation" : [
                0,
                -0.7016345262527466,
                0,
                0.7125369906425476
            ],
            "scale" : [
                1.1301169395446777,
                1.4629969596862793,
                1.1301169395446777
            ],
            "translation" : [
                44.039039611816406,
                0.5872889757156372,
                51.71516418457031
            ]
        },
        {
            "mesh" : 1,
            "name" : "Reed_normal - copy.312",
            "rotation" : [
                -8.118359983200207e-05,
                -0.7459281086921692,
                0.00016670247714500874,
                0.6660264134407043
            ],
            "scale" : [
                0.9981635808944702,
                1.2921760082244873,
                0.9981635212898254
            ],
            "translation" : [
                42.95344543457031,
                0.08327364921569824,
                51.374820709228516
            ]
        },
        {
            "mesh" : 1,
            "name" : "Reed_normal - copy.329",
            "rotation" : [
                0,
                -0.9073584675788879,
                0,
                0.42035770416259766
            ],
            "scale" : [
                1.1934198141098022,
                1.5449459552764893,
                1.1934198141098022
            ],
            "translation" : [
                44.5341796875,
                1.2887537479400635,
                50.84977722167969
            ]
        },
        {
            "mesh" : 1,
            "name" : "Reed_normal - copy.335",
            "rotation" : [
                0,
                0.9915481209754944,
                0,
                0.1297396421432495
            ],
            "scale" : [
                1.0635993480682373,
                1.3768861293792725,
                1.0635993480682373
            ],
            "translation" : [
                45.43834686279297,
                0.28665897250175476,
                54.53705596923828
            ]
        },
        {
            "mesh" : 2,
            "name" : "Reed_with - copy.038",
            "rotation" : [
                0,
                -0.9020723104476929,
                0,
                0.4315848648548126
            ],
            "scale" : [
                1.2309387922286987,
                1.3383666276931763,
                1.2309387922286987
            ],
            "translation" : [
                44.75876998901367,
                0.7370139956474304,
                52.464027404785156
            ]
        },
        {
            "mesh" : 2,
            "name" : "Reed_with - copy.059",
            "rotation" : [
                0,
                0.5121902823448181,
                0,
                0.8588719964027405
            ],
            "scale" : [
                1.1740833520889282,
                1.2765491008758545,
                1.1740833520889282
            ],
            "translation" : [
                45.047523498535156,
                1.1817315816879272,
                51.812129974365234
            ]
        }
    ],
    "materials" : [
        {
            "doubleSided" : true,
            "name" : "Material.017",
            "pbrMetallicRoughness" : {
                "baseColorTexture" : {
                    "index" : 0
                },
                "metallicFactor" : 0,
                "roughnessFactor" : 0.8999999761581421
            }
        },
        {
            "doubleSided" : true,
            "name" : "Reed_mat",
            "pbrMetallicRoughness" : {
                "baseColorTexture" : {
                    "index" : 1
                },
                "metallicFactor" : 0,
                "roughnessFactor" : 0.8999999761581421
            }
        },
        {
            "doubleSided" : true,
            "name" : "Reed_mat.001",
            "pbrMetallicRoughness" : {
                "baseColorTexture" : {
                    "index" : 2
                },
                "metallicFactor" : 0,
                "roughnessFactor" : 0.8999999761581421
            }
        }
    ],
    "meshes" : [
        {
            "name" : "Cube.002",
            "primitives" : [
                {
                    "attributes" : {
                        "POSITION" : 0,
                        "NORMAL" : 1,
                        "TEXCOORD_0" : 2
                    },
                    "indices" : 3,
                    "material" : 0
                }
            ]
        },
        {
            "name" : "Cube.001",
            "primitives" : [
                {
                    "attributes" : {
                        "POSITION" : 4,
                        "NORMAL" : 5,
                        "TEXCOORD_0" : 6
                    },
                    "indices" : 7,
                    "material" : 1
                }
            ]
        },
        {
            "name" : "Cube.003",
            "primitives" : [
                {
                    "attributes" : {
                        "POSITION" : 8,
                        "NORMAL" : 9,
                        "TEXCOORD_0" : 10
                    },
                    "indices" : 11,
                    "material" : 2
                }
            ]
        }
    ],
    "textures" : [
        {
            "sampler" : 0,
            "source" : 0
        },
        {
            "sampler" : 0,
            "source" : 1
        },
        {
            "sampler" : 0,
            "source" : 1
        }
    ],
    "images" : [
        {
            "bufferView" : 4,
            "mimeType" : "image/jpeg",
            "name" : "Grass_tex_color"
        },
        {
            "bufferView" : 9,
            "mimeType" : "image/jpeg",
            "name" : "Reed_tex_color"
        }
    ],
    "accessors" : [
        {
            "bufferView" : 0,
            "componentType" : 5126,
            "count" : 88,
            "max" : [
                0.20007699728012085,
                0.7471616864204407,
                0.1470727026462555
            ],
            "min" : [
                -0.15658527612686157,
                -0.01082924660295248,
                -0.1288084238767624
            ],
            "type" : "VEC3"
        },
        {
            "bufferView" : 1,
            "componentType" : 5126,
            "count" : 88,
            "type" : "VEC3"
        },
        {
            "bufferView" : 2,
            "componentType" : 5126,
            "count" : 88,
            "type" : "VEC2"
        },
        {
            "bufferView" : 3,
            "componentType" : 5123,
            "count" : 114,
            "type" : "SCALAR"
        },
        {
            "bufferView" : 5,
            "componentType" : 5126,
            "count" : 86,
            "max" : [
                0.2206021249294281,
                0.6745123267173767,
                0.12137533724308014
            ],
            "min" : [
                -0.19720359146595,
                -0.015290185809135437,
                -0.15640054643154144
            ],
            "type" : "VEC3"
        },
        {
            "bufferView" : 6,
            "componentType" : 5126,
            "count" : 86,
            "type" : "VEC3"
        },
        {
            "bufferView" : 7,
            "componentType" : 5126,
            "count" : 86,
            "type" : "VEC2"
        },
        {
            "bufferView" : 8,
            "componentType" : 5123,
            "count" : 114,
            "type" : "SCALAR"
        },
        {
            "bufferView" : 10,
            "componentType" : 5126,
            "count" : 134,
            "max" : [
                0.1993679404258728,
                0.7369657754898071,
                0.11553587764501572
            ],
            "min" : [
                -0.1460842490196228,
                -0.01618325710296631,
                -0.18000578880310059
            ],
            "type" : "VEC3"
        },
        {
            "bufferView" : 11,
            "componentType" : 5126,
            "count" : 134,
            "type" : "VEC3"
        },
        {
            "bufferView" : 12,
            "componentType" : 5126,
            "count" : 134,
            "type" : "VEC2"
        },
        {
            "bufferView" : 13,
            "componentType" : 5123,
            "count" : 186,
            "type" : "SCALAR"
        }
    ],
    "bufferViews" : [
        {
            "buffer" : 0,
            "byteLength" : 1056,
            "byteOffset" : 0
        },
        {
            "buffer" : 0,
            "byteLength" : 1056,
            "byteOffset" : 1056
        },
        {
            "buffer" : 0,
            "byteLength" : 704,
            "byteOffset" : 2112
        },
        {
            "buffer" : 0,
            "byteLength" : 228,
            "byteOffset" : 2816
        },
        {
            "buffer" : 0,
            "byteLength" : 11267,
            "byteOffset" : 3044
        },
        {
            "buffer" : 0,
            "byteLength" : 1032,
            "byteOffset" : 14312
        },
        {
            "buffer" : 0,
            "byteLength" : 1032,
            "byteOffset" : 15344
        },
        {
            "buffer" : 0,
            "byteLength" : 688,
            "byteOffset" : 16376
        },
        {
            "buffer" : 0,
            "byteLength" : 228,
            "byteOffset" : 17064
        },
        {
            "buffer" : 0,
            "byteLength" : 8000,
            "byteOffset" : 17292
        },
        {
            "buffer" : 0,
            "byteLength" : 1608,
            "byteOffset" : 25292
        },
        {
            "buffer" : 0,
            "byteLength" : 1608,
            "byteOffset" : 26900
        },
        {
            "buffer" : 0,
            "byteLength" : 1072,
            "byteOffset" : 28508
        },
        {
            "buffer" : 0,
            "byteLength" : 372,
            "byteOffset" : 29580
        }
    ],
    "samplers" : [
        {
            "magFilter" : 9729,
            "minFilter" : 9987
        }
    ],
    "buffers" : [
        {
            "byteLength" : 29952,
            "uri" : "data:application/octet-stream;base64,"
        }
    ]
}
