{
    "asset" : {
        "generator" : "Khronos glTF Blender I/O v1.6.16",
        "version" : "2.0"
    },
    "scene" : 0,
    "scenes" : [
        {
            "name" : "Scene",
            "nodes" : [
                0,
                1,
                2,
                3,
                4,
                5,
                6,
                7,
                8,
                9,
                10,
                11,
                12,
                13,
                14,
                15,
                16,
                17,
                18,
                19,
                20,
                21,
                22,
                23,
                24,
                25,
                26,
                27
            ]
        }
    ],
    "nodes" : [
        {
            "mesh" : 0,
            "name" : "Reed_normal - copy.002",
            "rotation" : [
                0,
                0.0788392499089241,
                0,
                0.9968873262405396
            ],
            "scale" : [
                1.1598910093307495,
                1.501541018486023,
                1.1598910093307495
            ],
            "translation" : [
                28.189064025878906,
                -0.4424988627433777,
                11.687238693237305
            ]
        },
        {
            "mesh" : 0,
            "name" : "Reed_normal - copy.014",
            "rotation" : [
                0,
                -0.999971330165863,
                0,
                0.007572654169052839
            ],
            "scale" : [
                1.099655270576477,
                1.42356276512146,
                1.099655270576477
            ],
            "translation" : [
                17.46843719482422,
                -0.598374605178833,
                10.309627532958984
            ]
        },
        {
            "mesh" : 0,
            "name" : "Reed_normal - copy.047",
            "rotation" : [
                -0.0001743378961691633,
                -0.17344164848327637,
                3.876132541336119e-05,
                0.9848441481590271
            ],
            "scale" : [
                1.0557445287704468,
                1.36671781539917,
                1.0557446479797363
            ],
            "translation" : [
                19.74646759033203,
                -0.38868674635887146,
                8.60487174987793
            ]
        },
        {
            "mesh" : 0,
            "name" : "Reed_normal - copy.048",
            "rotation" : [
                0,
                0.6996839046478271,
                0,
                0.7144525647163391
            ],
            "scale" : [
                1.0273771286010742,
                1.329994797706604,
                1.0273771286010742
            ],
            "translation" : [
                18.42121696472168,
                -0.3037002682685852,
                7.894964218139648
            ]
        },
        {
            "mesh" : 0,
            "name" : "Reed_normal - copy.058",
            "rotation" : [
                0,
                -0.8365325331687927,
                0,
                0.5479173064231873
            ],
            "scale" : [
                1.1678242683410645,
                1.5118111371994019,
                1.1678242683410645
            ],
            "translation" : [
                28.80840301513672,
                -0.37814903259277344,
                10.9009428024292
            ]
        },
        {
            "mesh" : 0,
            "name" : "Reed_normal - copy.111",
            "rotation" : [
                0,
                0.15811756253242493,
                0,
                0.9874203205108643
            ],
            "scale" : [
                1.023508906364441,
                1.3249870538711548,
                1.023508906364441
            ],
            "translation" : [
                25.012863159179688,
                -0.46714481711387634,
                9.480219841003418
            ]
        },
        {
            "mesh" : 0,
            "name" : "Reed_normal - copy.129",
            "rotation" : [
                0,
                0.9510388970375061,
                0,
                0.30907127261161804
            ],
            "scale" : [
                1.2110919952392578,
                1.5678236484527588,
                1.2110919952392578
            ],
            "translation" : [
                25.831087112426758,
                -0.36017078161239624,
                8.398690223693848
            ]
        },
        {
            "mesh" : 0,
            "name" : "Reed_normal - copy.131",
            "rotation" : [
                0,
                0.9998353719711304,
                0,
                0.01814619079232216
            ],
            "scale" : [
                1.1100934743881226,
                1.4370752573013306,
                1.1100934743881226
            ],
            "translation" : [
                20.910791397094727,
                -0.3109603524208069,
                7.95172643661499
            ]
        },
        {
            "mesh" : 0,
            "name" : "Reed_normal - copy.133",
            "rotation" : [
                0,
                0.9989878535270691,
                0,
                0.04498306289315224
            ],
            "scale" : [
                1.0924845933914185,
                1.4142800569534302,
                1.0924845933914185
            ],
            "translation" : [
                20.978872299194336,
                -0.32590898871421814,
                8.094413757324219
            ]
        },
        {
            "mesh" : 0,
            "name" : "Reed_normal - copy.135",
            "rotation" : [
                0,
                0.8285979628562927,
                0,
                0.5598441362380981
            ],
            "scale" : [
                1.015211582183838,
                1.3142458200454712,
                1.015211582183838
            ],
            "translation" : [
                16.995197296142578,
                -0.345406711101532,
                8.134937286376953
            ]
        },
        {
            "mesh" : 0,
            "name" : "Reed_normal - copy.143",
            "rotation" : [
                0,
                0.7496405243873596,
                0,
                0.6618452072143555
            ],
            "scale" : [
                1.106696605682373,
                1.432677984237671,
                1.106696605682373
            ],
            "translation" : [
                23.521020889282227,
                -0.5663217306137085,
                10.038665771484375
            ]
        },
        {
            "mesh" : 0,
            "name" : "Reed_normal - copy.188",
            "rotation" : [
                0,
                -0.9023410081863403,
                0,
                0.4310228228569031
            ],
            "scale" : [
                1.0174123048782349,
                1.3170948028564453,
                1.0174123048782349
            ],
            "translation" : [
                25.35542106628418,
                -0.6771978735923767,
                11.774688720703125
            ]
        },
        {
            "mesh" : 0,
            "name" : "Reed_normal - copy.204",
            "rotation" : [
                -0.00010926293907687068,
                -0.6548805832862854,
                0.00014635483967140317,
                0.7557323575019836
            ],
            "scale" : [
                1.0063252449035645,
                1.3027416467666626,
                1.006325125694275
            ],
            "translation" : [
                26.05838394165039,
                -0.43061497807502747,
                9.634963035583496
            ]
        },
        {
            "mesh" : 0,
            "name" : "Reed_normal - copy.222",
            "rotation" : [
                0,
                0.36298903822898865,
                0,
                0.9317933917045593
            ],
            "scale" : [
                1.1457542181015015,
                1.4832402467727661,
                1.1457542181015015
            ],
            "translation" : [
                27.191558837890625,
                -0.4053945243358612,
                10.07066535949707
            ]
        },
        {
            "mesh" : 0,
            "name" : "Reed_normal - copy.238",
            "rotation" : [
                0,
                0.35980501770973206,
                0,
                0.9330275058746338
            ],
            "scale" : [
                1.131690502166748,
                1.465034008026123,
                1.131690502166748
            ],
            "translation" : [
                21.094200134277344,
                -0.22810176014900208,
                7.1654815673828125
            ]
        },
        {
            "mesh" : 0,
            "name" : "Reed_normal - copy.248",
            "rotation" : [
                0,
                -0.8707357048988342,
                0,
                0.4917513132095337
            ],
            "scale" : [
                1.1376827955245972,
                1.472791314125061,
                1.1376827955245972
            ],
            "translation" : [
                19.144207000732422,
                -0.31620800495147705,
                8.003170013427734
            ]
        },
        {
            "mesh" : 0,
            "name" : "Reed_normal - copy.263",
            "rotation" : [
                -0.00010464498336659744,
                -0.6720100045204163,
                0.0001501829974586144,
                0.7405420541763306
            ],
            "scale" : [
                1.0745335817337036,
                1.3910410404205322,
                1.074533462524414
            ],
            "translation" : [
                27.023391723632812,
                -0.5487737059593201,
                12.786406517028809
            ]
        },
        {
            "mesh" : 0,
            "name" : "Reed_normal - copy.282",
            "rotation" : [
                0,
                -0.3908555209636688,
                0,
                0.9204520583152771
            ],
            "scale" : [
                1.000724196434021,
                1.295491099357605,
                1.000724196434021
            ],
            "translation" : [
                25.936996459960938,
                -0.41583535075187683,
                9.228621482849121
            ]
        },
        {
            "mesh" : 0,
            "name" : "Reed_normal - copy.297",
            "rotation" : [
                0,
                0.29516321420669556,
                0,
                0.9554468393325806
            ],
            "scale" : [
                0.9921326041221619,
                1.284368872642517,
                0.9921326041221619
            ],
            "translation" : [
                21.809814453125,
                -0.17644749581813812,
                6.685874938964844
            ]
        },
        {
            "mesh" : 0,
            "name" : "Reed_normal - copy.309",
            "rotation" : [
                0,
                0.24113324284553528,
                0,
                0.9704921245574951
            ],
            "scale" : [
                1.2254983186721802,
                1.5864733457565308,
                1.2254983186721802
            ],
            "translation" : [
                25.842708587646484,
                -0.47527727484703064,
                10.327531814575195
            ]
        },
        {
            "mesh" : 0,
            "name" : "Reed_normal - copy.310",
            "rotation" : [
                0,
                -0.44106525182724,
                0,
                0.8974750638008118
            ],
            "scale" : [
                1.2080897092819214,
                1.5639369487762451,
                1.2080897092819214
            ],
            "translation" : [
                25.367752075195312,
                -0.5649160146713257,
                10.906391143798828
            ]
        },
        {
            "mesh" : 0,
            "name" : "Reed_normal - copy.326",
            "rotation" : [
                0,
                -0.869399905204773,
                0,
                0.4941093325614929
            ],
            "scale" : [
                1.1716022491455078,
                1.5167021751403809,
                1.1716022491455078
            ],
            "translation" : [
                24.931673049926758,
                -0.755668580532074,
                11.862409591674805
            ]
        },
        {
            "mesh" : 0,
            "name" : "Reed_normal - copy.350",
            "rotation" : [
                0,
                0.8240604996681213,
                0,
                0.566501796245575
            ],
            "scale" : [
                1.0969781875610352,
                1.4200972318649292,
                1.0969781875610352
            ],
            "translation" : [
                16.746585845947266,
                -0.47262677550315857,
                9.161808013916016
            ]
        },
        {
            "mesh" : 0,
            "name" : "Reed_normal - copy.354",
            "rotation" : [
                0,
                -0.7820471525192261,
                0,
                0.6232194304466248
            ],
            "scale" : [
                1.049198865890503,
                1.3582442998886108,
                1.049198865890503
            ],
            "translation" : [
                29.638370513916016,
                -0.30143189430236816,
                10.063812255859375
            ]
        },
        {
            "mesh" : 1,
            "name" : "Reed_with - copy.001",
            "rotation" : [
                0,
                0.5759928822517395,
                0,
                0.8174546957015991
            ],
            "scale" : [
                1.356467604637146,
                1.4748504161834717,
                1.356467604637146
            ],
            "translation" : [
                19.89654541015625,
                -0.28163766860961914,
                7.674208641052246
            ]
        },
        {
            "mesh" : 1,
            "name" : "Reed_with - copy.008",
            "rotation" : [
                0,
                0.9826012849807739,
                0,
                0.18572743237018585
            ],
            "scale" : [
                1.3139870166778564,
                1.428662657737732,
                1.3139870166778564
            ],
            "translation" : [
                19.657669067382812,
                -0.21535281836986542,
                7.050197124481201
            ]
        },
        {
            "mesh" : 1,
            "name" : "Reed_with - copy.029",
            "rotation" : [
                0.00016474505537189543,
                -0.9581195712089539,
                5.375128239393234e-05,
                0.2863684892654419
            ],
            "scale" : [
                1.2811028957366943,
                1.3929083347320557,
                1.2811028957366943
            ],
            "translation" : [
                19.140960693359375,
                -0.3858586549758911,
                8.544516563415527
            ]
        },
        {
            "mesh" : 1,
            "name" : "Reed_with - copy.055",
            "rotation" : [
                0,
                -0.22916311025619507,
                0,
                0.9733880162239075
            ],
            "scale" : [
                1.2172096967697144,
                1.3234392404556274,
                1.2172096967697144
            ],
            "translation" : [
                26.559547424316406,
                -0.37424206733703613,
                8.908985137939453
            ]
        }
    ],
    "materials" : [
        {
            "doubleSided" : true,
            "name" : "Reed_mat",
            "pbrMetallicRoughness" : {
                "baseColorTexture" : {
                    "index" : 0
                },
                "metallicFactor" : 0,
                "roughnessFactor" : 0.8999999761581421
            }
        },
        {
            "doubleSided" : true,
            "name" : "Reed_mat.001",
            "pbrMetallicRoughness" : {
                "baseColorTexture" : {
                    "index" : 1
                },
                "metallicFactor" : 0,
                "roughnessFactor" : 0.8999999761581421
            }
        }
    ],
    "meshes" : [
        {
            "name" : "Cube.001",
            "primitives" : [
                {
                    "attributes" : {
                        "POSITION" : 0,
                        "NORMAL" : 1,
                        "TEXCOORD_0" : 2
                    },
                    "indices" : 3,
                    "material" : 0
                }
            ]
        },
        {
            "name" : "Cube.003",
            "primitives" : [
                {
                    "attributes" : {
                        "POSITION" : 4,
                        "NORMAL" : 5,
                        "TEXCOORD_0" : 6
                    },
                    "indices" : 7,
                    "material" : 1
                }
            ]
        }
    ],
    "textures" : [
        {
            "sampler" : 0,
            "source" : 0
        },
        {
            "sampler" : 0,
            "source" : 0
        }
    ],
    "images" : [
        {
            "bufferView" : 4,
            "mimeType" : "image/jpeg",
            "name" : "Reed_tex_color"
        }
    ],
    "accessors" : [
        {
            "bufferView" : 0,
            "componentType" : 5126,
            "count" : 86,
            "max" : [
                0.2206021249294281,
                0.6745123267173767,
                0.12137533724308014
            ],
            "min" : [
                -0.19720359146595,
                -0.015290185809135437,
                -0.15640054643154144
            ],
            "type" : "VEC3"
        },
        {
            "bufferView" : 1,
            "componentType" : 5126,
            "count" : 86,
            "type" : "VEC3"
        },
        {
            "bufferView" : 2,
            "componentType" : 5126,
            "count" : 86,
            "type" : "VEC2"
        },
        {
            "bufferView" : 3,
            "componentType" : 5123,
            "count" : 114,
            "type" : "SCALAR"
        },
        {
            "bufferView" : 5,
            "componentType" : 5126,
            "count" : 134,
            "max" : [
                0.1993679404258728,
                0.7369657754898071,
                0.11553587764501572
            ],
            "min" : [
                -0.1460842490196228,
                -0.01618325710296631,
                -0.18000578880310059
            ],
            "type" : "VEC3"
        },
        {
            "bufferView" : 6,
            "componentType" : 5126,
            "count" : 134,
            "type" : "VEC3"
        },
        {
            "bufferView" : 7,
            "componentType" : 5126,
            "count" : 134,
            "type" : "VEC2"
        },
        {
            "bufferView" : 8,
            "componentType" : 5123,
            "count" : 186,
            "type" : "SCALAR"
        }
    ],
    "bufferViews" : [
        {
            "buffer" : 0,
            "byteLength" : 1032,
            "byteOffset" : 0
        },
        {
            "buffer" : 0,
            "byteLength" : 1032,
            "byteOffset" : 1032
        },
        {
            "buffer" : 0,
            "byteLength" : 688,
            "byteOffset" : 2064
        },
        {
            "buffer" : 0,
            "byteLength" : 228,
            "byteOffset" : 2752
        },
        {
            "buffer" : 0,
            "byteLength" : 8000,
            "byteOffset" : 2980
        },
        {
            "buffer" : 0,
            "byteLength" : 1608,
            "byteOffset" : 10980
        },
        {
            "buffer" : 0,
            "byteLength" : 1608,
            "byteOffset" : 12588
        },
        {
            "buffer" : 0,
            "byteLength" : 1072,
            "byteOffset" : 14196
        },
        {
            "buffer" : 0,
            "byteLength" : 372,
            "byteOffset" : 15268
        }
    ],
    "samplers" : [
        {
            "magFilter" : 9729,
            "minFilter" : 9987
        }
    ],
    "buffers" : [
        {
            "byteLength" : 15640,
            "uri" : "data:application/octet-stream;base64,"
        }
    ]
}
