{
    "asset" : {
        "generator" : "Khronos glTF Blender I/O v1.6.16",
        "version" : "2.0"
    },
    "scene" : 0,
    "scenes" : [
        {
            "name" : "Scene",
            "nodes" : [
                0,
                1,
                2,
                3,
                4,
                5,
                6,
                7,
                8,
                9,
                10,
                11,
                12,
                13,
                14,
                15,
                16,
                17,
                18,
                19,
                20,
                21,
                22,
                23
            ]
        }
    ],
    "nodes" : [
        {
            "mesh" : 0,
            "name" : "Reed_normal - copy.005",
            "rotation" : [
                0,
                -0.1736731082201004,
                0,
                0.9848033785820007
            ],
            "scale" : [
                1.1496130228042603,
                1.4882354736328125,
                1.1496130228042603
            ],
            "translation" : [
                14.610106468200684,
                -0.35638627409935,
                44.661556243896484
            ]
        },
        {
            "mesh" : 0,
            "name" : "Reed_normal - copy.009",
            "rotation" : [
                -7.050441490719095e-05,
                -0.7735865712165833,
                0.00017288366507273167,
                0.633690595626831
            ],
            "scale" : [
                0.9980197548866272,
                1.291990041732788,
                0.9980197548866272
            ],
            "translation" : [
                21.307632446289062,
                -0.4242522120475769,
                45.81595993041992
            ]
        },
        {
            "mesh" : 0,
            "name" : "Reed_normal - copy.044",
            "rotation" : [
                0,
                -0.9998204708099365,
                0,
                0.018948331475257874
            ],
            "scale" : [
                1.1049617528915405,
                1.4304322004318237,
                1.1049617528915405
            ],
            "translation" : [
                14.102617263793945,
                -0.8100680112838745,
                46.51969909667969
            ]
        },
        {
            "mesh" : 0,
            "name" : "Reed_normal - copy.054",
            "rotation" : [
                0,
                0.9817889332771301,
                0,
                0.18997499346733093
            ],
            "scale" : [
                1.190603494644165,
                1.5413000583648682,
                1.190603494644165
            ],
            "translation" : [
                17.4202823638916,
                -0.23453550040721893,
                46.189170837402344
            ]
        },
        {
            "mesh" : 0,
            "name" : "Reed_normal - copy.066",
            "rotation" : [
                0,
                0.7350913286209106,
                0,
                0.6779680848121643
            ],
            "scale" : [
                1.109043002128601,
                1.4357155561447144,
                1.109043002128601
            ],
            "translation" : [
                22.1365966796875,
                -0.09000508487224579,
                44.40775680541992
            ]
        },
        {
            "mesh" : 0,
            "name" : "Reed_normal - copy.085",
            "rotation" : [
                0,
                0.9780886173248291,
                0,
                0.20818893611431122
            ],
            "scale" : [
                1.1796051263809204,
                1.527062177658081,
                1.1796051263809204
            ],
            "translation" : [
                25.41912841796875,
                -0.6906927824020386,
                44.471885681152344
            ]
        },
        {
            "mesh" : 0,
            "name" : "Reed_normal - copy.090",
            "rotation" : [
                0,
                0.3494516611099243,
                0,
                0.9369544982910156
            ],
            "scale" : [
                1.1866101026535034,
                1.536130428314209,
                1.1866101026535034
            ],
            "translation" : [
                14.993586540222168,
                -0.10082903504371643,
                43.82126998901367
            ]
        },
        {
            "mesh" : 0,
            "name" : "Reed_normal - copy.099",
            "rotation" : [
                0,
                0.4190423786640167,
                0,
                0.907966673374176
            ],
            "scale" : [
                1.1984869241714478,
                1.551505446434021,
                1.1984869241714478
            ],
            "translation" : [
                20.613435745239258,
                -1.151097059249878,
                47.9642448425293
            ]
        },
        {
            "mesh" : 0,
            "name" : "Reed_normal - copy.112",
            "rotation" : [
                0,
                0.8019168972969055,
                0,
                0.5974355936050415
            ],
            "scale" : [
                1.0699771642684937,
                1.3851428031921387,
                1.0699771642684937
            ],
            "translation" : [
                22.910429000854492,
                -1.8638391494750977,
                48.52976608276367
            ]
        },
        {
            "mesh" : 0,
            "name" : "Reed_normal - copy.126",
            "rotation" : [
                0,
                0.0659589022397995,
                0,
                0.9978223443031311
            ],
            "scale" : [
                1.1478101015090942,
                1.4859015941619873,
                1.1478101015090942
            ],
            "translation" : [
                14.345719337463379,
                -1.0295393466949463,
                49.06547927856445
            ]
        },
        {
            "mesh" : 0,
            "name" : "Reed_normal - copy.165",
            "rotation" : [
                0,
                0.11505962908267975,
                0,
                0.9933586120605469
            ],
            "scale" : [
                1.0103034973144531,
                1.307892084121704,
                1.0103034973144531
            ],
            "translation" : [
                24.145414352416992,
                -0.3172217309474945,
                42.96668243408203
            ]
        },
        {
            "mesh" : 0,
            "name" : "Reed_normal - copy.168",
            "rotation" : [
                0,
                0.9542313814163208,
                0,
                0.299069344997406
            ],
            "scale" : [
                1.1240484714508057,
                1.4551409482955933,
                1.1240484714508057
            ],
            "translation" : [
                14.369757652282715,
                -0.3897014558315277,
                44.592437744140625
            ]
        },
        {
            "mesh" : 0,
            "name" : "Reed_normal - copy.184",
            "rotation" : [
                0,
                -0.3306553363800049,
                0,
                0.9437516927719116
            ],
            "scale" : [
                1.0964632034301758,
                1.4194304943084717,
                1.0964632034301758
            ],
            "translation" : [
                19.341405868530273,
                -0.27800440788269043,
                46.47560501098633
            ]
        },
        {
            "mesh" : 0,
            "name" : "Reed_normal - copy.212",
            "rotation" : [
                0,
                -0.9282850623130798,
                0,
                0.37186941504478455
            ],
            "scale" : [
                0.9871824383735657,
                1.2779605388641357,
                0.9871824383735657
            ],
            "translation" : [
                22.064697265625,
                0.02168140560388565,
                43.20151138305664
            ]
        },
        {
            "mesh" : 0,
            "name" : "Reed_normal - copy.219",
            "rotation" : [
                0,
                -0.1644531488418579,
                0,
                0.9863849878311157
            ],
            "scale" : [
                1.0694575309753418,
                1.3844701051712036,
                1.0694575309753418
            ],
            "translation" : [
                21.223255157470703,
                -0.7606829404830933,
                46.687591552734375
            ]
        },
        {
            "mesh" : 0,
            "name" : "Reed_normal - copy.253",
            "rotation" : [
                0,
                -0.45357540249824524,
                0,
                0.8912178874015808
            ],
            "scale" : [
                1.1669718027114868,
                1.5107077360153198,
                1.1669718027114868
            ],
            "translation" : [
                15.575174331665039,
                -0.5067614912986755,
                46.496707916259766
            ]
        },
        {
            "mesh" : 0,
            "name" : "Reed_normal - copy.275",
            "rotation" : [
                0,
                -0.5445683002471924,
                0,
                0.8387165069580078
            ],
            "scale" : [
                1.157949447631836,
                1.4990277290344238,
                1.157949447631836
            ],
            "translation" : [
                24.64991569519043,
                -0.655184268951416,
                44.75181198120117
            ]
        },
        {
            "mesh" : 0,
            "name" : "Reed_normal - copy.294",
            "rotation" : [
                0,
                -0.8505551218986511,
                0,
                0.5258861184120178
            ],
            "scale" : [
                1.094855546951294,
                1.4173493385314941,
                1.094855546951294
            ],
            "translation" : [
                19.323347091674805,
                -0.14109638333320618,
                45.80469512939453
            ]
        },
        {
            "mesh" : 0,
            "name" : "Reed_normal - copy.337",
            "rotation" : [
                0,
                0.8188726902008057,
                0,
                0.5739752054214478
            ],
            "scale" : [
                1.0594526529312134,
                1.3715184926986694,
                1.0594526529312134
            ],
            "translation" : [
                15.31671142578125,
                -0.4667688012123108,
                45.9765739440918
            ]
        },
        {
            "mesh" : 1,
            "name" : "Reed_with - copy.023",
            "rotation" : [
                0,
                0.08432063460350037,
                0,
                0.9964386820793152
            ],
            "scale" : [
                1.4162424802780151,
                1.5398422479629517,
                1.4162424802780151
            ],
            "translation" : [
                18.47289276123047,
                0.11856946349143982,
                44.072200775146484
            ]
        },
        {
            "mesh" : 1,
            "name" : "Reed_with - copy.033",
            "rotation" : [
                0,
                -0.7242487072944641,
                0,
                0.689538836479187
            ],
            "scale" : [
                1.3881839513778687,
                1.5093348026275635,
                1.3881839513778687
            ],
            "translation" : [
                12.75263786315918,
                -0.49165454506874084,
                43.833160400390625
            ]
        },
        {
            "mesh" : 1,
            "name" : "Reed_with - copy.039",
            "rotation" : [
                -0.00013811634562443942,
                -0.5595476627349854,
                0.00010502691293368116,
                0.8287981748580933
            ],
            "scale" : [
                1.4381824731826782,
                1.5636966228485107,
                1.4381824731826782
            ],
            "translation" : [
                21.99106216430664,
                -0.07146987318992615,
                44.47736740112305
            ]
        },
        {
            "mesh" : 1,
            "name" : "Reed_with - copy.047",
            "rotation" : [
                0,
                0.9682750105857849,
                0,
                0.2498873770236969
            ],
            "scale" : [
                1.168870210647583,
                1.2708810567855835,
                1.168870210647583
            ],
            "translation" : [
                18.831716537475586,
                0.05919632688164711,
                44.699623107910156
            ]
        },
        {
            "mesh" : 1,
            "name" : "Reed_with - copy.067",
            "rotation" : [
                0,
                0.9999837875366211,
                0,
                0.00571112334728241
            ],
            "scale" : [
                1.2996959686279297,
                1.4131243228912354,
                1.2996959686279297
            ],
            "translation" : [
                13.9218111038208,
                -0.2974269986152649,
                43.73793029785156
            ]
        }
    ],
    "materials" : [
        {
            "doubleSided" : true,
            "name" : "Reed_mat",
            "pbrMetallicRoughness" : {
                "baseColorTexture" : {
                    "index" : 0
                },
                "metallicFactor" : 0,
                "roughnessFactor" : 0.8999999761581421
            }
        },
        {
            "doubleSided" : true,
            "name" : "Reed_mat.001",
            "pbrMetallicRoughness" : {
                "baseColorTexture" : {
                    "index" : 1
                },
                "metallicFactor" : 0,
                "roughnessFactor" : 0.8999999761581421
            }
        }
    ],
    "meshes" : [
        {
            "name" : "Cube.001",
            "primitives" : [
                {
                    "attributes" : {
                        "POSITION" : 0,
                        "NORMAL" : 1,
                        "TEXCOORD_0" : 2
                    },
                    "indices" : 3,
                    "material" : 0
                }
            ]
        },
        {
            "name" : "Cube.003",
            "primitives" : [
                {
                    "attributes" : {
                        "POSITION" : 4,
                        "NORMAL" : 5,
                        "TEXCOORD_0" : 6
                    },
                    "indices" : 7,
                    "material" : 1
                }
            ]
        }
    ],
    "textures" : [
        {
            "sampler" : 0,
            "source" : 0
        },
        {
            "sampler" : 0,
            "source" : 0
        }
    ],
    "images" : [
        {
            "bufferView" : 4,
            "mimeType" : "image/jpeg",
            "name" : "Reed_tex_color"
        }
    ],
    "accessors" : [
        {
            "bufferView" : 0,
            "componentType" : 5126,
            "count" : 86,
            "max" : [
                0.2206021249294281,
                0.6745123267173767,
                0.12137533724308014
            ],
            "min" : [
                -0.19720359146595,
                -0.015290185809135437,
                -0.15640054643154144
            ],
            "type" : "VEC3"
        },
        {
            "bufferView" : 1,
            "componentType" : 5126,
            "count" : 86,
            "type" : "VEC3"
        },
        {
            "bufferView" : 2,
            "componentType" : 5126,
            "count" : 86,
            "type" : "VEC2"
        },
        {
            "bufferView" : 3,
            "componentType" : 5123,
            "count" : 114,
            "type" : "SCALAR"
        },
        {
            "bufferView" : 5,
            "componentType" : 5126,
            "count" : 134,
            "max" : [
                0.1993679404258728,
                0.7369657754898071,
                0.11553587764501572
            ],
            "min" : [
                -0.1460842490196228,
                -0.01618325710296631,
                -0.18000578880310059
            ],
            "type" : "VEC3"
        },
        {
            "bufferView" : 6,
            "componentType" : 5126,
            "count" : 134,
            "type" : "VEC3"
        },
        {
            "bufferView" : 7,
            "componentType" : 5126,
            "count" : 134,
            "type" : "VEC2"
        },
        {
            "bufferView" : 8,
            "componentType" : 5123,
            "count" : 186,
            "type" : "SCALAR"
        }
    ],
    "bufferViews" : [
        {
            "buffer" : 0,
            "byteLength" : 1032,
            "byteOffset" : 0
        },
        {
            "buffer" : 0,
            "byteLength" : 1032,
            "byteOffset" : 1032
        },
        {
            "buffer" : 0,
            "byteLength" : 688,
            "byteOffset" : 2064
        },
        {
            "buffer" : 0,
            "byteLength" : 228,
            "byteOffset" : 2752
        },
        {
            "buffer" : 0,
            "byteLength" : 8000,
            "byteOffset" : 2980
        },
        {
            "buffer" : 0,
            "byteLength" : 1608,
            "byteOffset" : 10980
        },
        {
            "buffer" : 0,
            "byteLength" : 1608,
            "byteOffset" : 12588
        },
        {
            "buffer" : 0,
            "byteLength" : 1072,
            "byteOffset" : 14196
        },
        {
            "buffer" : 0,
            "byteLength" : 372,
            "byteOffset" : 15268
        }
    ],
    "samplers" : [
        {
            "magFilter" : 9729,
            "minFilter" : 9987
        }
    ],
    "buffers" : [
        {
            "byteLength" : 15640,
            "uri" : "data:application/octet-stream;base64,"
        }
    ]
}
