{
    "asset" : {
        "generator" : "Khronos glTF Blender I/O v1.6.16",
        "version" : "2.0"
    },
    "scene" : 0,
    "scenes" : [
        {
            "name" : "Scene",
            "nodes" : [
                0,
                1,
                2,
                3,
                4,
                5,
                6,
                7,
                8,
                9,
                10,
                11,
                12,
                13,
                14,
                15,
                16,
                17,
                18,
                19,
                20,
                21,
                22,
                23,
                24,
                25,
                26,
                27,
                28,
                29
            ]
        }
    ],
    "nodes" : [
        {
            "mesh" : 0,
            "name" : "Reed_normal - copy.013",
            "rotation" : [
                0,
                0.7937265038490295,
                0,
                0.6082747578620911
            ],
            "scale" : [
                1.1530463695526123,
                1.492680549621582,
                1.1530463695526123
            ],
            "translation" : [
                6.280241966247559,
                -0.4312230050563812,
                21.45040512084961
            ]
        },
        {
            "mesh" : 0,
            "name" : "Reed_normal - copy.028",
            "rotation" : [
                0,
                -0.7926796674728394,
                0,
                0.6096383929252625
            ],
            "scale" : [
                1.194696068763733,
                1.546598196029663,
                1.194696068763733
            ],
            "translation" : [
                4.241975784301758,
                -0.36734580993652344,
                23.2713680267334
            ]
        },
        {
            "mesh" : 0,
            "name" : "Reed_normal - copy.060",
            "rotation" : [
                0,
                0.49876007437705994,
                0,
                0.8667401075363159
            ],
            "scale" : [
                1.1301010847091675,
                1.4629765748977661,
                1.1301010847091675
            ],
            "translation" : [
                16.21440887451172,
                -1.0048631429672241,
                14.326930046081543
            ]
        },
        {
            "mesh" : 0,
            "name" : "Reed_normal - copy.062",
            "rotation" : [
                -0.0001637638488318771,
                -0.32431760430336,
                7.247956091305241e-05,
                0.9459483623504639
            ],
            "scale" : [
                1.0019361972808838,
                1.2970598936080933,
                1.0019361972808838
            ],
            "translation" : [
                15.745170593261719,
                -0.702598512172699,
                13.116098403930664
            ]
        },
        {
            "mesh" : 0,
            "name" : "Reed_normal - copy.067",
            "rotation" : [
                0,
                -0.9181023240089417,
                0,
                0.3963434100151062
            ],
            "scale" : [
                1.0232985019683838,
                1.3247148990631104,
                1.0232985019683838
            ],
            "translation" : [
                12.998159408569336,
                -0.5128976702690125,
                15.178699493408203
            ]
        },
        {
            "mesh" : 0,
            "name" : "Reed_normal - copy.069",
            "rotation" : [
                0,
                -0.6550379395484924,
                0,
                0.7555959820747375
            ],
            "scale" : [
                1.1646265983581543,
                1.507671594619751,
                1.1646265983581543
            ],
            "translation" : [
                15.822436332702637,
                -0.437567800283432,
                9.631895065307617
            ]
        },
        {
            "mesh" : 0,
            "name" : "Reed_normal - copy.074",
            "rotation" : [
                0,
                -0.931858241558075,
                0,
                0.3628225326538086
            ],
            "scale" : [
                1.081244945526123,
                1.399729609489441,
                1.081244945526123
            ],
            "translation" : [
                8.469225883483887,
                -0.3582189977169037,
                19.213802337646484
            ]
        },
        {
            "mesh" : 0,
            "name" : "Reed_normal - copy.077",
            "rotation" : [
                0,
                -0.9821797609329224,
                0,
                0.1879439651966095
            ],
            "scale" : [
                1.1459263563156128,
                1.4834630489349365,
                1.1459263563156128
            ],
            "translation" : [
                12.161731719970703,
                -0.281244695186615,
                11.463191986083984
            ]
        },
        {
            "mesh" : 0,
            "name" : "Reed_normal - copy.115",
            "rotation" : [
                0,
                0.7482569813728333,
                0,
                0.6634089946746826
            ],
            "scale" : [
                1.194530963897705,
                1.5463844537734985,
                1.194530963897705
            ],
            "translation" : [
                12.156023979187012,
                -0.42912977933883667,
                15.208273887634277
            ]
        },
        {
            "mesh" : 0,
            "name" : "Reed_normal - copy.123",
            "rotation" : [
                0,
                -0.376322865486145,
                0,
                0.9264885783195496
            ],
            "scale" : [
                1.006903886795044,
                1.3034911155700684,
                1.006903886795044
            ],
            "translation" : [
                6.37927770614624,
                -0.8714626431465149,
                26.355451583862305
            ]
        },
        {
            "mesh" : 0,
            "name" : "Reed_normal - copy.127",
            "rotation" : [
                0,
                0.6088786125183105,
                0,
                0.7932633757591248
            ],
            "scale" : [
                1.0586402416229248,
                1.3704664707183838,
                1.0586402416229248
            ],
            "translation" : [
                5.475903511047363,
                -0.6139596700668335,
                24.03851318359375
            ]
        },
        {
            "mesh" : 0,
            "name" : "Reed_normal - copy.149",
            "rotation" : [
                0,
                0.8566471934318542,
                0,
                0.5159026980400085
            ],
            "scale" : [
                1.0725629329681396,
                1.3884902000427246,
                1.0725629329681396
            ],
            "translation" : [
                3.7106823921203613,
                -0.18355664610862732,
                20.09921646118164
            ]
        },
        {
            "mesh" : 0,
            "name" : "Reed_normal - copy.157",
            "rotation" : [
                0,
                0.9912196397781372,
                0,
                0.13222573697566986
            ],
            "scale" : [
                1.091834306716919,
                1.4134379625320435,
                1.091834306716919
            ],
            "translation" : [
                3.916776418685913,
                -0.2961065471172333,
                22.24683380126953
            ]
        },
        {
            "mesh" : 0,
            "name" : "Reed_normal - copy.180",
            "rotation" : [
                0,
                0.7540104389190674,
                0,
                0.6568624377250671
            ],
            "scale" : [
                1.2016468048095703,
                1.5555959939956665,
                1.2016468048095703
            ],
            "translation" : [
                11.006304740905762,
                -0.35839423537254333,
                15.966353416442871
            ]
        },
        {
            "mesh" : 0,
            "name" : "Reed_normal - copy.189",
            "rotation" : [
                0,
                0.8657161593437195,
                0,
                0.500535249710083
            ],
            "scale" : [
                1.1792137622833252,
                1.5265554189682007,
                1.1792137622833252
            ],
            "translation" : [
                14.218076705932617,
                -0.43290919065475464,
                11.907004356384277
            ]
        },
        {
            "mesh" : 0,
            "name" : "Reed_normal - copy.211",
            "rotation" : [
                0,
                -0.7149893045425415,
                0,
                0.6991353631019592
            ],
            "scale" : [
                1.1101579666137695,
                1.4371588230133057,
                1.1101579666137695
            ],
            "translation" : [
                9.63707160949707,
                -0.35904544591903687,
                17.38515853881836
            ]
        },
        {
            "mesh" : 0,
            "name" : "Reed_normal - copy.237",
            "rotation" : [
                0,
                0.08468765765428543,
                0,
                0.9964075684547424
            ],
            "scale" : [
                1.2016055583953857,
                1.5555429458618164,
                1.2016055583953857
            ],
            "translation" : [
                15.56961441040039,
                -0.4545219838619232,
                10.168912887573242
            ]
        },
        {
            "mesh" : 0,
            "name" : "Reed_normal - copy.261",
            "rotation" : [
                0,
                0.09176892042160034,
                0,
                0.995780348777771
            ],
            "scale" : [
                1.2018033266067505,
                1.5557987689971924,
                1.2018033266067505
            ],
            "translation" : [
                9.973982810974121,
                -0.35505521297454834,
                16.888568878173828
            ]
        },
        {
            "mesh" : 0,
            "name" : "Reed_normal - copy.284",
            "rotation" : [
                0,
                -0.1577444076538086,
                0,
                0.9874799847602844
            ],
            "scale" : [
                1.063974142074585,
                1.3773715496063232,
                1.063974142074585
            ],
            "translation" : [
                5.10870361328125,
                -0.4941647946834564,
                23.101903915405273
            ]
        },
        {
            "mesh" : 0,
            "name" : "Reed_normal - copy.285",
            "rotation" : [
                0,
                -0.793160617351532,
                0,
                0.6090124845504761
            ],
            "scale" : [
                1.0582168102264404,
                1.3699183464050293,
                1.0582168102264404
            ],
            "translation" : [
                13.97024917602539,
                -0.5156561136245728,
                13.632365226745605
            ]
        },
        {
            "mesh" : 0,
            "name" : "Reed_normal - copy.308",
            "rotation" : [
                0,
                -0.4382424056529999,
                0,
                0.8988568186759949
            ],
            "scale" : [
                1.1514943838119507,
                1.4906712770462036,
                1.1514943838119507
            ],
            "translation" : [
                11.394665718078613,
                -0.2875683009624481,
                12.360846519470215
            ]
        },
        {
            "mesh" : 0,
            "name" : "Reed_normal - copy.313",
            "rotation" : [
                0,
                0.8844003081321716,
                0,
                0.46672940254211426
            ],
            "scale" : [
                1.1544177532196045,
                1.4944558143615723,
                1.1544177532196045
            ],
            "translation" : [
                16.934072494506836,
                -0.5524824857711792,
                10.18303108215332
            ]
        },
        {
            "mesh" : 0,
            "name" : "Reed_normal - copy.316",
            "rotation" : [
                0,
                -0.28280338644981384,
                0,
                0.9591779112815857
            ],
            "scale" : [
                1.1238516569137573,
                1.4548861980438232,
                1.1238516569137573
            ],
            "translation" : [
                10.3224515914917,
                -0.3672909140586853,
                17.2320556640625
            ]
        },
        {
            "mesh" : 0,
            "name" : "Reed_normal - copy.353",
            "rotation" : [
                0,
                -0.7691117525100708,
                0,
                0.6391143202781677
            ],
            "scale" : [
                1.180991291999817,
                1.5288565158843994,
                1.180991291999817
            ],
            "translation" : [
                16.86422348022461,
                -0.7833956480026245,
                13.394645690917969
            ]
        },
        {
            "mesh" : 1,
            "name" : "Reed_with - copy.002",
            "rotation" : [
                0,
                -0.8924261331558228,
                0,
                0.45119354128837585
            ],
            "scale" : [
                1.3576381206512451,
                1.4761232137680054,
                1.3576381206512451
            ],
            "translation" : [
                6.850710868835449,
                -0.36741697788238525,
                20.362873077392578
            ]
        },
        {
            "mesh" : 1,
            "name" : "Reed_with - copy.010",
            "rotation" : [
                0,
                0.2468177080154419,
                0,
                0.9690619111061096
            ],
            "scale" : [
                1.4316818714141846,
                1.5566290616989136,
                1.4316818714141846
            ],
            "translation" : [
                8.390291213989258,
                -0.33263665437698364,
                18.33294677734375
            ]
        },
        {
            "mesh" : 1,
            "name" : "Reed_with - copy.021",
            "rotation" : [
                0,
                0.3140818476676941,
                0,
                0.9493958950042725
            ],
            "scale" : [
                1.2376415729522705,
                1.3456541299819946,
                1.2376415729522705
            ],
            "translation" : [
                10.157709121704102,
                -0.3358817994594574,
                15.828933715820312
            ]
        },
        {
            "mesh" : 1,
            "name" : "Reed_with - copy.032",
            "rotation" : [
                0,
                -0.9552427530288696,
                0,
                0.2958231568336487
            ],
            "scale" : [
                1.4039502143859863,
                1.5264768600463867,
                1.4039502143859863
            ],
            "translation" : [
                5.877042293548584,
                -0.5315436124801636,
                22.839139938354492
            ]
        },
        {
            "mesh" : 1,
            "name" : "Reed_with - copy.052",
            "rotation" : [
                0,
                -0.9893079996109009,
                0,
                0.14584143459796906
            ],
            "scale" : [
                1.322637677192688,
                1.4380680322647095,
                1.322637677192688
            ],
            "translation" : [
                9.123287200927734,
                -0.34276777505874634,
                17.120315551757812
            ]
        },
        {
            "mesh" : 1,
            "name" : "Reed_with - copy.053",
            "rotation" : [
                0,
                0.9935031533241272,
                0,
                0.11380479484796524
            ],
            "scale" : [
                1.2452958822250366,
                1.3539763689041138,
                1.2452958822250366
            ],
            "translation" : [
                12.096334457397461,
                -0.2789632976055145,
                11.436347961425781
            ]
        }
    ],
    "materials" : [
        {
            "doubleSided" : true,
            "name" : "Reed_mat",
            "pbrMetallicRoughness" : {
                "baseColorTexture" : {
                    "index" : 0
                },
                "metallicFactor" : 0,
                "roughnessFactor" : 0.8999999761581421
            }
        },
        {
            "doubleSided" : true,
            "name" : "Reed_mat.001",
            "pbrMetallicRoughness" : {
                "baseColorTexture" : {
                    "index" : 1
                },
                "metallicFactor" : 0,
                "roughnessFactor" : 0.8999999761581421
            }
        }
    ],
    "meshes" : [
        {
            "name" : "Cube.001",
            "primitives" : [
                {
                    "attributes" : {
                        "POSITION" : 0,
                        "NORMAL" : 1,
                        "TEXCOORD_0" : 2
                    },
                    "indices" : 3,
                    "material" : 0
                }
            ]
        },
        {
            "name" : "Cube.003",
            "primitives" : [
                {
                    "attributes" : {
                        "POSITION" : 4,
                        "NORMAL" : 5,
                        "TEXCOORD_0" : 6
                    },
                    "indices" : 7,
                    "material" : 1
                }
            ]
        }
    ],
    "textures" : [
        {
            "sampler" : 0,
            "source" : 0
        },
        {
            "sampler" : 0,
            "source" : 0
        }
    ],
    "images" : [
        {
            "bufferView" : 4,
            "mimeType" : "image/jpeg",
            "name" : "Reed_tex_color"
        }
    ],
    "accessors" : [
        {
            "bufferView" : 0,
            "componentType" : 5126,
            "count" : 86,
            "max" : [
                0.2206021249294281,
                0.6745123267173767,
                0.12137533724308014
            ],
            "min" : [
                -0.19720359146595,
                -0.015290185809135437,
                -0.15640054643154144
            ],
            "type" : "VEC3"
        },
        {
            "bufferView" : 1,
            "componentType" : 5126,
            "count" : 86,
            "type" : "VEC3"
        },
        {
            "bufferView" : 2,
            "componentType" : 5126,
            "count" : 86,
            "type" : "VEC2"
        },
        {
            "bufferView" : 3,
            "componentType" : 5123,
            "count" : 114,
            "type" : "SCALAR"
        },
        {
            "bufferView" : 5,
            "componentType" : 5126,
            "count" : 134,
            "max" : [
                0.1993679404258728,
                0.7369657754898071,
                0.11553587764501572
            ],
            "min" : [
                -0.1460842490196228,
                -0.01618325710296631,
                -0.18000578880310059
            ],
            "type" : "VEC3"
        },
        {
            "bufferView" : 6,
            "componentType" : 5126,
            "count" : 134,
            "type" : "VEC3"
        },
        {
            "bufferView" : 7,
            "componentType" : 5126,
            "count" : 134,
            "type" : "VEC2"
        },
        {
            "bufferView" : 8,
            "componentType" : 5123,
            "count" : 186,
            "type" : "SCALAR"
        }
    ],
    "bufferViews" : [
        {
            "buffer" : 0,
            "byteLength" : 1032,
            "byteOffset" : 0
        },
        {
            "buffer" : 0,
            "byteLength" : 1032,
            "byteOffset" : 1032
        },
        {
            "buffer" : 0,
            "byteLength" : 688,
            "byteOffset" : 2064
        },
        {
            "buffer" : 0,
            "byteLength" : 228,
            "byteOffset" : 2752
        },
        {
            "buffer" : 0,
            "byteLength" : 8000,
            "byteOffset" : 2980
        },
        {
            "buffer" : 0,
            "byteLength" : 1608,
            "byteOffset" : 10980
        },
        {
            "buffer" : 0,
            "byteLength" : 1608,
            "byteOffset" : 12588
        },
        {
            "buffer" : 0,
            "byteLength" : 1072,
            "byteOffset" : 14196
        },
        {
            "buffer" : 0,
            "byteLength" : 372,
            "byteOffset" : 15268
        }
    ],
    "samplers" : [
        {
            "magFilter" : 9729,
            "minFilter" : 9987
        }
    ],
    "buffers" : [
        {
            "byteLength" : 15640,
            "uri" : "data:application/octet-stream;base64,"
        }
    ]
}
