{
    "asset" : {
        "generator" : "Khronos glTF Blender I/O v1.6.16",
        "version" : "2.0"
    },
    "scene" : 0,
    "scenes" : [
        {
            "name" : "Scene",
            "nodes" : [
                0,
                1,
                2,
                3,
                4,
                5,
                6,
                7,
                8,
                9
            ]
        }
    ],
    "nodes" : [
        {
            "mesh" : 0,
            "name" : "Grass - copy.002",
            "rotation" : [
                0.013456449843943119,
                0.8845369815826416,
                -0.04642624780535698,
                0.46395888924598694
            ],
            "scale" : [
                0.6647946238517761,
                0.6647946238517761,
                0.6647945642471313
            ],
            "translation" : [
                62.74149703979492,
                4.210715293884277,
                29.752065658569336
            ]
        },
        {
            "mesh" : 0,
            "name" : "Grass - copy.022",
            "rotation" : [
                -0.0012926143826916814,
                -0.6001290082931519,
                0.0013911257265135646,
                0.7999011278152466
            ],
            "scale" : [
                0.6421107053756714,
                0.6421107649803162,
                0.6421107053756714
            ],
            "translation" : [
                63.33437728881836,
                0.0107456399127841,
                -10.455108642578125
            ]
        },
        {
            "mesh" : 0,
            "name" : "Grass - copy.027",
            "rotation" : [
                -0.10049864649772644,
                -0.7140250205993652,
                0.04039805009961128,
                0.6916908621788025
            ],
            "scale" : [
                0.6971489787101746,
                0.6971489787101746,
                0.6971489787101746
            ],
            "translation" : [
                59.20868682861328,
                2.2541913986206055,
                8.471519470214844
            ]
        },
        {
            "mesh" : 0,
            "name" : "Grass - copy.032",
            "rotation" : [
                -0.0250316821038723,
                0.2580238878726959,
                -0.0413450188934803,
                0.9649288654327393
            ],
            "scale" : [
                0.6473929286003113,
                0.647392988204956,
                0.647392988204956
            ],
            "translation" : [
                60.87672424316406,
                4.236098289489746,
                29.378076553344727
            ]
        },
        {
            "mesh" : 0,
            "name" : "Grass - copy.049",
            "rotation" : [
                -0.11045221984386444,
                -0.9779064655303955,
                0.06313811242580414,
                0.16586992144584656
            ],
            "scale" : [
                0.7023313641548157,
                0.7023313641548157,
                0.7023314237594604
            ],
            "translation" : [
                59.388458251953125,
                4.305928707122803,
                24.96746826171875
            ]
        },
        {
            "mesh" : 0,
            "name" : "Grass - copy.056",
            "rotation" : [
                -0.0666004940867424,
                -0.9429913759231567,
                0.08127851039171219,
                0.31579339504241943
            ],
            "scale" : [
                0.6001224517822266,
                0.6001223921775818,
                0.6001224517822266
            ],
            "translation" : [
                70.52498626708984,
                0.6329160928726196,
                4.865705966949463
            ]
        },
        {
            "mesh" : 0,
            "name" : "Grass - copy.062",
            "rotation" : [
                0,
                -0.9986708164215088,
                0,
                0.05154275521636009
            ],
            "scale" : [
                0.6858325600624084,
                0.6858324408531189,
                0.6858325600624084
            ],
            "translation" : [
                40.33655548095703,
                0.001055983011610806,
                -9.346458435058594
            ]
        },
        {
            "mesh" : 0,
            "name" : "Grass - copy.077",
            "rotation" : [
                -0.0017006667330861092,
                -0.27081069350242615,
                0.0008270495454780757,
                0.9626307487487793
            ],
            "scale" : [
                0.6274003982543945,
                0.6274003982543945,
                0.6274004578590393
            ],
            "translation" : [
                66.75518798828125,
                0.001119892462156713,
                -13.646482467651367
            ]
        },
        {
            "mesh" : 0,
            "name" : "Grass - copy.085",
            "rotation" : [
                0.03274897113442421,
                0.9986182451248169,
                -0.03555036336183548,
                0.02062702551484108
            ],
            "scale" : [
                0.6759917140007019,
                0.6759917736053467,
                0.6759916543960571
            ],
            "translation" : [
                62.495445251464844,
                4.211911678314209,
                29.615171432495117
            ]
        },
        {
            "mesh" : 0,
            "name" : "Grass - copy.093",
            "rotation" : [
                0.0032011065632104874,
                0.9398932456970215,
                -0.10503556579351425,
                0.3248968720436096
            ],
            "scale" : [
                0.6419612765312195,
                0.6419613361358643,
                0.6419612765312195
            ],
            "translation" : [
                67.7220687866211,
                2.0166125297546387,
                10.519366264343262
            ]
        }
    ],
    "materials" : [
        {
            "doubleSided" : true,
            "name" : "Material.017",
            "pbrMetallicRoughness" : {
                "baseColorTexture" : {
                    "index" : 0
                },
                "metallicFactor" : 0,
                "roughnessFactor" : 0.8999999761581421
            }
        }
    ],
    "meshes" : [
        {
            "name" : "Cube.002",
            "primitives" : [
                {
                    "attributes" : {
                        "POSITION" : 0,
                        "NORMAL" : 1,
                        "TEXCOORD_0" : 2
                    },
                    "indices" : 3,
                    "material" : 0
                }
            ]
        }
    ],
    "textures" : [
        {
            "sampler" : 0,
            "source" : 0
        }
    ],
    "images" : [
        {
            "bufferView" : 4,
            "mimeType" : "image/jpeg",
            "name" : "Grass_tex_color"
        }
    ],
    "accessors" : [
        {
            "bufferView" : 0,
            "componentType" : 5126,
            "count" : 88,
            "max" : [
                0.20007699728012085,
                0.7471616864204407,
                0.1470727026462555
            ],
            "min" : [
                -0.15658527612686157,
                -0.01082924660295248,
                -0.1288084238767624
            ],
            "type" : "VEC3"
        },
        {
            "bufferView" : 1,
            "componentType" : 5126,
            "count" : 88,
            "type" : "VEC3"
        },
        {
            "bufferView" : 2,
            "componentType" : 5126,
            "count" : 88,
            "type" : "VEC2"
        },
        {
            "bufferView" : 3,
            "componentType" : 5123,
            "count" : 114,
            "type" : "SCALAR"
        }
    ],
    "bufferViews" : [
        {
            "buffer" : 0,
            "byteLength" : 1056,
            "byteOffset" : 0
        },
        {
            "buffer" : 0,
            "byteLength" : 1056,
            "byteOffset" : 1056
        },
        {
            "buffer" : 0,
            "byteLength" : 704,
            "byteOffset" : 2112
        },
        {
            "buffer" : 0,
            "byteLength" : 228,
            "byteOffset" : 2816
        },
        {
            "buffer" : 0,
            "byteLength" : 11267,
            "byteOffset" : 3044
        }
    ],
    "samplers" : [
        {
            "magFilter" : 9729,
            "minFilter" : 9987
        }
    ],
    "buffers" : [
        {
            "byteLength" : 14312,
            "uri" : "data:application/octet-stream;base64,"
        }
    ]
}
