{
    "asset" : {
        "generator" : "Khronos glTF Blender I/O v1.6.16",
        "version" : "2.0"
    },
    "scene" : 0,
    "scenes" : [
        {
            "name" : "Scene",
            "nodes" : [
                0,
                1,
                2,
                3,
                4,
                5,
                6,
                7,
                8,
                9,
                10,
                11,
                12,
                13,
                14
            ]
        }
    ],
    "nodes" : [
        {
            "mesh" : 0,
            "name" : "Grass - copy.001",
            "rotation" : [
                0,
                -0.9331011176109314,
                0,
                0.35961437225341797
            ],
            "scale" : [
                0.7045029997825623,
                0.704503059387207,
                0.7045029997825623
            ],
            "translation" : [
                28.51197052001953,
                -0.00022069412807468325,
                -8.24079704284668
            ]
        },
        {
            "mesh" : 0,
            "name" : "Grass - copy.098",
            "rotation" : [
                0.00024408844183199108,
                -0.6940438747406006,
                5.048192633694271e-06,
                0.7199326753616333
            ],
            "scale" : [
                0.7074112892150879,
                0.7074112892150879,
                0.7074112296104431
            ],
            "translation" : [
                17.061363220214844,
                -0.0017382260411977768,
                -4.755450248718262
            ]
        },
        {
            "mesh" : 0,
            "name" : "Grass - copy.099",
            "rotation" : [
                0.00013403536286205053,
                -0.9948833584785461,
                -0.00010879724140977487,
                0.1010301485657692
            ],
            "scale" : [
                0.7155005931854248,
                0.7155005931854248,
                0.7155005931854248
            ],
            "translation" : [
                14.674094200134277,
                -0.001842861413024366,
                -6.1204729080200195
            ]
        },
        {
            "mesh" : 0,
            "name" : "Grass - copy.100",
            "rotation" : [
                0.00017547700554132462,
                -0.01900639943778515,
                0.00016974234313238412,
                0.9998193383216858
            ],
            "scale" : [
                0.6210564374923706,
                0.6210564374923706,
                0.6210564374923706
            ],
            "translation" : [
                29.154924392700195,
                -0.00020371959544718266,
                -7.762463569641113
            ]
        },
        {
            "mesh" : 0,
            "name" : "Grass - copy.101",
            "rotation" : [
                0,
                -0.396382212638855,
                0,
                0.9180855751037598
            ],
            "scale" : [
                0.7040258646011353,
                0.7040258646011353,
                0.7040258646011353
            ],
            "translation" : [
                28.235145568847656,
                -0.00044429642730392516,
                -6.3101582527160645
            ]
        },
        {
            "mesh" : 0,
            "name" : "Grass - copy.102",
            "rotation" : [
                0,
                0.9971064329147339,
                0,
                0.07601843774318695
            ],
            "scale" : [
                0.6004271507263184,
                0.6004270911216736,
                0.6004271507263184
            ],
            "translation" : [
                18.571374893188477,
                -0.0015485869953408837,
                -5.111539363861084
            ]
        },
        {
            "mesh" : 0,
            "name" : "Grass - copy.103",
            "rotation" : [
                0,
                -0.3963817358016968,
                0,
                0.9180858135223389
            ],
            "scale" : [
                0.7040265202522278,
                0.704026460647583,
                0.7040265202522278
            ],
            "translation" : [
                19.86244773864746,
                -0.0015429886989295483,
                -3.869623899459839
            ]
        },
        {
            "mesh" : 0,
            "name" : "Grass - copy.104",
            "rotation" : [
                -0.00011191501107532531,
                0.951849639415741,
                0.00021697848569601774,
                0.30656522512435913
            ],
            "scale" : [
                0.6526772975921631,
                0.6526772379875183,
                0.6526772975921631
            ],
            "translation" : [
                25.34381866455078,
                -0.0007142077083699405,
                -6.549014568328857
            ]
        },
        {
            "mesh" : 0,
            "name" : "Grass - copy.105",
            "rotation" : [
                0,
                -0.9948833584785461,
                0,
                0.101030133664608
            ],
            "scale" : [
                0.7154982686042786,
                0.7154983282089233,
                0.7154982686042786
            ],
            "translation" : [
                16.997821807861328,
                -0.0018208874389529228,
                -4.002748012542725
            ]
        },
        {
            "mesh" : 0,
            "name" : "Grass - copy.106",
            "rotation" : [
                0.00013199825480114669,
                -0.08728312700986862,
                0.00011126010213047266,
                0.9961836338043213
            ],
            "scale" : [
                0.6421594023704529,
                0.6421594023704529,
                0.6421594023704529
            ],
            "translation" : [
                29.47544288635254,
                -0.0003756265214178711,
                -5.742293357849121
            ]
        },
        {
            "mesh" : 0,
            "name" : "Grass - copy.107",
            "rotation" : [
                -0.00011274490680079907,
                0.9971064925193787,
                0.0001307322090724483,
                0.07601843029260635
            ],
            "scale" : [
                0.6004252433776855,
                0.6004250645637512,
                0.600425124168396
            ],
            "translation" : [
                27.36532211303711,
                -0.0006252590683288872,
                -5.396540641784668
            ]
        },
        {
            "mesh" : 0,
            "name" : "Grass - copy.108",
            "rotation" : [
                0,
                0.9518496990203857,
                0,
                0.3065651059150696
            ],
            "scale" : [
                0.6526753902435303,
                0.6526753902435303,
                0.6526753902435303
            ],
            "translation" : [
                17.490619659423828,
                -0.001602926175110042,
                -5.660662651062012
            ]
        },
        {
            "mesh" : 0,
            "name" : "Grass - copy.109",
            "rotation" : [
                0,
                -0.9948833584785461,
                0,
                0.101030133664608
            ],
            "scale" : [
                0.7154982686042786,
                0.7154983282089233,
                0.7154982686042786
            ],
            "translation" : [
                21.382518768310547,
                -0.0012394855730235577,
                -5.340377330780029
            ]
        },
        {
            "mesh" : 0,
            "name" : "Grass - copy.110",
            "rotation" : [
                0,
                -0.6940440535545349,
                0,
                0.7199326157569885
            ],
            "scale" : [
                0.7074134349822998,
                0.7074134945869446,
                0.7074134349822998
            ],
            "translation" : [
                25.31757354736328,
                -0.0008517566602677107,
                -5.216647624969482
            ]
        },
        {
            "mesh" : 0,
            "name" : "Grass - copy.111",
            "rotation" : [
                0,
                -0.9948833584785461,
                0,
                0.101030133664608
            ],
            "scale" : [
                0.7155026793479919,
                0.7155027389526367,
                0.7155026793479919
            ],
            "translation" : [
                24.747249603271484,
                -0.0007419921457767487,
                -6.873961925506592
            ]
        }
    ],
    "materials" : [
        {
            "doubleSided" : true,
            "name" : "Material.017",
            "pbrMetallicRoughness" : {
                "baseColorTexture" : {
                    "index" : 0
                },
                "metallicFactor" : 0,
                "roughnessFactor" : 0.8999999761581421
            }
        }
    ],
    "meshes" : [
        {
            "name" : "Cube.002",
            "primitives" : [
                {
                    "attributes" : {
                        "POSITION" : 0,
                        "NORMAL" : 1,
                        "TEXCOORD_0" : 2
                    },
                    "indices" : 3,
                    "material" : 0
                }
            ]
        }
    ],
    "textures" : [
        {
            "sampler" : 0,
            "source" : 0
        }
    ],
    "images" : [
        {
            "bufferView" : 4,
            "mimeType" : "image/jpeg",
            "name" : "Grass_tex_color"
        }
    ],
    "accessors" : [
        {
            "bufferView" : 0,
            "componentType" : 5126,
            "count" : 88,
            "max" : [
                0.20007699728012085,
                0.7471616864204407,
                0.1470727026462555
            ],
            "min" : [
                -0.15658527612686157,
                -0.01082924660295248,
                -0.1288084238767624
            ],
            "type" : "VEC3"
        },
        {
            "bufferView" : 1,
            "componentType" : 5126,
            "count" : 88,
            "type" : "VEC3"
        },
        {
            "bufferView" : 2,
            "componentType" : 5126,
            "count" : 88,
            "type" : "VEC2"
        },
        {
            "bufferView" : 3,
            "componentType" : 5123,
            "count" : 114,
            "type" : "SCALAR"
        }
    ],
    "bufferViews" : [
        {
            "buffer" : 0,
            "byteLength" : 1056,
            "byteOffset" : 0
        },
        {
            "buffer" : 0,
            "byteLength" : 1056,
            "byteOffset" : 1056
        },
        {
            "buffer" : 0,
            "byteLength" : 704,
            "byteOffset" : 2112
        },
        {
            "buffer" : 0,
            "byteLength" : 228,
            "byteOffset" : 2816
        },
        {
            "buffer" : 0,
            "byteLength" : 11267,
            "byteOffset" : 3044
        }
    ],
    "samplers" : [
        {
            "magFilter" : 9729,
            "minFilter" : 9987
        }
    ],
    "buffers" : [
        {
            "byteLength" : 14312,
            "uri" : "data:application/octet-stream;base64,"
        }
    ]
}
