{
    "asset" : {
        "generator" : "Khronos glTF Blender I/O v1.6.16",
        "version" : "2.0"
    },
    "scene" : 0,
    "scenes" : [
        {
            "name" : "Scene",
            "nodes" : [
                0,
                1,
                2,
                3,
                4,
                5,
                6,
                7,
                8,
                9,
                10,
                11,
                12,
                13,
                14,
                15,
                16,
                17,
                18,
                19,
                20
            ]
        }
    ],
    "nodes" : [
        {
            "mesh" : 0,
            "name" : "Reed_normal - copy.051",
            "rotation" : [
                0,
                0.6132521033287048,
                0,
                0.7898872494697571
            ],
            "scale" : [
                1.0254863500595093,
                1.3275470733642578,
                1.0254863500595093
            ],
            "translation" : [
                32.62922286987305,
                -1.4286388158798218,
                45.14366912841797
            ]
        },
        {
            "mesh" : 0,
            "name" : "Reed_normal - copy.065",
            "rotation" : [
                0,
                -0.4544776380062103,
                0,
                0.8907581567764282
            ],
            "scale" : [
                1.0629668235778809,
                1.3760676383972168,
                1.0629668235778809
            ],
            "translation" : [
                34.19683837890625,
                -0.7409958839416504,
                43.877403259277344
            ]
        },
        {
            "mesh" : 0,
            "name" : "Reed_normal - copy.081",
            "rotation" : [
                0,
                0.9266828298568726,
                0,
                0.3758443295955658
            ],
            "scale" : [
                1.089709758758545,
                1.410687804222107,
                1.089709758758545
            ],
            "translation" : [
                33.43285369873047,
                -1.2055985927581787,
                44.805145263671875
            ]
        },
        {
            "mesh" : 0,
            "name" : "Reed_normal - copy.110",
            "rotation" : [
                0,
                -0.5069083571434021,
                0,
                0.8619999289512634
            ],
            "scale" : [
                1.1572216749191284,
                1.498085379600525,
                1.1572216749191284
            ],
            "translation" : [
                41.01133728027344,
                0.6356126666069031,
                48.4045295715332
            ]
        },
        {
            "mesh" : 0,
            "name" : "Reed_normal - copy.113",
            "rotation" : [
                0,
                0.9970971345901489,
                0,
                0.07614123076200485
            ],
            "scale" : [
                1.1524087190628052,
                1.4918550252914429,
                1.1524087190628052
            ],
            "translation" : [
                37.514556884765625,
                0.0765838623046875,
                47.096397399902344
            ]
        },
        {
            "mesh" : 0,
            "name" : "Reed_normal - copy.148",
            "rotation" : [
                0,
                0.10428983718156815,
                0,
                0.9945469498634338
            ],
            "scale" : [
                1.0379114151000977,
                1.3436319828033447,
                1.0379114151000977
            ],
            "translation" : [
                35.667816162109375,
                -0.2284332811832428,
                45.224056243896484
            ]
        },
        {
            "mesh" : 0,
            "name" : "Reed_normal - copy.155",
            "rotation" : [
                0,
                0.44433534145355225,
                0,
                0.8958606719970703
            ],
            "scale" : [
                1.1277347803115845,
                1.4599131345748901,
                1.1277347803115845
            ],
            "translation" : [
                34.50150680541992,
                -0.9410731196403503,
                46.88818359375
            ]
        },
        {
            "mesh" : 0,
            "name" : "Reed_normal - copy.160",
            "rotation" : [
                0,
                -0.1216559186577797,
                0,
                0.9925724267959595
            ],
            "scale" : [
                1.1241281032562256,
                1.4552441835403442,
                1.1241281032562256
            ],
            "translation" : [
                36.60155487060547,
                0.01085505448281765,
                43.890132904052734
            ]
        },
        {
            "mesh" : 0,
            "name" : "Reed_normal - copy.178",
            "rotation" : [
                -0.00017650486552156508,
                0.11909633129835129,
                -2.6616040486260317e-05,
                0.9928826689720154
            ],
            "scale" : [
                1.0504627227783203,
                1.3598800897598267,
                1.0504627227783203
            ],
            "translation" : [
                38.73991775512695,
                0.15851753950119019,
                47.554893493652344
            ]
        },
        {
            "mesh" : 0,
            "name" : "Reed_normal - copy.205",
            "rotation" : [
                0,
                -0.6890178918838501,
                0,
                0.7247443199157715
            ],
            "scale" : [
                1.1476850509643555,
                1.4857399463653564,
                1.1476850509643555
            ],
            "translation" : [
                38.69891357421875,
                -0.06435991823673248,
                48.189666748046875
            ]
        },
        {
            "mesh" : 0,
            "name" : "Reed_normal - copy.220",
            "rotation" : [
                0,
                0.9941664338111877,
                0,
                0.10785677284002304
            ],
            "scale" : [
                1.167033314704895,
                1.5107872486114502,
                1.167033314704895
            ],
            "translation" : [
                33.22071838378906,
                -1.1592950820922852,
                43.64027404785156
            ]
        },
        {
            "mesh" : 0,
            "name" : "Reed_normal - copy.287",
            "rotation" : [
                0,
                0.8081464171409607,
                0,
                0.5889816284179688
            ],
            "scale" : [
                1.19857656955719,
                1.551621675491333,
                1.19857656955719
            ],
            "translation" : [
                36.38079833984375,
                0.015854325145483017,
                46.22927474975586
            ]
        },
        {
            "mesh" : 0,
            "name" : "Reed_normal - copy.293",
            "rotation" : [
                0,
                0.9716222286224365,
                0,
                0.2365381270647049
            ],
            "scale" : [
                1.1878182888031006,
                1.5376943349838257,
                1.1878182888031006
            ],
            "translation" : [
                42.419307708740234,
                0.47395724058151245,
                50.12382125854492
            ]
        },
        {
            "mesh" : 0,
            "name" : "Reed_normal - copy.307",
            "rotation" : [
                0,
                -0.28760236501693726,
                0,
                0.9577499032020569
            ],
            "scale" : [
                1.0078182220458984,
                1.304674744606018,
                1.0078182220458984
            ],
            "translation" : [
                35.129520416259766,
                -0.4559507668018341,
                45.22626876831055
            ]
        },
        {
            "mesh" : 0,
            "name" : "Reed_normal - copy.314",
            "rotation" : [
                0,
                0.39654257893562317,
                0,
                0.9180163145065308
            ],
            "scale" : [
                1.0524747371673584,
                1.3624849319458008,
                1.0524747371673584
            ],
            "translation" : [
                36.7794189453125,
                -0.1940116584300995,
                47.18797302246094
            ]
        },
        {
            "mesh" : 0,
            "name" : "Reed_normal - copy.317",
            "rotation" : [
                0,
                0.9513825178146362,
                0,
                0.3080119490623474
            ],
            "scale" : [
                1.031652569770813,
                1.3355293273925781,
                1.031652569770813
            ],
            "translation" : [
                35.952110290527344,
                -1.4399595260620117,
                49.14571762084961
            ]
        },
        {
            "mesh" : 0,
            "name" : "Reed_normal - copy.333",
            "rotation" : [
                0,
                0.9899786114692688,
                0,
                0.14121729135513306
            ],
            "scale" : [
                1.1232106685638428,
                1.4540565013885498,
                1.1232106685638428
            ],
            "translation" : [
                40.4461669921875,
                0.3585132360458374,
                48.4527587890625
            ]
        },
        {
            "mesh" : 0,
            "name" : "Reed_normal - copy.341",
            "rotation" : [
                0,
                0.6715179085731506,
                0,
                0.7409883141517639
            ],
            "scale" : [
                1.18052077293396,
                1.528247356414795,
                1.18052077293396
            ],
            "translation" : [
                40.80809020996094,
                -0.45086318254470825,
                50.63758087158203
            ]
        },
        {
            "mesh" : 1,
            "name" : "Reed_with - copy.013",
            "rotation" : [
                0,
                0.6079788208007812,
                0,
                0.7939532399177551
            ],
            "scale" : [
                1.2934428453445435,
                1.406325340270996,
                1.2934428453445435
            ],
            "translation" : [
                36.8377799987793,
                0.14292334020137787,
                45.52541732788086
            ]
        },
        {
            "mesh" : 1,
            "name" : "Reed_with - copy.024",
            "rotation" : [
                0,
                -0.5070287585258484,
                0,
                0.861929178237915
            ],
            "scale" : [
                1.2853018045425415,
                1.3974738121032715,
                1.2853018045425415
            ],
            "translation" : [
                40.25907516479492,
                0.07954296469688416,
                49.03780746459961
            ]
        },
        {
            "mesh" : 1,
            "name" : "Reed_with - copy.046",
            "rotation" : [
                0,
                0.9866247177124023,
                0,
                0.16300885379314423
            ],
            "scale" : [
                1.4021202325820923,
                1.5244874954223633,
                1.4021202325820923
            ],
            "translation" : [
                38.428955078125,
                -0.13016125559806824,
                48.222015380859375
            ]
        }
    ],
    "materials" : [
        {
            "doubleSided" : true,
            "name" : "Reed_mat",
            "pbrMetallicRoughness" : {
                "baseColorTexture" : {
                    "index" : 0
                },
                "metallicFactor" : 0,
                "roughnessFactor" : 0.8999999761581421
            }
        },
        {
            "doubleSided" : true,
            "name" : "Reed_mat.001",
            "pbrMetallicRoughness" : {
                "baseColorTexture" : {
                    "index" : 1
                },
                "metallicFactor" : 0,
                "roughnessFactor" : 0.8999999761581421
            }
        }
    ],
    "meshes" : [
        {
            "name" : "Cube.001",
            "primitives" : [
                {
                    "attributes" : {
                        "POSITION" : 0,
                        "NORMAL" : 1,
                        "TEXCOORD_0" : 2
                    },
                    "indices" : 3,
                    "material" : 0
                }
            ]
        },
        {
            "name" : "Cube.003",
            "primitives" : [
                {
                    "attributes" : {
                        "POSITION" : 4,
                        "NORMAL" : 5,
                        "TEXCOORD_0" : 6
                    },
                    "indices" : 7,
                    "material" : 1
                }
            ]
        }
    ],
    "textures" : [
        {
            "sampler" : 0,
            "source" : 0
        },
        {
            "sampler" : 0,
            "source" : 0
        }
    ],
    "images" : [
        {
            "bufferView" : 4,
            "mimeType" : "image/jpeg",
            "name" : "Reed_tex_color"
        }
    ],
    "accessors" : [
        {
            "bufferView" : 0,
            "componentType" : 5126,
            "count" : 86,
            "max" : [
                0.2206021249294281,
                0.6745123267173767,
                0.12137533724308014
            ],
            "min" : [
                -0.19720359146595,
                -0.015290185809135437,
                -0.15640054643154144
            ],
            "type" : "VEC3"
        },
        {
            "bufferView" : 1,
            "componentType" : 5126,
            "count" : 86,
            "type" : "VEC3"
        },
        {
            "bufferView" : 2,
            "componentType" : 5126,
            "count" : 86,
            "type" : "VEC2"
        },
        {
            "bufferView" : 3,
            "componentType" : 5123,
            "count" : 114,
            "type" : "SCALAR"
        },
        {
            "bufferView" : 5,
            "componentType" : 5126,
            "count" : 134,
            "max" : [
                0.1993679404258728,
                0.7369657754898071,
                0.11553587764501572
            ],
            "min" : [
                -0.1460842490196228,
                -0.01618325710296631,
                -0.18000578880310059
            ],
            "type" : "VEC3"
        },
        {
            "bufferView" : 6,
            "componentType" : 5126,
            "count" : 134,
            "type" : "VEC3"
        },
        {
            "bufferView" : 7,
            "componentType" : 5126,
            "count" : 134,
            "type" : "VEC2"
        },
        {
            "bufferView" : 8,
            "componentType" : 5123,
            "count" : 186,
            "type" : "SCALAR"
        }
    ],
    "bufferViews" : [
        {
            "buffer" : 0,
            "byteLength" : 1032,
            "byteOffset" : 0
        },
        {
            "buffer" : 0,
            "byteLength" : 1032,
            "byteOffset" : 1032
        },
        {
            "buffer" : 0,
            "byteLength" : 688,
            "byteOffset" : 2064
        },
        {
            "buffer" : 0,
            "byteLength" : 228,
            "byteOffset" : 2752
        },
        {
            "buffer" : 0,
            "byteLength" : 8000,
            "byteOffset" : 2980
        },
        {
            "buffer" : 0,
            "byteLength" : 1608,
            "byteOffset" : 10980
        },
        {
            "buffer" : 0,
            "byteLength" : 1608,
            "byteOffset" : 12588
        },
        {
            "buffer" : 0,
            "byteLength" : 1072,
            "byteOffset" : 14196
        },
        {
            "buffer" : 0,
            "byteLength" : 372,
            "byteOffset" : 15268
        }
    ],
    "samplers" : [
        {
            "magFilter" : 9729,
            "minFilter" : 9987
        }
    ],
    "buffers" : [
        {
            "byteLength" : 15640,
            "uri" : "data:application/octet-stream;base64,"
        }
    ]
}
