{
    "asset" : {
        "generator" : "Khronos glTF Blender I/O v1.6.16",
        "version" : "2.0"
    },
    "scene" : 0,
    "scenes" : [
        {
            "name" : "Scene",
            "nodes" : [
                0,
                1,
                2,
                3,
                4,
                5,
                6,
                7,
                8,
                9,
                10,
                11,
                12,
                13,
                14
            ]
        }
    ],
    "nodes" : [
        {
            "mesh" : 0,
            "name" : "Grass - copy.005",
            "rotation" : [
                -0.0006527825607918203,
                0.24660350382328033,
                0.001031499239616096,
                0.969115674495697
            ],
            "scale" : [
                0.7034473419189453,
                0.7034472823143005,
                0.7034472823143005
            ],
            "translation" : [
                -52.815208435058594,
                0.003910558298230171,
                8.688718795776367
            ]
        },
        {
            "mesh" : 0,
            "name" : "Grass - copy.007",
            "rotation" : [
                0.0008499832474626601,
                -0.8844410181045532,
                0.000876154110301286,
                0.46665066480636597
            ],
            "scale" : [
                0.5943765044212341,
                0.5943765044212341,
                0.5943765640258789
            ],
            "translation" : [
                -52.030338287353516,
                0.009427954442799091,
                13.500136375427246
            ]
        },
        {
            "mesh" : 0,
            "name" : "Grass - copy.014",
            "rotation" : [
                0,
                -0.5666483044624329,
                0,
                0.8239598870277405
            ],
            "scale" : [
                0.6635379195213318,
                0.6635379791259766,
                0.6635379195213318
            ],
            "translation" : [
                -49.516204833984375,
                0.0019594875629991293,
                -10.407947540283203
            ]
        },
        {
            "mesh" : 0,
            "name" : "Grass - copy.016",
            "rotation" : [
                1.6313113519572653e-05,
                0.16379116475582123,
                -0.0004564537957776338,
                0.9864949584007263
            ],
            "scale" : [
                0.6691396236419678,
                0.6691396832466125,
                0.6691396236419678
            ],
            "translation" : [
                -42.045291900634766,
                0.020327972248196602,
                2.0974926948547363
            ]
        },
        {
            "mesh" : 0,
            "name" : "Grass - copy.018",
            "rotation" : [
                0,
                -0.9956473112106323,
                0,
                0.09320119768381119
            ],
            "scale" : [
                0.7016670107841492,
                0.7016670107841492,
                0.7016670107841492
            ],
            "translation" : [
                -62.7401237487793,
                0.0015818675747141242,
                3.7061662673950195
            ]
        },
        {
            "mesh" : 0,
            "name" : "Grass - copy.021",
            "rotation" : [
                0,
                0.45118314027786255,
                0,
                0.8924314975738525
            ],
            "scale" : [
                0.6281352043151855,
                0.6281352043151855,
                0.6281352043151855
            ],
            "translation" : [
                -48.844139099121094,
                0.0013088514097034931,
                -22.10127830505371
            ]
        },
        {
            "mesh" : 0,
            "name" : "Grass - copy.050",
            "rotation" : [
                0,
                -0.09665615856647491,
                0,
                0.995317816734314
            ],
            "scale" : [
                0.6670653820037842,
                0.6670653820037842,
                0.6670653820037842
            ],
            "translation" : [
                -58.82828140258789,
                0.00046366790775209665,
                -23.7723331451416
            ]
        },
        {
            "mesh" : 0,
            "name" : "Grass - copy.051",
            "rotation" : [
                0,
                -0.8450096249580383,
                0,
                0.5347510576248169
            ],
            "scale" : [
                0.6526457667350769,
                0.6526457667350769,
                0.6526457667350769
            ],
            "translation" : [
                -56.220733642578125,
                0.0024708309210836887,
                6.4724507331848145
            ]
        },
        {
            "mesh" : 0,
            "name" : "Grass - copy.053",
            "rotation" : [
                0.00044734557741321623,
                0.9972366690635681,
                -9.21851969906129e-05,
                0.07428913563489914
            ],
            "scale" : [
                0.6721769571304321,
                0.6721770763397217,
                0.6721770167350769
            ],
            "translation" : [
                -35.55739212036133,
                0.01141289807856083,
                -22.029014587402344
            ]
        },
        {
            "mesh" : 0,
            "name" : "Grass - copy.069",
            "rotation" : [
                2.3925507775857113e-05,
                -0.13859136402606964,
                0.0001709675561869517,
                0.9903496503829956
            ],
            "scale" : [
                0.6183727383613586,
                0.6183727979660034,
                0.6183727979660034
            ],
            "translation" : [
                -63.13002014160156,
                0.0015270340954884887,
                4.5749664306640625
            ]
        },
        {
            "mesh" : 0,
            "name" : "Grass - copy.073",
            "rotation" : [
                0,
                -0.19674468040466309,
                0,
                0.9804548621177673
            ],
            "scale" : [
                0.6796230673789978,
                0.6796230673789978,
                0.6796230673789978
            ],
            "translation" : [
                -52.59652328491211,
                0.0026618808042258024,
                5.147644519805908
            ]
        },
        {
            "mesh" : 0,
            "name" : "Grass - copy.079",
            "rotation" : [
                0,
                0.8759249448776245,
                0,
                0.48244741559028625
            ],
            "scale" : [
                0.5880786776542664,
                0.5880786180496216,
                0.5880786776542664
            ],
            "translation" : [
                -17.433616638183594,
                -0.002414906630292535,
                -29.203004837036133
            ]
        },
        {
            "mesh" : 0,
            "name" : "Grass - copy.088",
            "rotation" : [
                0.0001531664456706494,
                -0.9023604989051819,
                -7.963889220263809e-05,
                0.4309820234775543
            ],
            "scale" : [
                0.6068103313446045,
                0.6068103313446045,
                0.6068103313446045
            ],
            "translation" : [
                -20.65130615234375,
                -0.002674534684047103,
                -28.366003036499023
            ]
        },
        {
            "mesh" : 0,
            "name" : "Grass - copy.090",
            "rotation" : [
                0,
                -0.9240207672119141,
                0,
                0.38234230875968933
            ],
            "scale" : [
                0.668681263923645,
                0.668681263923645,
                0.668681263923645
            ],
            "translation" : [
                -50.18775939941406,
                0.0015708727296441793,
                -16.05617904663086
            ]
        },
        {
            "mesh" : 0,
            "name" : "Grass - copy.092",
            "rotation" : [
                -0.00016973250603768975,
                -0.22418591380119324,
                -0.00045783125096932054,
                0.9745462536811829
            ],
            "scale" : [
                0.6288763880729675,
                0.6288763880729675,
                0.6288763880729675
            ],
            "translation" : [
                -35.36477279663086,
                0.011166904121637344,
                -22.586456298828125
            ]
        }
    ],
    "materials" : [
        {
            "doubleSided" : true,
            "name" : "Material.017",
            "pbrMetallicRoughness" : {
                "baseColorTexture" : {
                    "index" : 0
                },
                "metallicFactor" : 0,
                "roughnessFactor" : 0.8999999761581421
            }
        }
    ],
    "meshes" : [
        {
            "name" : "Cube.002",
            "primitives" : [
                {
                    "attributes" : {
                        "POSITION" : 0,
                        "NORMAL" : 1,
                        "TEXCOORD_0" : 2
                    },
                    "indices" : 3,
                    "material" : 0
                }
            ]
        }
    ],
    "textures" : [
        {
            "sampler" : 0,
            "source" : 0
        }
    ],
    "images" : [
        {
            "bufferView" : 4,
            "mimeType" : "image/jpeg",
            "name" : "Grass_tex_color"
        }
    ],
    "accessors" : [
        {
            "bufferView" : 0,
            "componentType" : 5126,
            "count" : 88,
            "max" : [
                0.20007699728012085,
                0.7471616864204407,
                0.1470727026462555
            ],
            "min" : [
                -0.15658527612686157,
                -0.01082924660295248,
                -0.1288084238767624
            ],
            "type" : "VEC3"
        },
        {
            "bufferView" : 1,
            "componentType" : 5126,
            "count" : 88,
            "type" : "VEC3"
        },
        {
            "bufferView" : 2,
            "componentType" : 5126,
            "count" : 88,
            "type" : "VEC2"
        },
        {
            "bufferView" : 3,
            "componentType" : 5123,
            "count" : 114,
            "type" : "SCALAR"
        }
    ],
    "bufferViews" : [
        {
            "buffer" : 0,
            "byteLength" : 1056,
            "byteOffset" : 0
        },
        {
            "buffer" : 0,
            "byteLength" : 1056,
            "byteOffset" : 1056
        },
        {
            "buffer" : 0,
            "byteLength" : 704,
            "byteOffset" : 2112
        },
        {
            "buffer" : 0,
            "byteLength" : 228,
            "byteOffset" : 2816
        },
        {
            "buffer" : 0,
            "byteLength" : 11267,
            "byteOffset" : 3044
        }
    ],
    "samplers" : [
        {
            "magFilter" : 9729,
            "minFilter" : 9987
        }
    ],
    "buffers" : [
        {
            "byteLength" : 14312,
            "uri" : "data:application/octet-stream;base64,"
        }
    ]
}
