{
    "asset" : {
        "generator" : "Khronos glTF Blender I/O v1.6.16",
        "version" : "2.0"
    },
    "scene" : 0,
    "scenes" : [
        {
            "name" : "Scene",
            "nodes" : [
                0
            ]
        }
    ],
    "nodes" : [
        {
            "mesh" : 0,
            "name" : "Vlakgraf.001",
            "rotation" : [
                0.1522870659828186,
                -0.6903604865074158,
                0.687577486038208,
                0.1656750738620758
            ],
            "scale" : [
                0.006517985835671425,
                0.004037634469568729,
                0.006560806650668383
            ],
            "translation" : [
                -36.87827682495117,
                -0.24735811352729797,
                36.90594482421875
            ]
        }
    ],
    "materials" : [
        {
            "doubleSided" : true,
            "name" : "stone.001",
            "pbrMetallicRoughness" : {
                "baseColorTexture" : {
                    "index" : 0
                },
                "metallicFactor" : 0,
                "roughnessFactor" : 0.800000011920929
            }
        },
        {
            "doubleSided" : true,
            "name" : "stone",
            "pbrMetallicRoughness" : {
                "baseColorTexture" : {
                    "index" : 1
                },
                "metallicFactor" : 0,
                "roughnessFactor" : 0.800000011920929
            }
        },
        {
            "doubleSided" : true,
            "name" : "stone.002",
            "pbrMetallicRoughness" : {
                "baseColorTexture" : {
                    "index" : 2
                },
                "metallicFactor" : 0,
                "roughnessFactor" : 0.800000011920929
            }
        },
        {
            "doubleSided" : true,
            "name" : "stone.003",
            "pbrMetallicRoughness" : {
                "baseColorTexture" : {
                    "index" : 3
                },
                "metallicFactor" : 0,
                "roughnessFactor" : 0.800000011920929
            }
        }
    ],
    "meshes" : [
        {
            "name" : "Icosphere.004",
            "primitives" : [
                {
                    "attributes" : {
                        "POSITION" : 0,
                        "NORMAL" : 1,
                        "TEXCOORD_0" : 2,
                        "TEXCOORD_1" : 3
                    },
                    "indices" : 4,
                    "material" : 0
                },
                {
                    "attributes" : {
                        "POSITION" : 5,
                        "NORMAL" : 6,
                        "TEXCOORD_0" : 7,
                        "TEXCOORD_1" : 8
                    },
                    "indices" : 9,
                    "material" : 1
                },
                {
                    "attributes" : {
                        "POSITION" : 10,
                        "NORMAL" : 11,
                        "TEXCOORD_0" : 12,
                        "TEXCOORD_1" : 13
                    },
                    "indices" : 14,
                    "material" : 2
                },
                {
                    "attributes" : {
                        "POSITION" : 15,
                        "NORMAL" : 16,
                        "TEXCOORD_0" : 17,
                        "TEXCOORD_1" : 18
                    },
                    "indices" : 19,
                    "material" : 3
                }
            ]
        }
    ],
    "textures" : [
        {
            "sampler" : 0,
            "source" : 0
        },
        {
            "sampler" : 0,
            "source" : 0
        },
        {
            "sampler" : 0,
            "source" : 0
        },
        {
            "sampler" : 0,
            "source" : 0
        }
    ],
    "images" : [
        {
            "bufferView" : 5,
            "mimeType" : "image/jpeg",
            "name" : "Stone_tex_color"
        }
    ],
    "accessors" : [
        {
            "bufferView" : 0,
            "componentType" : 5126,
            "count" : 120,
            "max" : [
                176.1032257080078,
                150.07516479492188,
                29.581300735473633
            ],
            "min" : [
                -142.73019409179688,
                -150.07516479492188,
                -113.94271850585938
            ],
            "type" : "VEC3"
        },
        {
            "bufferView" : 1,
            "componentType" : 5126,
            "count" : 120,
            "type" : "VEC3"
        },
        {
            "bufferView" : 2,
            "componentType" : 5126,
            "count" : 120,
            "type" : "VEC2"
        },
        {
            "bufferView" : 3,
            "componentType" : 5126,
            "count" : 120,
            "type" : "VEC2"
        },
        {
            "bufferView" : 4,
            "componentType" : 5123,
            "count" : 120,
            "type" : "SCALAR"
        },
        {
            "bufferView" : 6,
            "componentType" : 5126,
            "count" : 240,
            "max" : [
                278.17413330078125,
                128.79571533203125,
                -2.955446243286133
            ],
            "min" : [
                -436.0272521972656,
                -463.5069580078125,
                -145.4453887939453
            ],
            "type" : "VEC3"
        },
        {
            "bufferView" : 7,
            "componentType" : 5126,
            "count" : 240,
            "type" : "VEC3"
        },
        {
            "bufferView" : 8,
            "componentType" : 5126,
            "count" : 240,
            "type" : "VEC2"
        },
        {
            "bufferView" : 9,
            "componentType" : 5126,
            "count" : 240,
            "type" : "VEC2"
        },
        {
            "bufferView" : 10,
            "componentType" : 5123,
            "count" : 240,
            "type" : "SCALAR"
        },
        {
            "bufferView" : 11,
            "componentType" : 5126,
            "count" : 360,
            "max" : [
                364.00799560546875,
                136.3227081298828,
                38.7850341796875
            ],
            "min" : [
                -373.1605529785156,
                -608.08837890625,
                -125.56993103027344
            ],
            "type" : "VEC3"
        },
        {
            "bufferView" : 12,
            "componentType" : 5126,
            "count" : 360,
            "type" : "VEC3"
        },
        {
            "bufferView" : 13,
            "componentType" : 5126,
            "count" : 360,
            "type" : "VEC2"
        },
        {
            "bufferView" : 14,
            "componentType" : 5126,
            "count" : 360,
            "type" : "VEC2"
        },
        {
            "bufferView" : 15,
            "componentType" : 5123,
            "count" : 360,
            "type" : "SCALAR"
        },
        {
            "bufferView" : 16,
            "componentType" : 5126,
            "count" : 480,
            "max" : [
                349.98724365234375,
                115.18405151367188,
                9.315802574157715
            ],
            "min" : [
                -449.1410827636719,
                -625.8818359375,
                -131.2373046875
            ],
            "type" : "VEC3"
        },
        {
            "bufferView" : 17,
            "componentType" : 5126,
            "count" : 480,
            "type" : "VEC3"
        },
        {
            "bufferView" : 18,
            "componentType" : 5126,
            "count" : 480,
            "type" : "VEC2"
        },
        {
            "bufferView" : 19,
            "componentType" : 5126,
            "count" : 480,
            "type" : "VEC2"
        },
        {
            "bufferView" : 20,
            "componentType" : 5123,
            "count" : 480,
            "type" : "SCALAR"
        }
    ],
    "bufferViews" : [
        {
            "buffer" : 0,
            "byteLength" : 1440,
            "byteOffset" : 0
        },
        {
            "buffer" : 0,
            "byteLength" : 1440,
            "byteOffset" : 1440
        },
        {
            "buffer" : 0,
            "byteLength" : 960,
            "byteOffset" : 2880
        },
        {
            "buffer" : 0,
            "byteLength" : 960,
            "byteOffset" : 3840
        },
        {
            "buffer" : 0,
            "byteLength" : 240,
            "byteOffset" : 4800
        },
        {
            "buffer" : 0,
            "byteLength" : 974,
            "byteOffset" : 5040
        },
        {
            "buffer" : 0,
            "byteLength" : 2880,
            "byteOffset" : 6016
        },
        {
            "buffer" : 0,
            "byteLength" : 2880,
            "byteOffset" : 8896
        },
        {
            "buffer" : 0,
            "byteLength" : 1920,
            "byteOffset" : 11776
        },
        {
            "buffer" : 0,
            "byteLength" : 1920,
            "byteOffset" : 13696
        },
        {
            "buffer" : 0,
            "byteLength" : 480,
            "byteOffset" : 15616
        },
        {
            "buffer" : 0,
            "byteLength" : 4320,
            "byteOffset" : 16096
        },
        {
            "buffer" : 0,
            "byteLength" : 4320,
            "byteOffset" : 20416
        },
        {
            "buffer" : 0,
            "byteLength" : 2880,
            "byteOffset" : 24736
        },
        {
            "buffer" : 0,
            "byteLength" : 2880,
            "byteOffset" : 27616
        },
        {
            "buffer" : 0,
            "byteLength" : 720,
            "byteOffset" : 30496
        },
        {
            "buffer" : 0,
            "byteLength" : 5760,
            "byteOffset" : 31216
        },
        {
            "buffer" : 0,
            "byteLength" : 5760,
            "byteOffset" : 36976
        },
        {
            "buffer" : 0,
            "byteLength" : 3840,
            "byteOffset" : 42736
        },
        {
            "buffer" : 0,
            "byteLength" : 3840,
            "byteOffset" : 46576
        },
        {
            "buffer" : 0,
            "byteLength" : 960,
            "byteOffset" : 50416
        }
    ],
    "samplers" : [
        {
            "magFilter" : 9729,
            "minFilter" : 9987
        }
    ],
    "buffers" : [
        {
            "byteLength" : 51376,
            "uri" : "data:application/octet-stream;base64,"
        }
    ]
}
