{
    "asset" : {
        "generator" : "Khronos glTF Blender I/O v1.6.16",
        "version" : "2.0"
    },
    "scene" : 0,
    "scenes" : [
        {
            "name" : "Scene",
            "nodes" : [
                0
            ]
        }
    ],
    "nodes" : [
        {
            "mesh" : 0,
            "name" : "Ground.001",
            "scale" : [
                -72.91156768798828,
                -72.91156768798828,
                -72.91156768798828
            ]
        }
    ],
    "materials" : [
        {
            "doubleSided" : true,
            "name" : "Material.027",
            "pbrMetallicRoughness" : {
                "baseColorTexture" : {
                    "index" : 0
                },
                "metallicFactor" : 0,
                "roughnessFactor" : 0.5
            }
        }
    ],
    "meshes" : [
        {
            "name" : "Plane.004",
            "primitives" : [
                {
                    "attributes" : {
                        "POSITION" : 0,
                        "NORMAL" : 1,
                        "TEXCOORD_0" : 2
                    },
                    "indices" : 3,
                    "material" : 0
                }
            ]
        }
    ],
    "textures" : [
        {
            "sampler" : 0,
            "source" : 0
        }
    ],
    "images" : [
        {
            "bufferView" : 4,
            "mimeType" : "image/jpeg",
            "name" : "Ground_tex_color"
        }
    ],
    "accessors" : [
        {
            "bufferView" : 0,
            "componentType" : 5126,
            "count" : 271,
            "max" : [
                1.0068302154541016,
                0.049071185290813446,
                1.0068302154541016
            ],
            "min" : [
                -1.0068302154541016,
                -0.08949164301156998,
                -1.0069193840026855
            ],
            "type" : "VEC3"
        },
        {
            "bufferView" : 1,
            "componentType" : 5126,
            "count" : 271,
            "type" : "VEC3"
        },
        {
            "bufferView" : 2,
            "componentType" : 5126,
            "count" : 271,
            "type" : "VEC2"
        },
        {
            "bufferView" : 3,
            "componentType" : 5123,
            "count" : 1230,
            "type" : "SCALAR"
        }
    ],
    "bufferViews" : [
        {
            "buffer" : 0,
            "byteLength" : 3252,
            "byteOffset" : 0
        },
        {
            "buffer" : 0,
            "byteLength" : 3252,
            "byteOffset" : 3252
        },
        {
            "buffer" : 0,
            "byteLength" : 2168,
            "byteOffset" : 6504
        },
        {
            "buffer" : 0,
            "byteLength" : 2460,
            "byteOffset" : 8672
        },
        {
            "buffer" : 0,
            "byteLength" : 11745,
            "byteOffset" : 11132
        }
    ],
    "samplers" : [
        {
            "magFilter" : 9729,
            "minFilter" : 9987
        }
    ],
    "buffers" : [
        {
            "byteLength" : 22880,
            "uri" : "data:application/octet-stream;base64,"
        }
    ]
}
