{
    "asset" : {
        "generator" : "Khronos glTF Blender I/O v1.6.16",
        "version" : "2.0"
    },
    "scene" : 0,
    "scenes" : [
        {
            "name" : "Scene",
            "nodes" : [
                0
            ]
        }
    ],
    "nodes" : [
        {
            "mesh" : 0,
            "name" : "House.001",
            "rotation" : [
                0.33336955308914185,
                -0.6235902309417725,
                0.623590350151062,
                0.33336949348449707
            ],
            "scale" : [
                0.009999999776482582,
                0.009999999776482582,
                0.009999999776482582
            ],
            "translation" : [
                2.2248153686523438,
                -0.12649832665920258,
                -31.700664520263672
            ]
        }
    ],
    "materials" : [
        {
            "doubleSided" : true,
            "name" : "Material.003",
            "pbrMetallicRoughness" : {
                "baseColorTexture" : {
                    "index" : 0
                },
                "metallicFactor" : 0,
                "roughnessFactor" : 0.800000011920929
            }
        }
    ],
    "meshes" : [
        {
            "name" : "Plane.007",
            "primitives" : [
                {
                    "attributes" : {
                        "POSITION" : 0,
                        "NORMAL" : 1,
                        "TEXCOORD_0" : 2
                    },
                    "indices" : 3,
                    "material" : 0
                }
            ]
        }
    ],
    "textures" : [
        {
            "sampler" : 0,
            "source" : 0
        }
    ],
    "images" : [
        {
            "bufferView" : 4,
            "mimeType" : "image/jpeg",
            "name" : "house_tex"
        }
    ],
    "accessors" : [
        {
            "bufferView" : 0,
            "componentType" : 5126,
            "count" : 4250,
            "max" : [
                997.3499145507812,
                498.1529235839844,
                5.5405497550964355
            ],
            "min" : [
                -776.78369140625,
                -503.31378173828125,
                -553.3529052734375
            ],
            "type" : "VEC3"
        },
        {
            "bufferView" : 1,
            "componentType" : 5126,
            "count" : 4250,
            "type" : "VEC3"
        },
        {
            "bufferView" : 2,
            "componentType" : 5126,
            "count" : 4250,
            "type" : "VEC2"
        },
        {
            "bufferView" : 3,
            "componentType" : 5123,
            "count" : 7938,
            "type" : "SCALAR"
        }
    ],
    "bufferViews" : [
        {
            "buffer" : 0,
            "byteLength" : 51000,
            "byteOffset" : 0
        },
        {
            "buffer" : 0,
            "byteLength" : 51000,
            "byteOffset" : 51000
        },
        {
            "buffer" : 0,
            "byteLength" : 34000,
            "byteOffset" : 102000
        },
        {
            "buffer" : 0,
            "byteLength" : 15876,
            "byteOffset" : 136000
        },
        {
            "buffer" : 0,
            "byteLength" : 83744,
            "byteOffset" : 151876
        }
    ],
    "samplers" : [
        {
            "magFilter" : 9729,
            "minFilter" : 9987
        }
    ],
    "buffers" : [
        {
            "byteLength" : 235620,
            "uri" : "data:application/octet-stream;base64,"
        }
    ]
}
