{
    "asset" : {
        "generator" : "Khronos glTF Blender I/O v1.6.16",
        "version" : "2.0"
    },
    "scene" : 0,
    "scenes" : [
        {
            "name" : "Scene",
            "nodes" : [
                0,
                1
            ]
        }
    ],
    "nodes" : [
        {
            "mesh" : 0,
            "name" : "Linne",
            "rotation" : [
                0.3849298059940338,
                0.6150611042976379,
                0.48444664478302,
                -0.48871293663978577
            ],
            "scale" : [
                0.03652425482869148,
                0.03652426227927208,
                0.03652426227927208
            ],
            "translation" : [
                14.440583229064941,
                0.002306862734258175,
                -1.4176831245422363
            ]
        },
        {
            "mesh" : 1,
            "name" : "Box",
            "rotation" : [
                0,
                -0.07965396344661713,
                0,
                0.9968225955963135
            ],
            "scale" : [
                0.2767013609409332,
                0.9149556756019592,
                0.2767013609409332
            ],
            "translation" : [
                14.342726707458496,
                0.8905217051506042,
                -1.4490077495574951
            ]
        }
    ],
    "materials" : [
        {
            "doubleSided" : true,
            "name" : "BodyMat.001",
            "pbrMetallicRoughness" : {
                "baseColorTexture" : {
                    "index" : 0
                },
                "metallicFactor" : 0,
                "roughnessFactor" : 0.800000011920929
            }
        }
    ],
    "meshes" : [
        {
            "name" : "Body.005",
            "primitives" : [
                {
                    "attributes" : {
                        "POSITION" : 0,
                        "NORMAL" : 1,
                        "TEXCOORD_0" : 2
                    },
                    "indices" : 3,
                    "material" : 0
                }
            ]
        },
        {
            "name" : "Cube.008",
            "primitives" : [
                {
                    "attributes" : {
                        "POSITION" : 4,
                        "NORMAL" : 5,
                        "TEXCOORD_0" : 6
                    },
                    "indices" : 7
                }
            ]
        }
    ],
    "textures" : [
        {
            "sampler" : 0,
            "source" : 0
        }
    ],
    "images" : [
        {
            "bufferView" : 4,
            "mimeType" : "image/jpeg",
            "name" : "Linne_tex_color"
        }
    ],
    "accessors" : [
        {
            "bufferView" : 0,
            "componentType" : 5126,
            "count" : 6740,
            "max" : [
                6.508047103881836,
                9.068318367004395,
                44.56328201293945
            ],
            "min" : [
                -7.0364603996276855,
                -6.3484954833984375,
                0.0389803908765316
            ],
            "type" : "VEC3"
        },
        {
            "bufferView" : 1,
            "componentType" : 5126,
            "count" : 6740,
            "type" : "VEC3"
        },
        {
            "bufferView" : 2,
            "componentType" : 5126,
            "count" : 6740,
            "type" : "VEC2"
        },
        {
            "bufferView" : 3,
            "componentType" : 5123,
            "count" : 10140,
            "type" : "SCALAR"
        },
        {
            "bufferView" : 5,
            "componentType" : 5126,
            "count" : 24,
            "max" : [
                1,
                1,
                1
            ],
            "min" : [
                -1,
                -1,
                -1
            ],
            "type" : "VEC3"
        },
        {
            "bufferView" : 6,
            "componentType" : 5126,
            "count" : 24,
            "type" : "VEC3"
        },
        {
            "bufferView" : 7,
            "componentType" : 5126,
            "count" : 24,
            "type" : "VEC2"
        },
        {
            "bufferView" : 8,
            "componentType" : 5123,
            "count" : 36,
            "type" : "SCALAR"
        }
    ],
    "bufferViews" : [
        {
            "buffer" : 0,
            "byteLength" : 80880,
            "byteOffset" : 0
        },
        {
            "buffer" : 0,
            "byteLength" : 80880,
            "byteOffset" : 80880
        },
        {
            "buffer" : 0,
            "byteLength" : 53920,
            "byteOffset" : 161760
        },
        {
            "buffer" : 0,
            "byteLength" : 20280,
            "byteOffset" : 215680
        },
        {
            "buffer" : 0,
            "byteLength" : 11349,
            "byteOffset" : 235960
        },
        {
            "buffer" : 0,
            "byteLength" : 288,
            "byteOffset" : 247312
        },
        {
            "buffer" : 0,
            "byteLength" : 288,
            "byteOffset" : 247600
        },
        {
            "buffer" : 0,
            "byteLength" : 192,
            "byteOffset" : 247888
        },
        {
            "buffer" : 0,
            "byteLength" : 72,
            "byteOffset" : 248080
        }
    ],
    "samplers" : [
        {
            "magFilter" : 9729,
            "minFilter" : 9987
        }
    ],
    "buffers" : [
        {
            "byteLength" : 248152,
            "uri" : "data:application/octet-stream;base64,"
        }
    ]
}
