{
    "asset" : {
        "generator" : "Khronos glTF Blender I/O v1.6.16",
        "version" : "2.0"
    },
    "scene" : 0,
    "scenes" : [
        {
            "name" : "Scene",
            "nodes" : [
                0,
                1,
                2,
                3
            ]
        }
    ],
    "nodes" : [
        {
            "mesh" : 0,
            "name" : "Cube",
            "scale" : [
                1.359604001045227,
                1.3596041202545166,
                1.3596041202545166
            ],
            "translation" : [
                -19.09453773498535,
                0.5514520406723022,
                16.87224578857422
            ]
        },
        {
            "mesh" : 1,
            "name" : "Suzanne",
            "scale" : [
                1.3596041202545166,
                1.3596041202545166,
                1.3596041202545166
            ],
            "translation" : [
                -18.944225311279297,
                0.6013303995132446,
                16.81113624572754
            ]
        },
        {
            "mesh" : 2,
            "name" : "Torus.001",
            "scale" : [
                1.3596041202545166,
                1.3596041202545166,
                1.3596041202545166
            ],
            "translation" : [
                -19.198646545410156,
                0.5853230953216553,
                16.914796829223633
            ]
        },
        {
            "mesh" : 3,
            "name" : "Box",
            "scale" : [
                0.3601410686969757,
                0.5252442359924316,
                0.3601410686969757
            ],
            "translation" : [
                -19.09773826599121,
                0.21152031421661377,
                16.88130760192871
            ]
        }
    ],
    "materials" : [
        {
            "doubleSided" : true,
            "name" : "testy",
            "pbrMetallicRoughness" : {
                "baseColorTexture" : {
                    "index" : 0
                },
                "metallicFactor" : 0,
                "roughnessFactor" : 0.5
            }
        }
    ],
    "meshes" : [
        {
            "name" : "Cube.013",
            "primitives" : [
                {
                    "attributes" : {
                        "POSITION" : 0,
                        "NORMAL" : 1,
                        "TEXCOORD_0" : 2
                    },
                    "indices" : 3,
                    "material" : 0
                }
            ]
        },
        {
            "name" : "Suzanne",
            "primitives" : [
                {
                    "attributes" : {
                        "POSITION" : 4,
                        "NORMAL" : 5,
                        "TEXCOORD_0" : 6
                    },
                    "indices" : 7,
                    "material" : 0
                }
            ]
        },
        {
            "name" : "Torus.001",
            "primitives" : [
                {
                    "attributes" : {
                        "POSITION" : 8,
                        "NORMAL" : 9,
                        "TEXCOORD_0" : 10
                    },
                    "indices" : 11,
                    "material" : 0
                }
            ]
        },
        {
            "name" : "Cube.014",
            "primitives" : [
                {
                    "attributes" : {
                        "POSITION" : 12,
                        "NORMAL" : 13,
                        "TEXCOORD_0" : 14
                    },
                    "indices" : 15
                }
            ]
        }
    ],
    "textures" : [
        {
            "sampler" : 0,
            "source" : 0
        }
    ],
    "images" : [
        {
            "bufferView" : 4,
            "mimeType" : "image/jpeg",
            "name" : "House_tex_color"
        }
    ],
    "accessors" : [
        {
            "bufferView" : 0,
            "componentType" : 5126,
            "count" : 84,
            "max" : [
                0.2310497760772705,
                0.012318097986280918,
                0.2310497760772705
            ],
            "min" : [
                -0.2310497760772705,
                -0.6750847697257996,
                -0.2310497760772705
            ],
            "type" : "VEC3"
        },
        {
            "bufferView" : 1,
            "componentType" : 5126,
            "count" : 84,
            "type" : "VEC3"
        },
        {
            "bufferView" : 2,
            "componentType" : 5126,
            "count" : 84,
            "type" : "VEC2"
        },
        {
            "bufferView" : 3,
            "componentType" : 5123,
            "count" : 204,
            "type" : "SCALAR"
        },
        {
            "bufferView" : 5,
            "componentType" : 5126,
            "count" : 1968,
            "max" : [
                0.11389727145433426,
                0.08238328248262405,
                0.0836576521396637
            ],
            "min" : [
                -0.07764753699302673,
                -0.04558143392205238,
                -0.08943147212266922
            ],
            "type" : "VEC3"
        },
        {
            "bufferView" : 6,
            "componentType" : 5126,
            "count" : 1968,
            "type" : "VEC3"
        },
        {
            "bufferView" : 7,
            "componentType" : 5126,
            "count" : 1968,
            "type" : "VEC2"
        },
        {
            "bufferView" : 8,
            "componentType" : 5123,
            "count" : 2904,
            "type" : "SCALAR"
        },
        {
            "bufferView" : 9,
            "componentType" : 5126,
            "count" : 576,
            "max" : [
                0.09696970134973526,
                0.03232323378324509,
                0.09696970134973526
            ],
            "min" : [
                -0.09696970134973526,
                -0.03232323378324509,
                -0.09696970134973526
            ],
            "type" : "VEC3"
        },
        {
            "bufferView" : 10,
            "componentType" : 5126,
            "count" : 576,
            "type" : "VEC3"
        },
        {
            "bufferView" : 11,
            "componentType" : 5126,
            "count" : 576,
            "type" : "VEC2"
        },
        {
            "bufferView" : 12,
            "componentType" : 5123,
            "count" : 864,
            "type" : "SCALAR"
        },
        {
            "bufferView" : 13,
            "componentType" : 5126,
            "count" : 24,
            "max" : [
                1,
                1,
                1
            ],
            "min" : [
                -1,
                -1,
                -1
            ],
            "type" : "VEC3"
        },
        {
            "bufferView" : 14,
            "componentType" : 5126,
            "count" : 24,
            "type" : "VEC3"
        },
        {
            "bufferView" : 15,
            "componentType" : 5126,
            "count" : 24,
            "type" : "VEC2"
        },
        {
            "bufferView" : 16,
            "componentType" : 5123,
            "count" : 36,
            "type" : "SCALAR"
        }
    ],
    "bufferViews" : [
        {
            "buffer" : 0,
            "byteLength" : 1008,
            "byteOffset" : 0
        },
        {
            "buffer" : 0,
            "byteLength" : 1008,
            "byteOffset" : 1008
        },
        {
            "buffer" : 0,
            "byteLength" : 672,
            "byteOffset" : 2016
        },
        {
            "buffer" : 0,
            "byteLength" : 408,
            "byteOffset" : 2688
        },
        {
            "buffer" : 0,
            "byteLength" : 21166,
            "byteOffset" : 3096
        },
        {
            "buffer" : 0,
            "byteLength" : 23616,
            "byteOffset" : 24264
        },
        {
            "buffer" : 0,
            "byteLength" : 23616,
            "byteOffset" : 47880
        },
        {
            "buffer" : 0,
            "byteLength" : 15744,
            "byteOffset" : 71496
        },
        {
            "buffer" : 0,
            "byteLength" : 5808,
            "byteOffset" : 87240
        },
        {
            "buffer" : 0,
            "byteLength" : 6912,
            "byteOffset" : 93048
        },
        {
            "buffer" : 0,
            "byteLength" : 6912,
            "byteOffset" : 99960
        },
        {
            "buffer" : 0,
            "byteLength" : 4608,
            "byteOffset" : 106872
        },
        {
            "buffer" : 0,
            "byteLength" : 1728,
            "byteOffset" : 111480
        },
        {
            "buffer" : 0,
            "byteLength" : 288,
            "byteOffset" : 113208
        },
        {
            "buffer" : 0,
            "byteLength" : 288,
            "byteOffset" : 113496
        },
        {
            "buffer" : 0,
            "byteLength" : 192,
            "byteOffset" : 113784
        },
        {
            "buffer" : 0,
            "byteLength" : 72,
            "byteOffset" : 113976
        }
    ],
    "samplers" : [
        {
            "magFilter" : 9729,
            "minFilter" : 9987
        }
    ],
    "buffers" : [
        {
            "byteLength" : 114048,
            "uri" : "data:application/octet-stream;base64,"
        }
    ]
}
