{
    "asset" : {
        "generator" : "Khronos glTF Blender I/O v1.6.16",
        "version" : "2.0"
    },
    "scene" : 0,
    "scenes" : [
        {
            "name" : "Scene",
            "nodes" : [
                0,
                1,
                2,
                3,
                4,
                5
            ]
        }
    ],
    "nodes" : [
        {
            "mesh" : 0,
            "name" : "Porcini1 - copy.007",
            "rotation" : [
                0.015130367130041122,
                0.6885837316513062,
                -0.33499377965927124,
                0.6429640054702759
            ],
            "scale" : [
                0.2855100631713867,
                0.2855100631713867,
                0.2855100631713867
            ],
            "translation" : [
                -23.391220092773438,
                2.327308416366577,
                54.27541732788086
            ]
        },
        {
            "mesh" : 0,
            "name" : "Porcini1 - copy.008",
            "rotation" : [
                -0.07087729871273041,
                -0.38856810331344604,
                -0.1862211525440216,
                0.8996182084083557
            ],
            "scale" : [
                0.28761062026023865,
                0.28761062026023865,
                0.28761062026023865
            ],
            "translation" : [
                -17.26266098022461,
                1.4026185274124146,
                62.4573860168457
            ]
        },
        {
            "mesh" : 1,
            "name" : "FlyAgaric2 - copy.002",
            "rotation" : [
                0.14976701140403748,
                0.9118967652320862,
                -0.12495692074298859,
                0.36110925674438477
            ],
            "scale" : [
                0.25373154878616333,
                0.25373151898384094,
                0.25373154878616333
            ],
            "translation" : [
                -19.294139862060547,
                1.5228359699249268,
                58.098323822021484
            ]
        },
        {
            "mesh" : 2,
            "name" : "ScalyInkCap1 - copy.005",
            "rotation" : [
                -0.14570963382720947,
                -0.2415003478527069,
                -0.19485972821712494,
                0.9394019246101379
            ],
            "scale" : [
                0.22541266679763794,
                0.22541265189647675,
                0.22541266679763794
            ],
            "translation" : [
                -18.139686584472656,
                1.4938606023788452,
                60.872337341308594
            ]
        },
        {
            "mesh" : 3,
            "name" : "ScalyInkCap2 - copy.002",
            "rotation" : [
                0.028040774166584015,
                0.47010669112205505,
                -0.24169519543647766,
                0.8484084010124207
            ],
            "scale" : [
                0.26478642225265503,
                0.26478642225265503,
                0.26478642225265503
            ],
            "translation" : [
                -18.690975189208984,
                2.0032095909118652,
                61.994285583496094
            ]
        },
        {
            "mesh" : 3,
            "name" : "ScalyInkCap2 - copy.008",
            "rotation" : [
                -0.24297012388706207,
                -0.8758504390716553,
                -0.013042272999882698,
                0.41675105690956116
            ],
            "scale" : [
                0.27623021602630615,
                0.27623024582862854,
                0.27623021602630615
            ],
            "translation" : [
                -22.005300521850586,
                3.026580810546875,
                59.19430160522461
            ]
        }
    ],
    "materials" : [
        {
            "doubleSided" : true,
            "name" : "Material.015",
            "pbrMetallicRoughness" : {
                "baseColorTexture" : {
                    "index" : 0
                },
                "metallicFactor" : 0,
                "roughnessFactor" : 0.699999988079071
            }
        },
        {
            "doubleSided" : true,
            "name" : "FlyAgaric.002",
            "pbrMetallicRoughness" : {
                "baseColorTexture" : {
                    "index" : 1
                },
                "metallicFactor" : 0,
                "roughnessFactor" : 0.699999988079071
            }
        },
        {
            "doubleSided" : true,
            "name" : "scalyink",
            "pbrMetallicRoughness" : {
                "baseColorTexture" : {
                    "index" : 2
                },
                "metallicFactor" : 0,
                "roughnessFactor" : 0.699999988079071
            }
        },
        {
            "doubleSided" : true,
            "name" : "scalyink.001",
            "pbrMetallicRoughness" : {
                "baseColorTexture" : {
                    "index" : 3
                },
                "metallicFactor" : 0,
                "roughnessFactor" : 0.699999988079071
            }
        }
    ],
    "meshes" : [
        {
            "name" : "Icosphere.018",
            "primitives" : [
                {
                    "attributes" : {
                        "POSITION" : 0,
                        "NORMAL" : 1,
                        "TEXCOORD_0" : 2
                    },
                    "indices" : 3,
                    "material" : 0
                }
            ]
        },
        {
            "name" : "Cylinder.014",
            "primitives" : [
                {
                    "attributes" : {
                        "POSITION" : 4,
                        "NORMAL" : 5,
                        "TEXCOORD_0" : 6
                    },
                    "indices" : 7,
                    "material" : 1
                }
            ]
        },
        {
            "name" : "Icosphere.019",
            "primitives" : [
                {
                    "attributes" : {
                        "POSITION" : 8,
                        "NORMAL" : 9,
                        "TEXCOORD_0" : 10
                    },
                    "indices" : 11,
                    "material" : 2
                }
            ]
        },
        {
            "name" : "Icosphere.020",
            "primitives" : [
                {
                    "attributes" : {
                        "POSITION" : 12,
                        "NORMAL" : 13,
                        "TEXCOORD_0" : 14
                    },
                    "indices" : 15,
                    "material" : 3
                }
            ]
        }
    ],
    "textures" : [
        {
            "sampler" : 0,
            "source" : 0
        },
        {
            "sampler" : 0,
            "source" : 1
        },
        {
            "sampler" : 0,
            "source" : 2
        },
        {
            "sampler" : 0,
            "source" : 2
        }
    ],
    "images" : [
        {
            "bufferView" : 4,
            "mimeType" : "image/jpeg",
            "name" : "Porcini_tex_color"
        },
        {
            "bufferView" : 9,
            "mimeType" : "image/jpeg",
            "name" : "FlyAgaric_tex_color"
        },
        {
            "bufferView" : 14,
            "mimeType" : "image/jpeg",
            "name" : "ScalyInkCap_tex_color"
        }
    ],
    "accessors" : [
        {
            "bufferView" : 0,
            "componentType" : 5126,
            "count" : 176,
            "max" : [
                0.4384323060512543,
                0.6658157110214233,
                0.46099433302879333
            ],
            "min" : [
                -0.4384323060512543,
                -0.009421736001968384,
                -0.46099433302879333
            ],
            "type" : "VEC3"
        },
        {
            "bufferView" : 1,
            "componentType" : 5126,
            "count" : 176,
            "type" : "VEC3"
        },
        {
            "bufferView" : 2,
            "componentType" : 5126,
            "count" : 176,
            "type" : "VEC2"
        },
        {
            "bufferView" : 3,
            "componentType" : 5123,
            "count" : 192,
            "type" : "SCALAR"
        },
        {
            "bufferView" : 5,
            "componentType" : 5126,
            "count" : 204,
            "max" : [
                0.6418740749359131,
                1.260331630706787,
                0.8453759551048279
            ],
            "min" : [
                -0.6418737173080444,
                -0.014926016330718994,
                -0.6009188890457153
            ],
            "type" : "VEC3"
        },
        {
            "bufferView" : 6,
            "componentType" : 5126,
            "count" : 204,
            "type" : "VEC3"
        },
        {
            "bufferView" : 7,
            "componentType" : 5126,
            "count" : 204,
            "type" : "VEC2"
        },
        {
            "bufferView" : 8,
            "componentType" : 5123,
            "count" : 240,
            "type" : "SCALAR"
        },
        {
            "bufferView" : 10,
            "componentType" : 5126,
            "count" : 162,
            "max" : [
                0.15797577798366547,
                0.9723415374755859,
                0.16610530018806458
            ],
            "min" : [
                -0.15797577798366547,
                -0.009877324104309082,
                -0.16610530018806458
            ],
            "type" : "VEC3"
        },
        {
            "bufferView" : 11,
            "componentType" : 5126,
            "count" : 162,
            "type" : "VEC3"
        },
        {
            "bufferView" : 12,
            "componentType" : 5126,
            "count" : 162,
            "type" : "VEC2"
        },
        {
            "bufferView" : 13,
            "componentType" : 5123,
            "count" : 192,
            "type" : "SCALAR"
        },
        {
            "bufferView" : 15,
            "componentType" : 5126,
            "count" : 162,
            "max" : [
                0.18058356642723083,
                0.939814031124115,
                0.1898765116930008
            ],
            "min" : [
                -0.18058356642723083,
                -0.013420641422271729,
                -0.1898765116930008
            ],
            "type" : "VEC3"
        },
        {
            "bufferView" : 16,
            "componentType" : 5126,
            "count" : 162,
            "type" : "VEC3"
        },
        {
            "bufferView" : 17,
            "componentType" : 5126,
            "count" : 162,
            "type" : "VEC2"
        },
        {
            "bufferView" : 18,
            "componentType" : 5123,
            "count" : 192,
            "type" : "SCALAR"
        }
    ],
    "bufferViews" : [
        {
            "buffer" : 0,
            "byteLength" : 2112,
            "byteOffset" : 0
        },
        {
            "buffer" : 0,
            "byteLength" : 2112,
            "byteOffset" : 2112
        },
        {
            "buffer" : 0,
            "byteLength" : 1408,
            "byteOffset" : 4224
        },
        {
            "buffer" : 0,
            "byteLength" : 384,
            "byteOffset" : 5632
        },
        {
            "buffer" : 0,
            "byteLength" : 6578,
            "byteOffset" : 6016
        },
        {
            "buffer" : 0,
            "byteLength" : 2448,
            "byteOffset" : 12596
        },
        {
            "buffer" : 0,
            "byteLength" : 2448,
            "byteOffset" : 15044
        },
        {
            "buffer" : 0,
            "byteLength" : 1632,
            "byteOffset" : 17492
        },
        {
            "buffer" : 0,
            "byteLength" : 480,
            "byteOffset" : 19124
        },
        {
            "buffer" : 0,
            "byteLength" : 4189,
            "byteOffset" : 19604
        },
        {
            "buffer" : 0,
            "byteLength" : 1944,
            "byteOffset" : 23796
        },
        {
            "buffer" : 0,
            "byteLength" : 1944,
            "byteOffset" : 25740
        },
        {
            "buffer" : 0,
            "byteLength" : 1296,
            "byteOffset" : 27684
        },
        {
            "buffer" : 0,
            "byteLength" : 384,
            "byteOffset" : 28980
        },
        {
            "buffer" : 0,
            "byteLength" : 6828,
            "byteOffset" : 29364
        },
        {
            "buffer" : 0,
            "byteLength" : 1944,
            "byteOffset" : 36192
        },
        {
            "buffer" : 0,
            "byteLength" : 1944,
            "byteOffset" : 38136
        },
        {
            "buffer" : 0,
            "byteLength" : 1296,
            "byteOffset" : 40080
        },
        {
            "buffer" : 0,
            "byteLength" : 384,
            "byteOffset" : 41376
        }
    ],
    "samplers" : [
        {
            "magFilter" : 9729,
            "minFilter" : 9987
        }
    ],
    "buffers" : [
        {
            "byteLength" : 41760,
            "uri" : "data:application/octet-stream;base64,"
        }
    ]
}
