{
    "asset" : {
        "generator" : "Khronos glTF Blender I/O v1.6.16",
        "version" : "2.0"
    },
    "scene" : 0,
    "scenes" : [
        {
            "name" : "Scene",
            "nodes" : [
                0,
                1,
                2,
                3,
                4
            ]
        }
    ],
    "nodes" : [
        {
            "mesh" : 0,
            "name" : "Porcini1 - copy.006",
            "rotation" : [
                -0.00037891778629273176,
                -0.6885359883308411,
                -0.00030796104692853987,
                0.7252020239830017
            ],
            "scale" : [
                0.2384418249130249,
                0.2384418100118637,
                0.2384418398141861
            ],
            "translation" : [
                -31.90263557434082,
                0.005000322591513395,
                -47.44108581542969
            ]
        },
        {
            "mesh" : 1,
            "name" : "FlyAgaric1 - copy.005",
            "rotation" : [
                -0.0004566040588542819,
                -0.9882071018218994,
                -1.1356397408235352e-05,
                0.15312327444553375
            ],
            "scale" : [
                0.2184440791606903,
                0.2184440791606903,
                0.2184440791606903
            ],
            "translation" : [
                -31.637361526489258,
                0.0050154151394963264,
                -45.20046615600586
            ]
        },
        {
            "mesh" : 2,
            "name" : "FlyAgaric2 - copy.004",
            "rotation" : [
                0.00022953432926442474,
                -0.4830430746078491,
                0.0011989286867901683,
                0.87559574842453
            ],
            "scale" : [
                0.24282793700695038,
                0.24282793700695038,
                0.24282793700695038
            ],
            "translation" : [
                -34.99704360961914,
                0.007541284430772066,
                -40.87974166870117
            ]
        },
        {
            "mesh" : 2,
            "name" : "FlyAgaric2 - copy.008",
            "rotation" : [
                0.000260142725892365,
                0.7113790512084961,
                -0.00033337625791318715,
                0.7028083801269531
            ],
            "scale" : [
                0.2559994161128998,
                0.2559994161128998,
                0.2559994161128998
            ],
            "translation" : [
                -30.68532943725586,
                0.00422219792380929,
                -44.36288070678711
            ]
        },
        {
            "mesh" : 3,
            "name" : "ScalyInkCap2 - copy.003",
            "rotation" : [
                -0.0012080990709364414,
                0.8699323534965515,
                0.00024579494493082166,
                0.49316951632499695
            ],
            "scale" : [
                0.2767055034637451,
                0.2767055332660675,
                0.2767055332660675
            ],
            "translation" : [
                -36.18994140625,
                0.004938512109220028,
                -40.642120361328125
            ]
        }
    ],
    "materials" : [
        {
            "doubleSided" : true,
            "name" : "Material.015",
            "pbrMetallicRoughness" : {
                "baseColorTexture" : {
                    "index" : 0
                },
                "metallicFactor" : 0,
                "roughnessFactor" : 0.699999988079071
            }
        },
        {
            "doubleSided" : true,
            "name" : "FlyAgaric",
            "pbrMetallicRoughness" : {
                "baseColorTexture" : {
                    "index" : 1
                },
                "metallicFactor" : 0,
                "roughnessFactor" : 0.699999988079071
            }
        },
        {
            "doubleSided" : true,
            "name" : "FlyAgaric.002",
            "pbrMetallicRoughness" : {
                "baseColorTexture" : {
                    "index" : 2
                },
                "metallicFactor" : 0,
                "roughnessFactor" : 0.699999988079071
            }
        },
        {
            "doubleSided" : true,
            "name" : "scalyink.001",
            "pbrMetallicRoughness" : {
                "baseColorTexture" : {
                    "index" : 3
                },
                "metallicFactor" : 0,
                "roughnessFactor" : 0.699999988079071
            }
        }
    ],
    "meshes" : [
        {
            "name" : "Icosphere.018",
            "primitives" : [
                {
                    "attributes" : {
                        "POSITION" : 0,
                        "NORMAL" : 1,
                        "TEXCOORD_0" : 2
                    },
                    "indices" : 3,
                    "material" : 0
                }
            ]
        },
        {
            "name" : "Cylinder.012",
            "primitives" : [
                {
                    "attributes" : {
                        "POSITION" : 4,
                        "NORMAL" : 5,
                        "TEXCOORD_0" : 6
                    },
                    "indices" : 7,
                    "material" : 1
                }
            ]
        },
        {
            "name" : "Cylinder.014",
            "primitives" : [
                {
                    "attributes" : {
                        "POSITION" : 8,
                        "NORMAL" : 9,
                        "TEXCOORD_0" : 10
                    },
                    "indices" : 11,
                    "material" : 2
                }
            ]
        },
        {
            "name" : "Icosphere.020",
            "primitives" : [
                {
                    "attributes" : {
                        "POSITION" : 12,
                        "NORMAL" : 13,
                        "TEXCOORD_0" : 14
                    },
                    "indices" : 15,
                    "material" : 3
                }
            ]
        }
    ],
    "textures" : [
        {
            "sampler" : 0,
            "source" : 0
        },
        {
            "sampler" : 0,
            "source" : 1
        },
        {
            "sampler" : 0,
            "source" : 1
        },
        {
            "sampler" : 0,
            "source" : 2
        }
    ],
    "images" : [
        {
            "bufferView" : 4,
            "mimeType" : "image/jpeg",
            "name" : "Porcini_tex_color"
        },
        {
            "bufferView" : 9,
            "mimeType" : "image/jpeg",
            "name" : "FlyAgaric_tex_color"
        },
        {
            "bufferView" : 18,
            "mimeType" : "image/jpeg",
            "name" : "ScalyInkCap_tex_color"
        }
    ],
    "accessors" : [
        {
            "bufferView" : 0,
            "componentType" : 5126,
            "count" : 176,
            "max" : [
                0.4384323060512543,
                0.6658157110214233,
                0.46099433302879333
            ],
            "min" : [
                -0.4384323060512543,
                -0.009421736001968384,
                -0.46099433302879333
            ],
            "type" : "VEC3"
        },
        {
            "bufferView" : 1,
            "componentType" : 5126,
            "count" : 176,
            "type" : "VEC3"
        },
        {
            "bufferView" : 2,
            "componentType" : 5126,
            "count" : 176,
            "type" : "VEC2"
        },
        {
            "bufferView" : 3,
            "componentType" : 5123,
            "count" : 192,
            "type" : "SCALAR"
        },
        {
            "bufferView" : 5,
            "componentType" : 5126,
            "count" : 194,
            "max" : [
                0.6418740749359131,
                1.073468804359436,
                0.7534490823745728
            ],
            "min" : [
                -0.6418737173080444,
                -0.014926016330718994,
                -0.5963612794876099
            ],
            "type" : "VEC3"
        },
        {
            "bufferView" : 6,
            "componentType" : 5126,
            "count" : 194,
            "type" : "VEC3"
        },
        {
            "bufferView" : 7,
            "componentType" : 5126,
            "count" : 194,
            "type" : "VEC2"
        },
        {
            "bufferView" : 8,
            "componentType" : 5123,
            "count" : 240,
            "type" : "SCALAR"
        },
        {
            "bufferView" : 10,
            "componentType" : 5126,
            "count" : 204,
            "max" : [
                0.6418740749359131,
                1.260331630706787,
                0.8453759551048279
            ],
            "min" : [
                -0.6418737173080444,
                -0.014926016330718994,
                -0.6009188890457153
            ],
            "type" : "VEC3"
        },
        {
            "bufferView" : 11,
            "componentType" : 5126,
            "count" : 204,
            "type" : "VEC3"
        },
        {
            "bufferView" : 12,
            "componentType" : 5126,
            "count" : 204,
            "type" : "VEC2"
        },
        {
            "bufferView" : 13,
            "componentType" : 5123,
            "count" : 240,
            "type" : "SCALAR"
        },
        {
            "bufferView" : 14,
            "componentType" : 5126,
            "count" : 162,
            "max" : [
                0.18058356642723083,
                0.939814031124115,
                0.1898765116930008
            ],
            "min" : [
                -0.18058356642723083,
                -0.013420641422271729,
                -0.1898765116930008
            ],
            "type" : "VEC3"
        },
        {
            "bufferView" : 15,
            "componentType" : 5126,
            "count" : 162,
            "type" : "VEC3"
        },
        {
            "bufferView" : 16,
            "componentType" : 5126,
            "count" : 162,
            "type" : "VEC2"
        },
        {
            "bufferView" : 17,
            "componentType" : 5123,
            "count" : 192,
            "type" : "SCALAR"
        }
    ],
    "bufferViews" : [
        {
            "buffer" : 0,
            "byteLength" : 2112,
            "byteOffset" : 0
        },
        {
            "buffer" : 0,
            "byteLength" : 2112,
            "byteOffset" : 2112
        },
        {
            "buffer" : 0,
            "byteLength" : 1408,
            "byteOffset" : 4224
        },
        {
            "buffer" : 0,
            "byteLength" : 384,
            "byteOffset" : 5632
        },
        {
            "buffer" : 0,
            "byteLength" : 6578,
            "byteOffset" : 6016
        },
        {
            "buffer" : 0,
            "byteLength" : 2328,
            "byteOffset" : 12596
        },
        {
            "buffer" : 0,
            "byteLength" : 2328,
            "byteOffset" : 14924
        },
        {
            "buffer" : 0,
            "byteLength" : 1552,
            "byteOffset" : 17252
        },
        {
            "buffer" : 0,
            "byteLength" : 480,
            "byteOffset" : 18804
        },
        {
            "buffer" : 0,
            "byteLength" : 4189,
            "byteOffset" : 19284
        },
        {
            "buffer" : 0,
            "byteLength" : 2448,
            "byteOffset" : 23476
        },
        {
            "buffer" : 0,
            "byteLength" : 2448,
            "byteOffset" : 25924
        },
        {
            "buffer" : 0,
            "byteLength" : 1632,
            "byteOffset" : 28372
        },
        {
            "buffer" : 0,
            "byteLength" : 480,
            "byteOffset" : 30004
        },
        {
            "buffer" : 0,
            "byteLength" : 1944,
            "byteOffset" : 30484
        },
        {
            "buffer" : 0,
            "byteLength" : 1944,
            "byteOffset" : 32428
        },
        {
            "buffer" : 0,
            "byteLength" : 1296,
            "byteOffset" : 34372
        },
        {
            "buffer" : 0,
            "byteLength" : 384,
            "byteOffset" : 35668
        },
        {
            "buffer" : 0,
            "byteLength" : 6828,
            "byteOffset" : 36052
        }
    ],
    "samplers" : [
        {
            "magFilter" : 9729,
            "minFilter" : 9987
        }
    ],
    "buffers" : [
        {
            "byteLength" : 42880,
            "uri" : "data:application/octet-stream;base64,"
        }
    ]
}
