{
    "asset" : {
        "generator" : "Khronos glTF Blender I/O v1.6.16",
        "version" : "2.0"
    },
    "scene" : 0,
    "scenes" : [
        {
            "name" : "Scene",
            "nodes" : [
                0,
                1,
                2,
                3,
                4,
                5,
                6,
                7,
                8,
                9,
                10
            ]
        }
    ],
    "nodes" : [
        {
            "mesh" : 0,
            "name" : "FlyAgaric3 - copy.001",
            "rotation" : [
                -0.0004854961298406124,
                -0.9723494648933411,
                -5.20772191521246e-05,
                0.23353004455566406
            ],
            "scale" : [
                0.3252619206905365,
                0.3252618610858917,
                0.3252618908882141
            ],
            "translation" : [
                -43.137081146240234,
                0.02322228252887726,
                18.008710861206055
            ]
        },
        {
            "mesh" : 0,
            "name" : "FlyAgaric3 - copy.002",
            "rotation" : [
                -0.0004863134236074984,
                0.09025640785694122,
                0.0011328799882903695,
                0.995917797088623
            ],
            "scale" : [
                0.31330838799476624,
                0.31330835819244385,
                0.31330832839012146
            ],
            "translation" : [
                -46.73277282714844,
                0.025613708421587944,
                18.48603057861328
            ]
        },
        {
            "mesh" : 1,
            "name" : "Porcini1 - copy.004",
            "rotation" : [
                -0.0010947604896500707,
                0.7017605304718018,
                0.0005669372621923685,
                0.7124118208885193
            ],
            "scale" : [
                0.28111860156059265,
                0.28111860156059265,
                0.28111860156059265
            ],
            "translation" : [
                -45.497684478759766,
                0.024775950238108635,
                13.627784729003906
            ]
        },
        {
            "mesh" : 2,
            "name" : "FlyAgaric1 - copy.002",
            "rotation" : [
                0.00014922050468157977,
                0.44539621472358704,
                -0.00043168224510736763,
                0.8953335881233215
            ],
            "scale" : [
                0.2194826453924179,
                0.2194826453924179,
                0.2194826453924179
            ],
            "translation" : [
                -43.55976867675781,
                0.022857295349240303,
                11.540099143981934
            ]
        },
        {
            "mesh" : 2,
            "name" : "FlyAgaric1 - copy.003",
            "rotation" : [
                0.0001361064933007583,
                0.3846254348754883,
                -0.0004996958305127919,
                0.9230725765228271
            ],
            "scale" : [
                0.22015276551246643,
                0.22015275061130524,
                0.22015276551246643
            ],
            "translation" : [
                -43.48402404785156,
                0.02235848270356655,
                7.902818202972412
            ]
        },
        {
            "mesh" : 3,
            "name" : "FlyAgaric2 - copy.001",
            "rotation" : [
                0.0003256630734540522,
                0.7234829068183899,
                -0.00040269657620228827,
                0.6903420686721802
            ],
            "scale" : [
                0.2797025740146637,
                0.2797025442123413,
                0.2797025740146637
            ],
            "translation" : [
                -45.847938537597656,
                0.02596450038254261,
                19.734655380249023
            ]
        },
        {
            "mesh" : 3,
            "name" : "FlyAgaric2 - copy.003",
            "rotation" : [
                -0.00019952928414568305,
                -0.31764551997184753,
                -0.00041085807606577873,
                0.9482094049453735
            ],
            "scale" : [
                0.29669687151908875,
                0.29669687151908875,
                0.29669687151908875
            ],
            "translation" : [
                -36.86348342895508,
                0.017756037414073944,
                21.49466896057129
            ]
        },
        {
            "mesh" : 3,
            "name" : "FlyAgaric2 - copy.007",
            "rotation" : [
                -0.00037893091212026775,
                -0.6885417699813843,
                -0.0003079450107179582,
                0.7251965999603271
            ],
            "scale" : [
                0.24598731100559235,
                0.24598729610443115,
                0.24598731100559235
            ],
            "translation" : [
                -43.15271759033203,
                0.02285967580974102,
                14.801546096801758
            ]
        },
        {
            "mesh" : 4,
            "name" : "ScalyInkCap1 - copy.001",
            "rotation" : [
                -0.00046616580220870674,
                0.7664174437522888,
                -0.0017832985613495111,
                0.6423401832580566
            ],
            "scale" : [
                0.23342575132846832,
                0.2334257811307907,
                0.23342576622962952
            ],
            "translation" : [
                -40.749813079833984,
                0.022826094180345535,
                22.508544921875
            ]
        },
        {
            "mesh" : 4,
            "name" : "ScalyInkCap1 - copy.002",
            "rotation" : [
                0.00016759627033025026,
                -0.43508848547935486,
                0.0012335446663200855,
                0.9003868103027344
            ],
            "scale" : [
                0.2232239842414856,
                0.2232239842414856,
                0.2232239693403244
            ],
            "translation" : [
                -50.93682861328125,
                0.0120816919952631,
                13.631991386413574
            ]
        },
        {
            "mesh" : 4,
            "name" : "ScalyInkCap1 - copy.006",
            "rotation" : [
                -0.0017642703605815768,
                -0.13364757597446442,
                -0.000560908520128578,
                0.991027295589447
            ],
            "scale" : [
                0.26154664158821106,
                0.26154664158821106,
                0.26154670119285583
            ],
            "translation" : [
                -40.2253532409668,
                0.03146577253937721,
                25.34528160095215
            ]
        }
    ],
    "materials" : [
        {
            "doubleSided" : true,
            "name" : "FlyAgaric.001",
            "pbrMetallicRoughness" : {
                "baseColorTexture" : {
                    "index" : 0
                },
                "metallicFactor" : 0,
                "roughnessFactor" : 0.699999988079071
            }
        },
        {
            "doubleSided" : true,
            "name" : "Material.015",
            "pbrMetallicRoughness" : {
                "baseColorTexture" : {
                    "index" : 1
                },
                "metallicFactor" : 0,
                "roughnessFactor" : 0.699999988079071
            }
        },
        {
            "doubleSided" : true,
            "name" : "FlyAgaric",
            "pbrMetallicRoughness" : {
                "baseColorTexture" : {
                    "index" : 2
                },
                "metallicFactor" : 0,
                "roughnessFactor" : 0.699999988079071
            }
        },
        {
            "doubleSided" : true,
            "name" : "FlyAgaric.002",
            "pbrMetallicRoughness" : {
                "baseColorTexture" : {
                    "index" : 3
                },
                "metallicFactor" : 0,
                "roughnessFactor" : 0.699999988079071
            }
        },
        {
            "doubleSided" : true,
            "name" : "scalyink",
            "pbrMetallicRoughness" : {
                "baseColorTexture" : {
                    "index" : 4
                },
                "metallicFactor" : 0,
                "roughnessFactor" : 0.699999988079071
            }
        }
    ],
    "meshes" : [
        {
            "name" : "Cylinder.013",
            "primitives" : [
                {
                    "attributes" : {
                        "POSITION" : 0,
                        "NORMAL" : 1,
                        "TEXCOORD_0" : 2
                    },
                    "indices" : 3,
                    "material" : 0
                }
            ]
        },
        {
            "name" : "Icosphere.018",
            "primitives" : [
                {
                    "attributes" : {
                        "POSITION" : 4,
                        "NORMAL" : 5,
                        "TEXCOORD_0" : 6
                    },
                    "indices" : 7,
                    "material" : 1
                }
            ]
        },
        {
            "name" : "Cylinder.012",
            "primitives" : [
                {
                    "attributes" : {
                        "POSITION" : 8,
                        "NORMAL" : 9,
                        "TEXCOORD_0" : 10
                    },
                    "indices" : 11,
                    "material" : 2
                }
            ]
        },
        {
            "name" : "Cylinder.014",
            "primitives" : [
                {
                    "attributes" : {
                        "POSITION" : 12,
                        "NORMAL" : 13,
                        "TEXCOORD_0" : 14
                    },
                    "indices" : 15,
                    "material" : 3
                }
            ]
        },
        {
            "name" : "Icosphere.019",
            "primitives" : [
                {
                    "attributes" : {
                        "POSITION" : 16,
                        "NORMAL" : 17,
                        "TEXCOORD_0" : 18
                    },
                    "indices" : 19,
                    "material" : 4
                }
            ]
        }
    ],
    "textures" : [
        {
            "sampler" : 0,
            "source" : 0
        },
        {
            "sampler" : 0,
            "source" : 1
        },
        {
            "sampler" : 0,
            "source" : 0
        },
        {
            "sampler" : 0,
            "source" : 0
        },
        {
            "sampler" : 0,
            "source" : 2
        }
    ],
    "images" : [
        {
            "bufferView" : 4,
            "mimeType" : "image/jpeg",
            "name" : "FlyAgaric_tex_color"
        },
        {
            "bufferView" : 9,
            "mimeType" : "image/jpeg",
            "name" : "Porcini_tex_color"
        },
        {
            "bufferView" : 22,
            "mimeType" : "image/jpeg",
            "name" : "ScalyInkCap_tex_color"
        }
    ],
    "accessors" : [
        {
            "bufferView" : 0,
            "componentType" : 5126,
            "count" : 162,
            "max" : [
                0.3537853956222534,
                0.67460697889328,
                0.3364696502685547
            ],
            "min" : [
                -0.3364691138267517,
                -0.017937034368515015,
                -0.3364696502685547
            ],
            "type" : "VEC3"
        },
        {
            "bufferView" : 1,
            "componentType" : 5126,
            "count" : 162,
            "type" : "VEC3"
        },
        {
            "bufferView" : 2,
            "componentType" : 5126,
            "count" : 162,
            "type" : "VEC2"
        },
        {
            "bufferView" : 3,
            "componentType" : 5123,
            "count" : 192,
            "type" : "SCALAR"
        },
        {
            "bufferView" : 5,
            "componentType" : 5126,
            "count" : 176,
            "max" : [
                0.4384323060512543,
                0.6658157110214233,
                0.46099433302879333
            ],
            "min" : [
                -0.4384323060512543,
                -0.009421736001968384,
                -0.46099433302879333
            ],
            "type" : "VEC3"
        },
        {
            "bufferView" : 6,
            "componentType" : 5126,
            "count" : 176,
            "type" : "VEC3"
        },
        {
            "bufferView" : 7,
            "componentType" : 5126,
            "count" : 176,
            "type" : "VEC2"
        },
        {
            "bufferView" : 8,
            "componentType" : 5123,
            "count" : 192,
            "type" : "SCALAR"
        },
        {
            "bufferView" : 10,
            "componentType" : 5126,
            "count" : 194,
            "max" : [
                0.6418740749359131,
                1.073468804359436,
                0.7534490823745728
            ],
            "min" : [
                -0.6418737173080444,
                -0.014926016330718994,
                -0.5963612794876099
            ],
            "type" : "VEC3"
        },
        {
            "bufferView" : 11,
            "componentType" : 5126,
            "count" : 194,
            "type" : "VEC3"
        },
        {
            "bufferView" : 12,
            "componentType" : 5126,
            "count" : 194,
            "type" : "VEC2"
        },
        {
            "bufferView" : 13,
            "componentType" : 5123,
            "count" : 240,
            "type" : "SCALAR"
        },
        {
            "bufferView" : 14,
            "componentType" : 5126,
            "count" : 204,
            "max" : [
                0.6418740749359131,
                1.260331630706787,
                0.8453759551048279
            ],
            "min" : [
                -0.6418737173080444,
                -0.014926016330718994,
                -0.6009188890457153
            ],
            "type" : "VEC3"
        },
        {
            "bufferView" : 15,
            "componentType" : 5126,
            "count" : 204,
            "type" : "VEC3"
        },
        {
            "bufferView" : 16,
            "componentType" : 5126,
            "count" : 204,
            "type" : "VEC2"
        },
        {
            "bufferView" : 17,
            "componentType" : 5123,
            "count" : 240,
            "type" : "SCALAR"
        },
        {
            "bufferView" : 18,
            "componentType" : 5126,
            "count" : 162,
            "max" : [
                0.15797577798366547,
                0.9723415374755859,
                0.16610530018806458
            ],
            "min" : [
                -0.15797577798366547,
                -0.009877324104309082,
                -0.16610530018806458
            ],
            "type" : "VEC3"
        },
        {
            "bufferView" : 19,
            "componentType" : 5126,
            "count" : 162,
            "type" : "VEC3"
        },
        {
            "bufferView" : 20,
            "componentType" : 5126,
            "count" : 162,
            "type" : "VEC2"
        },
        {
            "bufferView" : 21,
            "componentType" : 5123,
            "count" : 192,
            "type" : "SCALAR"
        }
    ],
    "bufferViews" : [
        {
            "buffer" : 0,
            "byteLength" : 1944,
            "byteOffset" : 0
        },
        {
            "buffer" : 0,
            "byteLength" : 1944,
            "byteOffset" : 1944
        },
        {
            "buffer" : 0,
            "byteLength" : 1296,
            "byteOffset" : 3888
        },
        {
            "buffer" : 0,
            "byteLength" : 384,
            "byteOffset" : 5184
        },
        {
            "buffer" : 0,
            "byteLength" : 4189,
            "byteOffset" : 5568
        },
        {
            "buffer" : 0,
            "byteLength" : 2112,
            "byteOffset" : 9760
        },
        {
            "buffer" : 0,
            "byteLength" : 2112,
            "byteOffset" : 11872
        },
        {
            "buffer" : 0,
            "byteLength" : 1408,
            "byteOffset" : 13984
        },
        {
            "buffer" : 0,
            "byteLength" : 384,
            "byteOffset" : 15392
        },
        {
            "buffer" : 0,
            "byteLength" : 6578,
            "byteOffset" : 15776
        },
        {
            "buffer" : 0,
            "byteLength" : 2328,
            "byteOffset" : 22356
        },
        {
            "buffer" : 0,
            "byteLength" : 2328,
            "byteOffset" : 24684
        },
        {
            "buffer" : 0,
            "byteLength" : 1552,
            "byteOffset" : 27012
        },
        {
            "buffer" : 0,
            "byteLength" : 480,
            "byteOffset" : 28564
        },
        {
            "buffer" : 0,
            "byteLength" : 2448,
            "byteOffset" : 29044
        },
        {
            "buffer" : 0,
            "byteLength" : 2448,
            "byteOffset" : 31492
        },
        {
            "buffer" : 0,
            "byteLength" : 1632,
            "byteOffset" : 33940
        },
        {
            "buffer" : 0,
            "byteLength" : 480,
            "byteOffset" : 35572
        },
        {
            "buffer" : 0,
            "byteLength" : 1944,
            "byteOffset" : 36052
        },
        {
            "buffer" : 0,
            "byteLength" : 1944,
            "byteOffset" : 37996
        },
        {
            "buffer" : 0,
            "byteLength" : 1296,
            "byteOffset" : 39940
        },
        {
            "buffer" : 0,
            "byteLength" : 384,
            "byteOffset" : 41236
        },
        {
            "buffer" : 0,
            "byteLength" : 6828,
            "byteOffset" : 41620
        }
    ],
    "samplers" : [
        {
            "magFilter" : 9729,
            "minFilter" : 9987
        }
    ],
    "buffers" : [
        {
            "byteLength" : 48448,
            "uri" : "data:application/octet-stream;base64,"
        }
    ]
}
