{
    "asset" : {
        "generator" : "Khronos glTF Blender I/O v1.6.16",
        "version" : "2.0"
    },
    "scene" : 0,
    "scenes" : [
        {
            "name" : "Scene",
            "nodes" : [
                0,
                1,
                2,
                3,
                4,
                5,
                6,
                7,
                8,
                9,
                10,
                11,
                12,
                13
            ]
        }
    ],
    "nodes" : [
        {
            "mesh" : 0,
            "name" : "FlyAgaric3 - copy.003",
            "rotation" : [
                0,
                0.8596577644348145,
                0,
                0.5108703374862671
            ],
            "scale" : [
                0.28815120458602905,
                0.28815120458602905,
                0.28815120458602905
            ],
            "translation" : [
                39.68014144897461,
                0.0006327001610770822,
                -30.404325485229492
            ]
        },
        {
            "mesh" : 0,
            "name" : "FlyAgaric3 - copy.006",
            "rotation" : [
                0,
                -0.3496650159358978,
                0,
                0.9368748068809509
            ],
            "scale" : [
                0.31382426619529724,
                0.31382429599761963,
                0.31382426619529724
            ],
            "translation" : [
                40.07975769042969,
                0.0003614214074332267,
                -43.333351135253906
            ]
        },
        {
            "mesh" : 0,
            "name" : "FlyAgaric3 - copy.008",
            "rotation" : [
                0,
                -0.41838863492012024,
                0,
                0.9082680940628052
            ],
            "scale" : [
                0.30401742458343506,
                0.30401742458343506,
                0.30401742458343506
            ],
            "translation" : [
                42.37858963012695,
                0.0005663899355567992,
                -31.7770938873291
            ]
        },
        {
            "mesh" : 1,
            "name" : "Porcini1 - copy.002",
            "rotation" : [
                0,
                0.8357804417610168,
                0,
                0.5490638017654419
            ],
            "scale" : [
                0.23794856667518616,
                0.23794856667518616,
                0.23794856667518616
            ],
            "translation" : [
                37.21833038330078,
                0.0007717102998867631,
                -25.244972229003906
            ]
        },
        {
            "mesh" : 2,
            "name" : "FlyAgaric1 - copy.004",
            "rotation" : [
                0,
                -0.37353578209877014,
                0,
                0.927615761756897
            ],
            "scale" : [
                0.2445068657398224,
                0.2445068657398224,
                0.2445068657398224
            ],
            "translation" : [
                46.47795867919922,
                0.0005683006602339447,
                -28.866527557373047
            ]
        },
        {
            "mesh" : 2,
            "name" : "FlyAgaric1 - copy.006",
            "rotation" : [
                0,
                -0.5927113890647888,
                0,
                0.8054149150848389
            ],
            "scale" : [
                0.25175783038139343,
                0.25175783038139343,
                0.25175783038139343
            ],
            "translation" : [
                40.24237823486328,
                0.00045936310198158026,
                -38.454551696777344
            ]
        },
        {
            "mesh" : 3,
            "name" : "FlyAgaric2 - copy.005",
            "rotation" : [
                0,
                -0.7149300575256348,
                0,
                0.6991959810256958
            ],
            "scale" : [
                0.2624579966068268,
                0.2624579966068268,
                0.2624579966068268
            ],
            "translation" : [
                34.98522186279297,
                0.0007916472968645394,
                -24.129955291748047
            ]
        },
        {
            "mesh" : 3,
            "name" : "FlyAgaric2 - copy.006",
            "rotation" : [
                0,
                0.3057791590690613,
                0,
                0.9521024823188782
            ],
            "scale" : [
                0.2644442021846771,
                0.2644442021846771,
                0.2644442021846771
            ],
            "translation" : [
                49.88176727294922,
                0.0005636328714899719,
                -25.1653995513916
            ]
        },
        {
            "mesh" : 4,
            "name" : "ScalyInkCap1 - copy.003",
            "rotation" : [
                0,
                -0.7324648499488831,
                0,
                0.6808048486709595
            ],
            "scale" : [
                0.21713250875473022,
                0.21713249385356903,
                0.21713250875473022
            ],
            "translation" : [
                34.073455810546875,
                0.0006216591573320329,
                -33.636878967285156
            ]
        },
        {
            "mesh" : 4,
            "name" : "ScalyInkCap1 - copy.004",
            "rotation" : [
                0,
                0.8700636029243469,
                0,
                0.49293947219848633
            ],
            "scale" : [
                0.2575288712978363,
                0.2575288712978363,
                0.2575288712978363
            ],
            "translation" : [
                39.236228942871094,
                0.0005508427275344729,
                -34.693599700927734
            ]
        },
        {
            "mesh" : 4,
            "name" : "ScalyInkCap1 - copy.007",
            "rotation" : [
                0,
                0.9408625960350037,
                0,
                0.33878836035728455
            ],
            "scale" : [
                0.21434816718101501,
                0.21434816718101501,
                0.21434816718101501
            ],
            "translation" : [
                37.198768615722656,
                0.0005763593362644315,
                -34.852027893066406
            ]
        },
        {
            "mesh" : 4,
            "name" : "ScalyInkCap1 - copy.008",
            "rotation" : [
                0,
                -0.9958385229110718,
                0,
                0.09113530814647675
            ],
            "scale" : [
                0.2221069037914276,
                0.22210688889026642,
                0.2221069037914276
            ],
            "translation" : [
                35.16973876953125,
                0.0006220125360414386,
                -33.61711883544922
            ]
        },
        {
            "mesh" : 5,
            "name" : "ScalyInkCap2 - copy.004",
            "rotation" : [
                0,
                0.3262594938278198,
                0,
                0.9452802538871765
            ],
            "scale" : [
                0.25392067432403564,
                0.25392070412635803,
                0.25392067432403564
            ],
            "translation" : [
                41.35115051269531,
                0.00031087789102457464,
                -44.91954803466797
            ]
        },
        {
            "mesh" : 6,
            "name" : "VelvetStemmedAgaric1 - copy.002",
            "rotation" : [
                0,
                -0.9007769823074341,
                0,
                0.43428197503089905
            ],
            "scale" : [
                0.4453844726085663,
                0.44538450241088867,
                0.4453844726085663
            ],
            "translation" : [
                45.02201461791992,
                0.0005191253731027246,
                -32.26068115234375
            ]
        }
    ],
    "materials" : [
        {
            "doubleSided" : true,
            "name" : "FlyAgaric.001",
            "pbrMetallicRoughness" : {
                "baseColorTexture" : {
                    "index" : 0
                },
                "metallicFactor" : 0,
                "roughnessFactor" : 0.699999988079071
            }
        },
        {
            "doubleSided" : true,
            "name" : "Material.015",
            "pbrMetallicRoughness" : {
                "baseColorTexture" : {
                    "index" : 1
                },
                "metallicFactor" : 0,
                "roughnessFactor" : 0.699999988079071
            }
        },
        {
            "doubleSided" : true,
            "name" : "FlyAgaric",
            "pbrMetallicRoughness" : {
                "baseColorTexture" : {
                    "index" : 2
                },
                "metallicFactor" : 0,
                "roughnessFactor" : 0.699999988079071
            }
        },
        {
            "doubleSided" : true,
            "name" : "FlyAgaric.002",
            "pbrMetallicRoughness" : {
                "baseColorTexture" : {
                    "index" : 3
                },
                "metallicFactor" : 0,
                "roughnessFactor" : 0.699999988079071
            }
        },
        {
            "doubleSided" : true,
            "name" : "scalyink",
            "pbrMetallicRoughness" : {
                "baseColorTexture" : {
                    "index" : 4
                },
                "metallicFactor" : 0,
                "roughnessFactor" : 0.699999988079071
            }
        },
        {
            "doubleSided" : true,
            "name" : "scalyink.001",
            "pbrMetallicRoughness" : {
                "baseColorTexture" : {
                    "index" : 5
                },
                "metallicFactor" : 0,
                "roughnessFactor" : 0.699999988079071
            }
        },
        {
            "doubleSided" : true,
            "name" : "Material.016",
            "pbrMetallicRoughness" : {
                "baseColorTexture" : {
                    "index" : 6
                },
                "metallicFactor" : 0,
                "roughnessFactor" : 0.699999988079071
            }
        }
    ],
    "meshes" : [
        {
            "name" : "Cylinder.013",
            "primitives" : [
                {
                    "attributes" : {
                        "POSITION" : 0,
                        "NORMAL" : 1,
                        "TEXCOORD_0" : 2
                    },
                    "indices" : 3,
                    "material" : 0
                }
            ]
        },
        {
            "name" : "Icosphere.018",
            "primitives" : [
                {
                    "attributes" : {
                        "POSITION" : 4,
                        "NORMAL" : 5,
                        "TEXCOORD_0" : 6
                    },
                    "indices" : 7,
                    "material" : 1
                }
            ]
        },
        {
            "name" : "Cylinder.012",
            "primitives" : [
                {
                    "attributes" : {
                        "POSITION" : 8,
                        "NORMAL" : 9,
                        "TEXCOORD_0" : 10
                    },
                    "indices" : 11,
                    "material" : 2
                }
            ]
        },
        {
            "name" : "Cylinder.014",
            "primitives" : [
                {
                    "attributes" : {
                        "POSITION" : 12,
                        "NORMAL" : 13,
                        "TEXCOORD_0" : 14
                    },
                    "indices" : 15,
                    "material" : 3
                }
            ]
        },
        {
            "name" : "Icosphere.019",
            "primitives" : [
                {
                    "attributes" : {
                        "POSITION" : 16,
                        "NORMAL" : 17,
                        "TEXCOORD_0" : 18
                    },
                    "indices" : 19,
                    "material" : 4
                }
            ]
        },
        {
            "name" : "Icosphere.020",
            "primitives" : [
                {
                    "attributes" : {
                        "POSITION" : 20,
                        "NORMAL" : 21,
                        "TEXCOORD_0" : 22
                    },
                    "indices" : 23,
                    "material" : 5
                }
            ]
        },
        {
            "name" : "Icosphere.021",
            "primitives" : [
                {
                    "attributes" : {
                        "POSITION" : 24,
                        "NORMAL" : 25,
                        "TEXCOORD_0" : 26
                    },
                    "indices" : 27,
                    "material" : 6
                }
            ]
        }
    ],
    "textures" : [
        {
            "sampler" : 0,
            "source" : 0
        },
        {
            "sampler" : 0,
            "source" : 1
        },
        {
            "sampler" : 0,
            "source" : 0
        },
        {
            "sampler" : 0,
            "source" : 0
        },
        {
            "sampler" : 0,
            "source" : 2
        },
        {
            "sampler" : 0,
            "source" : 2
        },
        {
            "sampler" : 0,
            "source" : 3
        }
    ],
    "images" : [
        {
            "bufferView" : 4,
            "mimeType" : "image/jpeg",
            "name" : "FlyAgaric_tex_color"
        },
        {
            "bufferView" : 9,
            "mimeType" : "image/jpeg",
            "name" : "Porcini_tex_color"
        },
        {
            "bufferView" : 22,
            "mimeType" : "image/jpeg",
            "name" : "ScalyInkCap_tex_color"
        },
        {
            "bufferView" : 31,
            "mimeType" : "image/jpeg",
            "name" : "VelvetStemmedAgaric_tex_color"
        }
    ],
    "accessors" : [
        {
            "bufferView" : 0,
            "componentType" : 5126,
            "count" : 162,
            "max" : [
                0.3537853956222534,
                0.67460697889328,
                0.3364696502685547
            ],
            "min" : [
                -0.3364691138267517,
                -0.017937034368515015,
                -0.3364696502685547
            ],
            "type" : "VEC3"
        },
        {
            "bufferView" : 1,
            "componentType" : 5126,
            "count" : 162,
            "type" : "VEC3"
        },
        {
            "bufferView" : 2,
            "componentType" : 5126,
            "count" : 162,
            "type" : "VEC2"
        },
        {
            "bufferView" : 3,
            "componentType" : 5123,
            "count" : 192,
            "type" : "SCALAR"
        },
        {
            "bufferView" : 5,
            "componentType" : 5126,
            "count" : 176,
            "max" : [
                0.4384323060512543,
                0.6658157110214233,
                0.46099433302879333
            ],
            "min" : [
                -0.4384323060512543,
                -0.009421736001968384,
                -0.46099433302879333
            ],
            "type" : "VEC3"
        },
        {
            "bufferView" : 6,
            "componentType" : 5126,
            "count" : 176,
            "type" : "VEC3"
        },
        {
            "bufferView" : 7,
            "componentType" : 5126,
            "count" : 176,
            "type" : "VEC2"
        },
        {
            "bufferView" : 8,
            "componentType" : 5123,
            "count" : 192,
            "type" : "SCALAR"
        },
        {
            "bufferView" : 10,
            "componentType" : 5126,
            "count" : 194,
            "max" : [
                0.6418740749359131,
                1.073468804359436,
                0.7534490823745728
            ],
            "min" : [
                -0.6418737173080444,
                -0.014926016330718994,
                -0.5963612794876099
            ],
            "type" : "VEC3"
        },
        {
            "bufferView" : 11,
            "componentType" : 5126,
            "count" : 194,
            "type" : "VEC3"
        },
        {
            "bufferView" : 12,
            "componentType" : 5126,
            "count" : 194,
            "type" : "VEC2"
        },
        {
            "bufferView" : 13,
            "componentType" : 5123,
            "count" : 240,
            "type" : "SCALAR"
        },
        {
            "bufferView" : 14,
            "componentType" : 5126,
            "count" : 204,
            "max" : [
                0.6418740749359131,
                1.260331630706787,
                0.8453759551048279
            ],
            "min" : [
                -0.6418737173080444,
                -0.014926016330718994,
                -0.6009188890457153
            ],
            "type" : "VEC3"
        },
        {
            "bufferView" : 15,
            "componentType" : 5126,
            "count" : 204,
            "type" : "VEC3"
        },
        {
            "bufferView" : 16,
            "componentType" : 5126,
            "count" : 204,
            "type" : "VEC2"
        },
        {
            "bufferView" : 17,
            "componentType" : 5123,
            "count" : 240,
            "type" : "SCALAR"
        },
        {
            "bufferView" : 18,
            "componentType" : 5126,
            "count" : 162,
            "max" : [
                0.15797577798366547,
                0.9723415374755859,
                0.16610530018806458
            ],
            "min" : [
                -0.15797577798366547,
                -0.009877324104309082,
                -0.16610530018806458
            ],
            "type" : "VEC3"
        },
        {
            "bufferView" : 19,
            "componentType" : 5126,
            "count" : 162,
            "type" : "VEC3"
        },
        {
            "bufferView" : 20,
            "componentType" : 5126,
            "count" : 162,
            "type" : "VEC2"
        },
        {
            "bufferView" : 21,
            "componentType" : 5123,
            "count" : 192,
            "type" : "SCALAR"
        },
        {
            "bufferView" : 23,
            "componentType" : 5126,
            "count" : 162,
            "max" : [
                0.18058356642723083,
                0.939814031124115,
                0.1898765116930008
            ],
            "min" : [
                -0.18058356642723083,
                -0.013420641422271729,
                -0.1898765116930008
            ],
            "type" : "VEC3"
        },
        {
            "bufferView" : 24,
            "componentType" : 5126,
            "count" : 162,
            "type" : "VEC3"
        },
        {
            "bufferView" : 25,
            "componentType" : 5126,
            "count" : 162,
            "type" : "VEC2"
        },
        {
            "bufferView" : 26,
            "componentType" : 5123,
            "count" : 192,
            "type" : "SCALAR"
        },
        {
            "bufferView" : 27,
            "componentType" : 5126,
            "count" : 238,
            "max" : [
                0.2777986228466034,
                0.415473997592926,
                0.29173609614372253
            ],
            "min" : [
                -0.27119606733322144,
                -0.011347025632858276,
                -0.2871570885181427
            ],
            "type" : "VEC3"
        },
        {
            "bufferView" : 28,
            "componentType" : 5126,
            "count" : 238,
            "type" : "VEC3"
        },
        {
            "bufferView" : 29,
            "componentType" : 5126,
            "count" : 238,
            "type" : "VEC2"
        },
        {
            "bufferView" : 30,
            "componentType" : 5123,
            "count" : 288,
            "type" : "SCALAR"
        }
    ],
    "bufferViews" : [
        {
            "buffer" : 0,
            "byteLength" : 1944,
            "byteOffset" : 0
        },
        {
            "buffer" : 0,
            "byteLength" : 1944,
            "byteOffset" : 1944
        },
        {
            "buffer" : 0,
            "byteLength" : 1296,
            "byteOffset" : 3888
        },
        {
            "buffer" : 0,
            "byteLength" : 384,
            "byteOffset" : 5184
        },
        {
            "buffer" : 0,
            "byteLength" : 4189,
            "byteOffset" : 5568
        },
        {
            "buffer" : 0,
            "byteLength" : 2112,
            "byteOffset" : 9760
        },
        {
            "buffer" : 0,
            "byteLength" : 2112,
            "byteOffset" : 11872
        },
        {
            "buffer" : 0,
            "byteLength" : 1408,
            "byteOffset" : 13984
        },
        {
            "buffer" : 0,
            "byteLength" : 384,
            "byteOffset" : 15392
        },
        {
            "buffer" : 0,
            "byteLength" : 6578,
            "byteOffset" : 15776
        },
        {
            "buffer" : 0,
            "byteLength" : 2328,
            "byteOffset" : 22356
        },
        {
            "buffer" : 0,
            "byteLength" : 2328,
            "byteOffset" : 24684
        },
        {
            "buffer" : 0,
            "byteLength" : 1552,
            "byteOffset" : 27012
        },
        {
            "buffer" : 0,
            "byteLength" : 480,
            "byteOffset" : 28564
        },
        {
            "buffer" : 0,
            "byteLength" : 2448,
            "byteOffset" : 29044
        },
        {
            "buffer" : 0,
            "byteLength" : 2448,
            "byteOffset" : 31492
        },
        {
            "buffer" : 0,
            "byteLength" : 1632,
            "byteOffset" : 33940
        },
        {
            "buffer" : 0,
            "byteLength" : 480,
            "byteOffset" : 35572
        },
        {
            "buffer" : 0,
            "byteLength" : 1944,
            "byteOffset" : 36052
        },
        {
            "buffer" : 0,
            "byteLength" : 1944,
            "byteOffset" : 37996
        },
        {
            "buffer" : 0,
            "byteLength" : 1296,
            "byteOffset" : 39940
        },
        {
            "buffer" : 0,
            "byteLength" : 384,
            "byteOffset" : 41236
        },
        {
            "buffer" : 0,
            "byteLength" : 6828,
            "byteOffset" : 41620
        },
        {
            "buffer" : 0,
            "byteLength" : 1944,
            "byteOffset" : 48448
        },
        {
            "buffer" : 0,
            "byteLength" : 1944,
            "byteOffset" : 50392
        },
        {
            "buffer" : 0,
            "byteLength" : 1296,
            "byteOffset" : 52336
        },
        {
            "buffer" : 0,
            "byteLength" : 384,
            "byteOffset" : 53632
        },
        {
            "buffer" : 0,
            "byteLength" : 2856,
            "byteOffset" : 54016
        },
        {
            "buffer" : 0,
            "byteLength" : 2856,
            "byteOffset" : 56872
        },
        {
            "buffer" : 0,
            "byteLength" : 1904,
            "byteOffset" : 59728
        },
        {
            "buffer" : 0,
            "byteLength" : 576,
            "byteOffset" : 61632
        },
        {
            "buffer" : 0,
            "byteLength" : 2698,
            "byteOffset" : 62208
        }
    ],
    "samplers" : [
        {
            "magFilter" : 9729,
            "minFilter" : 9987
        }
    ],
    "buffers" : [
        {
            "byteLength" : 64908,
            "uri" : "data:application/octet-stream;base64,"
        }
    ]
}
