{
    "asset" : {
        "generator" : "Khronos glTF Blender I/O v1.6.16",
        "version" : "2.0"
    },
    "scene" : 0,
    "scenes" : [
        {
            "name" : "Scene",
            "nodes" : [
                0,
                1
            ]
        }
    ],
    "nodes" : [
        {
            "mesh" : 0,
            "name" : "Stone2.002 - copy.008",
            "rotation" : [
                0,
                -0.592706561088562,
                0,
                0.8054184913635254
            ],
            "scale" : [
                0.5900910496711731,
                1.2017102241516113,
                0.5900910496711731
            ],
            "translation" : [
                15.241198539733887,
                -0.09337639808654785,
                -49.65070343017578
            ]
        },
        {
            "mesh" : 1,
            "name" : "Stone3 - copy.003",
            "rotation" : [
                0,
                -0.3496667146682739,
                0,
                0.9368741512298584
            ],
            "scale" : [
                0.5178056955337524,
                0.37787768244743347,
                0.5178056955337524
            ],
            "translation" : [
                12.538846015930176,
                -0.08214353024959564,
                -63.52375793457031
            ]
        }
    ],
    "materials" : [
        {
            "doubleSided" : true,
            "name" : "stone.006",
            "pbrMetallicRoughness" : {
                "baseColorTexture" : {
                    "index" : 0
                },
                "metallicFactor" : 0,
                "roughnessFactor" : 0.800000011920929
            }
        },
        {
            "doubleSided" : true,
            "name" : "stone.007",
            "pbrMetallicRoughness" : {
                "baseColorTexture" : {
                    "index" : 1
                },
                "metallicFactor" : 0,
                "roughnessFactor" : 0.800000011920929
            }
        }
    ],
    "meshes" : [
        {
            "name" : "Icosphere.015",
            "primitives" : [
                {
                    "attributes" : {
                        "POSITION" : 0,
                        "NORMAL" : 1,
                        "TEXCOORD_0" : 2
                    },
                    "indices" : 3,
                    "material" : 0
                }
            ]
        },
        {
            "name" : "Icosphere.016",
            "primitives" : [
                {
                    "attributes" : {
                        "POSITION" : 4,
                        "NORMAL" : 5,
                        "TEXCOORD_0" : 6
                    },
                    "indices" : 3,
                    "material" : 1
                }
            ]
        }
    ],
    "textures" : [
        {
            "sampler" : 0,
            "source" : 0
        },
        {
            "sampler" : 0,
            "source" : 0
        }
    ],
    "images" : [
        {
            "bufferView" : 4,
            "mimeType" : "image/jpeg",
            "name" : "Stone_tex_color"
        }
    ],
    "accessors" : [
        {
            "bufferView" : 0,
            "componentType" : 5126,
            "count" : 120,
            "max" : [
                1.7375872135162354,
                1.1523711681365967,
                1.5007516145706177
            ],
            "min" : [
                -1.4273018836975098,
                -0.1143156886100769,
                -1.5007516145706177
            ],
            "type" : "VEC3"
        },
        {
            "bufferView" : 1,
            "componentType" : 5126,
            "count" : 120,
            "type" : "VEC3"
        },
        {
            "bufferView" : 2,
            "componentType" : 5126,
            "count" : 120,
            "type" : "VEC2"
        },
        {
            "bufferView" : 3,
            "componentType" : 5123,
            "count" : 120,
            "type" : "SCALAR"
        },
        {
            "bufferView" : 5,
            "componentType" : 5126,
            "count" : 120,
            "max" : [
                1.7375872135162354,
                1.1523711681365967,
                1.5007516145706177
            ],
            "min" : [
                -1.4273018836975098,
                -0.1143156886100769,
                -1.5007516145706177
            ],
            "type" : "VEC3"
        },
        {
            "bufferView" : 6,
            "componentType" : 5126,
            "count" : 120,
            "type" : "VEC3"
        },
        {
            "bufferView" : 7,
            "componentType" : 5126,
            "count" : 120,
            "type" : "VEC2"
        }
    ],
    "bufferViews" : [
        {
            "buffer" : 0,
            "byteLength" : 1440,
            "byteOffset" : 0
        },
        {
            "buffer" : 0,
            "byteLength" : 1440,
            "byteOffset" : 1440
        },
        {
            "buffer" : 0,
            "byteLength" : 960,
            "byteOffset" : 2880
        },
        {
            "buffer" : 0,
            "byteLength" : 240,
            "byteOffset" : 3840
        },
        {
            "buffer" : 0,
            "byteLength" : 974,
            "byteOffset" : 4080
        },
        {
            "buffer" : 0,
            "byteLength" : 1440,
            "byteOffset" : 5056
        },
        {
            "buffer" : 0,
            "byteLength" : 1440,
            "byteOffset" : 6496
        },
        {
            "buffer" : 0,
            "byteLength" : 960,
            "byteOffset" : 7936
        }
    ],
    "samplers" : [
        {
            "magFilter" : 9729,
            "minFilter" : 9987
        }
    ],
    "buffers" : [
        {
            "byteLength" : 8896,
            "uri" : "data:application/octet-stream;base64,"
        }
    ]
}
