{
    "asset" : {
        "generator" : "Khronos glTF Blender I/O v1.6.16",
        "version" : "2.0"
    },
    "scene" : 0,
    "scenes" : [
        {
            "name" : "Scene",
            "nodes" : [
                0,
                1
            ]
        }
    ],
    "nodes" : [
        {
            "mesh" : 0,
            "name" : "Stone4 - copy.003",
            "rotation" : [
                0,
                0.1723766028881073,
                0,
                0.9850311279296875
            ],
            "scale" : [
                0.5710387229919434,
                0.5710387229919434,
                0.5710387229919434
            ],
            "translation" : [
                -63.51676940917969,
                -0.08929329365491867,
                -2.4325547218322754
            ]
        },
        {
            "mesh" : 1,
            "name" : "Stone3 - copy.006",
            "rotation" : [
                0,
                0.9937899112701416,
                0,
                0.11127276718616486
            ],
            "scale" : [
                0.32543131709098816,
                0.23748914897441864,
                0.32543131709098816
            ],
            "translation" : [
                -61.9871826171875,
                -0.050573330372571945,
                -9.101487159729004
            ]
        }
    ],
    "materials" : [
        {
            "doubleSided" : true,
            "name" : "stone.008",
            "pbrMetallicRoughness" : {
                "baseColorTexture" : {
                    "index" : 0
                },
                "metallicFactor" : 0,
                "roughnessFactor" : 0.800000011920929
            }
        },
        {
            "doubleSided" : true,
            "name" : "stone.007",
            "pbrMetallicRoughness" : {
                "baseColorTexture" : {
                    "index" : 1
                },
                "metallicFactor" : 0,
                "roughnessFactor" : 0.800000011920929
            }
        }
    ],
    "meshes" : [
        {
            "name" : "Icosphere.017",
            "primitives" : [
                {
                    "attributes" : {
                        "POSITION" : 0,
                        "NORMAL" : 1,
                        "TEXCOORD_0" : 2
                    },
                    "indices" : 3,
                    "material" : 0
                }
            ]
        },
        {
            "name" : "Icosphere.016",
            "primitives" : [
                {
                    "attributes" : {
                        "POSITION" : 4,
                        "NORMAL" : 5,
                        "TEXCOORD_0" : 6
                    },
                    "indices" : 7,
                    "material" : 1
                }
            ]
        }
    ],
    "textures" : [
        {
            "sampler" : 0,
            "source" : 0
        },
        {
            "sampler" : 0,
            "source" : 0
        }
    ],
    "images" : [
        {
            "bufferView" : 4,
            "mimeType" : "image/jpeg",
            "name" : "Stone_tex_color"
        }
    ],
    "accessors" : [
        {
            "bufferView" : 0,
            "componentType" : 5126,
            "count" : 120,
            "max" : [
                1.7876229286193848,
                1.7896262407302856,
                1.8293511867523193
            ],
            "min" : [
                -2.001349925994873,
                -0.07626844197511673,
                -1.5114936828613281
            ],
            "type" : "VEC3"
        },
        {
            "bufferView" : 1,
            "componentType" : 5126,
            "count" : 120,
            "type" : "VEC3"
        },
        {
            "bufferView" : 2,
            "componentType" : 5126,
            "count" : 120,
            "type" : "VEC2"
        },
        {
            "bufferView" : 3,
            "componentType" : 5123,
            "count" : 120,
            "type" : "SCALAR"
        },
        {
            "bufferView" : 5,
            "componentType" : 5126,
            "count" : 120,
            "max" : [
                1.7375872135162354,
                1.1523711681365967,
                1.5007516145706177
            ],
            "min" : [
                -1.4273018836975098,
                -0.1143156886100769,
                -1.5007516145706177
            ],
            "type" : "VEC3"
        },
        {
            "bufferView" : 6,
            "componentType" : 5126,
            "count" : 120,
            "type" : "VEC3"
        },
        {
            "bufferView" : 7,
            "componentType" : 5126,
            "count" : 120,
            "type" : "VEC2"
        },
        {
            "bufferView" : 8,
            "componentType" : 5123,
            "count" : 120,
            "type" : "SCALAR"
        }
    ],
    "bufferViews" : [
        {
            "buffer" : 0,
            "byteLength" : 1440,
            "byteOffset" : 0
        },
        {
            "buffer" : 0,
            "byteLength" : 1440,
            "byteOffset" : 1440
        },
        {
            "buffer" : 0,
            "byteLength" : 960,
            "byteOffset" : 2880
        },
        {
            "buffer" : 0,
            "byteLength" : 240,
            "byteOffset" : 3840
        },
        {
            "buffer" : 0,
            "byteLength" : 974,
            "byteOffset" : 4080
        },
        {
            "buffer" : 0,
            "byteLength" : 1440,
            "byteOffset" : 5056
        },
        {
            "buffer" : 0,
            "byteLength" : 1440,
            "byteOffset" : 6496
        },
        {
            "buffer" : 0,
            "byteLength" : 960,
            "byteOffset" : 7936
        },
        {
            "buffer" : 0,
            "byteLength" : 240,
            "byteOffset" : 8896
        }
    ],
    "samplers" : [
        {
            "magFilter" : 9729,
            "minFilter" : 9987
        }
    ],
    "buffers" : [
        {
            "byteLength" : 9136,
            "uri" : "data:application/octet-stream;base64,"
        }
    ]
}
