{
    "asset" : {
        "generator" : "Khronos glTF Blender I/O v1.6.16",
        "version" : "2.0"
    },
    "scene" : 0,
    "scenes" : [
        {
            "name" : "Scene",
            "nodes" : [
                0,
                1,
                2
            ]
        }
    ],
    "nodes" : [
        {
            "mesh" : 0,
            "name" : "Stone1.004 - copy.007",
            "rotation" : [
                0,
                -0.8291033506393433,
                0,
                0.5590953826904297
            ],
            "scale" : [
                0.4512711763381958,
                0.4512711465358734,
                0.4512711763381958
            ],
            "translation" : [
                38.01693344116211,
                -0.07136799395084381,
                -47.84576416015625
            ]
        },
        {
            "mesh" : 1,
            "name" : "Stone4 - copy.005",
            "rotation" : [
                0,
                -0.23593972623348236,
                0,
                0.9717676639556885
            ],
            "scale" : [
                0.5167125463485718,
                0.5167125463485718,
                0.5167125463485718
            ],
            "translation" : [
                39.601478576660156,
                -0.08181273192167282,
                -49.343711853027344
            ]
        },
        {
            "mesh" : 2,
            "name" : "Stone2.002 - copy.007",
            "rotation" : [
                0,
                0.5365293622016907,
                0,
                0.8438816666603088
            ],
            "scale" : [
                0.5469234585762024,
                1.1138001680374146,
                0.5469234585762024
            ],
            "translation" : [
                30.933698654174805,
                -0.08647699654102325,
                -47.05757141113281
            ]
        }
    ],
    "materials" : [
        {
            "doubleSided" : true,
            "name" : "stone.005",
            "pbrMetallicRoughness" : {
                "baseColorTexture" : {
                    "index" : 0
                },
                "metallicFactor" : 0,
                "roughnessFactor" : 0.800000011920929
            }
        },
        {
            "doubleSided" : true,
            "name" : "stone.008",
            "pbrMetallicRoughness" : {
                "baseColorTexture" : {
                    "index" : 1
                },
                "metallicFactor" : 0,
                "roughnessFactor" : 0.800000011920929
            }
        },
        {
            "doubleSided" : true,
            "name" : "stone.006",
            "pbrMetallicRoughness" : {
                "baseColorTexture" : {
                    "index" : 2
                },
                "metallicFactor" : 0,
                "roughnessFactor" : 0.800000011920929
            }
        }
    ],
    "meshes" : [
        {
            "name" : "Icosphere.014",
            "primitives" : [
                {
                    "attributes" : {
                        "POSITION" : 0,
                        "NORMAL" : 1,
                        "TEXCOORD_0" : 2,
                        "TEXCOORD_1" : 3
                    },
                    "indices" : 4,
                    "material" : 0
                }
            ]
        },
        {
            "name" : "Icosphere.017",
            "primitives" : [
                {
                    "attributes" : {
                        "POSITION" : 5,
                        "NORMAL" : 6,
                        "TEXCOORD_0" : 7
                    },
                    "indices" : 8,
                    "material" : 1
                }
            ]
        },
        {
            "name" : "Icosphere.015",
            "primitives" : [
                {
                    "attributes" : {
                        "POSITION" : 9,
                        "NORMAL" : 10,
                        "TEXCOORD_0" : 11
                    },
                    "indices" : 12,
                    "material" : 2
                }
            ]
        }
    ],
    "textures" : [
        {
            "sampler" : 0,
            "source" : 0
        },
        {
            "sampler" : 0,
            "source" : 0
        },
        {
            "sampler" : 0,
            "source" : 0
        }
    ],
    "images" : [
        {
            "bufferView" : 5,
            "mimeType" : "image/jpeg",
            "name" : "Stone_tex_color"
        }
    ],
    "accessors" : [
        {
            "bufferView" : 0,
            "componentType" : 5126,
            "count" : 120,
            "max" : [
                1.7375872135162354,
                1.6848909854888916,
                1.5007516145706177
            ],
            "min" : [
                -1.4725807905197144,
                -0.1143156886100769,
                -1.5007516145706177
            ],
            "type" : "VEC3"
        },
        {
            "bufferView" : 1,
            "componentType" : 5126,
            "count" : 120,
            "type" : "VEC3"
        },
        {
            "bufferView" : 2,
            "componentType" : 5126,
            "count" : 120,
            "type" : "VEC2"
        },
        {
            "bufferView" : 3,
            "componentType" : 5126,
            "count" : 120,
            "type" : "VEC2"
        },
        {
            "bufferView" : 4,
            "componentType" : 5123,
            "count" : 120,
            "type" : "SCALAR"
        },
        {
            "bufferView" : 6,
            "componentType" : 5126,
            "count" : 120,
            "max" : [
                1.7876229286193848,
                1.7896262407302856,
                1.8293511867523193
            ],
            "min" : [
                -2.001349925994873,
                -0.07626844197511673,
                -1.5114936828613281
            ],
            "type" : "VEC3"
        },
        {
            "bufferView" : 7,
            "componentType" : 5126,
            "count" : 120,
            "type" : "VEC3"
        },
        {
            "bufferView" : 8,
            "componentType" : 5126,
            "count" : 120,
            "type" : "VEC2"
        },
        {
            "bufferView" : 9,
            "componentType" : 5123,
            "count" : 120,
            "type" : "SCALAR"
        },
        {
            "bufferView" : 10,
            "componentType" : 5126,
            "count" : 120,
            "max" : [
                1.7375872135162354,
                1.1523711681365967,
                1.5007516145706177
            ],
            "min" : [
                -1.4273018836975098,
                -0.1143156886100769,
                -1.5007516145706177
            ],
            "type" : "VEC3"
        },
        {
            "bufferView" : 11,
            "componentType" : 5126,
            "count" : 120,
            "type" : "VEC3"
        },
        {
            "bufferView" : 12,
            "componentType" : 5126,
            "count" : 120,
            "type" : "VEC2"
        },
        {
            "bufferView" : 13,
            "componentType" : 5123,
            "count" : 120,
            "type" : "SCALAR"
        }
    ],
    "bufferViews" : [
        {
            "buffer" : 0,
            "byteLength" : 1440,
            "byteOffset" : 0
        },
        {
            "buffer" : 0,
            "byteLength" : 1440,
            "byteOffset" : 1440
        },
        {
            "buffer" : 0,
            "byteLength" : 960,
            "byteOffset" : 2880
        },
        {
            "buffer" : 0,
            "byteLength" : 960,
            "byteOffset" : 3840
        },
        {
            "buffer" : 0,
            "byteLength" : 240,
            "byteOffset" : 4800
        },
        {
            "buffer" : 0,
            "byteLength" : 974,
            "byteOffset" : 5040
        },
        {
            "buffer" : 0,
            "byteLength" : 1440,
            "byteOffset" : 6016
        },
        {
            "buffer" : 0,
            "byteLength" : 1440,
            "byteOffset" : 7456
        },
        {
            "buffer" : 0,
            "byteLength" : 960,
            "byteOffset" : 8896
        },
        {
            "buffer" : 0,
            "byteLength" : 240,
            "byteOffset" : 9856
        },
        {
            "buffer" : 0,
            "byteLength" : 1440,
            "byteOffset" : 10096
        },
        {
            "buffer" : 0,
            "byteLength" : 1440,
            "byteOffset" : 11536
        },
        {
            "buffer" : 0,
            "byteLength" : 960,
            "byteOffset" : 12976
        },
        {
            "buffer" : 0,
            "byteLength" : 240,
            "byteOffset" : 13936
        }
    ],
    "samplers" : [
        {
            "magFilter" : 9729,
            "minFilter" : 9987
        }
    ],
    "buffers" : [
        {
            "byteLength" : 14176,
            "uri" : "data:application/octet-stream;base64,"
        }
    ]
}
