{
    "asset" : {
        "generator" : "Khronos glTF Blender I/O v1.6.16",
        "version" : "2.0"
    },
    "scene" : 0,
    "scenes" : [
        {
            "name" : "Scene",
            "nodes" : [
                0,
                1
            ]
        }
    ],
    "nodes" : [
        {
            "mesh" : 0,
            "name" : "Stone3 - copy.002",
            "rotation" : [
                0,
                -0.6861603260040283,
                0,
                0.727450430393219
            ],
            "scale" : [
                0.5800571441650391,
                0.42330676317214966,
                0.5800571441650391
            ],
            "translation" : [
                70.76234436035156,
                -0.09208977222442627,
                -16.975175857543945
            ]
        },
        {
            "mesh" : 0,
            "name" : "Stone3 - copy.007",
            "rotation" : [
                -0.10139775276184082,
                -0.5681313276290894,
                0.006695488467812538,
                0.8166397213935852
            ],
            "scale" : [
                0.5748241543769836,
                0.42822301387786865,
                0.5756576657295227
            ],
            "translation" : [
                54.51286315917969,
                0.6553614139556885,
                -0.8945662975311279
            ]
        }
    ],
    "materials" : [
        {
            "doubleSided" : true,
            "name" : "stone.007",
            "pbrMetallicRoughness" : {
                "baseColorTexture" : {
                    "index" : 0
                },
                "metallicFactor" : 0,
                "roughnessFactor" : 0.800000011920929
            }
        }
    ],
    "meshes" : [
        {
            "name" : "Icosphere.016",
            "primitives" : [
                {
                    "attributes" : {
                        "POSITION" : 0,
                        "NORMAL" : 1,
                        "TEXCOORD_0" : 2
                    },
                    "indices" : 3,
                    "material" : 0
                }
            ]
        }
    ],
    "textures" : [
        {
            "sampler" : 0,
            "source" : 0
        }
    ],
    "images" : [
        {
            "bufferView" : 4,
            "mimeType" : "image/jpeg",
            "name" : "Stone_tex_color"
        }
    ],
    "accessors" : [
        {
            "bufferView" : 0,
            "componentType" : 5126,
            "count" : 120,
            "max" : [
                1.7375872135162354,
                1.1523711681365967,
                1.5007516145706177
            ],
            "min" : [
                -1.4273018836975098,
                -0.1143156886100769,
                -1.5007516145706177
            ],
            "type" : "VEC3"
        },
        {
            "bufferView" : 1,
            "componentType" : 5126,
            "count" : 120,
            "type" : "VEC3"
        },
        {
            "bufferView" : 2,
            "componentType" : 5126,
            "count" : 120,
            "type" : "VEC2"
        },
        {
            "bufferView" : 3,
            "componentType" : 5123,
            "count" : 120,
            "type" : "SCALAR"
        }
    ],
    "bufferViews" : [
        {
            "buffer" : 0,
            "byteLength" : 1440,
            "byteOffset" : 0
        },
        {
            "buffer" : 0,
            "byteLength" : 1440,
            "byteOffset" : 1440
        },
        {
            "buffer" : 0,
            "byteLength" : 960,
            "byteOffset" : 2880
        },
        {
            "buffer" : 0,
            "byteLength" : 240,
            "byteOffset" : 3840
        },
        {
            "buffer" : 0,
            "byteLength" : 974,
            "byteOffset" : 4080
        }
    ],
    "samplers" : [
        {
            "magFilter" : 9729,
            "minFilter" : 9987
        }
    ],
    "buffers" : [
        {
            "byteLength" : 5056,
            "uri" : "data:application/octet-stream;base64,"
        }
    ]
}
