{
    "asset" : {
        "generator" : "Khronos glTF Blender I/O v1.6.16",
        "version" : "2.0"
    },
    "scene" : 0,
    "scenes" : [
        {
            "name" : "Scene",
            "nodes" : [
                0,
                1
            ]
        }
    ],
    "nodes" : [
        {
            "mesh" : 0,
            "name" : "Stone4 - copy.006",
            "rotation" : [
                0,
                -0.8079412579536438,
                0,
                0.5892630219459534
            ],
            "scale" : [
                0.603977382183075,
                0.6039774417877197,
                0.603977382183075
            ],
            "translation" : [
                63.71091842651367,
                -0.09589789807796478,
                -36.41099166870117
            ]
        },
        {
            "mesh" : 0,
            "name" : "Stone4 - copy.008",
            "rotation" : [
                -0.00016715808305889368,
                -0.9690716862678528,
                4.3133368308190256e-05,
                0.24677933752536774
            ],
            "scale" : [
                0.4631803631782532,
                0.4631803035736084,
                0.4631803333759308
            ],
            "translation" : [
                62.97834777832031,
                -0.07343362271785736,
                -30.696508407592773
            ]
        }
    ],
    "materials" : [
        {
            "doubleSided" : true,
            "name" : "stone.008",
            "pbrMetallicRoughness" : {
                "baseColorTexture" : {
                    "index" : 0
                },
                "metallicFactor" : 0,
                "roughnessFactor" : 0.800000011920929
            }
        }
    ],
    "meshes" : [
        {
            "name" : "Icosphere.017",
            "primitives" : [
                {
                    "attributes" : {
                        "POSITION" : 0,
                        "NORMAL" : 1,
                        "TEXCOORD_0" : 2
                    },
                    "indices" : 3,
                    "material" : 0
                }
            ]
        }
    ],
    "textures" : [
        {
            "sampler" : 0,
            "source" : 0
        }
    ],
    "images" : [
        {
            "bufferView" : 4,
            "mimeType" : "image/jpeg",
            "name" : "Stone_tex_color"
        }
    ],
    "accessors" : [
        {
            "bufferView" : 0,
            "componentType" : 5126,
            "count" : 120,
            "max" : [
                1.7876229286193848,
                1.7896262407302856,
                1.8293511867523193
            ],
            "min" : [
                -2.001349925994873,
                -0.07626844197511673,
                -1.5114936828613281
            ],
            "type" : "VEC3"
        },
        {
            "bufferView" : 1,
            "componentType" : 5126,
            "count" : 120,
            "type" : "VEC3"
        },
        {
            "bufferView" : 2,
            "componentType" : 5126,
            "count" : 120,
            "type" : "VEC2"
        },
        {
            "bufferView" : 3,
            "componentType" : 5123,
            "count" : 120,
            "type" : "SCALAR"
        }
    ],
    "bufferViews" : [
        {
            "buffer" : 0,
            "byteLength" : 1440,
            "byteOffset" : 0
        },
        {
            "buffer" : 0,
            "byteLength" : 1440,
            "byteOffset" : 1440
        },
        {
            "buffer" : 0,
            "byteLength" : 960,
            "byteOffset" : 2880
        },
        {
            "buffer" : 0,
            "byteLength" : 240,
            "byteOffset" : 3840
        },
        {
            "buffer" : 0,
            "byteLength" : 974,
            "byteOffset" : 4080
        }
    ],
    "samplers" : [
        {
            "magFilter" : 9729,
            "minFilter" : 9987
        }
    ],
    "buffers" : [
        {
            "byteLength" : 5056,
            "uri" : "data:application/octet-stream;base64,"
        }
    ]
}
