{
    "asset" : {
        "generator" : "Khronos glTF Blender I/O v1.6.16",
        "version" : "2.0"
    },
    "scene" : 0,
    "scenes" : [
        {
            "name" : "Scene",
            "nodes" : [
                0,
                1
            ]
        }
    ],
    "nodes" : [
        {
            "mesh" : 0,
            "name" : "Stone1.004 - copy.005",
            "rotation" : [
                0,
                0.9577775597572327,
                0,
                0.28751033544540405
            ],
            "scale" : [
                0.3936593234539032,
                0.3936592936515808,
                0.3936593234539032
            ],
            "translation" : [
                -9.175228118896484,
                -0.06229449436068535,
                -50.471710205078125
            ]
        },
        {
            "mesh" : 1,
            "name" : "Stone4 - copy.007",
            "rotation" : [
                -0.00016330128710251302,
                -0.3243362009525299,
                5.599128780886531e-05,
                0.9459418654441833
            ],
            "scale" : [
                0.5406345725059509,
                0.5406345725059509,
                0.5406345725059509
            ],
            "translation" : [
                5.468409061431885,
                -0.08565466850996017,
                -57.1741943359375
            ]
        }
    ],
    "materials" : [
        {
            "doubleSided" : true,
            "name" : "stone.005",
            "pbrMetallicRoughness" : {
                "baseColorTexture" : {
                    "index" : 0
                },
                "metallicFactor" : 0,
                "roughnessFactor" : 0.800000011920929
            }
        },
        {
            "doubleSided" : true,
            "name" : "stone.008",
            "pbrMetallicRoughness" : {
                "baseColorTexture" : {
                    "index" : 1
                },
                "metallicFactor" : 0,
                "roughnessFactor" : 0.800000011920929
            }
        }
    ],
    "meshes" : [
        {
            "name" : "Icosphere.014",
            "primitives" : [
                {
                    "attributes" : {
                        "POSITION" : 0,
                        "NORMAL" : 1,
                        "TEXCOORD_0" : 2,
                        "TEXCOORD_1" : 3
                    },
                    "indices" : 4,
                    "material" : 0
                }
            ]
        },
        {
            "name" : "Icosphere.017",
            "primitives" : [
                {
                    "attributes" : {
                        "POSITION" : 5,
                        "NORMAL" : 6,
                        "TEXCOORD_0" : 7
                    },
                    "indices" : 8,
                    "material" : 1
                }
            ]
        }
    ],
    "textures" : [
        {
            "sampler" : 0,
            "source" : 0
        },
        {
            "sampler" : 0,
            "source" : 0
        }
    ],
    "images" : [
        {
            "bufferView" : 5,
            "mimeType" : "image/jpeg",
            "name" : "Stone_tex_color"
        }
    ],
    "accessors" : [
        {
            "bufferView" : 0,
            "componentType" : 5126,
            "count" : 120,
            "max" : [
                1.7375872135162354,
                1.6848909854888916,
                1.5007516145706177
            ],
            "min" : [
                -1.4725807905197144,
                -0.1143156886100769,
                -1.5007516145706177
            ],
            "type" : "VEC3"
        },
        {
            "bufferView" : 1,
            "componentType" : 5126,
            "count" : 120,
            "type" : "VEC3"
        },
        {
            "bufferView" : 2,
            "componentType" : 5126,
            "count" : 120,
            "type" : "VEC2"
        },
        {
            "bufferView" : 3,
            "componentType" : 5126,
            "count" : 120,
            "type" : "VEC2"
        },
        {
            "bufferView" : 4,
            "componentType" : 5123,
            "count" : 120,
            "type" : "SCALAR"
        },
        {
            "bufferView" : 6,
            "componentType" : 5126,
            "count" : 120,
            "max" : [
                1.7876229286193848,
                1.7896262407302856,
                1.8293511867523193
            ],
            "min" : [
                -2.001349925994873,
                -0.07626844197511673,
                -1.5114936828613281
            ],
            "type" : "VEC3"
        },
        {
            "bufferView" : 7,
            "componentType" : 5126,
            "count" : 120,
            "type" : "VEC3"
        },
        {
            "bufferView" : 8,
            "componentType" : 5126,
            "count" : 120,
            "type" : "VEC2"
        },
        {
            "bufferView" : 9,
            "componentType" : 5123,
            "count" : 120,
            "type" : "SCALAR"
        }
    ],
    "bufferViews" : [
        {
            "buffer" : 0,
            "byteLength" : 1440,
            "byteOffset" : 0
        },
        {
            "buffer" : 0,
            "byteLength" : 1440,
            "byteOffset" : 1440
        },
        {
            "buffer" : 0,
            "byteLength" : 960,
            "byteOffset" : 2880
        },
        {
            "buffer" : 0,
            "byteLength" : 960,
            "byteOffset" : 3840
        },
        {
            "buffer" : 0,
            "byteLength" : 240,
            "byteOffset" : 4800
        },
        {
            "buffer" : 0,
            "byteLength" : 974,
            "byteOffset" : 5040
        },
        {
            "buffer" : 0,
            "byteLength" : 1440,
            "byteOffset" : 6016
        },
        {
            "buffer" : 0,
            "byteLength" : 1440,
            "byteOffset" : 7456
        },
        {
            "buffer" : 0,
            "byteLength" : 960,
            "byteOffset" : 8896
        },
        {
            "buffer" : 0,
            "byteLength" : 240,
            "byteOffset" : 9856
        }
    ],
    "samplers" : [
        {
            "magFilter" : 9729,
            "minFilter" : 9987
        }
    ],
    "buffers" : [
        {
            "byteLength" : 10096,
            "uri" : "data:application/octet-stream;base64,"
        }
    ]
}
