{
    "asset" : {
        "generator" : "Khronos glTF Blender I/O v1.6.16",
        "version" : "2.0"
    },
    "scene" : 0,
    "scenes" : [
        {
            "name" : "Scene",
            "nodes" : [
                0
            ]
        }
    ],
    "nodes" : [
        {
            "mesh" : 0,
            "name" : "Icosphere.001",
            "rotation" : [
                0.5079063773155212,
                0.40095674991607666,
                -0.1716848909854889,
                0.7428250908851624
            ],
            "scale" : [
                0.676245927810669,
                0.7466759085655212,
                0.9741570353507996
            ],
            "translation" : [
                -2.722022771835327,
                -0.8627104759216309,
                -2.5664749145507812
            ]
        }
    ],
    "materials" : [
        {
            "doubleSided" : true,
            "name" : "Stone_Mat",
            "pbrMetallicRoughness" : {
                "baseColorTexture" : {
                    "index" : 0
                },
                "metallicFactor" : 0,
                "roughnessFactor" : 0.5
            }
        }
    ],
    "meshes" : [
        {
            "name" : "Icosphere.001",
            "primitives" : [
                {
                    "attributes" : {
                        "POSITION" : 0,
                        "NORMAL" : 1,
                        "TEXCOORD_0" : 2
                    },
                    "indices" : 3,
                    "material" : 0
                }
            ]
        }
    ],
    "textures" : [
        {
            "sampler" : 0,
            "source" : 0
        }
    ],
    "images" : [
        {
            "bufferView" : 4,
            "mimeType" : "image/png",
            "name" : "Stone_Tex"
        }
    ],
    "accessors" : [
        {
            "bufferView" : 0,
            "componentType" : 5126,
            "count" : 312,
            "max" : [
                3.050661087036133,
                7.67803955078125,
                1.8412851095199585
            ],
            "min" : [
                -2.2198450565338135,
                -0.8716815710067749,
                -1.633260726928711
            ],
            "type" : "VEC3"
        },
        {
            "bufferView" : 1,
            "componentType" : 5126,
            "count" : 312,
            "type" : "VEC3"
        },
        {
            "bufferView" : 2,
            "componentType" : 5126,
            "count" : 312,
            "type" : "VEC2"
        },
        {
            "bufferView" : 3,
            "componentType" : 5123,
            "count" : 312,
            "type" : "SCALAR"
        }
    ],
    "bufferViews" : [
        {
            "buffer" : 0,
            "byteLength" : 3744,
            "byteOffset" : 0
        },
        {
            "buffer" : 0,
            "byteLength" : 3744,
            "byteOffset" : 3744
        },
        {
            "buffer" : 0,
            "byteLength" : 2496,
            "byteOffset" : 7488
        },
        {
            "buffer" : 0,
            "byteLength" : 624,
            "byteOffset" : 9984
        },
        {
            "buffer" : 0,
            "byteLength" : 142,
            "byteOffset" : 10608
        }
    ],
    "samplers" : [
        {
            "magFilter" : 9729,
            "minFilter" : 9987
        }
    ],
    "buffers" : [
        {
            "byteLength" : 10752,
            "uri" : "data:application/octet-stream;base64,"
        }
    ]
}
