{
    "asset" : {
        "generator" : "Khronos glTF Blender I/O v1.6.16",
        "version" : "2.0"
    },
    "scene" : 0,
    "scenes" : [
        {
            "name" : "Scene",
            "nodes" : [
                0,
                1,
                2
            ]
        }
    ],
    "nodes" : [
        {
            "mesh" : 0,
            "name" : "Box",
            "rotation" : [
                0,
                0.7042027711868286,
                0,
                0.7099989056587219
            ],
            "scale" : [
                0.2767013609409332,
                0.9149556756019592,
                0.2767013609409332
            ],
            "translation" : [
                -28.31914520263672,
                0.9084729552268982,
                25.75252342224121
            ]
        },
        {
            "mesh" : 1,
            "name" : "Body",
            "translation" : [
                -28.316869735717773,
                0.8711132407188416,
                25.72028350830078
            ]
        },
        {
            "mesh" : 2,
            "name" : "Cone",
            "translation" : [
                -28.316869735717773,
                1.654305100440979,
                25.65485382080078
            ]
        }
    ],
    "materials" : [
        {
            "doubleSided" : true,
            "name" : "BodyMat.006",
            "pbrMetallicRoughness" : {
                "baseColorTexture" : {
                    "index" : 0
                },
                "metallicFactor" : 0,
                "roughnessFactor" : 0.5
            }
        },
        {
            "doubleSided" : true,
            "name" : "Hat.003",
            "pbrMetallicRoughness" : {
                "baseColorFactor" : [
                    0,
                    1,
                    0.9348045587539673,
                    1
                ],
                "metallicFactor" : 0,
                "roughnessFactor" : 0.8999999761581421
            }
        }
    ],
    "meshes" : [
        {
            "name" : "Cube.012",
            "primitives" : [
                {
                    "attributes" : {
                        "POSITION" : 0,
                        "NORMAL" : 1,
                        "TEXCOORD_0" : 2
                    },
                    "indices" : 3
                }
            ]
        },
        {
            "name" : "Body.006",
            "primitives" : [
                {
                    "attributes" : {
                        "POSITION" : 4,
                        "NORMAL" : 5,
                        "TEXCOORD_0" : 6
                    },
                    "indices" : 7,
                    "material" : 0
                }
            ]
        },
        {
            "name" : "Cone",
            "primitives" : [
                {
                    "attributes" : {
                        "POSITION" : 8,
                        "NORMAL" : 9,
                        "TEXCOORD_0" : 10
                    },
                    "indices" : 11,
                    "material" : 1
                }
            ]
        }
    ],
    "textures" : [
        {
            "sampler" : 0,
            "source" : 0
        }
    ],
    "images" : [
        {
            "bufferView" : 8,
            "mimeType" : "image/jpeg",
            "name" : "BaseHuman_tex_color"
        }
    ],
    "accessors" : [
        {
            "bufferView" : 0,
            "componentType" : 5126,
            "count" : 24,
            "max" : [
                1,
                1,
                1
            ],
            "min" : [
                -1,
                -1,
                -1
            ],
            "type" : "VEC3"
        },
        {
            "bufferView" : 1,
            "componentType" : 5126,
            "count" : 24,
            "type" : "VEC3"
        },
        {
            "bufferView" : 2,
            "componentType" : 5126,
            "count" : 24,
            "type" : "VEC2"
        },
        {
            "bufferView" : 3,
            "componentType" : 5123,
            "count" : 36,
            "type" : "SCALAR"
        },
        {
            "bufferView" : 4,
            "componentType" : 5126,
            "count" : 4402,
            "max" : [
                0.25563332438468933,
                0.762944221496582,
                0.1684722602367401
            ],
            "min" : [
                -0.2548990249633789,
                -0.8598222732543945,
                -0.1056826114654541
            ],
            "type" : "VEC3"
        },
        {
            "bufferView" : 5,
            "componentType" : 5126,
            "count" : 4402,
            "type" : "VEC3"
        },
        {
            "bufferView" : 6,
            "componentType" : 5126,
            "count" : 4402,
            "type" : "VEC2"
        },
        {
            "bufferView" : 7,
            "componentType" : 5123,
            "count" : 6618,
            "type" : "SCALAR"
        },
        {
            "bufferView" : 9,
            "componentType" : 5126,
            "count" : 64,
            "max" : [
                0.11509232223033905,
                0.062060318887233734,
                0.1678922474384308
            ],
            "min" : [
                -0.11509232223033905,
                -0.1678922474384308,
                -0.11658243089914322
            ],
            "type" : "VEC3"
        },
        {
            "bufferView" : 10,
            "componentType" : 5126,
            "count" : 64,
            "type" : "VEC3"
        },
        {
            "bufferView" : 11,
            "componentType" : 5126,
            "count" : 64,
            "type" : "VEC2"
        },
        {
            "bufferView" : 12,
            "componentType" : 5123,
            "count" : 90,
            "type" : "SCALAR"
        }
    ],
    "bufferViews" : [
        {
            "buffer" : 0,
            "byteLength" : 288,
            "byteOffset" : 0
        },
        {
            "buffer" : 0,
            "byteLength" : 288,
            "byteOffset" : 288
        },
        {
            "buffer" : 0,
            "byteLength" : 192,
            "byteOffset" : 576
        },
        {
            "buffer" : 0,
            "byteLength" : 72,
            "byteOffset" : 768
        },
        {
            "buffer" : 0,
            "byteLength" : 52824,
            "byteOffset" : 840
        },
        {
            "buffer" : 0,
            "byteLength" : 52824,
            "byteOffset" : 53664
        },
        {
            "buffer" : 0,
            "byteLength" : 35216,
            "byteOffset" : 106488
        },
        {
            "buffer" : 0,
            "byteLength" : 13236,
            "byteOffset" : 141704
        },
        {
            "buffer" : 0,
            "byteLength" : 28800,
            "byteOffset" : 154940
        },
        {
            "buffer" : 0,
            "byteLength" : 768,
            "byteOffset" : 183740
        },
        {
            "buffer" : 0,
            "byteLength" : 768,
            "byteOffset" : 184508
        },
        {
            "buffer" : 0,
            "byteLength" : 512,
            "byteOffset" : 185276
        },
        {
            "buffer" : 0,
            "byteLength" : 180,
            "byteOffset" : 185788
        }
    ],
    "samplers" : [
        {
            "magFilter" : 9729,
            "minFilter" : 9987
        }
    ],
    "buffers" : [
        {
            "byteLength" : 185968,
            "uri" : "data:application/octet-stream;base64,"
        }
    ]
}
