{
    "asset" : {
        "generator" : "Khronos glTF Blender I/O v1.6.16",
        "version" : "2.0"
    },
    "scene" : 0,
    "scenes" : [
        {
            "name" : "Scene",
            "nodes" : [
                0,
                1,
                2,
                3,
                4,
                5,
                6,
                7,
                8,
                9,
                10,
                11,
                12,
                13,
                14,
                15
            ]
        }
    ],
    "nodes" : [
        {
            "mesh" : 0,
            "name" : "Beechtree3 - copy.022",
            "rotation" : [
                0,
                -0.05562300980091095,
                0,
                0.9984519481658936
            ],
            "scale" : [
                0.2893655300140381,
                0.2893655300140381,
                0.2893655300140381
            ],
            "translation" : [
                65.17832946777344,
                2.3687195777893066,
                12.764583587646484
            ]
        },
        {
            "mesh" : 0,
            "name" : "Beechtree3 - copy.036",
            "rotation" : [
                0,
                -0.8636539578437805,
                0,
                0.5040851831436157
            ],
            "scale" : [
                0.36417660117149353,
                0.36417657136917114,
                0.36417660117149353
            ],
            "translation" : [
                47.06687545776367,
                3.7332546710968018,
                20.8753719329834
            ]
        },
        {
            "mesh" : 0,
            "name" : "Beechtree3 - copy.042",
            "rotation" : [
                0,
                0.9793924689292908,
                0,
                0.2019662857055664
            ],
            "scale" : [
                0.3383558690547943,
                0.3383558690547943,
                0.3383558690547943
            ],
            "translation" : [
                47.93694305419922,
                3.6803624629974365,
                18.945404052734375
            ]
        },
        {
            "mesh" : 0,
            "name" : "Beechtree3 - copy.044",
            "rotation" : [
                0,
                -0.0005586139159277081,
                0,
                1
            ],
            "scale" : [
                0.3197944462299347,
                0.3197944462299347,
                0.3197944462299347
            ],
            "translation" : [
                56.30766677856445,
                2.4509570598602295,
                10.787696838378906
            ]
        },
        {
            "mesh" : 1,
            "name" : "BirchTree2 - copy.002",
            "rotation" : [
                0,
                -0.5635947585105896,
                0,
                0.8260514140129089
            ],
            "scale" : [
                0.9871503710746765,
                0.9871503710746765,
                0.9871503710746765
            ],
            "translation" : [
                70.9242172241211,
                2.621919631958008,
                20.788040161132812
            ]
        },
        {
            "mesh" : 1,
            "name" : "BirchTree2 - copy.025",
            "rotation" : [
                0,
                0.9997041821479797,
                0,
                0.024325672537088394
            ],
            "scale" : [
                1.240817666053772,
                1.2408177852630615,
                1.240817666053772
            ],
            "translation" : [
                56.994789123535156,
                4.437278747558594,
                22.844945907592773
            ]
        },
        {
            "mesh" : 1,
            "name" : "BirchTree2 - copy.034",
            "rotation" : [
                0,
                0.653571367263794,
                0,
                0.7568649053573608
            ],
            "scale" : [
                1.1743526458740234,
                1.1743525266647339,
                1.1743526458740234
            ],
            "translation" : [
                57.21151351928711,
                2.9726853370666504,
                16.454679489135742
            ]
        },
        {
            "mesh" : 2,
            "name" : "Beechtree2 - copy.013",
            "rotation" : [
                0,
                0.6146976351737976,
                0,
                0.7887628674507141
            ],
            "scale" : [
                0.7057802677154541,
                0.7057803273200989,
                0.7057802677154541
            ],
            "translation" : [
                61.68344497680664,
                3.298065185546875,
                21.3953857421875
            ]
        },
        {
            "mesh" : 2,
            "name" : "Beechtree2 - copy.015",
            "rotation" : [
                0,
                -0.23188020288944244,
                0,
                0.9727444648742676
            ],
            "scale" : [
                0.503596305847168,
                0.503596305847168,
                0.503596305847168
            ],
            "translation" : [
                54.94483947753906,
                3.538530111312866,
                17.817121505737305
            ]
        },
        {
            "mesh" : 2,
            "name" : "Beechtree2 - copy.028",
            "rotation" : [
                0,
                -0.17665958404541016,
                0,
                0.9842720031738281
            ],
            "scale" : [
                0.5499147772789001,
                0.5499147772789001,
                0.5499147772789001
            ],
            "translation" : [
                45.418697357177734,
                2.622537612915039,
                13.545612335205078
            ]
        },
        {
            "mesh" : 2,
            "name" : "Beechtree2 - copy.036",
            "rotation" : [
                0,
                0.5296624898910522,
                0,
                0.8482086062431335
            ],
            "scale" : [
                0.5986531972885132,
                0.598653256893158,
                0.5986531972885132
            ],
            "translation" : [
                59.71198272705078,
                2.512716054916382,
                11.979418754577637
            ]
        },
        {
            "mesh" : 3,
            "name" : "BirchTree1 - copy.021",
            "rotation" : [
                -0.00015906247426755726,
                -0.3886444568634033,
                6.709303852403536e-05,
                0.9213879108428955
            ],
            "scale" : [
                0.8022722601890564,
                0.8022722601890564,
                0.802272379398346
            ],
            "translation" : [
                63.95293426513672,
                2.7267050743103027,
                18.43405532836914
            ]
        },
        {
            "mesh" : 4,
            "name" : "Beechtree1 - copy.010",
            "rotation" : [
                0,
                0.801501452922821,
                0,
                0.5979928374290466
            ],
            "scale" : [
                1.0893220901489258,
                1.0893220901489258,
                1.0893220901489258
            ],
            "translation" : [
                58.96821212768555,
                2.5560555458068848,
                12.311141014099121
            ]
        },
        {
            "mesh" : 4,
            "name" : "Beechtree1 - copy.015",
            "rotation" : [
                0,
                0.9365095496177673,
                0,
                0.3506423532962799
            ],
            "scale" : [
                1.0744976997375488,
                1.0744975805282593,
                1.0744976997375488
            ],
            "translation" : [
                52.490806579589844,
                3.762871265411377,
                18.803022384643555
            ]
        },
        {
            "mesh" : 5,
            "name" : "BirchTree3 - copy.012",
            "rotation" : [
                0,
                -0.020557712763547897,
                0,
                0.999788761138916
            ],
            "scale" : [
                0.6291835904121399,
                0.6291835904121399,
                0.6291835904121399
            ],
            "translation" : [
                62.942893981933594,
                2.7416679859161377,
                18.158910751342773
            ]
        },
        {
            "mesh" : 5,
            "name" : "BirchTree3 - copy.022",
            "rotation" : [
                0,
                -0.922188401222229,
                0,
                0.38674095273017883
            ],
            "scale" : [
                0.7297335267066956,
                0.7297335863113403,
                0.7297335267066956
            ],
            "translation" : [
                44.537330627441406,
                3.2073333263397217,
                23.7889347076416
            ]
        }
    ],
    "materials" : [
        {
            "doubleSided" : true,
            "name" : "Material.005",
            "pbrMetallicRoughness" : {
                "baseColorTexture" : {
                    "index" : 0
                },
                "metallicFactor" : 0,
                "roughnessFactor" : 0.800000011920929
            }
        },
        {
            "doubleSided" : true,
            "name" : "Material",
            "pbrMetallicRoughness" : {
                "baseColorTexture" : {
                    "index" : 1
                },
                "metallicFactor" : 0,
                "roughnessFactor" : 0.800000011920929
            }
        },
        {
            "doubleSided" : true,
            "name" : "Material.004",
            "pbrMetallicRoughness" : {
                "baseColorTexture" : {
                    "index" : 2
                },
                "metallicFactor" : 0,
                "roughnessFactor" : 0.800000011920929
            }
        },
        {
            "doubleSided" : true,
            "name" : "Material.006",
            "pbrMetallicRoughness" : {
                "baseColorTexture" : {
                    "index" : 3
                },
                "metallicFactor" : 0,
                "roughnessFactor" : 0.800000011920929
            }
        },
        {
            "doubleSided" : true,
            "name" : "Material.002",
            "pbrMetallicRoughness" : {
                "baseColorTexture" : {
                    "index" : 4
                },
                "metallicFactor" : 0,
                "roughnessFactor" : 0.800000011920929
            }
        },
        {
            "doubleSided" : true,
            "name" : "Material.007",
            "pbrMetallicRoughness" : {
                "baseColorTexture" : {
                    "index" : 5
                },
                "metallicFactor" : 0,
                "roughnessFactor" : 0.800000011920929
            }
        }
    ],
    "meshes" : [
        {
            "name" : "Icosphere.005",
            "primitives" : [
                {
                    "attributes" : {
                        "POSITION" : 0,
                        "NORMAL" : 1,
                        "TEXCOORD_0" : 2
                    },
                    "indices" : 3,
                    "material" : 0
                }
            ]
        },
        {
            "name" : "Cylinder.005",
            "primitives" : [
                {
                    "attributes" : {
                        "POSITION" : 4,
                        "NORMAL" : 5,
                        "TEXCOORD_0" : 6
                    },
                    "indices" : 7,
                    "material" : 1
                }
            ]
        },
        {
            "name" : "Icosphere",
            "primitives" : [
                {
                    "attributes" : {
                        "POSITION" : 8,
                        "NORMAL" : 9,
                        "TEXCOORD_0" : 10
                    },
                    "indices" : 11,
                    "material" : 2
                }
            ]
        },
        {
            "name" : "Icosphere.006",
            "primitives" : [
                {
                    "attributes" : {
                        "POSITION" : 12,
                        "NORMAL" : 13,
                        "TEXCOORD_0" : 14,
                        "TEXCOORD_1" : 15
                    },
                    "indices" : 16,
                    "material" : 3
                }
            ]
        },
        {
            "name" : "Icosphere.002",
            "primitives" : [
                {
                    "attributes" : {
                        "POSITION" : 17,
                        "NORMAL" : 18,
                        "TEXCOORD_0" : 19
                    },
                    "indices" : 20,
                    "material" : 4
                }
            ]
        },
        {
            "name" : "Cylinder.003",
            "primitives" : [
                {
                    "attributes" : {
                        "POSITION" : 21,
                        "NORMAL" : 22,
                        "TEXCOORD_0" : 23
                    },
                    "indices" : 24,
                    "material" : 5
                }
            ]
        }
    ],
    "textures" : [
        {
            "sampler" : 0,
            "source" : 0
        },
        {
            "sampler" : 0,
            "source" : 1
        },
        {
            "sampler" : 0,
            "source" : 0
        },
        {
            "sampler" : 0,
            "source" : 1
        },
        {
            "sampler" : 0,
            "source" : 0
        },
        {
            "sampler" : 0,
            "source" : 1
        }
    ],
    "images" : [
        {
            "bufferView" : 4,
            "mimeType" : "image/jpeg",
            "name" : "Beech_tex_color"
        },
        {
            "bufferView" : 9,
            "mimeType" : "image/jpeg",
            "name" : "Birch_tex_color"
        }
    ],
    "accessors" : [
        {
            "bufferView" : 0,
            "componentType" : 5126,
            "count" : 580,
            "max" : [
                5.816786289215088,
                28.602691650390625,
                6.131758213043213
            ],
            "min" : [
                -6.046873092651367,
                -0.16627120971679688,
                -7.614912986755371
            ],
            "type" : "VEC3"
        },
        {
            "bufferView" : 1,
            "componentType" : 5126,
            "count" : 580,
            "type" : "VEC3"
        },
        {
            "bufferView" : 2,
            "componentType" : 5126,
            "count" : 580,
            "type" : "VEC2"
        },
        {
            "bufferView" : 3,
            "componentType" : 5123,
            "count" : 774,
            "type" : "SCALAR"
        },
        {
            "bufferView" : 5,
            "componentType" : 5126,
            "count" : 940,
            "max" : [
                1.275496244430542,
                8.485307693481445,
                1.6763262748718262
            ],
            "min" : [
                -1.3961012363433838,
                -0.06585884094238281,
                -1.1216269731521606
            ],
            "type" : "VEC3"
        },
        {
            "bufferView" : 6,
            "componentType" : 5126,
            "count" : 940,
            "type" : "VEC3"
        },
        {
            "bufferView" : 7,
            "componentType" : 5126,
            "count" : 940,
            "type" : "VEC2"
        },
        {
            "bufferView" : 8,
            "componentType" : 5123,
            "count" : 1248,
            "type" : "SCALAR"
        },
        {
            "bufferView" : 10,
            "componentType" : 5126,
            "count" : 760,
            "max" : [
                2.261857748031616,
                14.679696083068848,
                4.055979251861572
            ],
            "min" : [
                -2.4170753955841064,
                -0.09157752990722656,
                -3.046373128890991
            ],
            "type" : "VEC3"
        },
        {
            "bufferView" : 11,
            "componentType" : 5126,
            "count" : 760,
            "type" : "VEC3"
        },
        {
            "bufferView" : 12,
            "componentType" : 5126,
            "count" : 760,
            "type" : "VEC2"
        },
        {
            "bufferView" : 13,
            "componentType" : 5123,
            "count" : 912,
            "type" : "SCALAR"
        },
        {
            "bufferView" : 14,
            "componentType" : 5126,
            "count" : 288,
            "max" : [
                1.3358663320541382,
                9.315340042114258,
                1.5081089735031128
            ],
            "min" : [
                -1.5255900621414185,
                -0.0977025032043457,
                -1.6310895681381226
            ],
            "type" : "VEC3"
        },
        {
            "bufferView" : 15,
            "componentType" : 5126,
            "count" : 288,
            "type" : "VEC3"
        },
        {
            "bufferView" : 16,
            "componentType" : 5126,
            "count" : 288,
            "type" : "VEC2"
        },
        {
            "bufferView" : 17,
            "componentType" : 5126,
            "count" : 288,
            "type" : "VEC2"
        },
        {
            "bufferView" : 18,
            "componentType" : 5123,
            "count" : 312,
            "type" : "SCALAR"
        },
        {
            "bufferView" : 19,
            "componentType" : 5126,
            "count" : 384,
            "max" : [
                1.800423502922058,
                9.331818580627441,
                1.833976149559021
            ],
            "min" : [
                -1.8296607732772827,
                -0.11003637313842773,
                -1.9873806238174438
            ],
            "type" : "VEC3"
        },
        {
            "bufferView" : 20,
            "componentType" : 5126,
            "count" : 384,
            "type" : "VEC3"
        },
        {
            "bufferView" : 21,
            "componentType" : 5126,
            "count" : 384,
            "type" : "VEC2"
        },
        {
            "bufferView" : 22,
            "componentType" : 5123,
            "count" : 456,
            "type" : "SCALAR"
        },
        {
            "bufferView" : 23,
            "componentType" : 5126,
            "count" : 750,
            "max" : [
                1.9103279113769531,
                11.068337440490723,
                1.8740370273590088
            ],
            "min" : [
                -2.1908364295959473,
                0.007267951965332031,
                -2.0946812629699707
            ],
            "type" : "VEC3"
        },
        {
            "bufferView" : 24,
            "componentType" : 5126,
            "count" : 750,
            "type" : "VEC3"
        },
        {
            "bufferView" : 25,
            "componentType" : 5126,
            "count" : 750,
            "type" : "VEC2"
        },
        {
            "bufferView" : 26,
            "componentType" : 5123,
            "count" : 960,
            "type" : "SCALAR"
        }
    ],
    "bufferViews" : [
        {
            "buffer" : 0,
            "byteLength" : 6960,
            "byteOffset" : 0
        },
        {
            "buffer" : 0,
            "byteLength" : 6960,
            "byteOffset" : 6960
        },
        {
            "buffer" : 0,
            "byteLength" : 4640,
            "byteOffset" : 13920
        },
        {
            "buffer" : 0,
            "byteLength" : 1548,
            "byteOffset" : 18560
        },
        {
            "buffer" : 0,
            "byteLength" : 2365,
            "byteOffset" : 20108
        },
        {
            "buffer" : 0,
            "byteLength" : 11280,
            "byteOffset" : 22476
        },
        {
            "buffer" : 0,
            "byteLength" : 11280,
            "byteOffset" : 33756
        },
        {
            "buffer" : 0,
            "byteLength" : 7520,
            "byteOffset" : 45036
        },
        {
            "buffer" : 0,
            "byteLength" : 2496,
            "byteOffset" : 52556
        },
        {
            "buffer" : 0,
            "byteLength" : 3524,
            "byteOffset" : 55052
        },
        {
            "buffer" : 0,
            "byteLength" : 9120,
            "byteOffset" : 58576
        },
        {
            "buffer" : 0,
            "byteLength" : 9120,
            "byteOffset" : 67696
        },
        {
            "buffer" : 0,
            "byteLength" : 6080,
            "byteOffset" : 76816
        },
        {
            "buffer" : 0,
            "byteLength" : 1824,
            "byteOffset" : 82896
        },
        {
            "buffer" : 0,
            "byteLength" : 3456,
            "byteOffset" : 84720
        },
        {
            "buffer" : 0,
            "byteLength" : 3456,
            "byteOffset" : 88176
        },
        {
            "buffer" : 0,
            "byteLength" : 2304,
            "byteOffset" : 91632
        },
        {
            "buffer" : 0,
            "byteLength" : 2304,
            "byteOffset" : 93936
        },
        {
            "buffer" : 0,
            "byteLength" : 624,
            "byteOffset" : 96240
        },
        {
            "buffer" : 0,
            "byteLength" : 4608,
            "byteOffset" : 96864
        },
        {
            "buffer" : 0,
            "byteLength" : 4608,
            "byteOffset" : 101472
        },
        {
            "buffer" : 0,
            "byteLength" : 3072,
            "byteOffset" : 106080
        },
        {
            "buffer" : 0,
            "byteLength" : 912,
            "byteOffset" : 109152
        },
        {
            "buffer" : 0,
            "byteLength" : 9000,
            "byteOffset" : 110064
        },
        {
            "buffer" : 0,
            "byteLength" : 9000,
            "byteOffset" : 119064
        },
        {
            "buffer" : 0,
            "byteLength" : 6000,
            "byteOffset" : 128064
        },
        {
            "buffer" : 0,
            "byteLength" : 1920,
            "byteOffset" : 134064
        }
    ],
    "samplers" : [
        {
            "magFilter" : 9729,
            "minFilter" : 9987
        }
    ],
    "buffers" : [
        {
            "byteLength" : 135984,
            "uri" : "data:application/octet-stream;base64,"
        }
    ]
}
