{
    "asset" : {
        "generator" : "Khronos glTF Blender I/O v1.6.16",
        "version" : "2.0"
    },
    "scene" : 0,
    "scenes" : [
        {
            "name" : "Scene",
            "nodes" : [
                0,
                1,
                2,
                3,
                4,
                5,
                6,
                7,
                8,
                9
            ]
        }
    ],
    "nodes" : [
        {
            "mesh" : 0,
            "name" : "Beechtree3 - copy.018",
            "rotation" : [
                0,
                0.6570906043052673,
                0,
                0.7538115978240967
            ],
            "scale" : [
                0.3832445442676544,
                0.3832445740699768,
                0.3832445442676544
            ],
            "translation" : [
                52.29752731323242,
                0.0003035549889318645,
                -37.752342224121094
            ]
        },
        {
            "mesh" : 0,
            "name" : "Beechtree3 - copy.032",
            "rotation" : [
                -5.0433627620805055e-05,
                -0.2921428382396698,
                -0.0001651022903388366,
                0.9563747048377991
            ],
            "scale" : [
                0.40370678901672363,
                0.403706818819046,
                0.403706818819046
            ],
            "translation" : [
                56.402626037597656,
                0.00014206742343958467,
                -41.52695846557617
            ]
        },
        {
            "mesh" : 1,
            "name" : "BirchTree2 - copy.014",
            "rotation" : [
                0.0001561506069265306,
                0.9045209884643555,
                -7.361597818089649e-05,
                0.42642906308174133
            ],
            "scale" : [
                1.1912416219711304,
                1.1912415027618408,
                1.1912415027618408
            ],
            "translation" : [
                48.43281555175781,
                0.00022638833615928888,
                -44.16447448730469
            ]
        },
        {
            "mesh" : 1,
            "name" : "BirchTree2 - copy.039",
            "rotation" : [
                0,
                -0.9469939470291138,
                0,
                0.32125139236450195
            ],
            "scale" : [
                1.2819058895111084,
                1.2819057703018188,
                1.2819058895111084
            ],
            "translation" : [
                32.388023376464844,
                0.0005615785485133529,
                -36.99700927734375
            ]
        },
        {
            "mesh" : 2,
            "name" : "BirchTree1 - copy.042",
            "rotation" : [
                0,
                0.9952324032783508,
                0,
                0.09753298759460449
            ],
            "scale" : [
                0.9582324624061584,
                0.9582325220108032,
                0.9582324624061584
            ],
            "translation" : [
                45.80080795288086,
                0.0004585876304190606,
                -34.67189025878906
            ]
        },
        {
            "mesh" : 3,
            "name" : "Beechtree1 - copy.012",
            "rotation" : [
                0,
                -0.997002899646759,
                0,
                0.07736402750015259
            ],
            "scale" : [
                1.1745494604110718,
                1.1745495796203613,
                1.1745494604110718
            ],
            "translation" : [
                64.01325988769531,
                8.434061601292342e-05,
                -31.54107666015625
            ]
        },
        {
            "mesh" : 3,
            "name" : "Beechtree1 - copy.040",
            "rotation" : [
                0,
                0.9914141297340393,
                0,
                0.13075941801071167
            ],
            "scale" : [
                0.9353581070899963,
                0.9353581070899963,
                0.9353581070899963
            ],
            "translation" : [
                34.065269470214844,
                0.0006382439169101417,
                -32.70934295654297
            ]
        },
        {
            "mesh" : 4,
            "name" : "BirchTree3 - copy.017",
            "rotation" : [
                0,
                -0.9723175168037415,
                0,
                0.23366394639015198
            ],
            "scale" : [
                0.7763310670852661,
                0.7763310670852661,
                0.7763310670852661
            ],
            "translation" : [
                48.47157669067383,
                0.00021688250126317143,
                -44.60049057006836
            ]
        },
        {
            "mesh" : 4,
            "name" : "BirchTree3 - copy.034",
            "rotation" : [
                0,
                -0.47808539867401123,
                0,
                0.8783134818077087
            ],
            "scale" : [
                0.7679171562194824,
                0.7679171562194824,
                0.7679171562194824
            ],
            "translation" : [
                57.497493743896484,
                0.00020936290093231946,
                -35.02791213989258
            ]
        },
        {
            "mesh" : 3,
            "name" : "Beechtree1 - copy.046",
            "rotation" : [
                -7.440191984642297e-05,
                -0.9023606777191162,
                0.00015577768499497324,
                0.43098190426826477
            ],
            "scale" : [
                0.9741100072860718,
                0.9741098880767822,
                0.974109947681427
            ],
            "translation" : [
                48.73039627075195,
                0.0001098884386010468,
                -49.63022232055664
            ]
        }
    ],
    "materials" : [
        {
            "doubleSided" : true,
            "name" : "Material.005",
            "pbrMetallicRoughness" : {
                "baseColorTexture" : {
                    "index" : 0
                },
                "metallicFactor" : 0,
                "roughnessFactor" : 0.800000011920929
            }
        },
        {
            "doubleSided" : true,
            "name" : "Material",
            "pbrMetallicRoughness" : {
                "baseColorTexture" : {
                    "index" : 1
                },
                "metallicFactor" : 0,
                "roughnessFactor" : 0.800000011920929
            }
        },
        {
            "doubleSided" : true,
            "name" : "Material.006",
            "pbrMetallicRoughness" : {
                "baseColorTexture" : {
                    "index" : 2
                },
                "metallicFactor" : 0,
                "roughnessFactor" : 0.800000011920929
            }
        },
        {
            "doubleSided" : true,
            "name" : "Material.002",
            "pbrMetallicRoughness" : {
                "baseColorTexture" : {
                    "index" : 3
                },
                "metallicFactor" : 0,
                "roughnessFactor" : 0.800000011920929
            }
        },
        {
            "doubleSided" : true,
            "name" : "Material.007",
            "pbrMetallicRoughness" : {
                "baseColorTexture" : {
                    "index" : 4
                },
                "metallicFactor" : 0,
                "roughnessFactor" : 0.800000011920929
            }
        }
    ],
    "meshes" : [
        {
            "name" : "Icosphere.005",
            "primitives" : [
                {
                    "attributes" : {
                        "POSITION" : 0,
                        "NORMAL" : 1,
                        "TEXCOORD_0" : 2
                    },
                    "indices" : 3,
                    "material" : 0
                }
            ]
        },
        {
            "name" : "Cylinder.005",
            "primitives" : [
                {
                    "attributes" : {
                        "POSITION" : 4,
                        "NORMAL" : 5,
                        "TEXCOORD_0" : 6
                    },
                    "indices" : 7,
                    "material" : 1
                }
            ]
        },
        {
            "name" : "Icosphere.006",
            "primitives" : [
                {
                    "attributes" : {
                        "POSITION" : 8,
                        "NORMAL" : 9,
                        "TEXCOORD_0" : 10,
                        "TEXCOORD_1" : 11
                    },
                    "indices" : 12,
                    "material" : 2
                }
            ]
        },
        {
            "name" : "Icosphere.002",
            "primitives" : [
                {
                    "attributes" : {
                        "POSITION" : 13,
                        "NORMAL" : 14,
                        "TEXCOORD_0" : 15
                    },
                    "indices" : 16,
                    "material" : 3
                }
            ]
        },
        {
            "name" : "Cylinder.003",
            "primitives" : [
                {
                    "attributes" : {
                        "POSITION" : 17,
                        "NORMAL" : 18,
                        "TEXCOORD_0" : 19
                    },
                    "indices" : 20,
                    "material" : 4
                }
            ]
        }
    ],
    "textures" : [
        {
            "sampler" : 0,
            "source" : 0
        },
        {
            "sampler" : 0,
            "source" : 1
        },
        {
            "sampler" : 0,
            "source" : 1
        },
        {
            "sampler" : 0,
            "source" : 0
        },
        {
            "sampler" : 0,
            "source" : 1
        }
    ],
    "images" : [
        {
            "bufferView" : 4,
            "mimeType" : "image/jpeg",
            "name" : "Beech_tex_color"
        },
        {
            "bufferView" : 9,
            "mimeType" : "image/jpeg",
            "name" : "Birch_tex_color"
        }
    ],
    "accessors" : [
        {
            "bufferView" : 0,
            "componentType" : 5126,
            "count" : 580,
            "max" : [
                5.816786289215088,
                28.602691650390625,
                6.131758213043213
            ],
            "min" : [
                -6.046873092651367,
                -0.16627120971679688,
                -7.614912986755371
            ],
            "type" : "VEC3"
        },
        {
            "bufferView" : 1,
            "componentType" : 5126,
            "count" : 580,
            "type" : "VEC3"
        },
        {
            "bufferView" : 2,
            "componentType" : 5126,
            "count" : 580,
            "type" : "VEC2"
        },
        {
            "bufferView" : 3,
            "componentType" : 5123,
            "count" : 774,
            "type" : "SCALAR"
        },
        {
            "bufferView" : 5,
            "componentType" : 5126,
            "count" : 940,
            "max" : [
                1.275496244430542,
                8.485307693481445,
                1.6763262748718262
            ],
            "min" : [
                -1.3961012363433838,
                -0.06585884094238281,
                -1.1216269731521606
            ],
            "type" : "VEC3"
        },
        {
            "bufferView" : 6,
            "componentType" : 5126,
            "count" : 940,
            "type" : "VEC3"
        },
        {
            "bufferView" : 7,
            "componentType" : 5126,
            "count" : 940,
            "type" : "VEC2"
        },
        {
            "bufferView" : 8,
            "componentType" : 5123,
            "count" : 1248,
            "type" : "SCALAR"
        },
        {
            "bufferView" : 10,
            "componentType" : 5126,
            "count" : 288,
            "max" : [
                1.3358663320541382,
                9.315340042114258,
                1.5081089735031128
            ],
            "min" : [
                -1.5255900621414185,
                -0.0977025032043457,
                -1.6310895681381226
            ],
            "type" : "VEC3"
        },
        {
            "bufferView" : 11,
            "componentType" : 5126,
            "count" : 288,
            "type" : "VEC3"
        },
        {
            "bufferView" : 12,
            "componentType" : 5126,
            "count" : 288,
            "type" : "VEC2"
        },
        {
            "bufferView" : 13,
            "componentType" : 5126,
            "count" : 288,
            "type" : "VEC2"
        },
        {
            "bufferView" : 14,
            "componentType" : 5123,
            "count" : 312,
            "type" : "SCALAR"
        },
        {
            "bufferView" : 15,
            "componentType" : 5126,
            "count" : 384,
            "max" : [
                1.800423502922058,
                9.331818580627441,
                1.833976149559021
            ],
            "min" : [
                -1.8296607732772827,
                -0.11003637313842773,
                -1.9873806238174438
            ],
            "type" : "VEC3"
        },
        {
            "bufferView" : 16,
            "componentType" : 5126,
            "count" : 384,
            "type" : "VEC3"
        },
        {
            "bufferView" : 17,
            "componentType" : 5126,
            "count" : 384,
            "type" : "VEC2"
        },
        {
            "bufferView" : 18,
            "componentType" : 5123,
            "count" : 456,
            "type" : "SCALAR"
        },
        {
            "bufferView" : 19,
            "componentType" : 5126,
            "count" : 750,
            "max" : [
                1.9103279113769531,
                11.068337440490723,
                1.8740370273590088
            ],
            "min" : [
                -2.1908364295959473,
                0.007267951965332031,
                -2.0946812629699707
            ],
            "type" : "VEC3"
        },
        {
            "bufferView" : 20,
            "componentType" : 5126,
            "count" : 750,
            "type" : "VEC3"
        },
        {
            "bufferView" : 21,
            "componentType" : 5126,
            "count" : 750,
            "type" : "VEC2"
        },
        {
            "bufferView" : 22,
            "componentType" : 5123,
            "count" : 960,
            "type" : "SCALAR"
        }
    ],
    "bufferViews" : [
        {
            "buffer" : 0,
            "byteLength" : 6960,
            "byteOffset" : 0
        },
        {
            "buffer" : 0,
            "byteLength" : 6960,
            "byteOffset" : 6960
        },
        {
            "buffer" : 0,
            "byteLength" : 4640,
            "byteOffset" : 13920
        },
        {
            "buffer" : 0,
            "byteLength" : 1548,
            "byteOffset" : 18560
        },
        {
            "buffer" : 0,
            "byteLength" : 2365,
            "byteOffset" : 20108
        },
        {
            "buffer" : 0,
            "byteLength" : 11280,
            "byteOffset" : 22476
        },
        {
            "buffer" : 0,
            "byteLength" : 11280,
            "byteOffset" : 33756
        },
        {
            "buffer" : 0,
            "byteLength" : 7520,
            "byteOffset" : 45036
        },
        {
            "buffer" : 0,
            "byteLength" : 2496,
            "byteOffset" : 52556
        },
        {
            "buffer" : 0,
            "byteLength" : 3524,
            "byteOffset" : 55052
        },
        {
            "buffer" : 0,
            "byteLength" : 3456,
            "byteOffset" : 58576
        },
        {
            "buffer" : 0,
            "byteLength" : 3456,
            "byteOffset" : 62032
        },
        {
            "buffer" : 0,
            "byteLength" : 2304,
            "byteOffset" : 65488
        },
        {
            "buffer" : 0,
            "byteLength" : 2304,
            "byteOffset" : 67792
        },
        {
            "buffer" : 0,
            "byteLength" : 624,
            "byteOffset" : 70096
        },
        {
            "buffer" : 0,
            "byteLength" : 4608,
            "byteOffset" : 70720
        },
        {
            "buffer" : 0,
            "byteLength" : 4608,
            "byteOffset" : 75328
        },
        {
            "buffer" : 0,
            "byteLength" : 3072,
            "byteOffset" : 79936
        },
        {
            "buffer" : 0,
            "byteLength" : 912,
            "byteOffset" : 83008
        },
        {
            "buffer" : 0,
            "byteLength" : 9000,
            "byteOffset" : 83920
        },
        {
            "buffer" : 0,
            "byteLength" : 9000,
            "byteOffset" : 92920
        },
        {
            "buffer" : 0,
            "byteLength" : 6000,
            "byteOffset" : 101920
        },
        {
            "buffer" : 0,
            "byteLength" : 1920,
            "byteOffset" : 107920
        }
    ],
    "samplers" : [
        {
            "magFilter" : 9729,
            "minFilter" : 9987
        }
    ],
    "buffers" : [
        {
            "byteLength" : 109840,
            "uri" : "data:application/octet-stream;base64,"
        }
    ]
}
