{
    "asset" : {
        "generator" : "Khronos glTF Blender I/O v1.6.16",
        "version" : "2.0"
    },
    "scene" : 0,
    "scenes" : [
        {
            "name" : "Scene",
            "nodes" : [
                0,
                1,
                2
            ]
        }
    ],
    "nodes" : [
        {
            "mesh" : 0,
            "name" : "Beechtree2 - copy.045",
            "rotation" : [
                0,
                -0.8924259543418884,
                0,
                0.4511941373348236
            ],
            "scale" : [
                0.6656078696250916,
                0.6656078100204468,
                0.6656078696250916
            ],
            "translation" : [
                -2.3439948558807373,
                -0.014267881400883198,
                14.265960693359375
            ]
        },
        {
            "mesh" : 1,
            "name" : "Beechtree3 - copy.045",
            "rotation" : [
                0,
                -0.7242487072944641,
                0,
                0.689538836479187
            ],
            "scale" : [
                0.3922140300273895,
                0.3922140598297119,
                0.3922140300273895
            ],
            "translation" : [
                -16.466032028198242,
                -0.010290192440152168,
                26.30946159362793
            ]
        },
        {
            "mesh" : 2,
            "name" : "BirchTree2 - copy.045",
            "rotation" : [
                0,
                -0.9552427530288696,
                0,
                0.2958231568336487
            ],
            "scale" : [
                1.3157087564468384,
                1.3157086372375488,
                1.3157087564468384
            ],
            "translation" : [
                -5.855803489685059,
                -0.15408633649349213,
                19.63713264465332
            ]
        }
    ],
    "materials" : [
        {
            "doubleSided" : true,
            "name" : "Material.004",
            "pbrMetallicRoughness" : {
                "baseColorTexture" : {
                    "index" : 0
                },
                "metallicFactor" : 0,
                "roughnessFactor" : 0.800000011920929
            }
        },
        {
            "doubleSided" : true,
            "name" : "Material.005",
            "pbrMetallicRoughness" : {
                "baseColorTexture" : {
                    "index" : 1
                },
                "metallicFactor" : 0,
                "roughnessFactor" : 0.800000011920929
            }
        },
        {
            "doubleSided" : true,
            "name" : "Material",
            "pbrMetallicRoughness" : {
                "baseColorTexture" : {
                    "index" : 2
                },
                "metallicFactor" : 0,
                "roughnessFactor" : 0.800000011920929
            }
        }
    ],
    "meshes" : [
        {
            "name" : "Icosphere",
            "primitives" : [
                {
                    "attributes" : {
                        "POSITION" : 0,
                        "NORMAL" : 1,
                        "TEXCOORD_0" : 2
                    },
                    "indices" : 3,
                    "material" : 0
                }
            ]
        },
        {
            "name" : "Icosphere.005",
            "primitives" : [
                {
                    "attributes" : {
                        "POSITION" : 4,
                        "NORMAL" : 5,
                        "TEXCOORD_0" : 6
                    },
                    "indices" : 7,
                    "material" : 1
                }
            ]
        },
        {
            "name" : "Cylinder.005",
            "primitives" : [
                {
                    "attributes" : {
                        "POSITION" : 8,
                        "NORMAL" : 9,
                        "TEXCOORD_0" : 10
                    },
                    "indices" : 11,
                    "material" : 2
                }
            ]
        }
    ],
    "textures" : [
        {
            "sampler" : 0,
            "source" : 0
        },
        {
            "sampler" : 0,
            "source" : 0
        },
        {
            "sampler" : 0,
            "source" : 1
        }
    ],
    "images" : [
        {
            "bufferView" : 4,
            "mimeType" : "image/jpeg",
            "name" : "Beech_tex_color"
        },
        {
            "bufferView" : 13,
            "mimeType" : "image/jpeg",
            "name" : "Birch_tex_color"
        }
    ],
    "accessors" : [
        {
            "bufferView" : 0,
            "componentType" : 5126,
            "count" : 760,
            "max" : [
                2.261857748031616,
                14.679696083068848,
                4.055979251861572
            ],
            "min" : [
                -2.4170753955841064,
                -0.09157752990722656,
                -3.046373128890991
            ],
            "type" : "VEC3"
        },
        {
            "bufferView" : 1,
            "componentType" : 5126,
            "count" : 760,
            "type" : "VEC3"
        },
        {
            "bufferView" : 2,
            "componentType" : 5126,
            "count" : 760,
            "type" : "VEC2"
        },
        {
            "bufferView" : 3,
            "componentType" : 5123,
            "count" : 912,
            "type" : "SCALAR"
        },
        {
            "bufferView" : 5,
            "componentType" : 5126,
            "count" : 580,
            "max" : [
                5.816786289215088,
                28.602691650390625,
                6.131758213043213
            ],
            "min" : [
                -6.046873092651367,
                -0.16627120971679688,
                -7.614912986755371
            ],
            "type" : "VEC3"
        },
        {
            "bufferView" : 6,
            "componentType" : 5126,
            "count" : 580,
            "type" : "VEC3"
        },
        {
            "bufferView" : 7,
            "componentType" : 5126,
            "count" : 580,
            "type" : "VEC2"
        },
        {
            "bufferView" : 8,
            "componentType" : 5123,
            "count" : 774,
            "type" : "SCALAR"
        },
        {
            "bufferView" : 9,
            "componentType" : 5126,
            "count" : 940,
            "max" : [
                1.275496244430542,
                8.485307693481445,
                1.6763262748718262
            ],
            "min" : [
                -1.3961012363433838,
                -0.06585884094238281,
                -1.1216269731521606
            ],
            "type" : "VEC3"
        },
        {
            "bufferView" : 10,
            "componentType" : 5126,
            "count" : 940,
            "type" : "VEC3"
        },
        {
            "bufferView" : 11,
            "componentType" : 5126,
            "count" : 940,
            "type" : "VEC2"
        },
        {
            "bufferView" : 12,
            "componentType" : 5123,
            "count" : 1248,
            "type" : "SCALAR"
        }
    ],
    "bufferViews" : [
        {
            "buffer" : 0,
            "byteLength" : 9120,
            "byteOffset" : 0
        },
        {
            "buffer" : 0,
            "byteLength" : 9120,
            "byteOffset" : 9120
        },
        {
            "buffer" : 0,
            "byteLength" : 6080,
            "byteOffset" : 18240
        },
        {
            "buffer" : 0,
            "byteLength" : 1824,
            "byteOffset" : 24320
        },
        {
            "buffer" : 0,
            "byteLength" : 2365,
            "byteOffset" : 26144
        },
        {
            "buffer" : 0,
            "byteLength" : 6960,
            "byteOffset" : 28512
        },
        {
            "buffer" : 0,
            "byteLength" : 6960,
            "byteOffset" : 35472
        },
        {
            "buffer" : 0,
            "byteLength" : 4640,
            "byteOffset" : 42432
        },
        {
            "buffer" : 0,
            "byteLength" : 1548,
            "byteOffset" : 47072
        },
        {
            "buffer" : 0,
            "byteLength" : 11280,
            "byteOffset" : 48620
        },
        {
            "buffer" : 0,
            "byteLength" : 11280,
            "byteOffset" : 59900
        },
        {
            "buffer" : 0,
            "byteLength" : 7520,
            "byteOffset" : 71180
        },
        {
            "buffer" : 0,
            "byteLength" : 2496,
            "byteOffset" : 78700
        },
        {
            "buffer" : 0,
            "byteLength" : 3524,
            "byteOffset" : 81196
        }
    ],
    "samplers" : [
        {
            "magFilter" : 9729,
            "minFilter" : 9987
        }
    ],
    "buffers" : [
        {
            "byteLength" : 84720,
            "uri" : "data:application/octet-stream;base64,"
        }
    ]
}
