{
    "asset" : {
        "generator" : "Khronos glTF Blender I/O v1.6.16",
        "version" : "2.0"
    },
    "scene" : 0,
    "scenes" : [
        {
            "name" : "Scene",
            "nodes" : [
                0
            ]
        }
    ],
    "nodes" : [
        {
            "mesh" : 0,
            "name" : "Trunk3 - copy.002",
            "rotation" : [
                -1.4585225471819285e-05,
                -0.9964246153831482,
                0.00017201625450979918,
                0.0844867005944252
            ],
            "scale" : [
                0.280708909034729,
                0.2807088792324066,
                0.280708909034729
            ],
            "translation" : [
                69.82233428955078,
                0.4336434006690979,
                3.9635090827941895
            ]
        }
    ],
    "materials" : [
        {
            "doubleSided" : true,
            "name" : "trunk.002",
            "pbrMetallicRoughness" : {
                "baseColorTexture" : {
                    "index" : 0
                },
                "metallicFactor" : 0,
                "roughnessFactor" : 0.800000011920929
            }
        }
    ],
    "meshes" : [
        {
            "name" : "Cylinder.010",
            "primitives" : [
                {
                    "attributes" : {
                        "POSITION" : 0,
                        "NORMAL" : 1,
                        "TEXCOORD_0" : 2
                    },
                    "indices" : 3,
                    "material" : 0
                }
            ]
        }
    ],
    "textures" : [
        {
            "sampler" : 0,
            "source" : 0
        }
    ],
    "images" : [
        {
            "bufferView" : 4,
            "mimeType" : "image/jpeg",
            "name" : "Trunk_tex_color"
        }
    ],
    "accessors" : [
        {
            "bufferView" : 0,
            "componentType" : 5126,
            "count" : 246,
            "max" : [
                0.6597827672958374,
                2.388444423675537,
                0.8050253391265869
            ],
            "min" : [
                -1.0601943731307983,
                -0.1258699893951416,
                -0.8050253391265869
            ],
            "type" : "VEC3"
        },
        {
            "bufferView" : 1,
            "componentType" : 5126,
            "count" : 246,
            "type" : "VEC3"
        },
        {
            "bufferView" : 2,
            "componentType" : 5126,
            "count" : 246,
            "type" : "VEC2"
        },
        {
            "bufferView" : 3,
            "componentType" : 5123,
            "count" : 390,
            "type" : "SCALAR"
        }
    ],
    "bufferViews" : [
        {
            "buffer" : 0,
            "byteLength" : 2952,
            "byteOffset" : 0
        },
        {
            "buffer" : 0,
            "byteLength" : 2952,
            "byteOffset" : 2952
        },
        {
            "buffer" : 0,
            "byteLength" : 1968,
            "byteOffset" : 5904
        },
        {
            "buffer" : 0,
            "byteLength" : 780,
            "byteOffset" : 7872
        },
        {
            "buffer" : 0,
            "byteLength" : 3410,
            "byteOffset" : 8652
        }
    ],
    "samplers" : [
        {
            "magFilter" : 9729,
            "minFilter" : 9987
        }
    ],
    "buffers" : [
        {
            "byteLength" : 12064,
            "uri" : "data:application/octet-stream;base64,"
        }
    ]
}
