{
    "asset" : {
        "generator" : "Khronos glTF Blender I/O v1.6.16",
        "version" : "2.0"
    },
    "scene" : 0,
    "scenes" : [
        {
            "name" : "Scene",
            "nodes" : [
                0,
                1,
                2,
                3
            ]
        }
    ],
    "nodes" : [
        {
            "mesh" : 0,
            "name" : "Trunk4 - copy.013",
            "rotation" : [
                0,
                0.03666970133781433,
                0,
                0.9993274211883545
            ],
            "scale" : [
                0.30339616537094116,
                0.30339616537094116,
                0.30339616537094116
            ],
            "translation" : [
                42.359657287597656,
                -0.0872235894203186,
                -29.576053619384766
            ]
        },
        {
            "mesh" : 0,
            "name" : "Trunk4 - copy.014",
            "rotation" : [
                0,
                -0.5549660325050354,
                0,
                0.8318729996681213
            ],
            "scale" : [
                0.32343700528144836,
                0.32343700528144836,
                0.32343700528144836
            ],
            "translation" : [
                45.771873474121094,
                -0.09339639544487,
                -45.286468505859375
            ]
        },
        {
            "mesh" : 1,
            "name" : "Trunk2 - copy.006",
            "rotation" : [
                0,
                0.8928502202033997,
                0,
                0.450353741645813
            ],
            "scale" : [
                0.3357194662094116,
                0.33571943640708923,
                0.3357194662094116
            ],
            "translation" : [
                41.25579071044922,
                -0.09656204283237457,
                -29.438459396362305
            ]
        },
        {
            "mesh" : 2,
            "name" : "Trunk3 - copy.011",
            "rotation" : [
                0,
                -0.48338067531585693,
                0,
                0.875410258769989
            ],
            "scale" : [
                0.3294411897659302,
                0.3294411897659302,
                0.3294411897659302
            ],
            "translation" : [
                38.94157028198242,
                -0.09503988921642303,
                -45.424102783203125
            ]
        }
    ],
    "materials" : [
        {
            "doubleSided" : true,
            "name" : "trunk.003",
            "pbrMetallicRoughness" : {
                "baseColorTexture" : {
                    "index" : 0
                },
                "metallicFactor" : 0,
                "roughnessFactor" : 0.800000011920929
            }
        },
        {
            "doubleSided" : true,
            "name" : "trunk.001",
            "pbrMetallicRoughness" : {
                "baseColorTexture" : {
                    "index" : 1
                },
                "metallicFactor" : 0,
                "roughnessFactor" : 0.800000011920929
            }
        },
        {
            "doubleSided" : true,
            "name" : "trunk.002",
            "pbrMetallicRoughness" : {
                "baseColorTexture" : {
                    "index" : 2
                },
                "metallicFactor" : 0,
                "roughnessFactor" : 0.800000011920929
            }
        }
    ],
    "meshes" : [
        {
            "name" : "Cylinder.011",
            "primitives" : [
                {
                    "attributes" : {
                        "POSITION" : 0,
                        "NORMAL" : 1,
                        "TEXCOORD_0" : 2
                    },
                    "indices" : 3,
                    "material" : 0
                }
            ]
        },
        {
            "name" : "Cylinder.009",
            "primitives" : [
                {
                    "attributes" : {
                        "POSITION" : 4,
                        "NORMAL" : 5,
                        "TEXCOORD_0" : 6
                    },
                    "indices" : 7,
                    "material" : 1
                }
            ]
        },
        {
            "name" : "Cylinder.010",
            "primitives" : [
                {
                    "attributes" : {
                        "POSITION" : 8,
                        "NORMAL" : 9,
                        "TEXCOORD_0" : 10
                    },
                    "indices" : 11,
                    "material" : 2
                }
            ]
        }
    ],
    "textures" : [
        {
            "sampler" : 0,
            "source" : 0
        },
        {
            "sampler" : 0,
            "source" : 0
        },
        {
            "sampler" : 0,
            "source" : 0
        }
    ],
    "images" : [
        {
            "bufferView" : 4,
            "mimeType" : "image/jpeg",
            "name" : "Trunk_tex_color"
        }
    ],
    "accessors" : [
        {
            "bufferView" : 0,
            "componentType" : 5126,
            "count" : 156,
            "max" : [
                0.8050253391265869,
                1.4097628593444824,
                0.8050253391265869
            ],
            "min" : [
                -0.8050253391265869,
                -0.1258699893951416,
                -0.8050253391265869
            ],
            "type" : "VEC3"
        },
        {
            "bufferView" : 1,
            "componentType" : 5126,
            "count" : 156,
            "type" : "VEC3"
        },
        {
            "bufferView" : 2,
            "componentType" : 5126,
            "count" : 156,
            "type" : "VEC2"
        },
        {
            "bufferView" : 3,
            "componentType" : 5123,
            "count" : 246,
            "type" : "SCALAR"
        },
        {
            "bufferView" : 5,
            "componentType" : 5126,
            "count" : 134,
            "max" : [
                0.8050253391265869,
                1.4841806888580322,
                0.8050253391265869
            ],
            "min" : [
                -0.8050253391265869,
                -0.1258699893951416,
                -0.8050253391265869
            ],
            "type" : "VEC3"
        },
        {
            "bufferView" : 6,
            "componentType" : 5126,
            "count" : 134,
            "type" : "VEC3"
        },
        {
            "bufferView" : 7,
            "componentType" : 5126,
            "count" : 134,
            "type" : "VEC2"
        },
        {
            "bufferView" : 8,
            "componentType" : 5123,
            "count" : 246,
            "type" : "SCALAR"
        },
        {
            "bufferView" : 9,
            "componentType" : 5126,
            "count" : 246,
            "max" : [
                0.6597827672958374,
                2.388444423675537,
                0.8050253391265869
            ],
            "min" : [
                -1.0601943731307983,
                -0.1258699893951416,
                -0.8050253391265869
            ],
            "type" : "VEC3"
        },
        {
            "bufferView" : 10,
            "componentType" : 5126,
            "count" : 246,
            "type" : "VEC3"
        },
        {
            "bufferView" : 11,
            "componentType" : 5126,
            "count" : 246,
            "type" : "VEC2"
        },
        {
            "bufferView" : 12,
            "componentType" : 5123,
            "count" : 390,
            "type" : "SCALAR"
        }
    ],
    "bufferViews" : [
        {
            "buffer" : 0,
            "byteLength" : 1872,
            "byteOffset" : 0
        },
        {
            "buffer" : 0,
            "byteLength" : 1872,
            "byteOffset" : 1872
        },
        {
            "buffer" : 0,
            "byteLength" : 1248,
            "byteOffset" : 3744
        },
        {
            "buffer" : 0,
            "byteLength" : 492,
            "byteOffset" : 4992
        },
        {
            "buffer" : 0,
            "byteLength" : 3410,
            "byteOffset" : 5484
        },
        {
            "buffer" : 0,
            "byteLength" : 1608,
            "byteOffset" : 8896
        },
        {
            "buffer" : 0,
            "byteLength" : 1608,
            "byteOffset" : 10504
        },
        {
            "buffer" : 0,
            "byteLength" : 1072,
            "byteOffset" : 12112
        },
        {
            "buffer" : 0,
            "byteLength" : 492,
            "byteOffset" : 13184
        },
        {
            "buffer" : 0,
            "byteLength" : 2952,
            "byteOffset" : 13676
        },
        {
            "buffer" : 0,
            "byteLength" : 2952,
            "byteOffset" : 16628
        },
        {
            "buffer" : 0,
            "byteLength" : 1968,
            "byteOffset" : 19580
        },
        {
            "buffer" : 0,
            "byteLength" : 780,
            "byteOffset" : 21548
        }
    ],
    "samplers" : [
        {
            "magFilter" : 9729,
            "minFilter" : 9987
        }
    ],
    "buffers" : [
        {
            "byteLength" : 22328,
            "uri" : "data:application/octet-stream;base64,"
        }
    ]
}
