{
    "asset" : {
        "generator" : "Khronos glTF Blender I/O v1.6.16",
        "version" : "2.0"
    },
    "scene" : 0,
    "scenes" : [
        {
            "name" : "Scene",
            "nodes" : [
                0,
                1
            ]
        }
    ],
    "nodes" : [
        {
            "mesh" : 0,
            "name" : "Trunk4 - copy.002",
            "rotation" : [
                -0.00015568351955153048,
                -0.43212243914604187,
                7.459878543158993e-05,
                0.9018149375915527
            ],
            "scale" : [
                0.2965151071548462,
                0.2965151071548462,
                0.2965151071548462
            ],
            "translation" : [
                -63.01812744140625,
                -0.08429907262325287,
                4.261104583740234
            ]
        },
        {
            "mesh" : 1,
            "name" : "Trunk2 - copy.010",
            "rotation" : [
                0,
                0.41902363300323486,
                0,
                0.9079753160476685
            ],
            "scale" : [
                0.3419997990131378,
                0.3419997990131378,
                0.3419997990131378
            ],
            "translation" : [
                -73.4046859741211,
                -0.09900929033756256,
                0.2336721271276474
            ]
        }
    ],
    "materials" : [
        {
            "doubleSided" : true,
            "name" : "trunk.003",
            "pbrMetallicRoughness" : {
                "baseColorTexture" : {
                    "index" : 0
                },
                "metallicFactor" : 0,
                "roughnessFactor" : 0.800000011920929
            }
        },
        {
            "doubleSided" : true,
            "name" : "trunk.001",
            "pbrMetallicRoughness" : {
                "baseColorTexture" : {
                    "index" : 1
                },
                "metallicFactor" : 0,
                "roughnessFactor" : 0.800000011920929
            }
        }
    ],
    "meshes" : [
        {
            "name" : "Cylinder.011",
            "primitives" : [
                {
                    "attributes" : {
                        "POSITION" : 0,
                        "NORMAL" : 1,
                        "TEXCOORD_0" : 2
                    },
                    "indices" : 3,
                    "material" : 0
                }
            ]
        },
        {
            "name" : "Cylinder.009",
            "primitives" : [
                {
                    "attributes" : {
                        "POSITION" : 4,
                        "NORMAL" : 5,
                        "TEXCOORD_0" : 6
                    },
                    "indices" : 7,
                    "material" : 1
                }
            ]
        }
    ],
    "textures" : [
        {
            "sampler" : 0,
            "source" : 0
        },
        {
            "sampler" : 0,
            "source" : 0
        }
    ],
    "images" : [
        {
            "bufferView" : 4,
            "mimeType" : "image/jpeg",
            "name" : "Trunk_tex_color"
        }
    ],
    "accessors" : [
        {
            "bufferView" : 0,
            "componentType" : 5126,
            "count" : 156,
            "max" : [
                0.8050253391265869,
                1.4097628593444824,
                0.8050253391265869
            ],
            "min" : [
                -0.8050253391265869,
                -0.1258699893951416,
                -0.8050253391265869
            ],
            "type" : "VEC3"
        },
        {
            "bufferView" : 1,
            "componentType" : 5126,
            "count" : 156,
            "type" : "VEC3"
        },
        {
            "bufferView" : 2,
            "componentType" : 5126,
            "count" : 156,
            "type" : "VEC2"
        },
        {
            "bufferView" : 3,
            "componentType" : 5123,
            "count" : 246,
            "type" : "SCALAR"
        },
        {
            "bufferView" : 5,
            "componentType" : 5126,
            "count" : 134,
            "max" : [
                0.8050253391265869,
                1.4841806888580322,
                0.8050253391265869
            ],
            "min" : [
                -0.8050253391265869,
                -0.1258699893951416,
                -0.8050253391265869
            ],
            "type" : "VEC3"
        },
        {
            "bufferView" : 6,
            "componentType" : 5126,
            "count" : 134,
            "type" : "VEC3"
        },
        {
            "bufferView" : 7,
            "componentType" : 5126,
            "count" : 134,
            "type" : "VEC2"
        },
        {
            "bufferView" : 8,
            "componentType" : 5123,
            "count" : 246,
            "type" : "SCALAR"
        }
    ],
    "bufferViews" : [
        {
            "buffer" : 0,
            "byteLength" : 1872,
            "byteOffset" : 0
        },
        {
            "buffer" : 0,
            "byteLength" : 1872,
            "byteOffset" : 1872
        },
        {
            "buffer" : 0,
            "byteLength" : 1248,
            "byteOffset" : 3744
        },
        {
            "buffer" : 0,
            "byteLength" : 492,
            "byteOffset" : 4992
        },
        {
            "buffer" : 0,
            "byteLength" : 3410,
            "byteOffset" : 5484
        },
        {
            "buffer" : 0,
            "byteLength" : 1608,
            "byteOffset" : 8896
        },
        {
            "buffer" : 0,
            "byteLength" : 1608,
            "byteOffset" : 10504
        },
        {
            "buffer" : 0,
            "byteLength" : 1072,
            "byteOffset" : 12112
        },
        {
            "buffer" : 0,
            "byteLength" : 492,
            "byteOffset" : 13184
        }
    ],
    "samplers" : [
        {
            "magFilter" : 9729,
            "minFilter" : 9987
        }
    ],
    "buffers" : [
        {
            "byteLength" : 13676,
            "uri" : "data:application/octet-stream;base64,"
        }
    ]
}
