{
    "asset" : {
        "generator" : "Khronos glTF Blender I/O v1.6.16",
        "version" : "2.0"
    },
    "scene" : 0,
    "scenes" : [
        {
            "name" : "Scene",
            "nodes" : [
                0,
                1,
                2,
                3
            ]
        }
    ],
    "nodes" : [
        {
            "mesh" : 0,
            "name" : "Trunk2 - copy.014",
            "rotation" : [
                0,
                -0.6415596604347229,
                0,
                0.7670731544494629
            ],
            "scale" : [
                0.3440389931201935,
                0.3440389931201935,
                0.3440389931201935
            ],
            "translation" : [
                -57.65544128417969,
                3.2293362617492676,
                44.52599334716797
            ]
        },
        {
            "mesh" : 0,
            "name" : "Trunk2 - copy.015",
            "rotation" : [
                0,
                -0.9691850543022156,
                0,
                0.2463337481021881
            ],
            "scale" : [
                0.32033494114875793,
                0.3203349709510803,
                0.32033494114875793
            ],
            "translation" : [
                -49.532569885253906,
                5.391138553619385,
                57.36787414550781
            ]
        },
        {
            "mesh" : 0,
            "name" : "Trunk2 - copy.018",
            "rotation" : [
                0,
                0.3057791590690613,
                0,
                0.9521024823188782
            ],
            "scale" : [
                0.3070589005947113,
                0.3070589005947113,
                0.3070589005947113
            ],
            "translation" : [
                -48.771034240722656,
                2.3003954887390137,
                40.8200798034668
            ]
        },
        {
            "mesh" : 1,
            "name" : "Trunk3 - copy.010",
            "rotation" : [
                0,
                -0.379720002412796,
                0,
                0.9251014590263367
            ],
            "scale" : [
                0.30795392394065857,
                0.30795395374298096,
                0.30795392394065857
            ],
            "translation" : [
                -47.02446365356445,
                5.475209712982178,
                58.01465606689453
            ]
        }
    ],
    "materials" : [
        {
            "doubleSided" : true,
            "name" : "trunk.001",
            "pbrMetallicRoughness" : {
                "baseColorTexture" : {
                    "index" : 0
                },
                "metallicFactor" : 0,
                "roughnessFactor" : 0.800000011920929
            }
        },
        {
            "doubleSided" : true,
            "name" : "trunk.002",
            "pbrMetallicRoughness" : {
                "baseColorTexture" : {
                    "index" : 1
                },
                "metallicFactor" : 0,
                "roughnessFactor" : 0.800000011920929
            }
        }
    ],
    "meshes" : [
        {
            "name" : "Cylinder.009",
            "primitives" : [
                {
                    "attributes" : {
                        "POSITION" : 0,
                        "NORMAL" : 1,
                        "TEXCOORD_0" : 2
                    },
                    "indices" : 3,
                    "material" : 0
                }
            ]
        },
        {
            "name" : "Cylinder.010",
            "primitives" : [
                {
                    "attributes" : {
                        "POSITION" : 4,
                        "NORMAL" : 5,
                        "TEXCOORD_0" : 6
                    },
                    "indices" : 7,
                    "material" : 1
                }
            ]
        }
    ],
    "textures" : [
        {
            "sampler" : 0,
            "source" : 0
        },
        {
            "sampler" : 0,
            "source" : 0
        }
    ],
    "images" : [
        {
            "bufferView" : 4,
            "mimeType" : "image/jpeg",
            "name" : "Trunk_tex_color"
        }
    ],
    "accessors" : [
        {
            "bufferView" : 0,
            "componentType" : 5126,
            "count" : 134,
            "max" : [
                0.8050253391265869,
                1.4841806888580322,
                0.8050253391265869
            ],
            "min" : [
                -0.8050253391265869,
                -0.1258699893951416,
                -0.8050253391265869
            ],
            "type" : "VEC3"
        },
        {
            "bufferView" : 1,
            "componentType" : 5126,
            "count" : 134,
            "type" : "VEC3"
        },
        {
            "bufferView" : 2,
            "componentType" : 5126,
            "count" : 134,
            "type" : "VEC2"
        },
        {
            "bufferView" : 3,
            "componentType" : 5123,
            "count" : 246,
            "type" : "SCALAR"
        },
        {
            "bufferView" : 5,
            "componentType" : 5126,
            "count" : 246,
            "max" : [
                0.6597827672958374,
                2.388444423675537,
                0.8050253391265869
            ],
            "min" : [
                -1.0601943731307983,
                -0.1258699893951416,
                -0.8050253391265869
            ],
            "type" : "VEC3"
        },
        {
            "bufferView" : 6,
            "componentType" : 5126,
            "count" : 246,
            "type" : "VEC3"
        },
        {
            "bufferView" : 7,
            "componentType" : 5126,
            "count" : 246,
            "type" : "VEC2"
        },
        {
            "bufferView" : 8,
            "componentType" : 5123,
            "count" : 390,
            "type" : "SCALAR"
        }
    ],
    "bufferViews" : [
        {
            "buffer" : 0,
            "byteLength" : 1608,
            "byteOffset" : 0
        },
        {
            "buffer" : 0,
            "byteLength" : 1608,
            "byteOffset" : 1608
        },
        {
            "buffer" : 0,
            "byteLength" : 1072,
            "byteOffset" : 3216
        },
        {
            "buffer" : 0,
            "byteLength" : 492,
            "byteOffset" : 4288
        },
        {
            "buffer" : 0,
            "byteLength" : 3410,
            "byteOffset" : 4780
        },
        {
            "buffer" : 0,
            "byteLength" : 2952,
            "byteOffset" : 8192
        },
        {
            "buffer" : 0,
            "byteLength" : 2952,
            "byteOffset" : 11144
        },
        {
            "buffer" : 0,
            "byteLength" : 1968,
            "byteOffset" : 14096
        },
        {
            "buffer" : 0,
            "byteLength" : 780,
            "byteOffset" : 16064
        }
    ],
    "samplers" : [
        {
            "magFilter" : 9729,
            "minFilter" : 9987
        }
    ],
    "buffers" : [
        {
            "byteLength" : 16844,
            "uri" : "data:application/octet-stream;base64,"
        }
    ]
}
