{
    "asset" : {
        "generator" : "Khronos glTF Blender I/O v1.6.16",
        "version" : "2.0"
    },
    "scene" : 0,
    "scenes" : [
        {
            "name" : "Scene",
            "nodes" : [
                0,
                1,
                2,
                3,
                4
            ]
        }
    ],
    "nodes" : [
        {
            "mesh" : 0,
            "name" : "Trunk4 - copy.004",
            "rotation" : [
                0,
                0.9408609867095947,
                0,
                0.3387928605079651
            ],
            "scale" : [
                0.2819494903087616,
                0.281949520111084,
                0.2819494903087616
            ],
            "translation" : [
                -30.165836334228516,
                5.22184944152832,
                61.518585205078125
            ]
        },
        {
            "mesh" : 0,
            "name" : "Trunk4 - copy.008",
            "rotation" : [
                0,
                -0.7774544358253479,
                0,
                0.6289392709732056
            ],
            "scale" : [
                0.2789011299610138,
                0.2789011299610138,
                0.2789011299610138
            ],
            "translation" : [
                -36.796730041503906,
                5.804821014404297,
                64.63666534423828
            ]
        },
        {
            "mesh" : 1,
            "name" : "Trunk1 - copy.001",
            "rotation" : [
                0,
                -0.5927015542984009,
                0,
                0.8054221272468567
            ],
            "scale" : [
                0.33672624826431274,
                0.33672627806663513,
                0.33672624826431274
            ],
            "translation" : [
                -19.340373992919922,
                2.138148784637451,
                67.35319519042969
            ]
        },
        {
            "mesh" : 1,
            "name" : "Trunk1 - copy.003",
            "rotation" : [
                0,
                -0.3496566712856293,
                0,
                0.9368779063224792
            ],
            "scale" : [
                0.3208673894405365,
                0.3208673596382141,
                0.3208673894405365
            ],
            "translation" : [
                -17.656009674072266,
                -0.15547645092010498,
                54.23162078857422
            ]
        },
        {
            "mesh" : 2,
            "name" : "Trunk3 - copy.013",
            "rotation" : [
                0,
                0.4426802098751068,
                0,
                0.8966795802116394
            ],
            "scale" : [
                0.3215227723121643,
                0.3215227723121643,
                0.3215227723121643
            ],
            "translation" : [
                -37.60661697387695,
                5.213777542114258,
                57.720340728759766
            ]
        }
    ],
    "materials" : [
        {
            "doubleSided" : true,
            "name" : "trunk.003",
            "pbrMetallicRoughness" : {
                "baseColorTexture" : {
                    "index" : 0
                },
                "metallicFactor" : 0,
                "roughnessFactor" : 0.800000011920929
            }
        },
        {
            "doubleSided" : true,
            "name" : "trunk",
            "pbrMetallicRoughness" : {
                "baseColorTexture" : {
                    "index" : 1
                },
                "metallicFactor" : 0,
                "roughnessFactor" : 0.800000011920929
            }
        },
        {
            "doubleSided" : true,
            "name" : "trunk.002",
            "pbrMetallicRoughness" : {
                "baseColorTexture" : {
                    "index" : 2
                },
                "metallicFactor" : 0,
                "roughnessFactor" : 0.800000011920929
            }
        }
    ],
    "meshes" : [
        {
            "name" : "Cylinder.011",
            "primitives" : [
                {
                    "attributes" : {
                        "POSITION" : 0,
                        "NORMAL" : 1,
                        "TEXCOORD_0" : 2
                    },
                    "indices" : 3,
                    "material" : 0
                }
            ]
        },
        {
            "name" : "Cylinder.008",
            "primitives" : [
                {
                    "attributes" : {
                        "POSITION" : 4,
                        "NORMAL" : 5,
                        "TEXCOORD_0" : 6
                    },
                    "indices" : 7,
                    "material" : 1
                }
            ]
        },
        {
            "name" : "Cylinder.010",
            "primitives" : [
                {
                    "attributes" : {
                        "POSITION" : 8,
                        "NORMAL" : 9,
                        "TEXCOORD_0" : 10
                    },
                    "indices" : 11,
                    "material" : 2
                }
            ]
        }
    ],
    "textures" : [
        {
            "sampler" : 0,
            "source" : 0
        },
        {
            "sampler" : 0,
            "source" : 0
        },
        {
            "sampler" : 0,
            "source" : 0
        }
    ],
    "images" : [
        {
            "bufferView" : 4,
            "mimeType" : "image/jpeg",
            "name" : "Trunk_tex_color"
        }
    ],
    "accessors" : [
        {
            "bufferView" : 0,
            "componentType" : 5126,
            "count" : 156,
            "max" : [
                0.8050253391265869,
                1.4097628593444824,
                0.8050253391265869
            ],
            "min" : [
                -0.8050253391265869,
                -0.1258699893951416,
                -0.8050253391265869
            ],
            "type" : "VEC3"
        },
        {
            "bufferView" : 1,
            "componentType" : 5126,
            "count" : 156,
            "type" : "VEC3"
        },
        {
            "bufferView" : 2,
            "componentType" : 5126,
            "count" : 156,
            "type" : "VEC2"
        },
        {
            "bufferView" : 3,
            "componentType" : 5123,
            "count" : 246,
            "type" : "SCALAR"
        },
        {
            "bufferView" : 5,
            "componentType" : 5126,
            "count" : 152,
            "max" : [
                0.8050253391265869,
                1.2893452644348145,
                0.8050253391265869
            ],
            "min" : [
                -0.8050253391265869,
                -0.1258699893951416,
                -0.8050253391265869
            ],
            "type" : "VEC3"
        },
        {
            "bufferView" : 6,
            "componentType" : 5126,
            "count" : 152,
            "type" : "VEC3"
        },
        {
            "bufferView" : 7,
            "componentType" : 5126,
            "count" : 152,
            "type" : "VEC2"
        },
        {
            "bufferView" : 8,
            "componentType" : 5123,
            "count" : 246,
            "type" : "SCALAR"
        },
        {
            "bufferView" : 9,
            "componentType" : 5126,
            "count" : 246,
            "max" : [
                0.6597827672958374,
                2.388444423675537,
                0.8050253391265869
            ],
            "min" : [
                -1.0601943731307983,
                -0.1258699893951416,
                -0.8050253391265869
            ],
            "type" : "VEC3"
        },
        {
            "bufferView" : 10,
            "componentType" : 5126,
            "count" : 246,
            "type" : "VEC3"
        },
        {
            "bufferView" : 11,
            "componentType" : 5126,
            "count" : 246,
            "type" : "VEC2"
        },
        {
            "bufferView" : 12,
            "componentType" : 5123,
            "count" : 390,
            "type" : "SCALAR"
        }
    ],
    "bufferViews" : [
        {
            "buffer" : 0,
            "byteLength" : 1872,
            "byteOffset" : 0
        },
        {
            "buffer" : 0,
            "byteLength" : 1872,
            "byteOffset" : 1872
        },
        {
            "buffer" : 0,
            "byteLength" : 1248,
            "byteOffset" : 3744
        },
        {
            "buffer" : 0,
            "byteLength" : 492,
            "byteOffset" : 4992
        },
        {
            "buffer" : 0,
            "byteLength" : 3410,
            "byteOffset" : 5484
        },
        {
            "buffer" : 0,
            "byteLength" : 1824,
            "byteOffset" : 8896
        },
        {
            "buffer" : 0,
            "byteLength" : 1824,
            "byteOffset" : 10720
        },
        {
            "buffer" : 0,
            "byteLength" : 1216,
            "byteOffset" : 12544
        },
        {
            "buffer" : 0,
            "byteLength" : 492,
            "byteOffset" : 13760
        },
        {
            "buffer" : 0,
            "byteLength" : 2952,
            "byteOffset" : 14252
        },
        {
            "buffer" : 0,
            "byteLength" : 2952,
            "byteOffset" : 17204
        },
        {
            "buffer" : 0,
            "byteLength" : 1968,
            "byteOffset" : 20156
        },
        {
            "buffer" : 0,
            "byteLength" : 780,
            "byteOffset" : 22124
        }
    ],
    "samplers" : [
        {
            "magFilter" : 9729,
            "minFilter" : 9987
        }
    ],
    "buffers" : [
        {
            "byteLength" : 22904,
            "uri" : "data:application/octet-stream;base64,"
        }
    ]
}
